<svg width="140" height="30" viewBox="0 0 140 30" fill="none" xmlns="http://www.w3.org/2000/svg">
<rect x="0.5" y="0.5" width="139" height="29" rx="4.5" fill="black"/>
<rect x="0.5" y="0.5" width="139" height="29" rx="4.5" stroke="#D4D4D4"/>
<path d="M21.1427 17.224C20.6467 19.8 18.7107 21.208 16.1347 21.208C12.7747 21.208 10.8227 18.744 10.8227 15.176C10.8227 11.544 12.9187 9.192 16.2467 9.192C18.7267 9.192 20.6147 10.632 21.0947 13.176H19.3347C18.9827 11.672 17.8627 10.712 16.1667 10.712C14.2147 10.712 12.6947 12.264 12.6947 15.176C12.6947 18.04 14.1667 19.688 16.1827 19.688C17.8947 19.688 19.0307 18.76 19.3827 17.224H21.1427ZM27.9201 21.208C24.5441 21.208 22.4321 18.728 22.4321 15.192C22.4321 11.656 24.5441 9.192 27.9201 9.192C31.2801 9.192 33.3921 11.656 33.3921 15.192C33.3921 18.728 31.2801 21.208 27.9201 21.208ZM27.9201 19.688C29.9361 19.688 31.5201 18.104 31.5201 15.192C31.5201 12.28 29.9361 10.712 27.9201 10.712C25.8881 10.712 24.3041 12.28 24.3041 15.192C24.3041 18.104 25.8881 19.688 27.9201 19.688ZM42.3561 21L37.2361 11.4V21H35.4441V9.4H37.9881L43.1081 18.984V9.4H44.9001V21H42.3561ZM49.9397 10.952H46.2117V9.4H55.4757V10.952H51.7637V21H49.9397V10.952ZM58.6556 9.4H60.6716L65.0396 21H63.0556L62.1436 18.456H57.1036L56.2076 21H54.3516L58.6556 9.4ZM57.6476 16.92H61.5836L59.5996 11.384L57.6476 16.92ZM75.7052 17.224C75.2092 19.8 73.2732 21.208 70.6972 21.208C67.3372 21.208 65.3852 18.744 65.3852 15.176C65.3852 11.544 67.4812 9.192 70.8092 9.192C73.2892 9.192 75.1772 10.632 75.6572 13.176H73.8972C73.5452 11.672 72.4252 10.712 70.7292 10.712C68.7772 10.712 67.2572 12.264 67.2572 15.176C67.2572 18.04 68.7292 19.688 70.7452 19.688C72.4572 19.688 73.5932 18.76 73.9452 17.224H75.7052ZM79.7522 10.952H76.0242V9.4H85.2882V10.952H81.5762V21H79.7522V10.952ZM91.9983 9.4V16.36C91.9983 18.552 92.6863 19.672 94.8623 19.672C97.0383 19.672 97.7423 18.44 97.7423 16.232V9.4H99.5663V16.136C99.5663 19.656 98.2383 21.208 94.8623 21.208C91.5823 21.208 90.1743 19.896 90.1743 16.232V9.4H91.9983ZM104.728 15.624C103.08 15.288 101.512 14.36 101.512 12.408C101.512 10.216 103.8 9.192 105.752 9.192C107.88 9.192 109.72 10.168 110.168 12.504H108.408C108.04 11.128 106.776 10.712 105.672 10.712C104.824 10.712 103.368 11.112 103.368 12.328C103.368 13.288 104.136 13.784 105.128 13.992L106.504 14.28C108.36 14.664 110.392 15.368 110.392 17.704C110.392 20.008 108.184 21.208 105.928 21.208C103.24 21.208 101.432 19.72 101.16 17.288H102.952C103.288 18.872 104.36 19.688 105.992 19.688C107.496 19.688 108.552 18.968 108.552 17.848C108.552 16.648 107.4 16.168 106.152 15.912L104.728 15.624Z" fill="#D4D4D4"/>
<path d="M120.082 11.4997H125.674L118.049 19.1244L118.874 19.9493L126.499 12.3245V17.9163H127.666V10.333H120.082V11.4997Z" fill="#D4D4D4"/>
</svg>
