<svg width="155" height="30" viewBox="0 0 155 30" fill="none" xmlns="http://www.w3.org/2000/svg">
<rect x="0.5" width="154" height="30" rx="5" fill="#D4D4D4"/>
<path d="M15.0488 15.624C13.4008 15.288 11.8328 14.36 11.8328 12.408C11.8328 10.216 14.1208 9.192 16.0728 9.192C18.2008 9.192 20.0408 10.168 20.4888 12.504H18.7288C18.3608 11.128 17.0968 10.712 15.9928 10.712C15.1448 10.712 13.6888 11.112 13.6888 12.328C13.6888 13.288 14.4568 13.784 15.4488 13.992L16.8248 14.28C18.6808 14.664 20.7128 15.368 20.7128 17.704C20.7128 20.008 18.5048 21.208 16.2488 21.208C13.5608 21.208 11.7528 19.72 11.4808 17.288H13.2728C13.6088 18.872 14.6808 19.688 16.3128 19.688C17.8168 19.688 18.8728 18.968 18.8728 17.848C18.8728 16.648 17.7208 16.168 16.4728 15.912L15.0488 15.624ZM22.5456 9.4H30.5776V10.952H24.3696V14.264H30.2256V15.8H24.3696V19.448H30.5776V21H22.5456V9.4ZM39.2858 21L34.1658 11.4V21H32.3738V9.4H34.9178L40.0378 18.984V9.4H41.8298V21H39.2858ZM47.5574 9.4C51.2374 9.4 53.9574 10.728 53.9574 15.192C53.9574 19.672 51.2374 21 47.5574 21H44.3894V9.4H47.5574ZM47.4774 10.904H46.2134V19.496H47.4774C49.7974 19.496 52.0694 19.016 52.0694 15.192C52.0694 11.384 49.7974 10.904 47.4774 10.904ZM64.3091 16.104C64.0691 16.12 63.8131 16.12 63.5571 16.12H61.5571V21H59.7331V9.4H63.4131C66.5331 9.4 68.4051 10.056 68.4051 12.744C68.4051 14.408 67.6051 15.352 66.1651 15.8L68.8371 21H66.7891L64.3091 16.104ZM61.5571 10.904V14.632H63.6531C65.3651 14.632 66.5331 14.376 66.5331 12.776C66.5331 11.112 65.2691 10.904 63.6211 10.904H61.5571ZM70.5925 9.4H78.6245V10.952H72.4165V14.264H78.2725V15.8H72.4165V19.448H78.6245V21H70.5925V9.4ZM83.2206 15.624C81.5726 15.288 80.0046 14.36 80.0046 12.408C80.0046 10.216 82.2926 9.192 84.2446 9.192C86.3726 9.192 88.2126 10.168 88.6606 12.504H86.9006C86.5326 11.128 85.2686 10.712 84.1646 10.712C83.3166 10.712 81.8606 11.112 81.8606 12.328C81.8606 13.288 82.6286 13.784 83.6206 13.992L84.9966 14.28C86.8526 14.664 88.8846 15.368 88.8846 17.704C88.8846 20.008 86.6766 21.208 84.4206 21.208C81.7326 21.208 79.9246 19.72 79.6526 17.288H81.4446C81.7806 18.872 82.8526 19.688 84.4846 19.688C85.9886 19.688 87.0446 18.968 87.0446 17.848C87.0446 16.648 85.8926 16.168 84.6446 15.912L83.2206 15.624ZM92.3655 9.4V16.36C92.3655 18.552 93.0535 19.672 95.2295 19.672C97.4055 19.672 98.1095 18.44 98.1095 16.232V9.4H99.9335V16.136C99.9335 19.656 98.6055 21.208 95.2295 21.208C91.9495 21.208 90.5415 19.896 90.5415 16.232V9.4H92.3655ZM107.176 21L104.088 11.24V21H102.296V9.4H105.224L108.12 18.872L111.016 9.4H113.944V21H112.152V11.24L109.064 21H107.176ZM116.483 9.4H124.515V10.952H118.307V14.264H124.163V15.8H118.307V19.448H124.515V21H116.483V9.4Z" fill="black"/>
<path d="M134.582 11.4997H140.174L132.549 19.1244L133.374 19.9493L140.999 12.3245V17.9163H142.166V10.333H134.582V11.4997Z" fill="black"/>
</svg>
