<svg width="68" height="30" viewBox="0 0 68 30" fill="none" xmlns="http://www.w3.org/2000/svg">
<rect x="0.5" y="0.5" width="67" height="29" rx="4.5" stroke="black"/>
<path d="M16.8575 15.492C16.5875 15.51 16.2995 15.51 16.0115 15.51H13.7615V21H11.7095V7.95H15.8495C19.3595 7.95 21.4655 8.688 21.4655 11.712C21.4655 13.584 20.5655 14.646 18.9455 15.15L21.9515 21H19.6475L16.8575 15.492ZM13.7615 9.642V13.836H16.1195C18.0455 13.836 19.3595 13.548 19.3595 11.748C19.3595 9.876 17.9375 9.642 16.0835 9.642H13.7615ZM30.2121 18.156H32.1021C31.6521 19.758 30.2121 21.234 27.7461 21.234C24.6141 21.234 22.9221 18.948 22.9221 16.14C22.9221 13.134 24.9381 11.136 27.6921 11.136C30.6801 11.136 32.4261 13.584 32.2281 16.734H24.8481C25.0281 18.516 26.1621 19.632 27.6741 19.632C29.0241 19.632 29.8161 19.074 30.2121 18.156ZM24.8841 15.258H30.2841C30.2301 13.818 29.2221 12.666 27.6741 12.666C26.2161 12.666 25.1361 13.422 24.8841 15.258ZM34.4427 8.832H36.3147V11.316H38.2227V12.738H36.3147V18.264C36.3147 19.254 36.4767 19.506 37.4127 19.506H38.2047V21H36.8367C34.8747 21 34.4427 20.514 34.4427 18.516V12.738H32.9667V11.316H34.4427V8.832ZM39.4653 18.39C39.4653 16.032 42.2373 15.402 45.9993 15.006V14.808C45.9993 13.098 45.0993 12.522 43.9113 12.522C42.6153 12.522 41.8773 13.188 41.8053 14.376H39.9153C40.0773 12.324 41.7693 11.082 43.9833 11.082C46.4853 11.082 47.9253 12.288 47.8893 15.186C47.8893 15.42 47.8533 17.094 47.8533 17.508C47.8533 18.948 47.9433 20.136 48.1233 21H46.3233C46.2513 20.622 46.1973 20.334 46.1613 19.722C45.5853 20.694 44.4873 21.234 42.9213 21.234C40.9593 21.234 39.4653 20.154 39.4653 18.39ZM46.0893 16.392C43.0833 16.68 41.4993 17.094 41.4993 18.354C41.4993 19.236 42.2013 19.794 43.3353 19.794C44.8833 19.794 46.0893 19.02 46.0893 17.094V16.392ZM52.0734 7.95V10.02H50.2014V7.95H52.0734ZM52.0734 11.316V21H50.2014V11.316H52.0734ZM56.4679 21H54.5959V7.95H56.4679V21Z" fill="black"/>
</svg>
