<svg width="123" height="30" viewBox="0 0 123 30" fill="none" xmlns="http://www.w3.org/2000/svg">
<g clip-path="url(#clip0_4_155)">
<mask id="mask0_4_155" style="mask-type:luminance" maskUnits="userSpaceOnUse" x="0" y="0" width="123" height="30">
<path d="M123 0H0V30H123V0Z" fill="white"/>
</mask>
<g mask="url(#mask0_4_155)">
<path d="M118 0.5H5C2.51472 0.5 0.5 2.51472 0.5 5V25C0.5 27.4853 2.51472 29.5 5 29.5H118C120.485 29.5 122.5 27.4853 122.5 25V5C122.5 2.51472 120.485 0.5 118 0.5Z" stroke="black"/>
<path d="M14.8469 7.94995H17.1149L22.0289 21H19.7969L18.7709 18.138H13.1009L12.0929 21H10.0049L14.8469 7.94995ZM13.7129 16.41H18.1409L15.9089 10.182L13.7129 16.41ZM28.3283 13.242C27.9863 13.206 27.6623 13.188 27.3563 13.188C25.9163 13.188 25.1603 13.89 25.1603 15.924V21H23.2883V11.316H25.1243V13.026C25.6283 11.928 26.6003 11.298 27.8063 11.28C27.9683 11.28 28.1663 11.28 28.3283 11.298V13.242ZM37.842 14.592H35.97C35.772 13.494 34.782 12.738 33.558 12.738C32.208 12.738 30.966 13.8 30.966 16.158C30.966 18.552 32.226 19.632 33.558 19.632C34.746 19.632 35.79 18.93 36.042 17.778H37.932C37.554 19.812 35.664 21.234 33.522 21.234C30.732 21.234 28.968 19.092 28.968 16.176C28.968 13.296 30.786 11.136 33.648 11.136C35.862 11.136 37.554 12.702 37.842 14.592ZM41.5607 12.72C42.1187 11.766 43.0907 11.136 44.6027 11.136C46.9427 11.136 47.8427 12.648 47.8427 14.898V21H45.9707V15.402C45.9707 13.998 45.7367 12.702 43.9727 12.702C42.3527 12.702 41.5607 13.872 41.5607 15.798V21H39.6887V7.94995H41.5607V12.72ZM52.0549 7.94995V10.02H50.1829V7.94995H52.0549ZM52.0549 11.316V21H50.1829V11.316H52.0549ZM54.9554 8.83195H56.8274V11.316H58.7354V12.738H56.8274V18.264C56.8274 19.254 56.9894 19.506 57.9254 19.506H58.7174V21H57.3494C55.3874 21 54.9554 20.514 54.9554 18.516V12.738H53.4794V11.316H54.9554V8.83195ZM67.0901 18.156H68.9801C68.5301 19.758 67.0901 21.234 64.6241 21.234C61.4921 21.234 59.8001 18.948 59.8001 16.14C59.8001 13.134 61.8161 11.136 64.5701 11.136C67.5581 11.136 69.3041 13.584 69.1061 16.734H61.7261C61.9061 18.516 63.0401 19.632 64.5521 19.632C65.9021 19.632 66.6941 19.074 67.0901 18.156ZM61.7621 15.258H67.1621C67.1081 13.818 66.1001 12.666 64.5521 12.666C63.0941 12.666 62.0141 13.422 61.7621 15.258ZM79.2385 14.592H77.3665C77.1685 13.494 76.1785 12.738 74.9545 12.738C73.6045 12.738 72.3625 13.8 72.3625 16.158C72.3625 18.552 73.6225 19.632 74.9545 19.632C76.1425 19.632 77.1865 18.93 77.4385 17.778H79.3285C78.9505 19.812 77.0605 21.234 74.9185 21.234C72.1285 21.234 70.3645 19.092 70.3645 16.176C70.3645 13.296 72.1825 11.136 75.0445 11.136C77.2585 11.136 78.9505 12.702 79.2385 14.592ZM81.4632 8.83195H83.3352V11.316H85.2432V12.738H83.3352V18.264C83.3352 19.254 83.4972 19.506 84.4332 19.506H85.2252V21H83.8572C81.8952 21 81.4632 20.514 81.4632 18.516V12.738H79.9872V11.316H81.4632V8.83195ZM93.0378 19.632C92.4798 20.604 91.5438 21.234 90.0858 21.234C87.7998 21.234 86.9178 19.812 86.9178 17.472V11.316H88.7898V16.968C88.7898 18.372 89.0238 19.65 90.7158 19.65C92.2818 19.65 93.0558 18.48 93.0558 16.572V11.316H94.9278V21H93.0378V19.632ZM102.473 13.242C102.131 13.206 101.807 13.188 101.501 13.188C100.061 13.188 99.3049 13.89 99.3049 15.924V21H97.4329V11.316H99.2689V13.026C99.7729 11.928 100.745 11.298 101.951 11.28C102.113 11.28 102.311 11.28 102.473 11.298V13.242ZM110.403 18.156H112.293C111.843 19.758 110.403 21.234 107.937 21.234C104.805 21.234 103.113 18.948 103.113 16.14C103.113 13.134 105.129 11.136 107.883 11.136C110.871 11.136 112.617 13.584 112.419 16.734H105.039C105.219 18.516 106.353 19.632 107.865 19.632C109.215 19.632 110.007 19.074 110.403 18.156ZM105.075 15.258H110.475C110.421 13.818 109.413 12.666 107.865 12.666C106.407 12.666 105.327 13.422 105.075 15.258Z" fill="black"/>
<path d="M14.8473 7.95V7.75H14.7082L14.6598 7.88043L14.8473 7.95ZM17.1153 7.95L17.3025 7.87952L17.2537 7.75H17.1153V7.95ZM22.0293 21V21.2H22.3183L22.2165 20.9295L22.0293 21ZM19.7973 21L19.609 21.0675L19.6565 21.2H19.7973V21ZM18.7713 18.138L18.9596 18.0705L18.912 17.938H18.7713V18.138ZM13.1013 18.138V17.938H12.9597L12.9126 18.0716L13.1013 18.138ZM12.0933 21V21.2H12.2349L12.2819 21.0664L12.0933 21ZM10.0053 21L9.81779 20.9304L9.71777 21.2H10.0053V21ZM13.7133 16.41L13.5247 16.3435L13.4307 16.61H13.7133V16.41ZM18.1413 16.41V16.61H18.4254L18.3296 16.3425L18.1413 16.41ZM15.9093 10.182L16.0976 10.1145L15.9078 9.5849L15.7207 10.1155L15.9093 10.182ZM14.8473 8.15H17.1153V7.75H14.8473V8.15ZM16.9281 8.02048L21.8421 21.0705L22.2165 20.9295L17.3025 7.87952L16.9281 8.02048ZM22.0293 20.8H19.7973V21.2H22.0293V20.8ZM19.9856 20.9325L18.9596 18.0705L18.583 18.2055L19.609 21.0675L19.9856 20.9325ZM18.7713 17.938H13.1013V18.338H18.7713V17.938ZM12.9126 18.0716L11.9046 20.9336L12.2819 21.0664L13.2899 18.2044L12.9126 18.0716ZM12.0933 20.8H10.0053V21.2H12.0933V20.8ZM10.1928 21.0696L15.0348 8.01957L14.6598 7.88043L9.81779 20.9304L10.1928 21.0696ZM13.7133 16.61H18.1413V16.21H13.7133V16.61ZM18.3296 16.3425L16.0976 10.1145L15.721 10.2495L17.953 16.4775L18.3296 16.3425ZM15.7207 10.1155L13.5247 16.3435L13.9019 16.4765L16.0979 10.2485L15.7207 10.1155ZM28.3287 13.242L28.3078 13.4409L28.5287 13.4642V13.242H28.3287ZM25.1607 21V21.2H25.3607V21H25.1607ZM23.2887 21H23.0887V21.2H23.2887V21ZM23.2887 11.316V11.116H23.0887V11.316H23.2887ZM25.1247 11.316H25.3247V11.116H25.1247V11.316ZM25.1247 13.026H24.9247L25.3065 13.1094L25.1247 13.026ZM27.8067 11.28V11.08H27.8037L27.8067 11.28ZM28.3287 11.298H28.5287V11.119L28.3508 11.0992L28.3287 11.298ZM28.3497 13.0431C28.0015 13.0065 27.6705 12.988 27.3567 12.988V13.388C27.6549 13.388 27.9719 13.4055 28.3078 13.4409L28.3497 13.0431ZM27.3567 12.988C26.6066 12.988 25.9891 13.1713 25.567 13.663C25.1515 14.1469 24.9607 14.8898 24.9607 15.924H25.3607C25.3607 14.9242 25.548 14.2991 25.8705 13.9235C26.1863 13.5557 26.6669 13.388 27.3567 13.388V12.988ZM24.9607 15.924V21H25.3607V15.924H24.9607ZM25.1607 20.8H23.2887V21.2H25.1607V20.8ZM23.4887 21V11.316H23.0887V21H23.4887ZM23.2887 11.516H25.1247V11.116H23.2887V11.516ZM24.9247 11.316V13.026H25.3247V11.316H24.9247ZM25.3065 13.1094C25.7782 12.0818 26.6804 11.4968 27.8097 11.48L27.8037 11.08C26.521 11.0992 25.4793 11.7742 24.943 12.9426L25.3065 13.1094ZM27.8067 11.48C27.9717 11.48 28.1578 11.4802 28.3066 11.4968L28.3508 11.0992C28.1756 11.0798 27.9658 11.08 27.8067 11.08V11.48ZM28.1287 11.298V13.242H28.5287V11.298H28.1287ZM37.8424 14.592V14.792H38.0752L38.0401 14.5619L37.8424 14.592ZM35.9704 14.592L35.7736 14.6275L35.8033 14.792H35.9704V14.592ZM36.0424 17.778V17.578H35.8814L35.847 17.7353L36.0424 17.778ZM37.9324 17.778L38.1291 17.8145L38.173 17.578H37.9324V17.778ZM37.8424 14.392H35.9704V14.792H37.8424V14.392ZM36.1672 14.5565C35.9496 13.3493 34.8643 12.538 33.5584 12.538V12.938C34.7005 12.938 35.5953 13.6387 35.7736 14.6275L36.1672 14.5565ZM33.5584 12.538C32.8287 12.538 32.1238 12.8263 31.6042 13.4337C31.0861 14.0394 30.7664 14.9449 30.7664 16.158H31.1664C31.1664 15.0131 31.4677 14.2086 31.9082 13.6938C32.347 13.1807 32.9381 12.938 33.5584 12.938V12.538ZM30.7664 16.158C30.7664 17.3891 31.0906 18.3076 31.6102 18.9219C32.1313 19.5379 32.836 19.832 33.5584 19.832V19.432C32.9488 19.432 32.3576 19.1861 31.9156 18.6636C31.4722 18.1394 31.1664 17.3209 31.1664 16.158H30.7664ZM33.5584 19.832C34.8225 19.832 35.9621 19.081 36.2378 17.8207L35.847 17.7353C35.6187 18.779 34.6703 19.432 33.5584 19.432V19.832ZM36.0424 17.978H37.9324V17.578H36.0424V17.978ZM37.7358 17.7415C37.3775 19.6691 35.5803 21.034 33.5224 21.034V21.434C35.7485 21.434 37.7313 19.9549 38.1291 17.8145L37.7358 17.7415ZM33.5224 21.034C32.1822 21.034 31.0995 20.5213 30.3495 19.6666C29.5973 18.8093 29.1684 17.5945 29.1684 16.176H28.7684C28.7684 17.6735 29.2216 18.9877 30.0488 19.9304C30.8783 20.8757 32.0726 21.434 33.5224 21.434V21.034ZM29.1684 16.176C29.1684 14.7776 29.6095 13.5678 30.3836 12.71C31.1559 11.8543 32.2709 11.336 33.6484 11.336V10.936C32.1639 10.936 30.9389 11.4977 30.0867 12.442C29.2363 13.3842 28.7684 14.6944 28.7684 16.176H29.1684ZM33.6484 11.336C35.7648 11.336 37.3718 12.831 37.6447 14.6221L38.0401 14.5619C37.7371 12.573 35.96 10.936 33.6484 10.936V11.336ZM41.5611 12.72H41.3611V13.4581L41.7337 12.821L41.5611 12.72ZM47.8431 21V21.2H48.0431V21H47.8431ZM45.9711 21H45.7711V21.2H45.9711V21ZM41.5611 21V21.2H41.7611V21H41.5611ZM39.6891 21H39.4891V21.2H39.6891V21ZM39.6891 7.95V7.75H39.4891V7.95H39.6891ZM41.5611 7.95H41.7611V7.75H41.5611V7.95ZM41.7337 12.821C42.2533 11.9327 43.1569 11.336 44.6031 11.336V10.936C43.0253 10.936 41.9849 11.5993 41.3885 12.619L41.7337 12.821ZM44.6031 11.336C45.7267 11.336 46.4721 11.6965 46.9433 12.2967C47.4215 12.906 47.6431 13.7945 47.6431 14.898H48.0431C48.0431 13.7515 47.8147 12.759 47.2579 12.0498C46.6941 11.3315 45.8195 10.936 44.6031 10.936V11.336ZM47.6431 14.898V21H48.0431V14.898H47.6431ZM47.8431 20.8H45.9711V21.2H47.8431V20.8ZM46.1711 21V15.402H45.7711V21H46.1711ZM46.1711 15.402C46.1711 14.6989 46.1148 13.9768 45.8082 13.428C45.652 13.1482 45.4307 12.9131 45.1233 12.7498C44.8177 12.5874 44.4382 12.502 43.9731 12.502V12.902C44.39 12.902 44.7013 12.9786 44.9357 13.1031C45.1682 13.2266 45.3363 13.4033 45.459 13.623C45.7105 14.0732 45.7711 14.7011 45.7711 15.402H46.1711ZM43.9731 12.502C43.1094 12.502 42.4432 12.8172 41.9997 13.4076C41.5631 13.9889 41.3611 14.8121 41.3611 15.798H41.7611C41.7611 14.8579 41.9551 14.1331 42.3195 13.6479C42.6771 13.1718 43.2168 12.902 43.9731 12.902V12.502ZM41.3611 15.798V21H41.7611V15.798H41.3611ZM41.5611 20.8H39.6891V21.2H41.5611V20.8ZM39.8891 21V7.95H39.4891V21H39.8891ZM39.6891 8.15H41.5611V7.75H39.6891V8.15ZM41.3611 7.95V12.72H41.7611V7.95H41.3611ZM52.0553 7.95H52.2553V7.75H52.0553V7.95ZM52.0553 10.02V10.22H52.2553V10.02H52.0553ZM50.1833 10.02H49.9833V10.22H50.1833V10.02ZM50.1833 7.95V7.75H49.9833V7.95H50.1833ZM52.0553 11.316H52.2553V11.116H52.0553V11.316ZM52.0553 21V21.2H52.2553V21H52.0553ZM50.1833 21H49.9833V21.2H50.1833V21ZM50.1833 11.316V11.116H49.9833V11.316H50.1833ZM51.8553 7.95V10.02H52.2553V7.95H51.8553ZM52.0553 9.82H50.1833V10.22H52.0553V9.82ZM50.3833 10.02V7.95H49.9833V10.02H50.3833ZM50.1833 8.15H52.0553V7.75H50.1833V8.15ZM51.8553 11.316V21H52.2553V11.316H51.8553ZM52.0553 20.8H50.1833V21.2H52.0553V20.8ZM50.3833 21V11.316H49.9833V21H50.3833ZM50.1833 11.516H52.0553V11.116H50.1833V11.516ZM54.9558 8.832V8.632H54.7558V8.832H54.9558ZM56.8278 8.832H57.0278V8.632H56.8278V8.832ZM56.8278 11.316H56.6278V11.516H56.8278V11.316ZM58.7358 11.316H58.9358V11.116H58.7358V11.316ZM58.7358 12.738V12.938H58.9358V12.738H58.7358ZM56.8278 12.738V12.538H56.6278V12.738H56.8278ZM58.7178 19.506H58.9178V19.306H58.7178V19.506ZM58.7178 21V21.2H58.9178V21H58.7178ZM54.9558 12.738H55.1558V12.538H54.9558V12.738ZM53.4798 12.738H53.2798V12.938H53.4798V12.738ZM53.4798 11.316V11.116H53.2798V11.316H53.4798ZM54.9558 11.316V11.516H55.1558V11.316H54.9558ZM54.9558 9.032H56.8278V8.632H54.9558V9.032ZM56.6278 8.832V11.316H57.0278V8.832H56.6278ZM56.8278 11.516H58.7358V11.116H56.8278V11.516ZM58.5358 11.316V12.738H58.9358V11.316H58.5358ZM58.7358 12.538H56.8278V12.938H58.7358V12.538ZM56.6278 12.738V18.264H57.0278V12.738H56.6278ZM56.6278 18.264C56.6278 18.5146 56.6378 18.7306 56.671 18.9117C56.7043 19.0938 56.7635 19.2555 56.8729 19.3852C57.0952 19.6487 57.4596 19.706 57.9258 19.706V19.306C57.4559 19.306 57.2714 19.2373 57.1787 19.1273C57.1305 19.0702 57.0908 18.9834 57.0645 18.8397C57.038 18.6952 57.0278 18.5084 57.0278 18.264H56.6278ZM57.9258 19.706H58.7178V19.306H57.9258V19.706ZM58.5178 19.506V21H58.9178V19.506H58.5178ZM58.7178 20.8H57.3498V21.2H58.7178V20.8ZM57.3498 20.8C56.3659 20.8 55.8507 20.6728 55.5619 20.3694C55.2699 20.0625 55.1558 19.5209 55.1558 18.516H54.7558C54.7558 19.5091 54.8576 20.2095 55.2721 20.6451C55.6899 21.0842 56.3717 21.2 57.3498 21.2V20.8ZM55.1558 18.516V12.738H54.7558V18.516H55.1558ZM54.9558 12.538H53.4798V12.938H54.9558V12.538ZM53.6798 12.738V11.316H53.2798V12.738H53.6798ZM53.4798 11.516H54.9558V11.116H53.4798V11.516ZM55.1558 11.316V8.832H54.7558V11.316H55.1558ZM67.0905 18.156V17.956H66.9589L66.9068 18.0768L67.0905 18.156ZM68.9805 18.156L69.173 18.2101L69.2444 17.956H68.9805V18.156ZM69.1065 16.734V16.934H69.2943L69.3061 16.7465L69.1065 16.734ZM61.7265 16.734V16.534H61.5052L61.5275 16.7541L61.7265 16.734ZM61.7625 15.258L61.5643 15.2308L61.5331 15.458H61.7625V15.258ZM67.1625 15.258V15.458H67.3701L67.3623 15.2505L67.1625 15.258ZM67.0905 18.356H68.9805V17.956H67.0905V18.356ZM68.7879 18.1019C68.3605 19.6233 66.995 21.034 64.6245 21.034V21.434C67.1859 21.434 68.7004 19.8927 69.173 18.2101L68.7879 18.1019ZM64.6245 21.034C63.1108 21.034 61.9612 20.4835 61.1879 19.6076C60.4116 18.7285 60.0005 17.5051 60.0005 16.14H59.6005C59.6005 17.5829 60.0353 18.9065 60.888 19.8724C61.7437 20.8415 63.0061 21.434 64.6245 21.434V21.034ZM60.0005 16.14C60.0005 14.6826 60.4884 13.4836 61.2963 12.6499C62.1041 11.8165 63.2433 11.336 64.5705 11.336V10.936C63.1436 10.936 61.8979 11.4545 61.0091 12.3716C60.1205 13.2884 59.6005 14.5914 59.6005 16.14H60.0005ZM64.5705 11.336C66.0048 11.336 67.1294 11.9211 67.8756 12.8768C68.6248 13.8365 69.0034 15.1848 68.9068 16.7215L69.3061 16.7465C69.4075 15.1332 69.0121 13.6825 68.1908 12.6307C67.3665 11.5749 66.1241 10.936 64.5705 10.936V11.336ZM69.1065 16.534H61.7265V16.934H69.1065V16.534ZM61.5275 16.7541C61.6212 17.6824 61.9653 18.4521 62.4976 18.9917C63.0313 19.5327 63.7445 19.832 64.5525 19.832V19.432C63.8484 19.432 63.2386 19.1733 62.7823 18.7108C62.3246 18.2469 62.0117 17.5676 61.9254 16.7139L61.5275 16.7541ZM64.5525 19.832C65.2548 19.832 65.8286 19.6868 66.2835 19.4089C66.7397 19.1302 67.0621 18.7267 67.2741 18.2352L66.9068 18.0768C66.7228 18.5033 66.4512 18.8378 66.075 19.0676C65.6973 19.2982 65.2002 19.432 64.5525 19.432V19.832ZM61.7625 15.458H67.1625V15.058H61.7625V15.458ZM67.3623 15.2505C67.3048 13.7165 66.221 12.466 64.5525 12.466V12.866C65.9799 12.866 66.9121 13.9194 66.9626 15.2655L67.3623 15.2505ZM64.5525 12.466C63.7893 12.466 63.1037 12.6643 62.5744 13.1222C62.0446 13.5806 61.695 14.2783 61.5643 15.2308L61.9606 15.2852C62.0819 14.4017 62.3983 13.8034 62.8361 13.4248C63.2742 13.0457 63.8576 12.866 64.5525 12.866V12.466ZM79.2389 14.592V14.792H79.4717L79.4366 14.5619L79.2389 14.592ZM77.3669 14.592L77.1701 14.6275L77.1997 14.792H77.3669V14.592ZM77.4389 17.778V17.578H77.2779L77.2435 17.7353L77.4389 17.778ZM79.3289 17.778L79.5255 17.8145L79.5695 17.578H79.3289V17.778ZM79.2389 14.392H77.3669V14.792H79.2389V14.392ZM77.5637 14.5565C77.346 13.3493 76.2608 12.538 74.9549 12.538V12.938C76.097 12.938 76.9918 13.6387 77.1701 14.6275L77.5637 14.5565ZM74.9549 12.538C74.2252 12.538 73.5203 12.8263 73.0007 13.4337C72.4826 14.0394 72.1629 14.9449 72.1629 16.158H72.5629C72.5629 15.0131 72.8642 14.2086 73.3046 13.6938C73.7435 13.1807 74.3346 12.938 74.9549 12.938V12.538ZM72.1629 16.158C72.1629 17.3891 72.4871 18.3076 73.0067 18.9219C73.5278 19.5379 74.2325 19.832 74.9549 19.832V19.432C74.3453 19.432 73.7541 19.1861 73.3121 18.6636C72.8687 18.1394 72.5629 17.3209 72.5629 16.158H72.1629ZM74.9549 19.832C76.219 19.832 77.3586 19.081 77.6343 17.8207L77.2435 17.7353C77.0152 18.779 76.0668 19.432 74.9549 19.432V19.832ZM77.4389 17.978H79.3289V17.578H77.4389V17.978ZM79.1323 17.7415C78.774 19.6691 76.9768 21.034 74.9189 21.034V21.434C77.145 21.434 79.1278 19.9549 79.5255 17.8145L79.1323 17.7415ZM74.9189 21.034C73.5787 21.034 72.496 20.5213 71.746 19.6666C70.9938 18.8093 70.5649 17.5945 70.5649 16.176H70.1649C70.1649 17.6735 70.6181 18.9877 71.4453 19.9304C72.2748 20.8757 73.4691 21.434 74.9189 21.434V21.034ZM70.5649 16.176C70.5649 14.7776 71.006 13.5678 71.7801 12.71C72.5524 11.8543 73.6674 11.336 75.0449 11.336V10.936C73.5604 10.936 72.3354 11.4977 71.4832 12.442C70.6328 13.3842 70.1649 14.6944 70.1649 16.176H70.5649ZM75.0449 11.336C77.1613 11.336 78.7683 12.831 79.0412 14.6221L79.4366 14.5619C79.1336 12.573 77.3565 10.936 75.0449 10.936V11.336ZM81.4636 8.832V8.632H81.2636V8.832H81.4636ZM83.3356 8.832H83.5356V8.632H83.3356V8.832ZM83.3356 11.316H83.1356V11.516H83.3356V11.316ZM85.2436 11.316H85.4436V11.116H85.2436V11.316ZM85.2436 12.738V12.938H85.4436V12.738H85.2436ZM83.3356 12.738V12.538H83.1356V12.738H83.3356ZM85.2256 19.506H85.4256V19.306H85.2256V19.506ZM85.2256 21V21.2H85.4256V21H85.2256ZM81.4636 12.738H81.6636V12.538H81.4636V12.738ZM79.9876 12.738H79.7876V12.938H79.9876V12.738ZM79.9876 11.316V11.116H79.7876V11.316H79.9876ZM81.4636 11.316V11.516H81.6636V11.316H81.4636ZM81.4636 9.032H83.3356V8.632H81.4636V9.032ZM83.1356 8.832V11.316H83.5356V8.832H83.1356ZM83.3356 11.516H85.2436V11.116H83.3356V11.516ZM85.0436 11.316V12.738H85.4436V11.316H85.0436ZM85.2436 12.538H83.3356V12.938H85.2436V12.538ZM83.1356 12.738V18.264H83.5356V12.738H83.1356ZM83.1356 18.264C83.1356 18.5146 83.1456 18.7306 83.1788 18.9117C83.2121 19.0938 83.2713 19.2555 83.3807 19.3852C83.603 19.6487 83.9674 19.706 84.4336 19.706V19.306C83.9637 19.306 83.7792 19.2373 83.6865 19.1273C83.6384 19.0702 83.5986 18.9834 83.5723 18.8397C83.5458 18.6952 83.5356 18.5084 83.5356 18.264H83.1356ZM84.4336 19.706H85.2256V19.306H84.4336V19.706ZM85.0256 19.506V21H85.4256V19.506H85.0256ZM85.2256 20.8H83.8576V21.2H85.2256V20.8ZM83.8576 20.8C82.8737 20.8 82.3585 20.6728 82.0697 20.3694C81.7777 20.0625 81.6636 19.5209 81.6636 18.516H81.2636C81.2636 19.5091 81.3655 20.2095 81.78 20.6451C82.1977 21.0842 82.8795 21.2 83.8576 21.2V20.8ZM81.6636 18.516V12.738H81.2636V18.516H81.6636ZM81.4636 12.538H79.9876V12.938H81.4636V12.538ZM80.1876 12.738V11.316H79.7876V12.738H80.1876ZM79.9876 11.516H81.4636V11.116H79.9876V11.516ZM81.6636 11.316V8.832H81.2636V11.316H81.6636ZM93.0382 19.632H93.2382V18.8819L92.8647 19.5324L93.0382 19.632ZM86.9182 11.316V11.116H86.7182V11.316H86.9182ZM88.7902 11.316H88.9902V11.116H88.7902V11.316ZM93.0562 11.316V11.116H92.8562V11.316H93.0562ZM94.9282 11.316H95.1282V11.116H94.9282V11.316ZM94.9282 21V21.2H95.1282V21H94.9282ZM93.0382 21H92.8382V21.2H93.0382V21ZM92.8647 19.5324C92.3429 20.4413 91.4737 21.034 90.0862 21.034V21.434C91.6146 21.434 92.6174 20.7667 93.2116 19.7316L92.8647 19.5324ZM90.0862 21.034C88.9872 21.034 88.2612 20.6945 87.8025 20.1074C87.3361 19.5104 87.1182 18.6228 87.1182 17.472H86.7182C86.7182 18.6612 86.9412 19.6546 87.4873 20.3536C88.0411 21.0625 88.8991 21.434 90.0862 21.434V21.034ZM87.1182 17.472V11.316H86.7182V17.472H87.1182ZM86.9182 11.516H88.7902V11.116H86.9182V11.516ZM88.5902 11.316V16.968H88.9902V11.316H88.5902ZM88.5902 16.968C88.5902 17.6712 88.6466 18.3877 88.9431 18.9313C89.0942 19.2083 89.3081 19.4417 89.6056 19.604C89.9016 19.7654 90.2683 19.85 90.7162 19.85V19.45C90.3181 19.45 90.021 19.3749 89.7972 19.2528C89.5749 19.1316 89.4131 18.9577 89.2942 18.7397C89.0507 18.2933 88.9902 17.6688 88.9902 16.968H88.5902ZM90.7162 19.85C91.5554 19.85 92.2036 19.5329 92.6347 18.9447C93.0588 18.3662 93.2562 17.5485 93.2562 16.572H92.8562C92.8562 17.5035 92.6665 18.2248 92.3121 18.7083C91.9647 19.1821 91.4429 19.45 90.7162 19.45V19.85ZM93.2562 16.572V11.316H92.8562V16.572H93.2562ZM93.0562 11.516H94.9282V11.116H93.0562V11.516ZM94.7282 11.316V21H95.1282V11.316H94.7282ZM94.9282 20.8H93.0382V21.2H94.9282V20.8ZM93.2382 21V19.632H92.8382V21H93.2382ZM102.473 13.242L102.452 13.4409L102.673 13.4642V13.242H102.473ZM99.3053 21V21.2H99.5053V21H99.3053ZM97.4333 21H97.2333V21.2H97.4333V21ZM97.4333 11.316V11.116H97.2333V11.316H97.4333ZM99.2693 11.316H99.4693V11.116H99.2693V11.316ZM99.2693 13.026H99.0693L99.451 13.1094L99.2693 13.026ZM101.951 11.28V11.08H101.948L101.951 11.28ZM102.473 11.298H102.673V11.119L102.495 11.0992L102.473 11.298ZM102.494 13.0431C102.146 13.0065 101.815 12.988 101.501 12.988V13.388C101.799 13.388 102.116 13.4055 102.452 13.4409L102.494 13.0431ZM101.501 12.988C100.751 12.988 100.133 13.1713 99.7115 13.663C99.296 14.1469 99.1053 14.8898 99.1053 15.924H99.5053C99.5053 14.9242 99.6925 14.2991 100.015 13.9235C100.33 13.5557 100.811 13.388 101.501 13.388V12.988ZM99.1053 15.924V21H99.5053V15.924H99.1053ZM99.3053 20.8H97.4333V21.2H99.3053V20.8ZM97.6333 21V11.316H97.2333V21H97.6333ZM97.4333 11.516H99.2693V11.116H97.4333V11.516ZM99.0693 11.316V13.026H99.4693V11.316H99.0693ZM99.451 13.1094C99.9227 12.0818 100.825 11.4968 101.954 11.48L101.948 11.08C100.665 11.0992 99.6238 11.7742 99.0875 12.9426L99.451 13.1094ZM101.951 11.48C102.116 11.48 102.302 11.4802 102.451 11.4968L102.495 11.0992C102.32 11.0798 102.11 11.08 101.951 11.08V11.48ZM102.273 11.298V13.242H102.673V11.298H102.273ZM110.403 18.156V17.956H110.271L110.219 18.0768L110.403 18.156ZM112.293 18.156L112.485 18.2101L112.556 17.956H112.293V18.156ZM112.419 16.734V16.934H112.606L112.618 16.7465L112.419 16.734ZM105.039 16.734V16.534H104.817L104.84 16.7541L105.039 16.734ZM105.075 15.258L104.876 15.2308L104.845 15.458H105.075V15.258ZM110.475 15.258V15.458H110.682L110.674 15.2505L110.475 15.258ZM110.403 18.356H112.293V17.956H110.403V18.356ZM112.1 18.1019C111.673 19.6233 110.307 21.034 107.937 21.034V21.434C110.498 21.434 112.012 19.8927 112.485 18.2101L112.1 18.1019ZM107.937 21.034C106.423 21.034 105.273 20.4835 104.5 19.6076C103.724 18.7285 103.313 17.5051 103.313 16.14H102.913C102.913 17.5829 103.347 18.9065 104.2 19.8724C105.056 20.8415 106.318 21.434 107.937 21.434V21.034ZM103.313 16.14C103.313 14.6826 103.801 13.4836 104.608 12.6499C105.416 11.8165 106.555 11.336 107.883 11.336V10.936C106.456 10.936 105.21 11.4545 104.321 12.3716C103.433 13.2884 102.913 14.5914 102.913 16.14H103.313ZM107.883 11.336C109.317 11.336 110.441 11.9211 111.188 12.8768C111.937 13.8365 112.316 15.1848 112.219 16.7215L112.618 16.7465C112.72 15.1332 112.324 13.6825 111.503 12.6307C110.679 11.5749 109.436 10.936 107.883 10.936V11.336ZM112.419 16.534H105.039V16.934H112.419V16.534ZM104.84 16.7541C104.933 17.6824 105.277 18.4521 105.81 18.9917C106.343 19.5327 107.057 19.832 107.865 19.832V19.432C107.16 19.432 106.551 19.1733 106.094 18.7108C105.637 18.2469 105.324 17.5676 105.238 16.7139L104.84 16.7541ZM107.865 19.832C108.567 19.832 109.141 19.6868 109.596 19.4089C110.052 19.1302 110.374 18.7267 110.586 18.2352L110.219 18.0768C110.035 18.5033 109.763 18.8378 109.387 19.0676C109.009 19.2982 108.512 19.432 107.865 19.432V19.832ZM105.075 15.458H110.475V15.058H105.075V15.458ZM110.674 15.2505C110.617 13.7165 109.533 12.466 107.865 12.466V12.866C109.292 12.866 110.224 13.9194 110.275 15.2655L110.674 15.2505ZM107.865 12.466C107.101 12.466 106.416 12.6643 105.886 13.1222C105.357 13.5806 105.007 14.2783 104.876 15.2308L105.273 15.2852C105.394 14.4017 105.71 13.8034 106.148 13.4248C106.586 13.0457 107.17 12.866 107.865 12.866V12.466Z" fill="black"/>
</g>
</g>
<defs>
<clipPath id="clip0_4_155">
<rect width="123" height="30" fill="white"/>
</clipPath>
</defs>
</svg>
