<svg width="180" height="30" viewBox="0 0 180 30" fill="none" xmlns="http://www.w3.org/2000/svg">
<g clip-path="url(#clip0_4_244)">
<mask id="mask0_4_244" style="mask-type:luminance" maskUnits="userSpaceOnUse" x="0" y="0" width="180" height="30">
<path d="M180 0H0V30H180V0Z" fill="white"/>
</mask>
<g mask="url(#mask0_4_244)">
<path d="M175 0.5H5C2.51472 0.5 0.5 2.51472 0.5 5V25C0.5 27.4853 2.51472 29.5 5 29.5H175C177.485 29.5 179.5 27.4853 179.5 25V5C179.5 2.51472 177.485 0.5 175 0.5Z" stroke="black"/>
<path d="M16.6168 15.492C16.3468 15.51 16.0588 15.51 15.7708 15.51H13.5208V21H11.4688V7.95H15.6088C19.1188 7.95 21.2248 8.688 21.2248 11.712C21.2248 13.584 20.3248 14.646 18.7048 15.15L21.7108 21H19.4067L16.6168 15.492ZM13.5208 9.642V13.836H15.8787C17.8047 13.836 19.1187 13.548 19.1187 11.748C19.1187 9.876 17.6968 9.642 15.8428 9.642H13.5208ZM29.9713 18.156H31.8614C31.4114 19.758 29.9714 21.234 27.5054 21.234C24.3734 21.234 22.6814 18.948 22.6814 16.14C22.6814 13.134 24.6973 11.136 27.4513 11.136C30.4393 11.136 32.1854 13.584 31.9874 16.734H24.6073C24.7873 18.516 25.9213 19.632 27.4333 19.632C28.7833 19.632 29.5753 19.074 29.9713 18.156ZM24.6434 15.258H30.0434C29.9894 13.818 28.9813 12.666 27.4333 12.666C25.9753 12.666 24.8954 13.422 24.6434 15.258ZM39.3671 14.016C39.0971 13.026 38.2691 12.63 37.1711 12.63C36.2531 12.63 35.2631 13.008 35.2631 13.8C35.2631 14.52 35.731 14.826 36.613 15.006L37.9991 15.276C39.8351 15.636 41.437 16.266 41.437 18.156C41.437 20.118 39.601 21.234 37.369 21.234C34.921 21.234 33.4271 19.812 33.1931 17.994H35.1011C35.3531 19.092 36.073 19.74 37.423 19.74C38.629 19.74 39.5651 19.236 39.5651 18.372C39.5651 17.472 38.7191 17.112 37.7111 16.914L36.2531 16.626C34.7951 16.338 33.4271 15.69 33.4271 13.872C33.4271 12.162 35.2271 11.118 37.3511 11.118C39.2951 11.118 40.8611 12.144 41.2211 14.016H39.3671ZM43.6941 8.832H45.5662V11.316H47.4742V12.738H45.5662V18.264C45.5662 19.254 45.7282 19.506 46.6642 19.506H47.4562V21H46.0882C44.1262 21 43.6941 20.514 43.6941 18.516V12.738H42.2182V11.316H43.6941V8.832ZM48.7167 18.39C48.7167 16.032 51.4886 15.402 55.2506 15.006V14.808C55.2506 13.098 54.3507 12.522 53.1627 12.522C51.8667 12.522 51.1286 13.188 51.0566 14.376H49.1666C49.3286 12.324 51.0206 11.082 53.2346 11.082C55.7366 11.082 57.1767 12.288 57.1407 15.186C57.1407 15.42 57.1046 17.094 57.1046 17.508C57.1046 18.948 57.1946 20.136 57.3746 21H55.5746C55.5026 20.622 55.4487 20.334 55.4127 19.722C54.8367 20.694 53.7386 21.234 52.1726 21.234C50.2106 21.234 48.7167 20.154 48.7167 18.39ZM55.3406 16.392C52.3346 16.68 50.7506 17.094 50.7506 18.354C50.7506 19.236 51.4527 19.794 52.5867 19.794C54.1347 19.794 55.3406 19.02 55.3406 17.094V16.392ZM65.4288 19.632C64.8708 20.604 63.9348 21.234 62.4768 21.234C60.1908 21.234 59.3088 19.812 59.3088 17.472V11.316H61.1809V16.968C61.1809 18.372 61.4148 19.65 63.1068 19.65C64.6728 19.65 65.4469 18.48 65.4469 16.572V11.316H67.3188V21H65.4288V19.632ZM74.864 13.242C74.522 13.206 74.198 13.188 73.892 13.188C72.452 13.188 71.696 13.89 71.696 15.924V21H69.824V11.316H71.66V13.026C72.164 11.928 73.1359 11.298 74.3419 11.28C74.5039 11.28 74.702 11.28 74.864 11.298V13.242ZM75.4178 18.39C75.4178 16.032 78.1899 15.402 81.9519 15.006V14.808C81.9519 13.098 81.0519 12.522 79.8639 12.522C78.5679 12.522 77.8299 13.188 77.7579 14.376H75.8679C76.0299 12.324 77.7219 11.082 79.9359 11.082C82.4379 11.082 83.8779 12.288 83.8419 15.186C83.8419 15.42 83.8058 17.094 83.8058 17.508C83.8058 18.948 83.8959 20.136 84.0759 21H82.2758C82.2038 20.622 82.1499 20.334 82.1139 19.722C81.5379 20.694 80.4398 21.234 78.8738 21.234C76.9118 21.234 75.4178 20.154 75.4178 18.39ZM82.0418 16.392C79.0358 16.68 77.4519 17.094 77.4519 18.354C77.4519 19.236 78.1538 19.794 79.2878 19.794C80.8358 19.794 82.0418 19.02 82.0418 17.094V16.392ZM88.026 12.72C88.584 11.766 89.556 11.136 91.068 11.136C93.408 11.136 94.3081 12.648 94.3081 14.898V21H92.4361V15.402C92.4361 13.998 92.202 12.702 90.438 12.702C88.818 12.702 88.026 13.872 88.026 15.798V21H86.1541V11.316H88.026V12.72ZM97.0262 8.832H98.8981V11.316H100.806V12.738H98.8981V18.264C98.8981 19.254 99.0601 19.506 99.9961 19.506H100.788V21H99.4202C97.4582 21 97.0262 20.514 97.0262 18.516V12.738H95.5501V11.316H97.0262V8.832ZM108.132 14.016C107.862 13.026 107.034 12.63 105.936 12.63C105.018 12.63 104.028 13.008 104.028 13.8C104.028 14.52 104.496 14.826 105.378 15.006L106.764 15.276C108.6 15.636 110.202 16.266 110.202 18.156C110.202 20.118 108.366 21.234 106.134 21.234C103.686 21.234 102.192 19.812 101.958 17.994H103.866C104.118 19.092 104.838 19.74 106.188 19.74C107.394 19.74 108.33 19.236 108.33 18.372C108.33 17.472 107.484 17.112 106.476 16.914L105.018 16.626C103.56 16.338 102.192 15.69 102.192 13.872C102.192 12.162 103.992 11.118 106.116 11.118C108.06 11.118 109.626 12.144 109.986 14.016H108.132ZM115.454 17.4C115.454 15.42 116.84 14.106 118.676 13.476C117.83 12.486 117.272 11.532 117.272 10.506C117.272 8.796 118.784 7.698 120.836 7.698C122.456 7.698 124.256 8.436 124.256 10.542C124.256 12.126 123.158 13.26 121.646 13.926L124.022 16.464C124.328 15.69 124.526 14.808 124.598 13.854H126.506C126.38 15.24 125.984 16.626 125.3 17.832L128.252 21H125.624L124.13 19.398C123.032 20.514 121.574 21.234 119.792 21.234C117.146 21.234 115.454 19.56 115.454 17.4ZM120.584 12.774L120.602 12.81C121.79 12.342 122.474 11.532 122.474 10.596C122.474 9.624 121.736 9.192 120.872 9.192C120.026 9.192 119.252 9.606 119.252 10.416C119.252 11.208 119.9 12.072 120.584 12.774ZM123.014 18.192L119.72 14.628C118.28 15.15 117.434 16.014 117.434 17.31C117.434 18.75 118.514 19.65 119.972 19.65C121.16 19.65 122.204 19.11 123.014 18.192ZM133.302 7.95H138.108C140.502 7.95 142.734 8.58 142.734 11.226C142.734 12.45 142.14 13.566 141.294 14.052C142.464 14.574 143.256 15.474 143.256 17.148C143.256 19.92 141.132 21 138.486 21H133.302V7.95ZM135.354 13.476H138.36C139.764 13.476 140.664 12.882 140.664 11.478C140.664 10.236 139.728 9.642 138.36 9.642H135.354V13.476ZM135.354 19.308H138.54C140.286 19.308 141.15 18.534 141.15 17.148C141.15 15.708 140.286 15.06 138.432 15.06H135.354V19.308ZM144.605 18.39C144.605 16.032 147.377 15.402 151.139 15.006V14.808C151.139 13.098 150.239 12.522 149.051 12.522C147.755 12.522 147.017 13.188 146.945 14.376H145.055C145.217 12.324 146.909 11.082 149.123 11.082C151.625 11.082 153.065 12.288 153.029 15.186C153.029 15.42 152.993 17.094 152.993 17.508C152.993 18.948 153.083 20.136 153.263 21H151.463C151.391 20.622 151.337 20.334 151.301 19.722C150.725 20.694 149.627 21.234 148.061 21.234C146.099 21.234 144.605 20.154 144.605 18.39ZM151.229 16.392C148.223 16.68 146.639 17.094 146.639 18.354C146.639 19.236 147.341 19.794 148.475 19.794C150.023 19.794 151.229 19.02 151.229 17.094V16.392ZM160.381 13.242C160.039 13.206 159.715 13.188 159.409 13.188C157.969 13.188 157.213 13.89 157.213 15.924V21H155.341V11.316H157.177V13.026C157.681 11.928 158.653 11.298 159.859 11.28C160.021 11.28 160.219 11.28 160.381 11.298V13.242ZM167.283 14.016C167.013 13.026 166.185 12.63 165.087 12.63C164.169 12.63 163.179 13.008 163.179 13.8C163.179 14.52 163.647 14.826 164.529 15.006L165.915 15.276C167.751 15.636 169.353 16.266 169.353 18.156C169.353 20.118 167.517 21.234 165.285 21.234C162.837 21.234 161.343 19.812 161.109 17.994H163.017C163.269 19.092 163.989 19.74 165.339 19.74C166.545 19.74 167.481 19.236 167.481 18.372C167.481 17.472 166.635 17.112 165.627 16.914L164.169 16.626C162.711 16.338 161.343 15.69 161.343 13.872C161.343 12.162 163.143 11.118 165.267 11.118C167.211 11.118 168.777 12.144 169.137 14.016H167.283Z" fill="black"/>
<path d="M16.6166 15.492L16.795 15.4016L16.7353 15.2836L16.6033 15.2924L16.6166 15.492ZM13.5206 15.51V15.31H13.3206V15.51H13.5206ZM13.5206 21V21.2H13.7206V21H13.5206ZM11.4686 21H11.2686V21.2H11.4686V21ZM11.4686 7.95005V7.75005H11.2686V7.95005H11.4686ZM18.7046 15.15L18.6452 14.959L18.418 15.0297L18.5267 15.2414L18.7046 15.15ZM21.7106 21V21.2H22.0382L21.8885 20.9086L21.7106 21ZM19.4066 21L19.2282 21.0904L19.2837 21.2H19.4066V21ZM13.5206 9.64205V9.44205H13.3206V9.64205H13.5206ZM13.5206 13.836H13.3206V14.036H13.5206V13.836ZM16.6033 15.2924C16.3412 15.3099 16.06 15.31 15.7706 15.31V15.71C16.0572 15.71 16.3521 15.7101 16.6299 15.6916L16.6033 15.2924ZM15.7706 15.31H13.5206V15.71H15.7706V15.31ZM13.3206 15.51V21H13.7206V15.51H13.3206ZM13.5206 20.8H11.4686V21.2H13.5206V20.8ZM11.6686 21V7.95005H11.2686V21H11.6686ZM11.4686 8.15005H15.6086V7.75005H11.4686V8.15005ZM15.6086 8.15005C17.3598 8.15005 18.7164 8.3362 19.6322 8.86985C20.0847 9.13357 20.4293 9.48214 20.6626 9.93939C20.8969 10.3986 21.0246 10.9787 21.0246 11.712H21.4246C21.4246 10.9333 21.2891 10.2871 21.0189 9.75759C20.7476 9.22596 20.3463 8.82302 19.8336 8.52425C18.8188 7.9329 17.3675 7.75005 15.6086 7.75005V8.15005ZM21.0246 11.712C21.0246 12.6153 20.808 13.3032 20.4129 13.823C20.0172 14.3436 19.4275 14.7157 18.6452 14.959L18.764 15.341C19.6017 15.0803 20.272 14.6694 20.7314 14.065C21.1913 13.4598 21.4246 12.6807 21.4246 11.712H21.0246ZM18.5267 15.2414L21.5327 21.0914L21.8885 20.9086L18.8825 15.0586L18.5267 15.2414ZM21.7106 20.8H19.4066V21.2H21.7106V20.8ZM19.585 20.9096L16.795 15.4016L16.4382 15.5824L19.2282 21.0904L19.585 20.9096ZM13.3206 9.64205V13.836H13.7206V9.64205H13.3206ZM13.5206 14.036H15.8786V13.636H13.5206V14.036ZM15.8786 14.036C16.8403 14.036 17.696 13.9664 18.3134 13.6443C18.6284 13.4799 18.884 13.2488 19.0587 12.9296C19.2322 12.6125 19.3186 12.2217 19.3186 11.748H18.9186C18.9186 12.1743 18.8408 12.4945 18.7078 12.7376C18.5758 12.9787 18.3826 13.1571 18.1284 13.2897C17.6072 13.5616 16.843 13.636 15.8786 13.636V14.036ZM19.3186 11.748C19.3186 11.2551 19.225 10.8531 19.0413 10.5303C18.8566 10.2056 18.5887 9.97526 18.265 9.81403C17.6306 9.498 16.7667 9.44205 15.8426 9.44205V9.84205C16.7726 9.84205 17.5467 9.9031 18.0867 10.172C18.3502 10.3033 18.5538 10.4824 18.6936 10.7281C18.8345 10.9756 18.9186 11.3049 18.9186 11.748H19.3186ZM15.8426 9.44205H13.5206V9.84205H15.8426V9.44205ZM29.9712 18.156V17.956H29.8397L29.7876 18.0768L29.9712 18.156ZM31.8612 18.156L32.0538 18.2101L32.1251 17.956H31.8612V18.156ZM31.9872 16.734V16.934H32.175L32.1868 16.7465L31.9872 16.734ZM24.6072 16.734V16.534H24.386L24.4082 16.7541L24.6072 16.734ZM24.6432 15.258L24.4451 15.2308L24.4139 15.458H24.6432V15.258ZM30.0432 15.258V15.458H30.2509L30.2431 15.2505L30.0432 15.258ZM29.9712 18.356H31.8612V17.956H29.9712V18.356ZM31.6687 18.1019C31.2413 19.6233 29.8758 21.034 27.5052 21.034V21.434C30.0666 21.434 31.5811 19.8927 32.0538 18.2101L31.6687 18.1019ZM27.5052 21.034C25.9916 21.034 24.842 20.4835 24.0686 19.6076C23.2924 18.7285 22.8812 17.5051 22.8812 16.14H22.4812C22.4812 17.5829 22.916 18.9065 23.7688 19.8724C24.6244 20.8415 25.8869 21.434 27.5052 21.434V21.034ZM22.8812 16.14C22.8812 14.6826 23.3692 13.4836 24.1771 12.6499C24.9848 11.8165 26.1241 11.336 27.4512 11.336V10.936C26.0243 10.936 24.7786 11.4545 23.8898 12.3716C23.0013 13.2884 22.4812 14.5914 22.4812 16.14H22.8812ZM27.4512 11.336C28.8856 11.336 30.0102 11.9211 30.7563 12.8768C31.5056 13.8365 31.8842 15.1848 31.7876 16.7215L32.1868 16.7465C32.2882 15.1332 31.8928 13.6825 31.0716 12.6307C30.2473 11.5749 29.0049 10.936 27.4512 10.936V11.336ZM31.9872 16.534H24.6072V16.934H31.9872V16.534ZM24.4082 16.7541C24.502 17.6824 24.846 18.4521 25.3783 18.9917C25.912 19.5327 26.6253 19.832 27.4332 19.832V19.432C26.7291 19.432 26.1194 19.1733 25.6631 18.7108C25.2054 18.2469 24.8924 17.5676 24.8062 16.7139L24.4082 16.7541ZM27.4332 19.832C28.1355 19.832 28.7094 19.6868 29.1642 19.4089C29.6205 19.1302 29.9428 18.7267 30.1549 18.2352L29.7876 18.0768C29.6036 18.5033 29.3319 18.8378 28.9557 19.0676C28.5781 19.2982 28.0809 19.432 27.4332 19.432V19.832ZM24.6432 15.458H30.0432V15.058H24.6432V15.458ZM30.2431 15.2505C30.1856 13.7165 29.1018 12.466 27.4332 12.466V12.866C28.8606 12.866 29.7929 13.9194 29.8434 15.2655L30.2431 15.2505ZM27.4332 12.466C26.6701 12.466 25.9845 12.6643 25.4551 13.1222C24.9253 13.5806 24.5758 14.2783 24.4451 15.2308L24.8414 15.2852C24.9626 14.4017 25.2791 13.8034 25.7168 13.4248C26.1549 13.0457 26.7384 12.866 27.4332 12.866V12.466ZM39.3669 14.016L39.174 14.0686L39.2142 14.216H39.3669V14.016ZM36.6129 15.006L36.5729 15.202L36.5747 15.2023L36.6129 15.006ZM33.1929 17.994V17.794H32.9655L32.9946 18.0195L33.1929 17.994ZM35.1009 17.994L35.2959 17.9493L35.2602 17.794H35.1009V17.994ZM41.2209 14.016V14.216H41.4631L41.4173 13.9782L41.2209 14.016ZM39.5599 13.9634C39.4117 13.4201 39.1056 13.0297 38.681 12.7794C38.2619 12.5325 37.7415 12.43 37.1709 12.43V12.83C37.6984 12.83 38.1409 12.9255 38.4779 13.1241C38.8093 13.3193 39.0522 13.6219 39.174 14.0686L39.5599 13.9634ZM37.1709 12.43C36.6888 12.43 36.1772 12.5286 35.7785 12.7416C35.3777 12.9556 35.0629 13.3042 35.0629 13.8H35.4629C35.4629 13.5038 35.6431 13.2674 35.9669 13.0944C36.2927 12.9204 36.7351 12.83 37.1709 12.83V12.43ZM35.0629 13.8C35.0629 14.2107 35.2 14.527 35.4793 14.7593C35.7457 14.9808 36.1235 15.1102 36.5729 15.202L36.6529 14.81C36.2204 14.7218 35.9232 14.6082 35.7351 14.4517C35.5598 14.306 35.4629 14.1093 35.4629 13.8H35.0629ZM36.5747 15.2023L37.9607 15.4723L38.0374 15.0797L36.6512 14.8097L36.5747 15.2023ZM37.9607 15.4723C38.8741 15.6514 39.6983 15.8928 40.2921 16.3064C40.8722 16.7103 41.2369 17.2808 41.2369 18.156H41.6369C41.6369 17.1412 41.2007 16.4517 40.5207 15.9781C39.8546 15.5142 38.96 15.2606 38.0374 15.0797L37.9607 15.4723ZM41.2369 18.156C41.2369 19.0659 40.8147 19.7771 40.1241 20.2677C39.428 20.7622 38.4545 21.034 37.3689 21.034V21.434C38.5154 21.434 39.5759 21.1478 40.3558 20.5938C41.1412 20.0359 41.6369 19.2081 41.6369 18.156H41.2369ZM37.3689 21.034C35.0095 21.034 33.611 19.6752 33.3913 17.9685L32.9946 18.0195C33.2429 19.9488 34.8324 21.434 37.3689 21.434V21.034ZM33.1929 18.194H35.1009V17.794H33.1929V18.194ZM34.906 18.0387C35.0394 18.62 35.3016 19.1015 35.7265 19.4359C36.1511 19.77 36.7161 19.94 37.4229 19.94V19.54C36.7797 19.54 36.3098 19.386 35.9739 19.1216C35.6383 18.8575 35.4145 18.466 35.2959 17.9493L34.906 18.0387ZM37.4229 19.94C38.0503 19.94 38.625 19.8094 39.0501 19.5509C39.4805 19.2891 39.7649 18.8888 39.7649 18.372H39.3649C39.3649 18.7192 39.1813 19.0029 38.8423 19.2091C38.4979 19.4186 38.0016 19.54 37.4229 19.54V19.94ZM39.7649 18.372C39.7649 17.8444 39.5105 17.4717 39.1276 17.2139C38.7559 16.9636 38.26 16.818 37.7495 16.7178L37.6722 17.1102C38.1696 17.208 38.6009 17.3414 38.9042 17.5456C39.1963 17.7423 39.3649 17.9996 39.3649 18.372H39.7649ZM37.7495 16.7178L36.2917 16.4298L36.2142 16.8222L37.6722 17.1102L37.7495 16.7178ZM36.2917 16.4298C35.5741 16.288 34.9057 16.0621 34.4192 15.6674C33.9428 15.281 33.6269 14.7221 33.6269 13.872H33.2269C33.2269 14.8399 33.595 15.514 34.1672 15.9781C34.7291 16.4339 35.4738 16.676 36.2142 16.8222L36.2917 16.4298ZM33.6269 13.872C33.6269 13.0972 34.0314 12.466 34.703 12.0204C35.3786 11.5721 36.3188 11.318 37.3509 11.318V10.918C36.2591 10.918 35.2373 11.1859 34.4819 11.6871C33.7225 12.191 33.2269 12.9368 33.2269 13.872H33.6269ZM37.3509 11.318C39.2224 11.318 40.6867 12.2972 41.0245 14.0538L41.4173 13.9782C41.0351 11.9908 39.3674 10.918 37.3509 10.918V11.318ZM41.2209 13.816H39.3669V14.216H41.2209V13.816ZM43.694 8.83205V8.63205H43.494V8.83205H43.694ZM45.566 8.83205H45.766V8.63205H45.566V8.83205ZM45.566 11.316H45.366V11.516H45.566V11.316ZM47.474 11.316H47.674V11.116H47.474V11.316ZM47.474 12.738V12.938H47.674V12.738H47.474ZM45.566 12.738V12.538H45.366V12.738H45.566ZM47.456 19.506H47.656V19.306H47.456V19.506ZM47.456 21V21.2H47.656V21H47.456ZM43.694 12.738H43.894V12.538H43.694V12.738ZM42.218 12.738H42.018V12.938H42.218V12.738ZM42.218 11.316V11.116H42.018V11.316H42.218ZM43.694 11.316V11.516H43.894V11.316H43.694ZM43.694 9.03205H45.566V8.63205H43.694V9.03205ZM45.366 8.83205V11.316H45.766V8.83205H45.366ZM45.566 11.516H47.474V11.116H45.566V11.516ZM47.274 11.316V12.738H47.674V11.316H47.274ZM47.474 12.538H45.566V12.938H47.474V12.538ZM45.366 12.738V18.264H45.766V12.738H45.366ZM45.366 18.264C45.366 18.5146 45.376 18.7306 45.4092 18.9117C45.4425 19.0938 45.5017 19.2555 45.6111 19.3852C45.8333 19.6487 46.1978 19.706 46.664 19.706V19.306C46.1941 19.306 46.0096 19.2373 45.9169 19.1273C45.8687 19.0702 45.8289 18.9834 45.8026 18.8397C45.7762 18.6952 45.766 18.5084 45.766 18.264H45.366ZM46.664 19.706H47.456V19.306H46.664V19.706ZM47.256 19.506V21H47.656V19.506H47.256ZM47.456 20.8H46.088V21.2H47.456V20.8ZM46.088 20.8C45.1041 20.8 44.5888 20.6728 44.3001 20.3694C44.0081 20.0625 43.894 19.5209 43.894 18.516H43.494C43.494 19.5091 43.5958 20.2095 44.0103 20.6451C44.4281 21.0842 45.1099 21.2 46.088 21.2V20.8ZM43.894 18.516V12.738H43.494V18.516H43.894ZM43.694 12.538H42.218V12.938H43.694V12.538ZM42.418 12.738V11.316H42.018V12.738H42.418ZM42.218 11.516H43.694V11.116H42.218V11.516ZM43.894 11.316V8.83205H43.494V11.316H43.894ZM55.2505 15.006L55.2715 15.2049L55.4505 15.1861V15.006H55.2505ZM51.0565 14.376V14.576H51.2448L51.2562 14.3881L51.0565 14.376ZM49.1665 14.376L48.9671 14.3603L48.9501 14.576H49.1665V14.376ZM57.1405 15.186L56.9405 15.1835V15.186H57.1405ZM57.3745 21V21.2H57.6205L57.5703 20.9592L57.3745 21ZM55.5745 21L55.3781 21.0374L55.409 21.2H55.5745V21ZM55.4125 19.722L55.6122 19.7103L55.5738 19.0576L55.2405 19.62L55.4125 19.722ZM55.3405 16.392H55.5405V16.1719L55.3215 16.1929L55.3405 16.392ZM48.9165 18.39C48.9165 17.8433 49.0759 17.4067 49.3644 17.0474C49.6559 16.6844 50.0886 16.3889 50.652 16.1459C51.7839 15.6577 53.3889 15.4031 55.2715 15.2049L55.2296 14.8071C53.3501 15.0049 51.6882 15.2633 50.4936 15.7786C49.8937 16.0373 49.3983 16.3663 49.0525 16.7969C48.7037 17.2313 48.5165 17.7577 48.5165 18.39H48.9165ZM55.4505 15.006V14.808H55.0505V15.006H55.4505ZM55.4505 14.808C55.4505 13.9195 55.2162 13.2872 54.7904 12.8793C54.3662 12.473 53.7858 12.322 53.1625 12.322V12.722C53.7273 12.722 54.1909 12.859 54.5137 13.1682C54.8348 13.4758 55.0505 13.9865 55.0505 14.808H55.4505ZM53.1625 12.322C52.4816 12.322 51.9203 12.4972 51.5179 12.8538C51.1137 13.2119 50.8953 13.7303 50.8569 14.3639L51.2562 14.3881C51.2898 13.8337 51.4763 13.4251 51.7832 13.1532C52.0917 12.8798 52.5475 12.722 53.1625 12.722V12.322ZM51.0565 14.176H49.1665V14.576H51.0565V14.176ZM49.3659 14.3917C49.4425 13.421 49.8789 12.6489 50.5548 12.1166C51.2333 11.5823 52.1639 11.282 53.2345 11.282V10.882C52.0912 10.882 51.0687 11.2027 50.3073 11.8024C49.5432 12.4041 49.0525 13.279 48.9671 14.3603L49.3659 14.3917ZM53.2345 11.282C54.4567 11.282 55.3817 11.5767 55.9983 12.1891C56.6143 12.8009 56.9582 13.7653 56.9405 15.1835L57.3405 15.1885C57.3589 13.7087 57.0008 12.6211 56.2802 11.9054C55.5604 11.1903 54.5143 10.882 53.2345 10.882V11.282ZM56.9405 15.186C56.9405 15.3006 56.9316 15.7744 56.9226 16.2759C56.9136 16.7743 56.9045 17.2987 56.9045 17.508H57.3045C57.3045 17.3033 57.3135 16.7837 57.3225 16.2831C57.3315 15.7856 57.3405 15.3054 57.3405 15.186H56.9405ZM56.9045 17.508C56.9045 18.9539 56.9947 20.1574 57.1787 21.0408L57.5703 20.9592C57.3944 20.1146 57.3045 18.9421 57.3045 17.508H56.9045ZM57.3745 20.8H55.5745V21.2H57.3745V20.8ZM55.771 20.9626C55.6999 20.5891 55.6475 20.3104 55.6122 19.7103L55.2129 19.7337C55.2496 20.3576 55.3052 20.6549 55.3781 21.0374L55.771 20.9626ZM55.2405 19.62C54.7116 20.5125 53.6928 21.034 52.1725 21.034V21.434C53.7843 21.434 54.9615 20.8755 55.5846 19.824L55.2405 19.62ZM52.1725 21.034C51.2263 21.034 50.4091 20.7734 49.833 20.3168C49.2611 19.8634 48.9165 19.2097 48.9165 18.39H48.5165C48.5165 19.3343 48.9189 20.1026 49.5845 20.6302C50.246 21.1546 51.1567 21.434 52.1725 21.434V21.034ZM55.3215 16.1929C53.8199 16.3368 52.6469 16.5138 51.8464 16.8218C51.4444 16.9766 51.12 17.1702 50.8953 17.4237C50.6661 17.6823 50.5505 17.9922 50.5505 18.354H50.9505C50.9505 18.0858 51.033 17.8715 51.1947 17.689C51.3609 17.5015 51.6204 17.3374 51.9901 17.1952C52.7332 16.9092 53.8551 16.7352 55.3596 16.5911L55.3215 16.1929ZM50.5505 18.354C50.5505 18.8534 50.7519 19.2725 51.1196 19.5619C51.482 19.8472 51.9892 19.994 52.5865 19.994V19.594C52.0499 19.594 51.6391 19.4618 51.367 19.2476C51.1001 19.0375 50.9505 18.7366 50.9505 18.354H50.5505ZM52.5865 19.994C53.3909 19.994 54.1328 19.7931 54.6759 19.3166C55.2236 18.8361 55.5405 18.1007 55.5405 17.094H55.1405C55.1405 18.0133 54.8544 18.6279 54.4121 19.0159C53.9653 19.4079 53.3301 19.594 52.5865 19.594V19.994ZM55.5405 17.094V16.392H55.1405V17.094H55.5405ZM65.4287 19.632H65.6287V18.8819L65.2552 19.5324L65.4287 19.632ZM59.3087 11.316V11.116H59.1087V11.316H59.3087ZM61.1807 11.316H61.3807V11.116H61.1807V11.316ZM65.4467 11.316V11.116H65.2467V11.316H65.4467ZM67.3187 11.316H67.5187V11.116H67.3187V11.316ZM67.3187 21V21.2H67.5187V21H67.3187ZM65.4287 21H65.2287V21.2H65.4287V21ZM65.2552 19.5324C64.7335 20.4413 63.8642 21.034 62.4767 21.034V21.434C64.0052 21.434 65.0079 20.7667 65.6021 19.7316L65.2552 19.5324ZM62.4767 21.034C61.3777 21.034 60.6518 20.6945 60.193 20.1074C59.7266 19.5104 59.5087 18.6228 59.5087 17.472H59.1087C59.1087 18.6612 59.3317 19.6546 59.8778 20.3536C60.4316 21.0625 61.2896 21.434 62.4767 21.434V21.034ZM59.5087 17.472V11.316H59.1087V17.472H59.5087ZM59.3087 11.516H61.1807V11.116H59.3087V11.516ZM60.9807 11.316V16.968H61.3807V11.316H60.9807ZM60.9807 16.968C60.9807 17.6712 61.0371 18.3877 61.3336 18.9313C61.4847 19.2083 61.6987 19.4417 61.9962 19.604C62.2921 19.7654 62.6588 19.85 63.1067 19.85V19.45C62.7086 19.45 62.4115 19.3749 62.1877 19.2528C61.9655 19.1316 61.8036 18.9577 61.6848 18.7397C61.4412 18.2933 61.3807 17.6688 61.3807 16.968H60.9807ZM63.1067 19.85C63.9459 19.85 64.5941 19.5329 65.0252 18.9447C65.4493 18.3662 65.6467 17.5485 65.6467 16.572H65.2467C65.2467 17.5035 65.057 18.2248 64.7026 18.7083C64.3553 19.1821 63.8335 19.45 63.1067 19.45V19.85ZM65.6467 16.572V11.316H65.2467V16.572H65.6467ZM65.4467 11.516H67.3187V11.116H65.4467V11.516ZM67.1187 11.316V21H67.5187V11.316H67.1187ZM67.3187 20.8H65.4287V21.2H67.3187V20.8ZM65.6287 21V19.632H65.2287V21H65.6287ZM74.8638 13.242L74.8428 13.4409L75.0638 13.4642V13.242H74.8638ZM71.6958 21V21.2H71.8958V21H71.6958ZM69.8238 21H69.6238V21.2H69.8238V21ZM69.8238 11.316V11.116H69.6238V11.316H69.8238ZM71.6598 11.316H71.8598V11.116H71.6598V11.316ZM71.6598 13.026H71.4598L71.8415 13.1094L71.6598 13.026ZM74.3418 11.28V11.08H74.3388L74.3418 11.28ZM74.8638 11.298H75.0638V11.119L74.8859 11.0992L74.8638 11.298ZM74.8847 13.0431C74.5366 13.0065 74.2056 12.988 73.8918 12.988V13.388C74.19 13.388 74.507 13.4055 74.8428 13.4409L74.8847 13.0431ZM73.8918 12.988C73.1416 12.988 72.5242 13.1713 72.102 13.663C71.6865 14.1469 71.4958 14.8898 71.4958 15.924H71.8958C71.8958 14.9242 72.083 14.2991 72.4055 13.9235C72.7214 13.5557 73.2019 13.388 73.8918 13.388V12.988ZM71.4958 15.924V21H71.8958V15.924H71.4958ZM71.6958 20.8H69.8238V21.2H71.6958V20.8ZM70.0238 21V11.316H69.6238V21H70.0238ZM69.8238 11.516H71.6598V11.116H69.8238V11.516ZM71.4598 11.316V13.026H71.8598V11.316H71.4598ZM71.8415 13.1094C72.3132 12.0818 73.2155 11.4968 74.3448 11.48L74.3388 11.08C73.0561 11.0992 72.0143 11.7742 71.478 12.9426L71.8415 13.1094ZM74.3418 11.48C74.5067 11.48 74.6929 11.4802 74.8417 11.4968L74.8859 11.0992C74.7107 11.0798 74.5008 11.08 74.3418 11.08V11.48ZM74.6638 11.298V13.242H75.0638V11.298H74.6638ZM81.9517 15.006L81.9725 15.2049L82.1516 15.1861V15.006H81.9517ZM77.7577 14.376V14.576H77.9459L77.9573 14.3881L77.7577 14.376ZM75.8677 14.376L75.6683 14.3603L75.6513 14.576H75.8677V14.376ZM83.8417 15.186L83.6417 15.1835V15.186H83.8417ZM84.0757 21V21.2H84.3217L84.2715 20.9592L84.0757 21ZM82.2757 21L82.0792 21.0374L82.1102 21.2H82.2757V21ZM82.1137 19.722L82.3134 19.7103L82.2749 19.0576L81.9416 19.62L82.1137 19.722ZM82.0416 16.392H82.2417V16.1719L82.0226 16.1929L82.0416 16.392ZM75.6177 18.39C75.6177 17.8433 75.7771 17.4067 76.0656 17.0474C76.357 16.6844 76.7897 16.3889 77.3531 16.1459C78.4849 15.6577 80.09 15.4031 81.9725 15.2049L81.9307 14.8071C80.0512 15.0049 78.3893 15.2633 77.1946 15.7786C76.5948 16.0373 76.0995 16.3663 75.7537 16.7969C75.4048 17.2313 75.2177 17.7577 75.2177 18.39H75.6177ZM82.1516 15.006V14.808H81.7517V15.006H82.1516ZM82.1516 14.808C82.1516 13.9195 81.9174 13.2872 81.4915 12.8793C81.0673 12.473 80.487 12.322 79.8637 12.322V12.722C80.4284 12.722 80.8921 12.859 81.2149 13.1682C81.536 13.4758 81.7517 13.9865 81.7517 14.808H82.1516ZM79.8637 12.322C79.1827 12.322 78.6215 12.4972 78.2191 12.8538C77.8149 13.2119 77.5965 13.7303 77.5581 14.3639L77.9573 14.3881C77.9909 13.8337 78.1775 13.4251 78.4843 13.1532C78.7929 12.8798 79.2487 12.722 79.8637 12.722V12.322ZM77.7577 14.176H75.8677V14.576H77.7577V14.176ZM76.0671 14.3917C76.1437 13.421 76.5801 12.6489 77.2559 12.1166C77.9345 11.5823 78.8651 11.282 79.9357 11.282V10.882C78.7923 10.882 77.7699 11.2027 77.0085 11.8024C76.2443 12.4041 75.7537 13.279 75.6683 14.3603L76.0671 14.3917ZM79.9357 11.282C81.1579 11.282 82.0829 11.5767 82.6995 12.1891C83.3154 12.8009 83.6593 13.7653 83.6417 15.1835L84.0416 15.1885C84.06 13.7087 83.702 12.6211 82.9814 11.9054C82.2615 11.1903 81.2155 10.882 79.9357 10.882V11.282ZM83.6417 15.186C83.6417 15.3006 83.6327 15.7744 83.6236 16.2759C83.6147 16.7743 83.6057 17.2987 83.6057 17.508H84.0057C84.0057 17.3033 84.0146 16.7837 84.0237 16.2831C84.0326 15.7856 84.0416 15.3054 84.0416 15.186H83.6417ZM83.6057 17.508C83.6057 18.9539 83.6959 20.1574 83.8799 21.0408L84.2715 20.9592C84.0955 20.1146 84.0057 18.9421 84.0057 17.508H83.6057ZM84.0757 20.8H82.2757V21.2H84.0757V20.8ZM82.4722 20.9626C82.401 20.5891 82.3487 20.3104 82.3134 19.7103L81.9139 19.7337C81.9506 20.3576 82.0064 20.6549 82.0792 21.0374L82.4722 20.9626ZM81.9416 19.62C81.4128 20.5125 80.3938 21.034 78.8736 21.034V21.434C80.4854 21.434 81.6626 20.8755 82.2858 19.824L81.9416 19.62ZM78.8736 21.034C77.9274 21.034 77.1102 20.7734 76.5341 20.3168C75.9622 19.8634 75.6177 19.2097 75.6177 18.39H75.2177C75.2177 19.3343 75.6201 20.1026 76.2857 20.6302C76.9471 21.1546 77.8578 21.434 78.8736 21.434V21.034ZM82.0226 16.1929C80.5211 16.3368 79.348 16.5138 78.5476 16.8218C78.1456 16.9766 77.8212 17.1702 77.5965 17.4237C77.3673 17.6823 77.2517 17.9922 77.2517 18.354H77.6516C77.6516 18.0858 77.7341 17.8715 77.8958 17.689C78.0621 17.5015 78.3216 17.3374 78.6913 17.1952C79.4344 16.9092 80.5563 16.7352 82.0608 16.5911L82.0226 16.1929ZM77.2517 18.354C77.2517 18.8534 77.453 19.2725 77.8206 19.5619C78.1831 19.8472 78.6903 19.994 79.2877 19.994V19.594C78.7511 19.594 78.3402 19.4618 78.0682 19.2476C77.8013 19.0375 77.6516 18.7366 77.6516 18.354H77.2517ZM79.2877 19.994C80.0921 19.994 80.8339 19.7931 81.3771 19.3166C81.9248 18.8361 82.2417 18.1007 82.2417 17.094H81.8417C81.8417 18.0133 81.5556 18.6279 81.1133 19.0159C80.6664 19.4079 80.0313 19.594 79.2877 19.594V19.994ZM82.2417 17.094V16.392H81.8417V17.094H82.2417ZM88.0258 12.72H87.8259V13.4581L88.1984 12.821L88.0258 12.72ZM94.3079 21V21.2H94.5079V21H94.3079ZM92.4359 21H92.2359V21.2H92.4359V21ZM88.0258 21V21.2H88.2259V21H88.0258ZM86.1539 21H85.9538V21.2H86.1539V21ZM86.1539 11.316V11.116H85.9538V11.316H86.1539ZM88.0258 11.316H88.2259V11.116H88.0258V11.316ZM88.1984 12.821C88.718 11.9327 89.6216 11.336 91.0678 11.336V10.936C89.4899 10.936 88.4495 11.5993 87.8531 12.619L88.1984 12.821ZM91.0678 11.336C92.1914 11.336 92.9369 11.6965 93.408 12.2967C93.8863 12.906 94.1078 13.7945 94.1078 14.898H94.5079C94.5079 13.7515 94.2793 12.759 93.7226 12.0498C93.1588 11.3315 92.2841 10.936 91.0678 10.936V11.336ZM94.1078 14.898V21H94.5079V14.898H94.1078ZM94.3079 20.8H92.4359V21.2H94.3079V20.8ZM92.6358 21V15.402H92.2359V21H92.6358ZM92.6358 15.402C92.6358 14.6989 92.5794 13.9768 92.2729 13.428C92.1166 13.1482 91.8955 12.9131 91.5881 12.7498C91.2824 12.5874 90.9029 12.502 90.4379 12.502V12.902C90.8548 12.902 91.1661 12.9786 91.4004 13.1031C91.633 13.2266 91.801 13.4033 91.9237 13.623C92.1752 14.0732 92.2359 14.7011 92.2359 15.402H92.6358ZM90.4379 12.502C89.5741 12.502 88.9079 12.8172 88.4644 13.4076C88.0279 13.9889 87.8259 14.8121 87.8259 15.798H88.2259C88.2259 14.8579 88.4197 14.1331 88.7842 13.6479C89.1417 13.1718 89.6816 12.902 90.4379 12.902V12.502ZM87.8259 15.798V21H88.2259V15.798H87.8259ZM88.0258 20.8H86.1539V21.2H88.0258V20.8ZM86.3539 21V11.316H85.9538V21H86.3539ZM86.1539 11.516H88.0258V11.116H86.1539V11.516ZM87.8259 11.316V12.72H88.2259V11.316H87.8259ZM97.026 8.83205V8.63205H96.826V8.83205H97.026ZM98.8979 8.83205H99.098V8.63205H98.8979V8.83205ZM98.8979 11.316H98.698V11.516H98.8979V11.316ZM100.806 11.316H101.006V11.116H100.806V11.316ZM100.806 12.738V12.938H101.006V12.738H100.806ZM98.8979 12.738V12.538H98.698V12.738H98.8979ZM100.788 19.506H100.988V19.306H100.788V19.506ZM100.788 21V21.2H100.988V21H100.788ZM97.026 12.738H97.226V12.538H97.026V12.738ZM95.5499 12.738H95.35V12.938H95.5499V12.738ZM95.5499 11.316V11.116H95.35V11.316H95.5499ZM97.026 11.316V11.516H97.226V11.316H97.026ZM97.026 9.03205H98.8979V8.63205H97.026V9.03205ZM98.698 8.83205V11.316H99.098V8.83205H98.698ZM98.8979 11.516H100.806V11.116H98.8979V11.516ZM100.606 11.316V12.738H101.006V11.316H100.606ZM100.806 12.538H98.8979V12.938H100.806V12.538ZM98.698 12.738V18.264H99.098V12.738H98.698ZM98.698 18.264C98.698 18.5146 98.7079 18.7306 98.7411 18.9117C98.7744 19.0938 98.8337 19.2555 98.9431 19.3852C99.1654 19.6487 99.5297 19.706 99.9959 19.706V19.306C99.526 19.306 99.3415 19.2373 99.2488 19.1273C99.2007 19.0702 99.161 18.9834 99.1347 18.8397C99.1082 18.6952 99.098 18.5084 99.098 18.264H98.698ZM99.9959 19.706H100.788V19.306H99.9959V19.706ZM100.588 19.506V21H100.988V19.506H100.588ZM100.788 20.8H99.42V21.2H100.788V20.8ZM99.42 20.8C98.4361 20.8 97.9208 20.6728 97.632 20.3694C97.34 20.0625 97.226 19.5209 97.226 18.516H96.826C96.826 19.5091 96.9279 20.2095 97.3424 20.6451C97.7601 21.0842 98.4419 21.2 99.42 21.2V20.8ZM97.226 18.516V12.738H96.826V18.516H97.226ZM97.026 12.538H95.5499V12.938H97.026V12.538ZM95.75 12.738V11.316H95.35V12.738H95.75ZM95.5499 11.516H97.026V11.116H95.5499V11.516ZM97.226 11.316V8.83205H96.826V11.316H97.226ZM108.132 14.016L107.939 14.0686L107.979 14.216H108.132V14.016ZM105.378 15.006L105.338 15.202L105.34 15.2023L105.378 15.006ZM101.958 17.994V17.794H101.731L101.76 18.0195L101.958 17.994ZM103.866 17.994L104.061 17.9493L104.026 17.794H103.866V17.994ZM109.986 14.016V14.216H110.228L110.183 13.9782L109.986 14.016ZM108.325 13.9634C108.177 13.4201 107.871 13.0297 107.446 12.7794C107.027 12.5325 106.507 12.43 105.936 12.43V12.83C106.464 12.83 106.906 12.9255 107.243 13.1241C107.575 13.3193 107.817 13.6219 107.939 14.0686L108.325 13.9634ZM105.936 12.43C105.454 12.43 104.943 12.5286 104.544 12.7416C104.143 12.9556 103.828 13.3042 103.828 13.8H104.228C104.228 13.5038 104.408 13.2674 104.732 13.0944C105.058 12.9204 105.5 12.83 105.936 12.83V12.43ZM103.828 13.8C103.828 14.2107 103.965 14.527 104.245 14.7593C104.511 14.9808 104.889 15.1102 105.338 15.202L105.418 14.81C104.986 14.7218 104.689 14.6082 104.5 14.4517C104.325 14.306 104.228 14.1093 104.228 13.8H103.828ZM105.34 15.2023L106.726 15.4723L106.803 15.0797L105.417 14.8097L105.34 15.2023ZM106.726 15.4723C107.639 15.6514 108.464 15.8928 109.057 16.3064C109.637 16.7103 110.002 17.2808 110.002 18.156H110.402C110.402 17.1412 109.966 16.4517 109.286 15.9781C108.62 15.5142 107.725 15.2606 106.803 15.0797L106.726 15.4723ZM110.002 18.156C110.002 19.0659 109.58 19.7771 108.889 20.2677C108.193 20.7622 107.22 21.034 106.134 21.034V21.434C107.281 21.434 108.341 21.1478 109.121 20.5938C109.906 20.0359 110.402 19.2081 110.402 18.156H110.002ZM106.134 21.034C103.775 21.034 102.376 19.6752 102.157 17.9685L101.76 18.0195C102.008 19.9488 103.598 21.434 106.134 21.434V21.034ZM101.958 18.194H103.866V17.794H101.958V18.194ZM103.671 18.0387C103.805 18.62 104.067 19.1015 104.492 19.4359C104.916 19.77 105.481 19.94 106.188 19.94V19.54C105.545 19.54 105.075 19.386 104.739 19.1216C104.404 18.8575 104.18 18.466 104.061 17.9493L103.671 18.0387ZM106.188 19.94C106.816 19.94 107.39 19.8094 107.815 19.5509C108.246 19.2891 108.53 18.8888 108.53 18.372H108.13C108.13 18.7192 107.947 19.0029 107.608 19.2091C107.263 19.4186 106.767 19.54 106.188 19.54V19.94ZM108.53 18.372C108.53 17.8444 108.276 17.4717 107.893 17.2139C107.521 16.9636 107.025 16.818 106.515 16.7178L106.438 17.1102C106.935 17.208 107.366 17.3414 107.67 17.5456C107.962 17.7423 108.13 17.9996 108.13 18.372H108.53ZM106.515 16.7178L105.057 16.4298L104.98 16.8222L106.438 17.1102L106.515 16.7178ZM105.057 16.4298C104.339 16.288 103.671 16.0621 103.185 15.6674C102.708 15.281 102.392 14.7221 102.392 13.872H101.992C101.992 14.8399 102.36 15.514 102.933 15.9781C103.494 16.4339 104.239 16.676 104.98 16.8222L105.057 16.4298ZM102.392 13.872C102.392 13.0972 102.797 12.466 103.468 12.0204C104.144 11.5721 105.084 11.318 106.116 11.318V10.918C105.024 10.918 104.003 11.1859 103.247 11.6871C102.488 12.191 101.992 12.9368 101.992 13.872H102.392ZM106.116 11.318C107.988 11.318 109.452 12.2972 109.79 14.0538L110.183 13.9782C109.8 11.9908 108.133 10.918 106.116 10.918V11.318ZM109.986 13.816H108.132V14.216H109.986V13.816ZM118.676 13.476L118.741 13.6652L119.019 13.5697L118.828 13.3461L118.676 13.476ZM121.646 13.926L121.565 13.743L121.307 13.8567L121.5 14.0627L121.646 13.926ZM124.022 16.464L123.876 16.6007L124.092 16.8313L124.208 16.5375L124.022 16.464ZM124.598 13.854V13.654H124.413L124.399 13.8389L124.598 13.854ZM126.506 13.854L126.705 13.8721L126.725 13.654H126.506V13.854ZM125.3 17.832L125.126 17.7333L125.054 17.861L125.154 17.9683L125.3 17.832ZM128.252 21V21.2H128.712L128.398 20.8637L128.252 21ZM125.624 21L125.478 21.1364L125.537 21.2H125.624V21ZM124.13 19.398L124.276 19.2616L124.134 19.1089L123.987 19.2577L124.13 19.398ZM120.584 12.774L120.763 12.6846L120.749 12.6567L120.727 12.6344L120.584 12.774ZM120.602 12.81L120.423 12.8994L120.505 13.0632L120.675 12.9961L120.602 12.81ZM123.014 18.192L123.164 18.3243L123.284 18.1889L123.161 18.0563L123.014 18.192ZM119.72 14.628L119.867 14.4923L119.777 14.3947L119.652 14.44L119.72 14.628ZM115.654 17.4C115.654 15.5362 116.952 14.279 118.741 13.6652L118.611 13.2868C116.728 13.933 115.254 15.3038 115.254 17.4H115.654ZM118.828 13.3461C117.99 12.365 117.472 11.4578 117.472 10.506H117.072C117.072 11.6062 117.67 12.607 118.524 13.6059L118.828 13.3461ZM117.472 10.506C117.472 9.71639 117.819 9.07172 118.407 8.6193C118.999 8.1637 119.844 7.89805 120.836 7.89805V7.49805C119.776 7.49805 118.84 7.78139 118.163 8.3023C117.482 8.82637 117.072 9.58571 117.072 10.506H117.472ZM120.836 7.89805C121.62 7.89805 122.432 8.07741 123.04 8.49521C123.639 8.90627 124.056 9.55605 124.056 10.542H124.456C124.456 9.42205 123.973 8.64983 123.267 8.16539C122.571 7.68769 121.672 7.49805 120.836 7.49805V7.89805ZM124.056 10.542C124.056 12.0149 123.039 13.0938 121.565 13.743L121.727 14.109C123.277 13.4262 124.456 12.2371 124.456 10.542H124.056ZM121.5 14.0627L123.876 16.6007L124.168 16.3273L121.792 13.7893L121.5 14.0627ZM124.208 16.5375C124.522 15.7429 124.724 14.841 124.797 13.8691L124.399 13.8389C124.328 14.775 124.134 15.6371 123.836 16.3905L124.208 16.5375ZM124.598 14.054H126.506V13.654H124.598V14.054ZM126.307 13.8359C126.183 15.1972 125.794 16.5551 125.126 17.7333L125.474 17.9307C126.174 16.6969 126.577 15.2828 126.705 13.8721L126.307 13.8359ZM125.154 17.9683L128.106 21.1363L128.398 20.8637L125.446 17.6957L125.154 17.9683ZM128.252 20.8H125.624V21.2H128.252V20.8ZM125.77 20.8636L124.276 19.2616L123.984 19.5344L125.478 21.1364L125.77 20.8636ZM123.987 19.2577C122.923 20.3394 121.515 21.034 119.792 21.034V21.434C121.633 21.434 123.141 20.6886 124.273 19.5383L123.987 19.2577ZM119.792 21.034C118.512 21.034 117.477 20.6295 116.766 19.9793C116.055 19.3299 115.654 18.4255 115.654 17.4H115.254C115.254 18.5345 115.699 19.5471 116.496 20.2747C117.292 21.0015 118.427 21.434 119.792 21.434V21.034ZM120.405 12.8634L120.423 12.8994L120.781 12.7206L120.763 12.6846L120.405 12.8634ZM120.675 12.9961C121.906 12.5112 122.674 11.6451 122.674 10.596H122.274C122.274 11.4189 121.674 12.1728 120.529 12.6239L120.675 12.9961ZM122.674 10.596C122.674 10.0534 122.465 9.64252 122.12 9.3722C121.783 9.10722 121.334 8.99205 120.872 8.99205V9.39205C121.274 9.39205 121.626 9.49288 121.874 9.6869C122.114 9.87558 122.274 10.1666 122.274 10.596H122.674ZM120.872 8.99205C120.42 8.99205 119.972 9.10218 119.632 9.33524C119.285 9.57266 119.052 9.93727 119.052 10.416H119.452C119.452 10.0848 119.606 9.83744 119.858 9.66536C120.116 9.48892 120.478 9.39205 120.872 9.39205V8.99205ZM119.052 10.416C119.052 10.8643 119.234 11.3155 119.491 11.7335C119.749 12.1536 120.093 12.5569 120.441 12.9136L120.727 12.6344C120.391 12.2891 120.069 11.9094 119.832 11.524C119.594 11.1365 119.452 10.7597 119.452 10.416H119.052ZM123.161 18.0563L119.867 14.4923L119.573 14.7637L122.867 18.3277L123.161 18.0563ZM119.652 14.44C118.912 14.708 118.308 15.0699 117.887 15.5463C117.463 16.0268 117.234 16.6141 117.234 17.31H117.634C117.634 16.7099 117.828 16.2172 118.187 15.8111C118.549 15.4011 119.088 15.07 119.788 14.816L119.652 14.44ZM117.234 17.31C117.234 18.0833 117.526 18.7237 118.023 19.169C118.518 19.6122 119.203 19.85 119.972 19.85V19.45C119.284 19.45 118.699 19.2378 118.29 18.871C117.882 18.5063 117.634 17.9767 117.634 17.31H117.234ZM119.972 19.85C121.226 19.85 122.322 19.2783 123.164 18.3243L122.864 18.0597C122.086 18.9417 121.094 19.45 119.972 19.45V19.85ZM133.302 7.95005V7.75005H133.102V7.95005H133.302ZM141.294 14.052L141.195 13.8786L140.854 14.0744L141.213 14.2346L141.294 14.052ZM133.302 21H133.102V21.2H133.302V21ZM135.354 13.476H135.154V13.676H135.354V13.476ZM135.354 9.64205V9.44205H135.154V9.64205H135.354ZM135.354 19.308H135.154V19.508H135.354V19.308ZM135.354 15.06V14.86H135.154V15.06H135.354ZM133.302 8.15005H138.108V7.75005H133.302V8.15005ZM138.108 8.15005C139.295 8.15005 140.409 8.30749 141.22 8.76959C141.622 8.99869 141.948 9.30149 142.175 9.69721C142.401 10.0931 142.534 10.5932 142.534 11.226H142.934C142.934 10.5358 142.789 9.96491 142.522 9.49858C142.255 9.03198 141.873 8.68116 141.418 8.42201C140.515 7.90761 139.316 7.75005 138.108 7.75005V8.15005ZM142.534 11.226C142.534 12.3939 141.966 13.4354 141.195 13.8786L141.394 14.2254C142.314 13.6966 142.934 12.5061 142.934 11.226H142.534ZM141.213 14.2346C141.774 14.4851 142.231 14.8202 142.549 15.2815C142.867 15.7417 143.056 16.3438 143.056 17.148H143.456C143.456 16.2782 143.25 15.5933 142.879 15.0545C142.508 14.5168 141.984 14.1409 141.376 13.8694L141.213 14.2346ZM143.056 17.148C143.056 18.4754 142.552 19.3752 141.747 19.9508C140.932 20.5339 139.787 20.8 138.486 20.8V21.2C139.832 21.2 141.071 20.9261 141.98 20.2762C142.899 19.6188 143.456 18.5926 143.456 17.148H143.056ZM138.486 20.8H133.302V21.2H138.486V20.8ZM133.502 21V7.95005H133.102V21H133.502ZM135.354 13.676H138.36V13.276H135.354V13.676ZM138.36 13.676C139.086 13.676 139.714 13.5232 140.165 13.159C140.622 12.7886 140.864 12.2256 140.864 11.478H140.464C140.464 12.1344 140.256 12.5704 139.913 12.848C139.562 13.1318 139.039 13.276 138.36 13.276V13.676ZM140.864 11.478C140.864 10.8005 140.606 10.2795 140.145 9.9343C139.693 9.5954 139.069 9.44205 138.36 9.44205V9.84205C139.019 9.84205 139.547 9.98569 139.905 10.2542C140.255 10.5165 140.464 10.9135 140.464 11.478H140.864ZM138.36 9.44205H135.354V9.84205H138.36V9.44205ZM135.154 9.64205V13.476H135.554V9.64205H135.154ZM135.354 19.508H138.54V19.108H135.354V19.508ZM138.54 19.508C139.439 19.508 140.145 19.3093 140.629 18.9005C141.119 18.4868 141.35 17.8844 141.35 17.148H140.95C140.95 17.7976 140.75 18.2752 140.371 18.595C139.987 18.9197 139.388 19.108 138.54 19.108V19.508ZM141.35 17.148C141.35 16.3858 141.119 15.7956 140.608 15.4051C140.108 15.0235 139.376 14.86 138.432 14.86V15.26C139.343 15.26 139.969 15.4205 140.365 15.7229C140.749 16.0164 140.95 16.4702 140.95 17.148H141.35ZM138.432 14.86H135.354V15.26H138.432V14.86ZM135.154 15.06V19.308H135.554V15.06H135.154ZM151.139 15.006L151.16 15.2049L151.339 15.1861V15.006H151.139ZM146.945 14.376V14.576H147.133L147.145 14.3881L146.945 14.376ZM145.055 14.376L144.856 14.3603L144.838 14.576H145.055V14.376ZM153.029 15.186L152.829 15.1835V15.186H153.029ZM153.263 21V21.2H153.509L153.459 20.9592L153.263 21ZM151.463 21L151.266 21.0374L151.297 21.2H151.463V21ZM151.301 19.722L151.501 19.7103L151.462 19.0576L151.129 19.62L151.301 19.722ZM151.229 16.392H151.429V16.1719L151.21 16.1929L151.229 16.392ZM144.805 18.39C144.805 17.8433 144.964 17.4067 145.253 17.0474C145.544 16.6844 145.977 16.3889 146.54 16.1459C147.672 15.6577 149.277 15.4031 151.16 15.2049L151.118 14.8071C149.238 15.0049 147.577 15.2633 146.382 15.7786C145.782 16.0373 145.287 16.3663 144.941 16.7969C144.592 17.2313 144.405 17.7577 144.405 18.39H144.805ZM151.339 15.006V14.808H150.939V15.006H151.339ZM151.339 14.808C151.339 13.9195 151.105 13.2872 150.679 12.8793C150.255 12.473 149.674 12.322 149.051 12.322V12.722C149.616 12.722 150.079 12.859 150.402 13.1682C150.723 13.4758 150.939 13.9865 150.939 14.808H151.339ZM149.051 12.322C148.37 12.322 147.809 12.4972 147.406 12.8538C147.002 13.2119 146.784 13.7303 146.745 14.3639L147.145 14.3881C147.178 13.8337 147.365 13.4251 147.672 13.1532C147.98 12.8798 148.436 12.722 149.051 12.722V12.322ZM146.945 14.176H145.055V14.576H146.945V14.176ZM145.254 14.3917C145.331 13.421 145.767 12.6489 146.443 12.1166C147.122 11.5823 148.052 11.282 149.123 11.282V10.882C147.98 10.882 146.957 11.2027 146.196 11.8024C145.432 12.4041 144.941 13.279 144.856 14.3603L145.254 14.3917ZM149.123 11.282C150.345 11.282 151.27 11.5767 151.887 12.1891C152.503 12.8009 152.847 13.7653 152.829 15.1835L153.229 15.1885C153.247 13.7087 152.889 12.6211 152.169 11.9054C151.449 11.1903 150.403 10.882 149.123 10.882V11.282ZM152.829 15.186C152.829 15.3006 152.82 15.7744 152.811 16.2759C152.802 16.7743 152.793 17.2987 152.793 17.508H153.193C153.193 17.3033 153.202 16.7837 153.211 16.2831C153.22 15.7856 153.229 15.3054 153.229 15.186H152.829ZM152.793 17.508C152.793 18.9539 152.883 20.1574 153.067 21.0408L153.459 20.9592C153.283 20.1146 153.193 18.9421 153.193 17.508H152.793ZM153.263 20.8H151.463V21.2H153.263V20.8ZM151.659 20.9626C151.588 20.5891 151.536 20.3104 151.501 19.7103L151.101 19.7337C151.138 20.3576 151.194 20.6549 151.266 21.0374L151.659 20.9626ZM151.129 19.62C150.6 20.5125 149.581 21.034 148.061 21.034V21.434C149.673 21.434 150.85 20.8755 151.473 19.824L151.129 19.62ZM148.061 21.034C147.115 21.034 146.297 20.7734 145.721 20.3168C145.149 19.8634 144.805 19.2097 144.805 18.39H144.405C144.405 19.3343 144.807 20.1026 145.473 20.6302C146.134 21.1546 147.045 21.434 148.061 21.434V21.034ZM151.21 16.1929C149.708 16.3368 148.535 16.5138 147.735 16.8218C147.333 16.9766 147.008 17.1702 146.784 17.4237C146.554 17.6823 146.439 17.9922 146.439 18.354H146.839C146.839 18.0858 146.921 17.8715 147.083 17.689C147.249 17.5015 147.509 17.3374 147.878 17.1952C148.622 16.9092 149.744 16.7352 151.248 16.5911L151.21 16.1929ZM146.439 18.354C146.439 18.8534 146.64 19.2725 147.008 19.5619C147.37 19.8472 147.878 19.994 148.475 19.994V19.594C147.938 19.594 147.527 19.4618 147.255 19.2476C146.988 19.0375 146.839 18.7366 146.839 18.354H146.439ZM148.475 19.994C149.279 19.994 150.021 19.7931 150.564 19.3166C151.112 18.8361 151.429 18.1007 151.429 17.094H151.029C151.029 18.0133 150.743 18.6279 150.301 19.0159C149.854 19.4079 149.219 19.594 148.475 19.594V19.994ZM151.429 17.094V16.392H151.029V17.094H151.429ZM160.381 13.242L160.36 13.4409L160.581 13.4642V13.242H160.381ZM157.213 21V21.2H157.413V21H157.213ZM155.341 21H155.141V21.2H155.341V21ZM155.341 11.316V11.116H155.141V11.316H155.341ZM157.177 11.316H157.377V11.116H157.177V11.316ZM157.177 13.026H156.977L157.359 13.1094L157.177 13.026ZM159.859 11.28V11.08H159.856L159.859 11.28ZM160.381 11.298H160.581V11.119L160.403 11.0992L160.381 11.298ZM160.402 13.0431C160.054 13.0065 159.723 12.988 159.409 12.988V13.388C159.707 13.388 160.024 13.4055 160.36 13.4409L160.402 13.0431ZM159.409 12.988C158.659 12.988 158.041 13.1713 157.619 13.663C157.204 14.1469 157.013 14.8898 157.013 15.924H157.413C157.413 14.9242 157.6 14.2991 157.923 13.9235C158.239 13.5557 158.719 13.388 159.409 13.388V12.988ZM157.013 15.924V21H157.413V15.924H157.013ZM157.213 20.8H155.341V21.2H157.213V20.8ZM155.541 21V11.316H155.141V21H155.541ZM155.341 11.516H157.177V11.116H155.341V11.516ZM156.977 11.316V13.026H157.377V11.316H156.977ZM157.359 13.1094C157.831 12.0818 158.733 11.4968 159.862 11.48L159.856 11.08C158.573 11.0992 157.532 11.7742 156.995 12.9426L157.359 13.1094ZM159.859 11.48C160.024 11.48 160.21 11.4802 160.359 11.4968L160.403 11.0992C160.228 11.0798 160.018 11.08 159.859 11.08V11.48ZM160.181 11.298V13.242H160.581V11.298H160.181ZM167.283 14.016L167.09 14.0686L167.13 14.216H167.283V14.016ZM164.529 15.006L164.489 15.202L164.49 15.2023L164.529 15.006ZM161.109 17.994V17.794H160.881L160.91 18.0195L161.109 17.994ZM163.017 17.994L163.212 17.9493L163.176 17.794H163.017V17.994ZM169.137 14.016V14.216H169.379L169.333 13.9782L169.137 14.016ZM167.476 13.9634C167.327 13.4201 167.021 13.0297 166.597 12.7794C166.178 12.5325 165.657 12.43 165.087 12.43V12.83C165.614 12.83 166.057 12.9255 166.394 13.1241C166.725 13.3193 166.968 13.6219 167.09 14.0686L167.476 13.9634ZM165.087 12.43C164.604 12.43 164.093 12.5286 163.694 12.7416C163.293 12.9556 162.979 13.3042 162.979 13.8H163.379C163.379 13.5038 163.559 13.2674 163.883 13.0944C164.208 12.9204 164.651 12.83 165.087 12.83V12.43ZM162.979 13.8C162.979 14.2107 163.116 14.527 163.395 14.7593C163.661 14.9808 164.039 15.1102 164.489 15.202L164.569 14.81C164.136 14.7218 163.839 14.6082 163.651 14.4517C163.476 14.306 163.379 14.1093 163.379 13.8H162.979ZM164.49 15.2023L165.876 15.4723L165.953 15.0797L164.567 14.8097L164.49 15.2023ZM165.876 15.4723C166.79 15.6514 167.614 15.8928 168.208 16.3064C168.788 16.7103 169.153 17.2808 169.153 18.156H169.553C169.553 17.1412 169.116 16.4517 168.436 15.9781C167.77 15.5142 166.876 15.2606 165.953 15.0797L165.876 15.4723ZM169.153 18.156C169.153 19.0659 168.73 19.7771 168.04 20.2677C167.344 20.7622 166.37 21.034 165.285 21.034V21.434C166.431 21.434 167.492 21.1478 168.271 20.5938C169.057 20.0359 169.553 19.2081 169.553 18.156H169.153ZM165.285 21.034C162.925 21.034 161.527 19.6752 161.307 17.9685L160.91 18.0195C161.159 19.9488 162.748 21.434 165.285 21.434V21.034ZM161.109 18.194H163.017V17.794H161.109V18.194ZM162.822 18.0387C162.955 18.62 163.217 19.1015 163.642 19.4359C164.067 19.77 164.632 19.94 165.339 19.94V19.54C164.695 19.54 164.226 19.386 163.89 19.1216C163.554 18.8575 163.33 18.466 163.212 17.9493L162.822 18.0387ZM165.339 19.94C165.966 19.94 166.541 19.8094 166.966 19.5509C167.396 19.2891 167.681 18.8888 167.681 18.372H167.281C167.281 18.7192 167.097 19.0029 166.758 19.2091C166.414 19.4186 165.917 19.54 165.339 19.54V19.94ZM167.681 18.372C167.681 17.8444 167.426 17.4717 167.043 17.2139C166.672 16.9636 166.176 16.818 165.665 16.7178L165.588 17.1102C166.086 17.208 166.517 17.3414 166.82 17.5456C167.112 17.7423 167.281 17.9996 167.281 18.372H167.681ZM165.665 16.7178L164.207 16.4298L164.13 16.8222L165.588 17.1102L165.665 16.7178ZM164.207 16.4298C163.49 16.288 162.821 16.0621 162.335 15.6674C161.859 15.281 161.543 14.7221 161.543 13.872H161.143C161.143 14.8399 161.511 15.514 162.083 15.9781C162.645 16.4339 163.389 16.676 164.13 16.8222L164.207 16.4298ZM161.543 13.872C161.543 13.0972 161.947 12.466 162.619 12.0204C163.294 11.5721 164.234 11.318 165.267 11.318V10.918C164.175 10.918 163.153 11.1859 162.398 11.6871C161.638 12.191 161.143 12.9368 161.143 13.872H161.543ZM165.267 11.318C167.138 11.318 168.602 12.2972 168.94 14.0538L169.333 13.9782C168.951 11.9908 167.283 10.918 165.267 10.918V11.318ZM169.137 13.816H167.283V14.216H169.137V13.816Z" fill="black"/>
</g>
</g>
<defs>
<clipPath id="clip0_4_244">
<rect width="180" height="30" fill="white"/>
</clipPath>
</defs>
</svg>
