<svg width="159" height="30" viewBox="0 0 159 30" fill="none" xmlns="http://www.w3.org/2000/svg">
<rect x="0.5" y="0.5" width="158" height="29" rx="4.5" fill="black"/>
<rect x="0.5" y="0.5" width="158" height="29" rx="4.5" stroke="black"/>
<path d="M11.858 7.95H20.642V9.696H13.91V13.422H20.246V15.15H13.91V21H11.858V7.95ZM27.9196 19.632C27.3616 20.604 26.4256 21.234 24.9676 21.234C22.6816 21.234 21.7996 19.812 21.7996 17.472V11.316H23.6716V16.968C23.6716 18.372 23.9056 19.65 25.5976 19.65C27.1636 19.65 27.9376 18.48 27.9376 16.572V11.316H29.8096V21H27.9196V19.632ZM37.3547 13.242C37.0127 13.206 36.6887 13.188 36.3827 13.188C34.9427 13.188 34.1867 13.89 34.1867 15.924V21H32.3147V11.316H34.1507V13.026C34.6547 11.928 35.6267 11.298 36.8327 11.28C36.9947 11.28 37.1927 11.28 37.3547 11.298V13.242ZM40.7082 12.72C41.2662 11.766 42.2382 11.136 43.7502 11.136C46.0902 11.136 46.9902 12.648 46.9902 14.898V21H45.1182V15.402C45.1182 13.998 44.8842 12.702 43.1202 12.702C41.5002 12.702 40.7082 13.872 40.7082 15.798V21H38.8362V11.316H40.7082V12.72ZM51.2023 7.95V10.02H49.3303V7.95H51.2023ZM51.2023 11.316V21H49.3303V11.316H51.2023ZM54.1028 8.832H55.9748V11.316H57.8828V12.738H55.9748V18.264C55.9748 19.254 56.1368 19.506 57.0728 19.506H57.8648V21H56.4968C54.5348 21 54.1028 20.514 54.1028 18.516V12.738H52.6268V11.316H54.1028V8.832ZM65.6774 19.632C65.1194 20.604 64.1834 21.234 62.7254 21.234C60.4394 21.234 59.5574 19.812 59.5574 17.472V11.316H61.4294V16.968C61.4294 18.372 61.6634 19.65 63.3554 19.65C64.9214 19.65 65.6954 18.48 65.6954 16.572V11.316H67.5674V21H65.6774V19.632ZM75.1125 13.242C74.7705 13.206 74.4465 13.188 74.1405 13.188C72.7005 13.188 71.9445 13.89 71.9445 15.924V21H70.0725V11.316H71.9085V13.026C72.4125 11.928 73.3845 11.298 74.5905 11.28C74.7525 11.28 74.9505 11.28 75.1125 11.298V13.242ZM83.0422 18.156H84.9322C84.4822 19.758 83.0422 21.234 80.5762 21.234C77.4442 21.234 75.7522 18.948 75.7522 16.14C75.7522 13.134 77.7682 11.136 80.5222 11.136C83.5102 11.136 85.2562 13.584 85.0582 16.734H77.6782C77.8582 18.516 78.9922 19.632 80.5042 19.632C81.8542 19.632 82.6462 19.074 83.0422 18.156ZM77.7142 15.258H83.1142C83.0602 13.818 82.0522 12.666 80.5042 12.666C79.0462 12.666 77.9662 13.422 77.7142 15.258ZM90.2675 17.4C90.2675 15.42 91.6535 14.106 93.4895 13.476C92.6435 12.486 92.0855 11.532 92.0855 10.506C92.0855 8.796 93.5975 7.698 95.6495 7.698C97.2695 7.698 99.0695 8.436 99.0695 10.542C99.0695 12.126 97.9715 13.26 96.4595 13.926L98.8355 16.464C99.1415 15.69 99.3395 14.808 99.4115 13.854H101.32C101.194 15.24 100.798 16.626 100.114 17.832L103.066 21H100.438L98.9435 19.398C97.8455 20.514 96.3875 21.234 94.6055 21.234C91.9595 21.234 90.2675 19.56 90.2675 17.4ZM95.3975 12.774L95.4155 12.81C96.6035 12.342 97.2875 11.532 97.2875 10.596C97.2875 9.624 96.5495 9.192 95.6855 9.192C94.8395 9.192 94.0655 9.606 94.0655 10.416C94.0655 11.208 94.7135 12.072 95.3975 12.774ZM97.8275 18.192L94.5335 14.628C93.0935 15.15 92.2475 16.014 92.2475 17.31C92.2475 18.75 93.3275 19.65 94.7855 19.65C95.9735 19.65 97.0175 19.11 97.8275 18.192ZM110.168 19.254H116.9V21H108.116V7.95H110.168V19.254ZM120.038 7.95V10.02H118.166V7.95H120.038ZM120.038 11.316V21H118.166V11.316H120.038ZM129.005 11.316H130.877V19.866C130.877 21.648 130.499 22.602 129.833 23.268C129.095 24.042 127.925 24.438 126.449 24.438C124.289 24.438 122.705 23.502 122.399 21.468H124.325C124.523 22.35 125.081 22.872 126.485 22.872C127.403 22.872 128.033 22.62 128.429 22.17C128.807 21.756 129.005 21.252 129.005 20.262V19.236C128.411 20.226 127.439 20.838 126.017 20.838C123.767 20.838 121.895 19.056 121.895 15.978C121.895 12.918 123.767 11.136 126.017 11.136C127.439 11.136 128.411 11.748 129.005 12.738V11.316ZM126.449 12.684C124.901 12.684 123.893 13.908 123.893 15.978C123.893 18.084 124.901 19.308 126.449 19.308C127.889 19.308 129.077 18.3 129.077 15.978C129.077 13.674 127.889 12.684 126.449 12.684ZM135.243 12.72C135.801 11.766 136.773 11.136 138.285 11.136C140.625 11.136 141.525 12.648 141.525 14.898V21H139.653V15.402C139.653 13.998 139.419 12.702 137.655 12.702C136.035 12.702 135.243 13.872 135.243 15.798V21H133.371V7.95H135.243V12.72ZM144.243 8.832H146.115V11.316H148.023V12.738H146.115V18.264C146.115 19.254 146.277 19.506 147.213 19.506H148.005V21H146.637C144.675 21 144.243 20.514 144.243 18.516V12.738H142.767V11.316H144.243V8.832Z" fill="white"/>
</svg>
