<svg width="129" height="30" viewBox="0 0 129 30" fill="none" xmlns="http://www.w3.org/2000/svg">
<g clip-path="url(#clip0_4_189)">
<mask id="mask0_4_189" style="mask-type:luminance" maskUnits="userSpaceOnUse" x="0" y="0" width="129" height="30">
<path d="M129 0H0V30H129V0Z" fill="white"/>
</mask>
<g mask="url(#mask0_4_189)">
<path d="M124 0.5H5C2.51472 0.5 0.5 2.51472 0.5 5V25C0.5 27.4853 2.51472 29.5 5 29.5H124C126.485 29.5 128.5 27.4853 128.5 25V5C128.5 2.51472 126.485 0.5 124 0.5Z" stroke="black"/>
<path d="M22.5437 7.95V21H20.4917V15.15H13.9397V21H11.8877V7.95H13.9397V13.422H20.4917V7.95H22.5437ZM34.0088 16.194C34.0088 19.686 31.5968 21.234 29.2928 21.234C27.0068 21.234 24.5948 19.686 24.5948 16.194C24.5948 12.684 27.0068 11.136 29.2928 11.136C31.5968 11.136 34.0088 12.684 34.0088 16.194ZM29.2928 19.65C30.7148 19.65 32.0288 18.552 32.0288 16.194C32.0288 13.782 30.7148 12.72 29.2928 12.72C27.8888 12.72 26.5748 13.746 26.5748 16.194C26.5748 18.588 27.8888 19.65 29.2928 19.65ZM36.2556 8.832H38.1276V11.316H40.0356V12.738H38.1276V18.264C38.1276 19.254 38.2896 19.506 39.2256 19.506H40.0176V21H38.6496C36.6876 21 36.2556 20.514 36.2556 18.516V12.738H34.7796V11.316H36.2556V8.832ZM48.3903 18.156H50.2803C49.8303 19.758 48.3903 21.234 45.9243 21.234C42.7923 21.234 41.1003 18.948 41.1003 16.14C41.1003 13.134 43.1163 11.136 45.8703 11.136C48.8583 11.136 50.6043 13.584 50.4063 16.734H43.0263C43.2063 18.516 44.3403 19.632 45.8523 19.632C47.2023 19.632 47.9943 19.074 48.3903 18.156ZM43.0623 15.258H48.4623C48.4083 13.818 47.4003 12.666 45.8523 12.666C44.3943 12.666 43.3143 13.422 43.0623 15.258ZM54.1148 21H52.2428V7.95H54.1148V21ZM62.1454 14.016C61.8754 13.026 61.0474 12.63 59.9494 12.63C59.0314 12.63 58.0414 13.008 58.0414 13.8C58.0414 14.52 58.5094 14.826 59.3914 15.006L60.7774 15.276C62.6134 15.636 64.2154 16.266 64.2154 18.156C64.2154 20.118 62.3794 21.234 60.1474 21.234C57.6994 21.234 56.2054 19.812 55.9714 17.994H57.8794C58.1314 19.092 58.8514 19.74 60.2014 19.74C61.4074 19.74 62.3434 19.236 62.3434 18.372C62.3434 17.472 61.4974 17.112 60.4894 16.914L59.0314 16.626C57.5734 16.338 56.2054 15.69 56.2054 13.872C56.2054 12.162 58.0054 11.118 60.1294 11.118C62.0734 11.118 63.6394 12.144 63.9994 14.016H62.1454ZM69.4671 17.4C69.4671 15.42 70.8531 14.106 72.6891 13.476C71.8431 12.486 71.2851 11.532 71.2851 10.506C71.2851 8.796 72.7971 7.698 74.8491 7.698C76.4691 7.698 78.2691 8.436 78.2691 10.542C78.2691 12.126 77.1711 13.26 75.6591 13.926L78.0351 16.464C78.3411 15.69 78.5391 14.808 78.6111 13.854H80.5191C80.3931 15.24 79.9971 16.626 79.3131 17.832L82.2651 21H79.6371L78.1431 19.398C77.0451 20.514 75.5871 21.234 73.8051 21.234C71.1591 21.234 69.4671 19.56 69.4671 17.4ZM74.5971 12.774L74.6151 12.81C75.8031 12.342 76.4871 11.532 76.4871 10.596C76.4871 9.624 75.7491 9.192 74.8851 9.192C74.0391 9.192 73.2651 9.606 73.2651 10.416C73.2651 11.208 73.9131 12.072 74.5971 12.774ZM77.0271 18.192L73.7331 14.628C72.2931 15.15 71.4471 16.014 71.4471 17.31C71.4471 18.75 72.5271 19.65 73.9851 19.65C75.1731 19.65 76.2171 19.11 77.0271 18.192ZM90.4654 14.952C88.6114 14.574 86.8474 13.53 86.8474 11.334C86.8474 8.868 89.4214 7.716 91.6174 7.716C94.0114 7.716 96.0814 8.814 96.5854 11.442H94.6054C94.1914 9.894 92.7694 9.426 91.5274 9.426C90.5734 9.426 88.9354 9.876 88.9354 11.244C88.9354 12.324 89.7994 12.882 90.9154 13.116L92.4634 13.44C94.5514 13.872 96.8374 14.664 96.8374 17.292C96.8374 19.884 94.3534 21.234 91.8154 21.234C88.7914 21.234 86.7574 19.56 86.4514 16.824H88.4674C88.8454 18.606 90.0514 19.524 91.8874 19.524C93.5794 19.524 94.7674 18.714 94.7674 17.454C94.7674 16.104 93.4714 15.564 92.0674 15.276L90.4654 14.952ZM100.591 11.316V12.738C101.185 11.748 102.193 11.136 103.615 11.136C105.865 11.136 107.791 13.026 107.791 16.176C107.791 19.344 105.865 21.234 103.615 21.234C102.193 21.234 101.185 20.622 100.591 19.632V24.15H98.7194V11.316H100.591ZM103.183 19.668C104.731 19.668 105.793 18.354 105.793 16.176C105.793 13.998 104.731 12.702 103.183 12.702C101.743 12.702 100.519 13.782 100.519 16.176C100.519 18.57 101.743 19.668 103.183 19.668ZM109.077 18.39C109.077 16.032 111.849 15.402 115.611 15.006V14.808C115.611 13.098 114.711 12.522 113.523 12.522C112.227 12.522 111.489 13.188 111.417 14.376H109.527C109.689 12.324 111.381 11.082 113.595 11.082C116.097 11.082 117.537 12.288 117.501 15.186C117.501 15.42 117.465 17.094 117.465 17.508C117.465 18.948 117.555 20.136 117.735 21H115.935C115.863 20.622 115.809 20.334 115.773 19.722C115.197 20.694 114.099 21.234 112.533 21.234C110.571 21.234 109.077 20.154 109.077 18.39ZM115.701 16.392C112.695 16.68 111.111 17.094 111.111 18.354C111.111 19.236 111.813 19.794 112.947 19.794C114.495 19.794 115.701 19.02 115.701 17.094V16.392Z" fill="black"/>
<path d="M22.5435 7.95005H22.7435V7.75005H22.5435V7.95005ZM22.5435 21V21.2H22.7435V21H22.5435ZM20.4915 21H20.2915V21.2H20.4915V21ZM20.4915 15.15H20.6915V14.95H20.4915V15.15ZM13.9395 15.15V14.95H13.7395V15.15H13.9395ZM13.9395 21V21.2H14.1395V21H13.9395ZM11.8875 21H11.6875V21.2H11.8875V21ZM11.8875 7.95005V7.75005H11.6875V7.95005H11.8875ZM13.9395 7.95005H14.1395V7.75005H13.9395V7.95005ZM13.9395 13.422H13.7395V13.622H13.9395V13.422ZM20.4915 13.422V13.622H20.6915V13.422H20.4915ZM20.4915 7.95005V7.75005H20.2915V7.95005H20.4915ZM22.3435 7.95005V21H22.7435V7.95005H22.3435ZM22.5435 20.8H20.4915V21.2H22.5435V20.8ZM20.6915 21V15.15H20.2915V21H20.6915ZM20.4915 14.95H13.9395V15.35H20.4915V14.95ZM13.7395 15.15V21H14.1395V15.15H13.7395ZM13.9395 20.8H11.8875V21.2H13.9395V20.8ZM12.0875 21V7.95005H11.6875V21H12.0875ZM11.8875 8.15005H13.9395V7.75005H11.8875V8.15005ZM13.7395 7.95005V13.422H14.1395V7.95005H13.7395ZM13.9395 13.622H20.4915V13.222H13.9395V13.622ZM20.6915 13.422V7.95005H20.2915V13.422H20.6915ZM20.4915 8.15005H22.5435V7.75005H20.4915V8.15005ZM33.8086 16.194C33.8086 17.8906 33.2244 19.0951 32.3789 19.8766C31.5299 20.6613 30.4016 21.034 29.2926 21.034V21.434C30.4876 21.434 31.7174 21.0327 32.6504 20.1704C33.5868 19.3049 34.2086 17.9894 34.2086 16.194H33.8086ZM29.2926 21.034C28.193 21.034 27.0692 20.6615 26.2223 19.8768C25.3788 19.0953 24.7946 17.8907 24.7946 16.194H24.3946C24.3946 17.9893 25.0164 19.3047 25.9504 20.1702C26.881 21.0325 28.1063 21.434 29.2926 21.434V21.034ZM24.7946 16.194C24.7946 14.488 25.3791 13.2789 26.2225 12.4953C27.0693 11.7085 28.193 11.336 29.2926 11.336V10.936C28.1063 10.936 26.8809 11.3375 25.9502 12.2022C25.0162 13.0701 24.3946 14.39 24.3946 16.194H24.7946ZM29.2926 11.336C30.4016 11.336 31.5297 11.7087 32.3787 12.4954C33.2242 13.2791 33.8086 14.488 33.8086 16.194H34.2086C34.2086 14.39 33.587 13.0699 32.6506 12.2021C31.7175 11.3373 30.4876 10.936 29.2926 10.936V11.336ZM29.2926 19.85C30.0567 19.85 30.7965 19.554 31.3433 18.9392C31.8894 18.3251 32.2286 17.4098 32.2286 16.194H31.8286C31.8286 17.3362 31.5108 18.1489 31.0444 18.6733C30.5787 19.197 29.9506 19.45 29.2926 19.45V19.85ZM32.2286 16.194C32.2286 14.9523 31.89 14.0318 31.3431 13.4193C30.7952 12.8057 30.0548 12.52 29.2926 12.52V12.92C29.9524 12.92 30.5801 13.1653 31.0447 13.6857C31.5103 14.2071 31.8286 15.0237 31.8286 16.194H32.2286ZM29.2926 12.52C28.5407 12.52 27.8045 12.7958 27.2582 13.4055C26.7129 14.0141 26.3746 14.935 26.3746 16.194H26.7746C26.7746 15.005 27.0933 14.1889 27.5561 13.6725C28.0178 13.1572 28.6406 12.92 29.2926 12.92V12.52ZM26.3746 16.194C26.3746 17.4271 26.7135 18.3429 27.2579 18.9529C27.8032 19.5639 28.5388 19.85 29.2926 19.85V19.45C28.6424 19.45 28.0191 19.2051 27.5563 18.6866C27.0928 18.1671 26.7746 17.3549 26.7746 16.194H26.3746ZM36.2554 8.83205V8.63205H36.0554V8.83205H36.2554ZM38.1274 8.83205H38.3274V8.63205H38.1274V8.83205ZM38.1274 11.316H37.9274V11.516H38.1274V11.316ZM40.0354 11.316H40.2354V11.116H40.0354V11.316ZM40.0354 12.738V12.938H40.2354V12.738H40.0354ZM38.1274 12.738V12.538H37.9274V12.738H38.1274ZM40.0174 19.506H40.2174V19.306H40.0174V19.506ZM40.0174 21V21.2H40.2174V21H40.0174ZM36.2554 12.738H36.4554V12.538H36.2554V12.738ZM34.7794 12.738H34.5794V12.938H34.7794V12.738ZM34.7794 11.316V11.116H34.5794V11.316H34.7794ZM36.2554 11.316V11.516H36.4554V11.316H36.2554ZM36.2554 9.03205H38.1274V8.63205H36.2554V9.03205ZM37.9274 8.83205V11.316H38.3274V8.83205H37.9274ZM38.1274 11.516H40.0354V11.116H38.1274V11.516ZM39.8354 11.316V12.738H40.2354V11.316H39.8354ZM40.0354 12.538H38.1274V12.938H40.0354V12.538ZM37.9274 12.738V18.264H38.3274V12.738H37.9274ZM37.9274 18.264C37.9274 18.5146 37.9374 18.7306 37.9706 18.9117C38.0039 19.0938 38.0631 19.2555 38.1725 19.3852C38.3948 19.6487 38.7592 19.706 39.2254 19.706V19.306C38.7555 19.306 38.571 19.2373 38.4783 19.1273C38.4301 19.0702 38.3904 18.9834 38.3641 18.8397C38.3376 18.6952 38.3274 18.5084 38.3274 18.264H37.9274ZM39.2254 19.706H40.0174V19.306H39.2254V19.706ZM39.8174 19.506V21H40.2174V19.506H39.8174ZM40.0174 20.8H38.6494V21.2H40.0174V20.8ZM38.6494 20.8C37.6655 20.8 37.1503 20.6728 36.8615 20.3694C36.5695 20.0625 36.4554 19.5209 36.4554 18.516H36.0554C36.0554 19.5091 36.1572 20.2095 36.5717 20.6451C36.9895 21.0842 37.6713 21.2 38.6494 21.2V20.8ZM36.4554 18.516V12.738H36.0554V18.516H36.4554ZM36.2554 12.538H34.7794V12.938H36.2554V12.538ZM34.9794 12.738V11.316H34.5794V12.738H34.9794ZM34.7794 11.516H36.2554V11.116H34.7794V11.516ZM36.4554 11.316V8.83205H36.0554V11.316H36.4554ZM48.3901 18.156V17.956H48.2585L48.2064 18.0768L48.3901 18.156ZM50.2801 18.156L50.4726 18.2101L50.544 17.956H50.2801V18.156ZM50.4061 16.734V16.934H50.5939L50.6057 16.7465L50.4061 16.734ZM43.0261 16.734V16.534H42.8048L42.8271 16.7541L43.0261 16.734ZM43.0621 15.258L42.8639 15.2308L42.8327 15.458H43.0621V15.258ZM48.4621 15.258V15.458H48.6697L48.6619 15.2505L48.4621 15.258ZM48.3901 18.356H50.2801V17.956H48.3901V18.356ZM50.0875 18.1019C49.6601 19.6233 48.2946 21.034 45.9241 21.034V21.434C48.4855 21.434 50 19.8927 50.4726 18.2101L50.0875 18.1019ZM45.9241 21.034C44.4104 21.034 43.2608 20.4835 42.4875 19.6076C41.7113 18.7285 41.3001 17.5051 41.3001 16.14H40.9001C40.9001 17.5829 41.3349 18.9065 42.1876 19.8724C43.0433 20.8415 44.3057 21.434 45.9241 21.434V21.034ZM41.3001 16.14C41.3001 14.6826 41.788 13.4836 42.5959 12.6499C43.4037 11.8165 44.5429 11.336 45.8701 11.336V10.936C44.4432 10.936 43.1975 11.4545 42.3087 12.3716C41.4201 13.2884 40.9001 14.5914 40.9001 16.14H41.3001ZM45.8701 11.336C47.3044 11.336 48.429 11.9211 49.1752 12.8768C49.9245 13.8365 50.303 15.1848 50.2065 16.7215L50.6057 16.7465C50.7071 15.1332 50.3117 13.6825 49.4905 12.6307C48.6661 11.5749 47.4237 10.936 45.8701 10.936V11.336ZM50.4061 16.534H43.0261V16.934H50.4061V16.534ZM42.8271 16.7541C42.9208 17.6824 43.2649 18.4521 43.7972 18.9917C44.3309 19.5327 45.0442 19.832 45.8521 19.832V19.432C45.148 19.432 44.5382 19.1733 44.0819 18.7108C43.6243 18.2469 43.3113 17.5676 43.225 16.7139L42.8271 16.7541ZM45.8521 19.832C46.5544 19.832 47.1282 19.6868 47.5831 19.4089C48.0393 19.1302 48.3617 18.7267 48.5737 18.2352L48.2064 18.0768C48.0224 18.5033 47.7508 18.8378 47.3746 19.0676C46.9969 19.2982 46.4998 19.432 45.8521 19.432V19.832ZM43.0621 15.458H48.4621V15.058H43.0621V15.458ZM48.6619 15.2505C48.6044 13.7165 47.5206 12.466 45.8521 12.466V12.866C47.2795 12.866 48.2117 13.9194 48.2622 15.2655L48.6619 15.2505ZM45.8521 12.466C45.0889 12.466 44.4033 12.6643 43.874 13.1222C43.3442 13.5806 42.9946 14.2783 42.8639 15.2308L43.2602 15.2852C43.3815 14.4017 43.6979 13.8034 44.1357 13.4248C44.5738 13.0457 45.1572 12.866 45.8521 12.866V12.466ZM54.1146 21V21.2H54.3146V21H54.1146ZM52.2426 21H52.0426V21.2H52.2426V21ZM52.2426 7.95005V7.75005H52.0426V7.95005H52.2426ZM54.1146 7.95005H54.3146V7.75005H54.1146V7.95005ZM54.1146 20.8H52.2426V21.2H54.1146V20.8ZM52.4426 21V7.95005H52.0426V21H52.4426ZM52.2426 8.15005H54.1146V7.75005H52.2426V8.15005ZM53.9146 7.95005V21H54.3146V7.95005H53.9146ZM62.1452 14.016L61.9522 14.0686L61.9924 14.216H62.1452V14.016ZM59.3912 15.006L59.3512 15.202L59.3529 15.2023L59.3912 15.006ZM55.9712 17.994V17.794H55.7438L55.7728 18.0195L55.9712 17.994ZM57.8792 17.994L58.0741 17.9493L58.0385 17.794H57.8792V17.994ZM63.9992 14.016V14.216H64.2413L64.1956 13.9782L63.9992 14.016ZM62.3381 13.9634C62.1899 13.4201 61.8838 13.0297 61.4592 12.7794C61.0402 12.5325 60.5197 12.43 59.9492 12.43V12.83C60.4766 12.83 60.9191 12.9255 61.2561 13.1241C61.5875 13.3193 61.8304 13.6219 61.9522 14.0686L62.3381 13.9634ZM59.9492 12.43C59.467 12.43 58.9554 12.5286 58.5567 12.7416C58.1559 12.9556 57.8412 13.3042 57.8412 13.8H58.2412C58.2412 13.5038 58.4214 13.2674 58.7451 13.0944C59.0709 12.9204 59.5133 12.83 59.9492 12.83V12.43ZM57.8412 13.8C57.8412 14.2107 57.9783 14.527 58.2575 14.7593C58.5239 14.9808 58.9017 15.1102 59.3512 15.202L59.4311 14.81C58.9986 14.7218 58.7014 14.6082 58.5133 14.4517C58.338 14.306 58.2412 14.1093 58.2412 13.8H57.8412ZM59.3529 15.2023L60.7389 15.4723L60.8156 15.0797L59.4294 14.8097L59.3529 15.2023ZM60.7389 15.4723C61.6523 15.6514 62.4765 15.8928 63.0704 16.3064C63.6504 16.7103 64.0152 17.2808 64.0152 18.156H64.4152C64.4152 17.1412 63.9789 16.4517 63.299 15.9781C62.6328 15.5142 61.7382 15.2606 60.8156 15.0797L60.7389 15.4723ZM64.0152 18.156C64.0152 19.0659 63.5929 19.7771 62.9023 20.2677C62.2062 20.7622 61.2327 21.034 60.1472 21.034V21.434C61.2936 21.434 62.3541 21.1478 63.134 20.5938C63.9194 20.0359 64.4152 19.2081 64.4152 18.156H64.0152ZM60.1472 21.034C57.7877 21.034 56.3892 19.6752 56.1695 17.9685L55.7728 18.0195C56.0211 19.9488 57.6106 21.434 60.1472 21.434V21.034ZM55.9712 18.194H57.8792V17.794H55.9712V18.194ZM57.6842 18.0387C57.8176 18.62 58.0798 19.1015 58.5047 19.4359C58.9293 19.77 59.4944 19.94 60.2012 19.94V19.54C59.5579 19.54 59.088 19.386 58.7521 19.1216C58.4165 18.8575 58.1927 18.466 58.0741 17.9493L57.6842 18.0387ZM60.2012 19.94C60.8285 19.94 61.4032 19.8094 61.8283 19.5509C62.2588 19.2891 62.5432 18.8888 62.5432 18.372H62.1432C62.1432 18.7192 61.9596 19.0029 61.6205 19.2091C61.2761 19.4186 60.7798 19.54 60.2012 19.54V19.94ZM62.5432 18.372C62.5432 17.8444 62.2888 17.4717 61.9059 17.2139C61.5342 16.9636 61.0383 16.818 60.5277 16.7178L60.4504 17.1102C60.9479 17.208 61.3791 17.3414 61.6824 17.5456C61.9746 17.7423 62.1432 17.9996 62.1432 18.372H62.5432ZM60.5277 16.7178L59.0699 16.4298L58.9924 16.8222L60.4504 17.1102L60.5277 16.7178ZM59.0699 16.4298C58.3523 16.288 57.6839 16.0621 57.1974 15.6674C56.721 15.281 56.4052 14.7221 56.4052 13.872H56.0052C56.0052 14.8399 56.3733 15.514 56.9454 15.9781C57.5074 16.4339 58.252 16.676 58.9924 16.8222L59.0699 16.4298ZM56.4052 13.872C56.4052 13.0972 56.8096 12.466 57.4812 12.0204C58.1568 11.5721 59.097 11.318 60.1292 11.318V10.918C59.0373 10.918 58.0155 11.1859 57.2601 11.6871C56.5007 12.191 56.0052 12.9368 56.0052 13.872H56.4052ZM60.1292 11.318C62.0007 11.318 63.4649 12.2972 63.8028 14.0538L64.1956 13.9782C63.8134 11.9908 62.1456 10.918 60.1292 10.918V11.318ZM63.9992 13.816H62.1452V14.216H63.9992V13.816ZM72.6889 13.476L72.7538 13.6652L73.0321 13.5697L72.841 13.3461L72.6889 13.476ZM75.6589 13.926L75.5783 13.743L75.3201 13.8567L75.5129 14.0627L75.6589 13.926ZM78.0349 16.464L77.8889 16.6007L78.1048 16.8313L78.2209 16.5375L78.0349 16.464ZM78.6109 13.854V13.654H78.4255L78.4115 13.8389L78.6109 13.854ZM80.5189 13.854L80.7181 13.8721L80.7379 13.654H80.5189V13.854ZM79.3129 17.832L79.139 17.7333L79.0666 17.861L79.1666 17.9683L79.3129 17.832ZM82.2649 21V21.2H82.7247L82.4113 20.8637L82.2649 21ZM79.6369 21L79.4907 21.1364L79.55 21.2H79.6369V21ZM78.1429 19.398L78.2892 19.2616L78.1468 19.1089L78.0004 19.2577L78.1429 19.398ZM74.5969 12.774L74.7758 12.6846L74.7619 12.6567L74.7402 12.6344L74.5969 12.774ZM74.6149 12.81L74.436 12.8994L74.5179 13.0632L74.6882 12.9961L74.6149 12.81ZM77.0269 18.192L77.1769 18.3243L77.2964 18.1889L77.1738 18.0563L77.0269 18.192ZM73.7329 14.628L73.8798 14.4923L73.7897 14.3947L73.6648 14.44L73.7329 14.628ZM69.6669 17.4C69.6669 15.5362 70.9651 14.279 72.7538 13.6652L72.624 13.2868C70.7408 13.933 69.2669 15.3038 69.2669 17.4H69.6669ZM72.841 13.3461C72.0026 12.365 71.4849 11.4578 71.4849 10.506H71.0849C71.0849 11.6062 71.6833 12.607 72.5369 13.6059L72.841 13.3461ZM71.4849 10.506C71.4849 9.71639 71.8315 9.07172 72.4194 8.6193C73.0115 8.1637 73.8566 7.89805 74.8489 7.89805V7.49805C73.7893 7.49805 72.8524 7.78139 72.1755 8.3023C71.4944 8.82637 71.0849 9.58571 71.0849 10.506H71.4849ZM74.8489 7.89805C75.6332 7.89805 76.4444 8.07741 77.0533 8.49521C77.6523 8.90627 78.0689 9.55605 78.0689 10.542H78.4689C78.4689 9.42205 77.9856 8.64983 77.2796 8.16539C76.5835 7.68769 75.6847 7.49805 74.8489 7.49805V7.89805ZM78.0689 10.542C78.0689 12.0149 77.0522 13.0938 75.5783 13.743L75.7396 14.109C77.2897 13.4262 78.4689 12.2371 78.4689 10.542H78.0689ZM75.5129 14.0627L77.8889 16.6007L78.1809 16.3273L75.8049 13.7893L75.5129 14.0627ZM78.2209 16.5375C78.5351 15.7429 78.737 14.841 78.8104 13.8691L78.4115 13.8389C78.3409 14.775 78.1468 15.6371 77.8489 16.3905L78.2209 16.5375ZM78.6109 14.054H80.5189V13.654H78.6109V14.054ZM80.3198 13.8359C80.196 15.1972 79.8072 16.5551 79.139 17.7333L79.4869 17.9307C80.1866 16.6969 80.5899 15.2828 80.7181 13.8721L80.3198 13.8359ZM79.1666 17.9683L82.1186 21.1363L82.4113 20.8637L79.4593 17.6957L79.1666 17.9683ZM82.2649 20.8H79.6369V21.2H82.2649V20.8ZM79.7832 20.8636L78.2892 19.2616L77.9967 19.5344L79.4907 21.1364L79.7832 20.8636ZM78.0004 19.2577C76.9361 20.3394 75.5281 21.034 73.8049 21.034V21.434C75.6458 21.434 77.1538 20.6886 78.2855 19.5383L78.0004 19.2577ZM73.8049 21.034C72.5244 21.034 71.4903 20.6295 70.7786 19.9793C70.0675 19.3299 69.6669 18.4255 69.6669 17.4H69.2669C69.2669 18.5345 69.7123 19.5471 70.5088 20.2747C71.3045 21.0015 72.4394 21.434 73.8049 21.434V21.034ZM74.418 12.8634L74.436 12.8994L74.7938 12.7206L74.7758 12.6846L74.418 12.8634ZM74.6882 12.9961C75.9192 12.5112 76.6869 11.6451 76.6869 10.596H76.2869C76.2869 11.4189 75.6867 12.1728 74.5416 12.6239L74.6882 12.9961ZM76.6869 10.596C76.6869 10.0534 76.4779 9.64252 76.1334 9.3722C75.7957 9.10722 75.3471 8.99205 74.8849 8.99205V9.39205C75.2868 9.39205 75.6392 9.49288 75.8865 9.6869C76.127 9.87558 76.2869 10.1666 76.2869 10.596H76.6869ZM74.8849 8.99205C74.4327 8.99205 73.9854 9.10218 73.6447 9.33524C73.2977 9.57266 73.0649 9.93727 73.0649 10.416H73.4649C73.4649 10.0848 73.6191 9.83744 73.8706 9.66536C74.1285 9.48892 74.4911 9.39205 74.8849 9.39205V8.99205ZM73.0649 10.416C73.0649 10.8643 73.2472 11.3155 73.504 11.7335C73.7622 12.1536 74.1062 12.5569 74.4537 12.9136L74.7402 12.6344C74.4037 12.2891 74.0817 11.9094 73.8448 11.524C73.6067 11.1365 73.4649 10.7597 73.4649 10.416H73.0649ZM77.1738 18.0563L73.8798 14.4923L73.5861 14.7637L76.8801 18.3277L77.1738 18.0563ZM73.6648 14.44C72.9253 14.708 72.3208 15.0699 71.9 15.5463C71.4757 16.0268 71.2469 16.6141 71.2469 17.31H71.6469C71.6469 16.7099 71.8412 16.2172 72.1998 15.8111C72.562 15.4011 73.1006 15.07 73.8011 14.816L73.6648 14.44ZM71.2469 17.31C71.2469 18.0833 71.5385 18.7237 72.0358 19.169C72.5307 19.6122 73.2154 19.85 73.9849 19.85V19.45C73.2964 19.45 72.7122 19.2378 72.3026 18.871C71.8953 18.5063 71.6469 17.9767 71.6469 17.31H71.2469ZM73.9849 19.85C75.239 19.85 76.3351 19.2783 77.1769 18.3243L76.877 18.0597C76.0988 18.9417 75.1068 19.45 73.9849 19.45V19.85ZM96.5852 11.442V11.642H96.8272L96.7816 11.4043L96.5852 11.442ZM94.6052 11.442L94.412 11.4937L94.4517 11.642H94.6052V11.442ZM86.4512 16.824V16.624H86.2276L86.2524 16.8462L86.4512 16.824ZM88.4672 16.824L88.6628 16.7825L88.6292 16.624H88.4672V16.824ZM90.5052 14.756C89.5979 14.5711 88.7297 14.2261 88.0919 13.6736C87.4604 13.1265 87.0472 12.3706 87.0472 11.334H86.6472C86.6472 12.4934 87.116 13.3575 87.83 13.9759C88.5377 14.5889 89.4785 14.9549 90.4252 15.148L90.5052 14.756ZM87.0472 11.334C87.0472 10.1825 87.6438 9.33558 88.5176 8.76803C89.3971 8.19684 90.5498 7.91605 91.6172 7.91605V7.51605C90.4886 7.51605 89.2563 7.81126 88.2998 8.43257C87.3376 9.05752 86.6472 10.0195 86.6472 11.334H87.0472ZM91.6172 7.91605C92.7855 7.91605 93.8589 8.18413 94.6969 8.75852C95.5307 9.33004 96.1461 10.2144 96.3888 11.4797L96.7816 11.4043C96.5203 10.0416 95.8487 9.06306 94.923 8.42858C94.0015 7.79697 92.8429 7.51605 91.6172 7.51605V7.91605ZM96.5852 11.242H94.6052V11.642H96.5852V11.242ZM94.7984 11.3903C94.3493 9.71102 92.8045 9.22605 91.5272 9.22605V9.62605C92.7339 9.62605 94.0331 10.077 94.412 11.4937L94.7984 11.3903ZM91.5272 9.22605C91.0255 9.22605 90.3433 9.34319 89.7789 9.64579C89.2097 9.95101 88.7352 10.4622 88.7352 11.244H89.1352C89.1352 10.6578 89.4797 10.26 89.968 9.99831C90.4611 9.73391 91.0749 9.62605 91.5272 9.62605V9.22605ZM88.7352 11.244C88.7352 11.8455 88.9792 12.3096 89.3768 12.6493C89.7675 12.9831 90.2986 13.1911 90.8742 13.3117L90.9562 12.9203C90.4158 12.8069 89.9569 12.6189 89.6366 12.3452C89.3232 12.0774 89.1352 11.7225 89.1352 11.244H88.7352ZM90.8742 13.3117L92.4222 13.6358L92.5042 13.2442L90.9562 12.9203L90.8742 13.3117ZM92.4222 13.6358C93.4625 13.851 94.5219 14.1509 95.3188 14.7066C96.1028 15.2532 96.6372 16.0494 96.6372 17.292H97.0372C97.0372 15.9066 96.4286 14.9928 95.5476 14.3784C94.6795 13.7731 93.5519 13.461 92.5042 13.2442L92.4222 13.6358ZM96.6372 17.292C96.6372 18.5147 96.055 19.4425 95.1627 20.0715C94.2649 20.7045 93.052 21.034 91.8152 21.034V21.434C93.1164 21.434 94.4145 21.0885 95.3932 20.3985C96.3774 19.7045 97.0372 18.6613 97.0372 17.292H96.6372ZM91.8152 21.034C90.3398 21.034 89.1231 20.6259 88.241 19.9005C87.3605 19.1764 86.7978 18.1234 86.65 16.8018L86.2524 16.8462C86.4106 18.2606 87.0179 19.4126 87.9869 20.2095C88.9543 21.0051 90.2666 21.434 91.8152 21.434V21.034ZM86.4512 17.024H88.4672V16.624H86.4512V17.024ZM88.2716 16.8655C88.4683 17.7928 88.8849 18.513 89.5072 18.9998C90.1288 19.4859 90.936 19.724 91.8872 19.724V19.324C91.0024 19.324 90.2886 19.1031 89.7537 18.6847C89.2195 18.267 88.8441 17.6372 88.6628 16.7825L88.2716 16.8655ZM91.8872 19.724C92.7624 19.724 93.5263 19.5148 94.0773 19.1247C94.6334 18.731 94.9672 18.1551 94.9672 17.454H94.5672C94.5672 18.0129 94.307 18.472 93.8461 18.7983C93.3801 19.1282 92.704 19.324 91.8872 19.324V19.724ZM94.9672 17.454C94.9672 16.7004 94.5993 16.1708 94.0562 15.8014C93.5231 15.4388 92.8164 15.2255 92.1074 15.0801L92.027 15.4719C92.722 15.6145 93.3653 15.8152 93.8312 16.1321C94.2871 16.4422 94.5672 16.8576 94.5672 17.454H94.9672ZM92.1074 15.0801L90.5052 14.756L90.4252 15.148L92.027 15.4719L92.1074 15.0801ZM100.591 11.316H100.791V11.116H100.591V11.316ZM100.591 12.738H100.391V13.4601L100.762 12.8409L100.591 12.738ZM100.591 19.632L100.762 19.5291L100.391 18.9099V19.632H100.591ZM100.591 24.15V24.35H100.791V24.15H100.591ZM98.7192 24.15H98.5192V24.35H98.7192V24.15ZM98.7192 11.316V11.116H98.5192V11.316H98.7192ZM100.391 11.316V12.738H100.791V11.316H100.391ZM100.762 12.8409C101.318 11.9145 102.259 11.336 103.615 11.336V10.936C102.127 10.936 101.052 11.5815 100.419 12.6351L100.762 12.8409ZM103.615 11.336C105.731 11.336 107.591 13.1118 107.591 16.176H107.991C107.991 12.9402 105.999 10.936 103.615 10.936V11.336ZM107.591 16.176C107.591 19.2587 105.731 21.034 103.615 21.034V21.434C105.999 21.434 107.991 19.4293 107.991 16.176H107.591ZM103.615 21.034C102.259 21.034 101.318 20.4555 100.762 19.5291L100.419 19.7349C101.052 20.7885 102.127 21.434 103.615 21.434V21.034ZM100.391 19.632V24.15H100.791V19.632H100.391ZM100.591 23.95H98.7192V24.35H100.591V23.95ZM98.9192 24.15V11.316H98.5192V24.15H98.9192ZM98.7192 11.516H100.591V11.116H98.7192V11.516ZM103.183 19.868C104.02 19.868 104.731 19.5102 105.227 18.8602C105.72 18.215 105.993 17.2952 105.993 16.176H105.593C105.593 17.2348 105.335 18.061 104.91 18.6173C104.488 19.1688 103.894 19.468 103.183 19.468V19.868ZM105.993 16.176C105.993 15.0568 105.72 14.1411 105.227 13.5002C104.73 12.8545 104.019 12.502 103.183 12.502V12.902C103.895 12.902 104.489 13.1975 104.91 13.7442C105.335 14.2959 105.593 15.1172 105.593 16.176H105.993ZM103.183 12.502C102.41 12.502 101.687 12.7933 101.159 13.4114C100.633 14.0268 100.319 14.9464 100.319 16.176H100.719C100.719 15.0116 101.017 14.1942 101.463 13.6711C101.907 13.1507 102.515 12.902 103.183 12.902V12.502ZM100.319 16.176C100.319 17.4056 100.633 18.3293 101.158 18.949C101.686 19.5715 102.409 19.868 103.183 19.868V19.468C102.517 19.468 101.908 19.2155 101.464 18.6905C101.017 18.1627 100.719 17.3404 100.719 16.176H100.319ZM115.611 15.006L115.632 15.2049L115.811 15.1861V15.006H115.611ZM111.417 14.376V14.576H111.605L111.616 14.3881L111.417 14.376ZM109.527 14.376L109.327 14.3603L109.31 14.576H109.527V14.376ZM117.501 15.186L117.301 15.1835V15.186H117.501ZM117.735 21V21.2H117.981L117.93 20.9592L117.735 21ZM115.935 21L115.738 21.0374L115.769 21.2H115.935V21ZM115.773 19.722L115.972 19.7103L115.934 19.0576L115.601 19.62L115.773 19.722ZM115.701 16.392H115.901V16.1719L115.682 16.1929L115.701 16.392ZM109.277 18.39C109.277 17.8433 109.436 17.4067 109.724 17.0474C110.016 16.6844 110.449 16.3889 111.012 16.1459C112.144 15.6577 113.749 15.4031 115.632 15.2049L115.59 14.8071C113.71 15.0049 112.048 15.2633 110.854 15.7786C110.254 16.0373 109.758 16.3663 109.413 16.7969C109.064 17.2313 108.877 17.7577 108.877 18.39H109.277ZM115.811 15.006V14.808H115.411V15.006H115.811ZM115.811 14.808C115.811 13.9195 115.576 13.2872 115.15 12.8793C114.726 12.473 114.146 12.322 113.523 12.322V12.722C114.087 12.722 114.551 12.859 114.874 13.1682C115.195 13.4758 115.411 13.9865 115.411 14.808H115.811ZM113.523 12.322C112.842 12.322 112.28 12.4972 111.878 12.8538C111.474 13.2119 111.255 13.7303 111.217 14.3639L111.616 14.3881C111.65 13.8337 111.836 13.4251 112.143 13.1532C112.452 12.8798 112.908 12.722 113.523 12.722V12.322ZM111.417 14.176H109.527V14.576H111.417V14.176ZM109.726 14.3917C109.803 13.421 110.239 12.6489 110.915 12.1166C111.593 11.5823 112.524 11.282 113.595 11.282V10.882C112.451 10.882 111.429 11.2027 110.667 11.8024C109.903 12.4041 109.413 13.279 109.327 14.3603L109.726 14.3917ZM113.595 11.282C114.817 11.282 115.742 11.5767 116.358 12.1891C116.974 12.8009 117.318 13.7653 117.301 15.1835L117.701 15.1885C117.719 13.7087 117.361 12.6211 116.64 11.9054C115.92 11.1903 114.874 10.882 113.595 10.882V11.282ZM117.301 15.186C117.301 15.3006 117.292 15.7744 117.283 16.2759C117.274 16.7743 117.265 17.2987 117.265 17.508H117.665C117.665 17.3033 117.674 16.7837 117.683 16.2831C117.692 15.7856 117.701 15.3054 117.701 15.186H117.301ZM117.265 17.508C117.265 18.9539 117.355 20.1574 117.539 21.0408L117.93 20.9592C117.754 20.1146 117.665 18.9421 117.665 17.508H117.265ZM117.735 20.8H115.935V21.2H117.735V20.8ZM116.131 20.9626C116.06 20.5891 116.008 20.3104 115.972 19.7103L115.573 19.7337C115.61 20.3576 115.665 20.6549 115.738 21.0374L116.131 20.9626ZM115.601 19.62C115.072 20.5125 114.053 21.034 112.533 21.034V21.434C114.144 21.434 115.322 20.8755 115.945 19.824L115.601 19.62ZM112.533 21.034C111.586 21.034 110.769 20.7734 110.193 20.3168C109.621 19.8634 109.277 19.2097 109.277 18.39H108.877C108.877 19.3343 109.279 20.1026 109.945 20.6302C110.606 21.1546 111.517 21.434 112.533 21.434V21.034ZM115.682 16.1929C114.18 16.3368 113.007 16.5138 112.206 16.8218C111.804 16.9766 111.48 17.1702 111.255 17.4237C111.026 17.6823 110.911 17.9922 110.911 18.354H111.311C111.311 18.0858 111.393 17.8715 111.555 17.689C111.721 17.5015 111.98 17.3374 112.35 17.1952C113.093 16.9092 114.215 16.7352 115.72 16.5911L115.682 16.1929ZM110.911 18.354C110.911 18.8534 111.112 19.2725 111.48 19.5619C111.842 19.8472 112.349 19.994 112.947 19.994V19.594C112.41 19.594 111.999 19.4618 111.727 19.2476C111.46 19.0375 111.311 18.7366 111.311 18.354H110.911ZM112.947 19.994C113.751 19.994 114.493 19.7931 115.036 19.3166C115.584 18.8361 115.901 18.1007 115.901 17.094H115.501C115.501 18.0133 115.214 18.6279 114.772 19.0159C114.325 19.4079 113.69 19.594 112.947 19.594V19.994ZM115.901 17.094V16.392H115.501V17.094H115.901Z" fill="black"/>
</g>
</g>
<defs>
<clipPath id="clip0_4_189">
<rect width="129" height="30" fill="white"/>
</clipPath>
</defs>
</svg>
