<svg width="68" height="30" viewBox="0 0 68 30" fill="none" xmlns="http://www.w3.org/2000/svg">
<g clip-path="url(#clip0_4_74)">
<mask id="mask0_4_74" style="mask-type:luminance" maskUnits="userSpaceOnUse" x="0" y="0" width="68" height="30">
<path d="M68 0H0V30H68V0Z" fill="white"/>
</mask>
<g mask="url(#mask0_4_74)">
<path d="M63 0.5H5C2.51472 0.5 0.5 2.51472 0.5 5V25C0.5 27.4853 2.51472 29.5 5 29.5H63C65.4853 29.5 67.5 27.4853 67.5 25V5C67.5 2.51472 65.4853 0.5 63 0.5Z" stroke="black"/>
<path d="M16.858 15.492C16.588 15.51 16.3 15.51 16.012 15.51H13.762V21H11.71V7.94995H15.85C19.36 7.94995 21.466 8.68795 21.466 11.712C21.466 13.584 20.566 14.646 18.946 15.15L21.952 21H19.648L16.858 15.492ZM13.762 9.64195V13.836H16.12C18.046 13.836 19.36 13.548 19.36 11.748C19.36 9.87595 17.938 9.64195 16.084 9.64195H13.762ZM30.2126 18.156H32.1026C31.6526 19.758 30.2126 21.234 27.7466 21.234C24.6146 21.234 22.9226 18.948 22.9226 16.14C22.9226 13.134 24.9386 11.136 27.6926 11.136C30.6806 11.136 32.4266 13.584 32.2286 16.734H24.8486C25.0286 18.516 26.1626 19.632 27.6746 19.632C29.0246 19.632 29.8166 19.074 30.2126 18.156ZM24.8846 15.258H30.2846C30.2306 13.818 29.2226 12.666 27.6746 12.666C26.2166 12.666 25.1366 13.422 24.8846 15.258ZM34.4432 8.83195H36.3152V11.316H38.2232V12.738H36.3152V18.264C36.3152 19.254 36.4772 19.506 37.4132 19.506H38.2052V21H36.8372C34.8752 21 34.4432 20.514 34.4432 18.516V12.738H32.9672V11.316H34.4432V8.83195ZM39.4658 18.39C39.4658 16.032 42.2378 15.402 45.9998 15.006V14.808C45.9998 13.098 45.0998 12.522 43.9118 12.522C42.6158 12.522 41.8778 13.188 41.8058 14.376H39.9158C40.0778 12.324 41.7698 11.082 43.9838 11.082C46.4858 11.082 47.9258 12.288 47.8898 15.186C47.8898 15.42 47.8538 17.094 47.8538 17.508C47.8538 18.948 47.9438 20.136 48.1238 21H46.3238C46.2518 20.622 46.1978 20.334 46.1618 19.722C45.5858 20.694 44.4878 21.234 42.9218 21.234C40.9598 21.234 39.4658 20.154 39.4658 18.39ZM46.0898 16.392C43.0838 16.68 41.4998 17.094 41.4998 18.354C41.4998 19.236 42.2018 19.794 43.3358 19.794C44.8838 19.794 46.0898 19.02 46.0898 17.094V16.392ZM52.0739 7.94995V10.02H50.2019V7.94995H52.0739ZM52.0739 11.316V21H50.2019V11.316H52.0739ZM56.4684 21H54.5964V7.94995H56.4684V21Z" fill="black"/>
<path d="M16.8578 15.492L17.0362 15.4016L16.9765 15.2836L16.8445 15.2924L16.8578 15.492ZM13.7618 15.51V15.31H13.5618V15.51H13.7618ZM13.7618 21V21.2H13.9618V21H13.7618ZM11.7098 21H11.5098V21.2H11.7098V21ZM11.7098 7.95V7.75H11.5098V7.95H11.7098ZM18.9458 15.15L18.8864 14.959L18.6592 15.0297L18.7679 15.2414L18.9458 15.15ZM21.9518 21V21.2H22.2795L22.1297 20.9086L21.9518 21ZM19.6478 21L19.4694 21.0904L19.5249 21.2H19.6478V21ZM13.7618 9.642V9.442H13.5618V9.642H13.7618ZM13.7618 13.836H13.5618V14.036H13.7618V13.836ZM16.8445 15.2924C16.5824 15.3099 16.3013 15.31 16.0118 15.31V15.71C16.2984 15.71 16.5933 15.7101 16.8711 15.6916L16.8445 15.2924ZM16.0118 15.31H13.7618V15.71H16.0118V15.31ZM13.5618 15.51V21H13.9618V15.51H13.5618ZM13.7618 20.8H11.7098V21.2H13.7618V20.8ZM11.9098 21V7.95H11.5098V21H11.9098ZM11.7098 8.15H15.8498V7.75H11.7098V8.15ZM15.8498 8.15C17.601 8.15 18.9576 8.33615 19.8734 8.8698C20.3259 9.13352 20.6705 9.48209 20.9038 9.93934C21.1381 10.3986 21.2658 10.9787 21.2658 11.712H21.6658C21.6658 10.9333 21.5303 10.2871 21.2601 9.75754C20.9888 9.22591 20.5875 8.82297 20.0748 8.5242C19.06 7.93285 17.6087 7.75 15.8498 7.75V8.15ZM21.2658 11.712C21.2658 12.6153 21.0492 13.3032 20.6541 13.823C20.2585 14.3436 19.6687 14.7157 18.8864 14.959L19.0052 15.341C19.843 15.0803 20.5132 14.6694 20.9726 14.065C21.4325 13.4598 21.6658 12.6807 21.6658 11.712H21.2658ZM18.7679 15.2414L21.7739 21.0914L22.1297 20.9086L19.1237 15.0586L18.7679 15.2414ZM21.9518 20.8H19.6478V21.2H21.9518V20.8ZM19.8262 20.9096L17.0362 15.4016L16.6794 15.5824L19.4694 21.0904L19.8262 20.9096ZM13.5618 9.642V13.836H13.9618V9.642H13.5618ZM13.7618 14.036H16.1198V13.636H13.7618V14.036ZM16.1198 14.036C17.0815 14.036 17.9372 13.9664 18.5546 13.6443C18.8696 13.4799 19.1252 13.2488 19.2999 12.9296C19.4734 12.6125 19.5598 12.2217 19.5598 11.748H19.1598C19.1598 12.1743 19.082 12.4945 18.949 12.7376C18.8171 12.9787 18.6238 13.1571 18.3696 13.2897C17.8484 13.5616 17.0842 13.636 16.1198 13.636V14.036ZM19.5598 11.748C19.5598 11.2551 19.4662 10.8531 19.2825 10.5303C19.0978 10.2056 18.83 9.97521 18.5062 9.81398C17.8718 9.49795 17.0079 9.442 16.0838 9.442V9.842C17.0138 9.842 17.7879 9.90305 18.3279 10.172C18.5915 10.3033 18.795 10.4824 18.9348 10.7281C19.0757 10.9756 19.1598 11.3049 19.1598 11.748H19.5598ZM16.0838 9.442H13.7618V9.842H16.0838V9.442ZM30.2124 18.156V17.956H30.0809L30.0288 18.0768L30.2124 18.156ZM32.1024 18.156L32.295 18.2101L32.3663 17.956H32.1024V18.156ZM32.2284 16.734V16.934H32.4162L32.428 16.7465L32.2284 16.734ZM24.8484 16.734V16.534H24.6272L24.6494 16.7541L24.8484 16.734ZM24.8844 15.258L24.6863 15.2308L24.6551 15.458H24.8844V15.258ZM30.2844 15.258V15.458H30.4921L30.4843 15.2505L30.2844 15.258ZM30.2124 18.356H32.1024V17.956H30.2124V18.356ZM31.9099 18.1019C31.4825 19.6233 30.117 21.034 27.7464 21.034V21.434C30.3078 21.434 31.8223 19.8927 32.295 18.2101L31.9099 18.1019ZM27.7464 21.034C26.2328 21.034 25.0832 20.4835 24.3098 19.6076C23.5336 18.7285 23.1224 17.5051 23.1224 16.14H22.7224C22.7224 17.5829 23.1572 18.9065 24.01 19.8724C24.8657 20.8415 26.1281 21.434 27.7464 21.434V21.034ZM23.1224 16.14C23.1224 14.6826 23.6104 13.4836 24.4183 12.6499C25.226 11.8165 26.3653 11.336 27.6924 11.336V10.936C26.2655 10.936 25.0198 11.4545 24.1311 12.3716C23.2425 13.2884 22.7224 14.5914 22.7224 16.14H23.1224ZM27.6924 11.336C29.1268 11.336 30.2514 11.9211 30.9975 12.8768C31.7468 13.8365 32.1254 15.1848 32.0288 16.7215L32.428 16.7465C32.5294 15.1332 32.134 13.6825 31.3128 12.6307C30.4885 11.5749 29.2461 10.936 27.6924 10.936V11.336ZM32.2284 16.534H24.8484V16.934H32.2284V16.534ZM24.6494 16.7541C24.7432 17.6824 25.0872 18.4521 25.6195 18.9917C26.1532 19.5327 26.8665 19.832 27.6744 19.832V19.432C26.9703 19.432 26.3606 19.1733 25.9043 18.7108C25.4466 18.2469 25.1336 17.5676 25.0474 16.7139L24.6494 16.7541ZM27.6744 19.832C28.3767 19.832 28.9506 19.6868 29.4054 19.4089C29.8617 19.1302 30.184 18.7267 30.3961 18.2352L30.0288 18.0768C29.8448 18.5033 29.5731 18.8378 29.1969 19.0676C28.8193 19.2982 28.3221 19.432 27.6744 19.432V19.832ZM24.8844 15.458H30.2844V15.058H24.8844V15.458ZM30.4843 15.2505C30.4268 13.7165 29.343 12.466 27.6744 12.466V12.866C29.1019 12.866 30.0341 13.9194 30.0846 15.2655L30.4843 15.2505ZM27.6744 12.466C26.9113 12.466 26.2257 12.6643 25.6963 13.1222C25.1666 13.5806 24.817 14.2783 24.6863 15.2308L25.0826 15.2852C25.2038 14.4017 25.5203 13.8034 25.958 13.4248C26.3961 13.0457 26.9796 12.866 27.6744 12.866V12.466ZM34.443 8.832V8.632H34.243V8.832H34.443ZM36.315 8.832H36.515V8.632H36.315V8.832ZM36.315 11.316H36.115V11.516H36.315V11.316ZM38.223 11.316H38.423V11.116H38.223V11.316ZM38.223 12.738V12.938H38.423V12.738H38.223ZM36.315 12.738V12.538H36.115V12.738H36.315ZM38.205 19.506H38.405V19.306H38.205V19.506ZM38.205 21V21.2H38.405V21H38.205ZM34.443 12.738H34.643V12.538H34.443V12.738ZM32.967 12.738H32.767V12.938H32.967V12.738ZM32.967 11.316V11.116H32.767V11.316H32.967ZM34.443 11.316V11.516H34.643V11.316H34.443ZM34.443 9.032H36.315V8.632H34.443V9.032ZM36.115 8.832V11.316H36.515V8.832H36.115ZM36.315 11.516H38.223V11.116H36.315V11.516ZM38.023 11.316V12.738H38.423V11.316H38.023ZM38.223 12.538H36.315V12.938H38.223V12.538ZM36.115 12.738V18.264H36.515V12.738H36.115ZM36.115 18.264C36.115 18.5146 36.125 18.7306 36.1582 18.9117C36.1915 19.0938 36.2507 19.2555 36.3601 19.3852C36.5824 19.6487 36.9468 19.706 37.413 19.706V19.306C36.9431 19.306 36.7586 19.2373 36.6659 19.1273C36.6177 19.0702 36.578 18.9834 36.5517 18.8397C36.5252 18.6952 36.515 18.5084 36.515 18.264H36.115ZM37.413 19.706H38.205V19.306H37.413V19.706ZM38.005 19.506V21H38.405V19.506H38.005ZM38.205 20.8H36.837V21.2H38.205V20.8ZM36.837 20.8C35.8531 20.8 35.3379 20.6728 35.0491 20.3694C34.7571 20.0625 34.643 19.5209 34.643 18.516H34.243C34.243 19.5091 34.3448 20.2095 34.7593 20.6451C35.1771 21.0842 35.8589 21.2 36.837 21.2V20.8ZM34.643 18.516V12.738H34.243V18.516H34.643ZM34.443 12.538H32.967V12.938H34.443V12.538ZM33.167 12.738V11.316H32.767V12.738H33.167ZM32.967 11.516H34.443V11.116H32.967V11.516ZM34.643 11.316V8.832H34.243V11.316H34.643ZM45.9996 15.006L46.0205 15.2049L46.1996 15.1861V15.006H45.9996ZM41.8056 14.376V14.576H41.9938L42.0052 14.3881L41.8056 14.376ZM39.9156 14.376L39.7162 14.3603L39.6991 14.576H39.9156V14.376ZM47.8896 15.186L47.6896 15.1835V15.186H47.8896ZM48.1236 21V21.2H48.3695L48.3193 20.9592L48.1236 21ZM46.3236 21L46.1271 21.0374L46.1581 21.2H46.3236V21ZM46.1616 19.722L46.3612 19.7103L46.3228 19.0576L45.9895 19.62L46.1616 19.722ZM46.0896 16.392H46.2896V16.1719L46.0705 16.1929L46.0896 16.392ZM39.6656 18.39C39.6656 17.8433 39.8249 17.4067 40.1134 17.0474C40.4049 16.6844 40.8376 16.3889 41.401 16.1459C42.5329 15.6577 44.138 15.4031 46.0205 15.2049L45.9786 14.8071C44.0991 15.0049 42.4372 15.2633 41.2426 15.7786C40.6427 16.0373 40.1473 16.3663 39.8015 16.7969C39.4527 17.2313 39.2656 17.7577 39.2656 18.39H39.6656ZM46.1996 15.006V14.808H45.7996V15.006H46.1996ZM46.1996 14.808C46.1996 13.9195 45.9652 13.2872 45.5394 12.8793C45.1152 12.473 44.5348 12.322 43.9116 12.322V12.722C44.4763 12.722 44.9399 12.859 45.2627 13.1682C45.5839 13.4758 45.7996 13.9865 45.7996 14.808H46.1996ZM43.9116 12.322C43.2306 12.322 42.6694 12.4972 42.2669 12.8538C41.8628 13.2119 41.6443 13.7303 41.6059 14.3639L42.0052 14.3881C42.0388 13.8337 42.2253 13.4251 42.5322 13.1532C42.8407 12.8798 43.2965 12.722 43.9116 12.722V12.322ZM41.8056 14.176H39.9156V14.576H41.8056V14.176ZM40.1149 14.3917C40.1916 13.421 40.6279 12.6489 41.3038 12.1166C41.9824 11.5823 42.9129 11.282 43.9836 11.282V10.882C42.8402 10.882 41.8177 11.2027 41.0563 11.8024C40.2922 12.4041 39.8015 13.279 39.7162 14.3603L40.1149 14.3917ZM43.9836 11.282C45.2057 11.282 46.1307 11.5767 46.7474 12.1891C47.3633 12.8009 47.7072 13.7653 47.6896 15.1835L48.0895 15.1885C48.1079 13.7087 47.7498 12.6211 47.0292 11.9054C46.3094 11.1903 45.2634 10.882 43.9836 10.882V11.282ZM47.6896 15.186C47.6896 15.3006 47.6806 15.7744 47.6716 16.2759C47.6626 16.7743 47.6536 17.2987 47.6536 17.508H48.0536C48.0536 17.3033 48.0625 16.7837 48.0715 16.2831C48.0805 15.7856 48.0896 15.3054 48.0896 15.186H47.6896ZM47.6536 17.508C47.6536 18.9539 47.7437 20.1574 47.9278 21.0408L48.3193 20.9592C48.1434 20.1146 48.0536 18.9421 48.0536 17.508H47.6536ZM48.1236 20.8H46.3236V21.2H48.1236V20.8ZM46.52 20.9626C46.4489 20.5891 46.3965 20.3104 46.3612 19.7103L45.9619 19.7337C45.9986 20.3576 46.0542 20.6549 46.1271 21.0374L46.52 20.9626ZM45.9895 19.62C45.4606 20.5125 44.4418 21.034 42.9216 21.034V21.434C44.5333 21.434 45.7105 20.8755 46.3336 19.824L45.9895 19.62ZM42.9216 21.034C41.9753 21.034 41.1581 20.7734 40.582 20.3168C40.0101 19.8634 39.6656 19.2097 39.6656 18.39H39.2656C39.2656 19.3343 39.668 20.1026 40.3336 20.6302C40.995 21.1546 41.9058 21.434 42.9216 21.434V21.034ZM46.0705 16.1929C44.5689 16.3368 43.3959 16.5138 42.5955 16.8218C42.1934 16.9766 41.8691 17.1702 41.6444 17.4237C41.4151 17.6823 41.2996 17.9922 41.2996 18.354H41.6996C41.6996 18.0858 41.782 17.8715 41.9437 17.689C42.1099 17.5015 42.3694 17.3374 42.7391 17.1952C43.4822 16.9092 44.6042 16.7352 46.1086 16.5911L46.0705 16.1929ZM41.2996 18.354C41.2996 18.8534 41.501 19.2725 41.8686 19.5619C42.231 19.8472 42.7382 19.994 43.3356 19.994V19.594C42.7989 19.594 42.3881 19.4618 42.116 19.2476C41.8491 19.0375 41.6996 18.7366 41.6996 18.354H41.2996ZM43.3356 19.994C44.1399 19.994 44.8818 19.7931 45.4249 19.3166C45.9727 18.8361 46.2896 18.1007 46.2896 17.094H45.8896C45.8896 18.0133 45.6034 18.6279 45.1612 19.0159C44.7143 19.4079 44.0792 19.594 43.3356 19.594V19.994ZM46.2896 17.094V16.392H45.8896V17.094H46.2896ZM52.0737 7.95H52.2737V7.75H52.0737V7.95ZM52.0737 10.02V10.22H52.2737V10.02H52.0737ZM50.2017 10.02H50.0017V10.22H50.2017V10.02ZM50.2017 7.95V7.75H50.0017V7.95H50.2017ZM52.0737 11.316H52.2737V11.116H52.0737V11.316ZM52.0737 21V21.2H52.2737V21H52.0737ZM50.2017 21H50.0017V21.2H50.2017V21ZM50.2017 11.316V11.116H50.0017V11.316H50.2017ZM51.8737 7.95V10.02H52.2737V7.95H51.8737ZM52.0737 9.82H50.2017V10.22H52.0737V9.82ZM50.4017 10.02V7.95H50.0017V10.02H50.4017ZM50.2017 8.15H52.0737V7.75H50.2017V8.15ZM51.8737 11.316V21H52.2737V11.316H51.8737ZM52.0737 20.8H50.2017V21.2H52.0737V20.8ZM50.4017 21V11.316H50.0017V21H50.4017ZM50.2017 11.516H52.0737V11.116H50.2017V11.516ZM56.4682 21V21.2H56.6682V21H56.4682ZM54.5962 21H54.3962V21.2H54.5962V21ZM54.5962 7.95V7.75H54.3962V7.95H54.5962ZM56.4682 7.95H56.6682V7.75H56.4682V7.95ZM56.4682 20.8H54.5962V21.2H56.4682V20.8ZM54.7962 21V7.95H54.3962V21H54.7962ZM54.5962 8.15H56.4682V7.75H54.5962V8.15ZM56.2682 7.95V21H56.6682V7.95H56.2682Z" fill="black"/>
</g>
</g>
<defs>
<clipPath id="clip0_4_74">
<rect width="68" height="30" fill="white"/>
</clipPath>
</defs>
</svg>
