<svg width="159" height="30" viewBox="0 0 159 30" fill="none" xmlns="http://www.w3.org/2000/svg">
<g clip-path="url(#clip0_4_27)">
<mask id="mask0_4_27" style="mask-type:luminance" maskUnits="userSpaceOnUse" x="0" y="0" width="159" height="30">
<path d="M159 0H0V30H159V0Z" fill="white"/>
</mask>
<g mask="url(#mask0_4_27)">
<path d="M154 0.5H5C2.51472 0.5 0.5 2.51472 0.5 5V25C0.5 27.4853 2.51472 29.5 5 29.5H154C156.485 29.5 158.5 27.4853 158.5 25V5C158.5 2.51472 156.485 0.5 154 0.5Z" fill="black"/>
<path d="M154 0.5H5C2.51472 0.5 0.5 2.51472 0.5 5V25C0.5 27.4853 2.51472 29.5 5 29.5H154C156.485 29.5 158.5 27.4853 158.5 25V5C158.5 2.51472 156.485 0.5 154 0.5Z" stroke="black"/>
<path d="M11.8584 7.95H20.6424V9.696H13.9104V13.422H20.2464V15.15H13.9104V21H11.8584V7.95ZM27.92 19.632C27.362 20.604 26.426 21.234 24.968 21.234C22.682 21.234 21.8 19.812 21.8 17.472V11.316H23.672V16.968C23.672 18.372 23.906 19.65 25.598 19.65C27.164 19.65 27.938 18.48 27.938 16.572V11.316H29.81V21H27.92V19.632ZM37.3551 13.242C37.0131 13.206 36.6891 13.188 36.3831 13.188C34.9431 13.188 34.1871 13.89 34.1871 15.924V21H32.3151V11.316H34.1511V13.026C34.6551 11.928 35.6271 11.298 36.8331 11.28C36.9951 11.28 37.1931 11.28 37.3551 11.298V13.242ZM40.7086 12.72C41.2666 11.766 42.2386 11.136 43.7506 11.136C46.0906 11.136 46.9906 12.648 46.9906 14.898V21H45.1186V15.402C45.1186 13.998 44.8846 12.702 43.1206 12.702C41.5006 12.702 40.7086 13.872 40.7086 15.798V21H38.8366V11.316H40.7086V12.72ZM51.2027 7.95V10.02H49.3307V7.95H51.2027ZM51.2027 11.316V21H49.3307V11.316H51.2027ZM54.1032 8.832H55.9752V11.316H57.8832V12.738H55.9752V18.264C55.9752 19.254 56.1372 19.506 57.0732 19.506H57.8652V21H56.4972C54.5352 21 54.1032 20.514 54.1032 18.516V12.738H52.6272V11.316H54.1032V8.832ZM65.6778 19.632C65.1198 20.604 64.1838 21.234 62.7258 21.234C60.4398 21.234 59.5578 19.812 59.5578 17.472V11.316H61.4298V16.968C61.4298 18.372 61.6638 19.65 63.3558 19.65C64.9218 19.65 65.6958 18.48 65.6958 16.572V11.316H67.5678V21H65.6778V19.632ZM75.1129 13.242C74.7709 13.206 74.4469 13.188 74.1409 13.188C72.7009 13.188 71.9449 13.89 71.9449 15.924V21H70.0729V11.316H71.9089V13.026C72.4129 11.928 73.3849 11.298 74.5909 11.28C74.7529 11.28 74.9509 11.28 75.1129 11.298V13.242ZM83.0426 18.156H84.9326C84.4826 19.758 83.0426 21.234 80.5766 21.234C77.4446 21.234 75.7526 18.948 75.7526 16.14C75.7526 13.134 77.7686 11.136 80.5226 11.136C83.5106 11.136 85.2566 13.584 85.0586 16.734H77.6786C77.8586 18.516 78.9926 19.632 80.5046 19.632C81.8546 19.632 82.6466 19.074 83.0426 18.156ZM77.7146 15.258H83.1146C83.0606 13.818 82.0526 12.666 80.5046 12.666C79.0466 12.666 77.9666 13.422 77.7146 15.258ZM90.2679 17.4C90.2679 15.42 91.6539 14.106 93.4899 13.476C92.6439 12.486 92.0859 11.532 92.0859 10.506C92.0859 8.796 93.5979 7.698 95.6499 7.698C97.2699 7.698 99.0699 8.436 99.0699 10.542C99.0699 12.126 97.9719 13.26 96.4599 13.926L98.8359 16.464C99.1419 15.69 99.3399 14.808 99.4119 13.854H101.32C101.194 15.24 100.798 16.626 100.114 17.832L103.066 21H100.438L98.9439 19.398C97.8459 20.514 96.3879 21.234 94.6059 21.234C91.9599 21.234 90.2679 19.56 90.2679 17.4ZM95.3979 12.774L95.4159 12.81C96.6039 12.342 97.2879 11.532 97.2879 10.596C97.2879 9.624 96.5499 9.192 95.6859 9.192C94.8399 9.192 94.0659 9.606 94.0659 10.416C94.0659 11.208 94.7139 12.072 95.3979 12.774ZM97.8279 18.192L94.5339 14.628C93.0939 15.15 92.2479 16.014 92.2479 17.31C92.2479 18.75 93.3279 19.65 94.7859 19.65C95.9739 19.65 97.0179 19.11 97.8279 18.192ZM110.168 19.254H116.9V21H108.116V7.95H110.168V19.254ZM120.038 7.95V10.02H118.166V7.95H120.038ZM120.038 11.316V21H118.166V11.316H120.038ZM129.005 11.316H130.877V19.866C130.877 21.648 130.499 22.602 129.833 23.268C129.095 24.042 127.925 24.438 126.449 24.438C124.289 24.438 122.705 23.502 122.399 21.468H124.325C124.523 22.35 125.081 22.872 126.485 22.872C127.403 22.872 128.033 22.62 128.429 22.17C128.807 21.756 129.005 21.252 129.005 20.262V19.236C128.411 20.226 127.439 20.838 126.017 20.838C123.767 20.838 121.895 19.056 121.895 15.978C121.895 12.918 123.767 11.136 126.017 11.136C127.439 11.136 128.411 11.748 129.005 12.738V11.316ZM126.449 12.684C124.901 12.684 123.893 13.908 123.893 15.978C123.893 18.084 124.901 19.308 126.449 19.308C127.889 19.308 129.077 18.3 129.077 15.978C129.077 13.674 127.889 12.684 126.449 12.684ZM135.243 12.72C135.801 11.766 136.773 11.136 138.285 11.136C140.625 11.136 141.525 12.648 141.525 14.898V21H139.653V15.402C139.653 13.998 139.419 12.702 137.655 12.702C136.035 12.702 135.243 13.872 135.243 15.798V21H133.371V7.95H135.243V12.72ZM144.243 8.832H146.115V11.316H148.023V12.738H146.115V18.264C146.115 19.254 146.277 19.506 147.213 19.506H148.005V21H146.637C144.675 21 144.243 20.514 144.243 18.516V12.738H142.767V11.316H144.243V8.832Z" fill="white"/>
<path d="M11.8582 7.95005V7.75005H11.6582V7.95005H11.8582ZM20.6422 7.95005H20.8422V7.75005H20.6422V7.95005ZM20.6422 9.69605V9.89605H20.8422V9.69605H20.6422ZM13.9102 9.69605V9.49605H13.7102V9.69605H13.9102ZM13.9102 13.422H13.7102V13.622H13.9102V13.422ZM20.2462 13.422H20.4462V13.222H20.2462V13.422ZM20.2462 15.15V15.35H20.4462V15.15H20.2462ZM13.9102 15.15V14.95H13.7102V15.15H13.9102ZM13.9102 21V21.2H14.1102V21H13.9102ZM11.8582 21H11.6582V21.2H11.8582V21ZM11.8582 8.15005H20.6422V7.75005H11.8582V8.15005ZM20.4422 7.95005V9.69605H20.8422V7.95005H20.4422ZM20.6422 9.49605H13.9102V9.89605H20.6422V9.49605ZM13.7102 9.69605V13.422H14.1102V9.69605H13.7102ZM13.9102 13.622H20.2462V13.222H13.9102V13.622ZM20.0462 13.422V15.15H20.4462V13.422H20.0462ZM20.2462 14.95H13.9102V15.35H20.2462V14.95ZM13.7102 15.15V21H14.1102V15.15H13.7102ZM13.9102 20.8H11.8582V21.2H13.9102V20.8ZM12.0582 21V7.95005H11.6582V21H12.0582ZM27.9198 19.632H28.1198V18.8819L27.7463 19.5324L27.9198 19.632ZM21.7998 11.316V11.116H21.5998V11.316H21.7998ZM23.6718 11.316H23.8718V11.116H23.6718V11.316ZM27.9378 11.316V11.116H27.7378V11.316H27.9378ZM29.8098 11.316H30.0098V11.116H29.8098V11.316ZM29.8098 21V21.2H30.0098V21H29.8098ZM27.9198 21H27.7198V21.2H27.9198V21ZM27.7463 19.5324C27.2246 20.4413 26.3553 21.034 24.9678 21.034V21.434C26.4963 21.434 27.499 20.7667 28.0932 19.7316L27.7463 19.5324ZM24.9678 21.034C23.8688 21.034 23.1429 20.6945 22.6841 20.1074C22.2178 19.5104 21.9998 18.6228 21.9998 17.472H21.5998C21.5998 18.6612 21.8228 19.6546 22.3689 20.3536C22.9227 21.0625 23.7808 21.434 24.9678 21.434V21.034ZM21.9998 17.472V11.316H21.5998V17.472H21.9998ZM21.7998 11.516H23.6718V11.116H21.7998V11.516ZM23.4718 11.316V16.968H23.8718V11.316H23.4718ZM23.4718 16.968C23.4718 17.6712 23.5282 18.3877 23.8247 18.9313C23.9758 19.2083 24.1898 19.4417 24.4873 19.604C24.7832 19.7654 25.1499 19.85 25.5978 19.85V19.45C25.1997 19.45 24.9026 19.3749 24.6788 19.2528C24.4566 19.1316 24.2947 18.9577 24.1759 18.7397C23.9323 18.2933 23.8718 17.6688 23.8718 16.968H23.4718ZM25.5978 19.85C26.437 19.85 27.0852 19.5329 27.5163 18.9447C27.9404 18.3662 28.1378 17.5485 28.1378 16.572H27.7378C27.7378 17.5035 27.5481 18.2248 27.1937 18.7083C26.8464 19.1821 26.3246 19.45 25.5978 19.45V19.85ZM28.1378 16.572V11.316H27.7378V16.572H28.1378ZM27.9378 11.516H29.8098V11.116H27.9378V11.516ZM29.6098 11.316V21H30.0098V11.316H29.6098ZM29.8098 20.8H27.9198V21.2H29.8098V20.8ZM28.1198 21V19.632H27.7198V21H28.1198ZM37.3549 13.242L37.334 13.4409L37.5549 13.4642V13.242H37.3549ZM34.1869 21V21.2H34.3869V21H34.1869ZM32.3149 21H32.1149V21.2H32.3149V21ZM32.3149 11.316V11.116H32.1149V11.316H32.3149ZM34.1509 11.316H34.3509V11.116H34.1509V11.316ZM34.1509 13.026H33.9509L34.3327 13.1094L34.1509 13.026ZM36.8329 11.28V11.08H36.8299L36.8329 11.28ZM37.3549 11.298H37.5549V11.119L37.377 11.0992L37.3549 11.298ZM37.3758 13.0431C37.0277 13.0065 36.6967 12.988 36.3829 12.988V13.388C36.6811 13.388 36.9981 13.4055 37.334 13.4409L37.3758 13.0431ZM36.3829 12.988C35.6327 12.988 35.0153 13.1713 34.5931 13.663C34.1776 14.1469 33.9869 14.8898 33.9869 15.924H34.3869C34.3869 14.9242 34.5741 14.2991 34.8966 13.9235C35.2125 13.5557 35.693 13.388 36.3829 13.388V12.988ZM33.9869 15.924V21H34.3869V15.924H33.9869ZM34.1869 20.8H32.3149V21.2H34.1869V20.8ZM32.5149 21V11.316H32.1149V21H32.5149ZM32.3149 11.516H34.1509V11.116H32.3149V11.516ZM33.9509 11.316V13.026H34.3509V11.316H33.9509ZM34.3327 13.1094C34.8043 12.0818 35.7066 11.4968 36.8359 11.48L36.8299 11.08C35.5472 11.0992 34.5054 11.7742 33.9691 12.9426L34.3327 13.1094ZM36.8329 11.48C36.9978 11.48 37.184 11.4802 37.3328 11.4968L37.377 11.0992C37.2018 11.0798 36.9919 11.08 36.8329 11.08V11.48ZM37.1549 11.298V13.242H37.5549V11.298H37.1549ZM40.7084 12.72H40.5084V13.4581L40.881 12.821L40.7084 12.72ZM46.9904 21V21.2H47.1904V21H46.9904ZM45.1184 21H44.9184V21.2H45.1184V21ZM40.7084 21V21.2H40.9084V21H40.7084ZM38.8364 21H38.6364V21.2H38.8364V21ZM38.8364 11.316V11.116H38.6364V11.316H38.8364ZM40.7084 11.316H40.9084V11.116H40.7084V11.316ZM40.881 12.821C41.4006 11.9327 42.3042 11.336 43.7504 11.336V10.936C42.1725 10.936 41.1322 11.5993 40.5357 12.619L40.881 12.821ZM43.7504 11.336C44.874 11.336 45.6194 11.6965 46.0906 12.2967C46.5688 12.906 46.7904 13.7945 46.7904 14.898H47.1904C47.1904 13.7515 46.9619 12.759 46.4052 12.0498C45.8414 11.3315 44.9667 10.936 43.7504 10.936V11.336ZM46.7904 14.898V21H47.1904V14.898H46.7904ZM46.9904 20.8H45.1184V21.2H46.9904V20.8ZM45.3184 21V15.402H44.9184V21H45.3184ZM45.3184 15.402C45.3184 14.6989 45.262 13.9768 44.9555 13.428C44.7992 13.1482 44.578 12.9131 44.2706 12.7498C43.9649 12.5874 43.5855 12.502 43.1204 12.502V12.902C43.5373 12.902 43.8486 12.9786 44.0829 13.1031C44.3155 13.2266 44.4835 13.4033 44.6063 13.623C44.8577 14.0732 44.9184 14.7011 44.9184 15.402H45.3184ZM43.1204 12.502C42.2566 12.502 41.5904 12.8172 41.147 13.4076C40.7104 13.9889 40.5084 14.8121 40.5084 15.798H40.9084C40.9084 14.8579 41.1024 14.1331 41.4668 13.6479C41.8243 13.1718 42.3641 12.902 43.1204 12.902V12.502ZM40.5084 15.798V21H40.9084V15.798H40.5084ZM40.7084 20.8H38.8364V21.2H40.7084V20.8ZM39.0364 21V11.316H38.6364V21H39.0364ZM38.8364 11.516H40.7084V11.116H38.8364V11.516ZM40.5084 11.316V12.72H40.9084V11.316H40.5084ZM51.2025 7.95005H51.4025V7.75005H51.2025V7.95005ZM51.2025 10.02V10.22H51.4025V10.02H51.2025ZM49.3305 10.02H49.1305V10.22H49.3305V10.02ZM49.3305 7.95005V7.75005H49.1305V7.95005H49.3305ZM51.2025 11.316H51.4025V11.116H51.2025V11.316ZM51.2025 21V21.2H51.4025V21H51.2025ZM49.3305 21H49.1305V21.2H49.3305V21ZM49.3305 11.316V11.116H49.1305V11.316H49.3305ZM51.0025 7.95005V10.02H51.4025V7.95005H51.0025ZM51.2025 9.82005H49.3305V10.22H51.2025V9.82005ZM49.5305 10.02V7.95005H49.1305V10.02H49.5305ZM49.3305 8.15005H51.2025V7.75005H49.3305V8.15005ZM51.0025 11.316V21H51.4025V11.316H51.0025ZM51.2025 20.8H49.3305V21.2H51.2025V20.8ZM49.5305 21V11.316H49.1305V21H49.5305ZM49.3305 11.516H51.2025V11.116H49.3305V11.516ZM54.103 8.83205V8.63205H53.903V8.83205H54.103ZM55.975 8.83205H56.175V8.63205H55.975V8.83205ZM55.975 11.316H55.775V11.516H55.975V11.316ZM57.883 11.316H58.083V11.116H57.883V11.316ZM57.883 12.738V12.938H58.083V12.738H57.883ZM55.975 12.738V12.538H55.775V12.738H55.975ZM57.865 19.506H58.065V19.306H57.865V19.506ZM57.865 21V21.2H58.065V21H57.865ZM54.103 12.738H54.303V12.538H54.103V12.738ZM52.627 12.738H52.427V12.938H52.627V12.738ZM52.627 11.316V11.116H52.427V11.316H52.627ZM54.103 11.316V11.516H54.303V11.316H54.103ZM54.103 9.03205H55.975V8.63205H54.103V9.03205ZM55.775 8.83205V11.316H56.175V8.83205H55.775ZM55.975 11.516H57.883V11.116H55.975V11.516ZM57.683 11.316V12.738H58.083V11.316H57.683ZM57.883 12.538H55.975V12.938H57.883V12.538ZM55.775 12.738V18.264H56.175V12.738H55.775ZM55.775 18.264C55.775 18.5146 55.7851 18.7306 55.8183 18.9117C55.8516 19.0938 55.9108 19.2555 56.0202 19.3852C56.2424 19.6487 56.6069 19.706 57.073 19.706V19.306C56.6032 19.306 56.4187 19.2373 56.3259 19.1273C56.2778 19.0702 56.238 18.9834 56.2117 18.8397C56.1853 18.6952 56.175 18.5084 56.175 18.264H55.775ZM57.073 19.706H57.865V19.306H57.073V19.706ZM57.665 19.506V21H58.065V19.506H57.665ZM57.865 20.8H56.497V21.2H57.865V20.8ZM56.497 20.8C55.5131 20.8 54.9979 20.6728 54.7092 20.3694C54.4172 20.0625 54.303 19.5209 54.303 18.516H53.903C53.903 19.5091 54.0049 20.2095 54.4194 20.6451C54.8372 21.0842 55.5189 21.2 56.497 21.2V20.8ZM54.303 18.516V12.738H53.903V18.516H54.303ZM54.103 12.538H52.627V12.938H54.103V12.538ZM52.827 12.738V11.316H52.427V12.738H52.827ZM52.627 11.516H54.103V11.116H52.627V11.516ZM54.303 11.316V8.83205H53.903V11.316H54.303ZM65.6776 19.632H65.8776V18.8819L65.5042 19.5324L65.6776 19.632ZM59.5576 11.316V11.116H59.3576V11.316H59.5576ZM61.4296 11.316H61.6296V11.116H61.4296V11.316ZM65.6956 11.316V11.116H65.4956V11.316H65.6956ZM67.5676 11.316H67.7676V11.116H67.5676V11.316ZM67.5676 21V21.2H67.7676V21H67.5676ZM65.6776 21H65.4776V21.2H65.6776V21ZM65.5042 19.5324C64.9824 20.4413 64.1131 21.034 62.7256 21.034V21.434C64.2541 21.434 65.2568 20.7667 65.8511 19.7316L65.5042 19.5324ZM62.7256 21.034C61.6266 21.034 60.9007 20.6945 60.442 20.1074C59.9756 19.5104 59.7576 18.6228 59.7576 17.472H59.3576C59.3576 18.6612 59.5806 19.6546 60.1268 20.3536C60.6805 21.0625 61.5386 21.434 62.7256 21.434V21.034ZM59.7576 17.472V11.316H59.3576V17.472H59.7576ZM59.5576 11.516H61.4296V11.116H59.5576V11.516ZM61.2296 11.316V16.968H61.6296V11.316H61.2296ZM61.2296 16.968C61.2296 17.6712 61.2861 18.3877 61.5825 18.9313C61.7337 19.2083 61.9476 19.4417 62.2451 19.604C62.541 19.7654 62.9077 19.85 63.3556 19.85V19.45C62.9575 19.45 62.6604 19.3749 62.4366 19.2528C62.2144 19.1316 62.0526 18.9577 61.9337 18.7397C61.6902 18.2933 61.6296 17.6688 61.6296 16.968H61.2296ZM63.3556 19.85C64.1948 19.85 64.843 19.5329 65.2742 18.9447C65.6983 18.3662 65.8956 17.5485 65.8956 16.572H65.4956C65.4956 17.5035 65.306 18.2248 64.9516 18.7083C64.6042 19.1821 64.0824 19.45 63.3556 19.45V19.85ZM65.8956 16.572V11.316H65.4956V16.572H65.8956ZM65.6956 11.516H67.5676V11.116H65.6956V11.516ZM67.3676 11.316V21H67.7676V11.316H67.3676ZM67.5676 20.8H65.6776V21.2H67.5676V20.8ZM65.8776 21V19.632H65.4776V21H65.8776ZM75.1127 13.242L75.0918 13.4409L75.3127 13.4642V13.242H75.1127ZM71.9447 21V21.2H72.1447V21H71.9447ZM70.0727 21H69.8727V21.2H70.0727V21ZM70.0727 11.316V11.116H69.8727V11.316H70.0727ZM71.9087 11.316H72.1087V11.116H71.9087V11.316ZM71.9087 13.026H71.7087L72.0905 13.1094L71.9087 13.026ZM74.5907 11.28V11.08H74.5877L74.5907 11.28ZM75.1127 11.298H75.3127V11.119L75.1348 11.0992L75.1127 11.298ZM75.1336 13.0431C74.7855 13.0065 74.4545 12.988 74.1407 12.988V13.388C74.4389 13.388 74.7559 13.4055 75.0918 13.4409L75.1336 13.0431ZM74.1407 12.988C73.3906 12.988 72.7731 13.1713 72.351 13.663C71.9355 14.1469 71.7447 14.8898 71.7447 15.924H72.1447C72.1447 14.9242 72.3319 14.2991 72.6544 13.9235C72.9703 13.5557 73.4508 13.388 74.1407 13.388V12.988ZM71.7447 15.924V21H72.1447V15.924H71.7447ZM71.9447 20.8H70.0727V21.2H71.9447V20.8ZM70.2727 21V11.316H69.8727V21H70.2727ZM70.0727 11.516H71.9087V11.116H70.0727V11.516ZM71.7087 11.316V13.026H72.1087V11.316H71.7087ZM72.0905 13.1094C72.5622 12.0818 73.4644 11.4968 74.5937 11.48L74.5877 11.08C73.305 11.0992 72.2632 11.7742 71.7269 12.9426L72.0905 13.1094ZM74.5907 11.48C74.7556 11.48 74.9418 11.4802 75.0906 11.4968L75.1348 11.0992C74.9596 11.0798 74.7498 11.08 74.5907 11.08V11.48ZM74.9127 11.298V13.242H75.3127V11.298H74.9127ZM83.0424 18.156V17.956H82.9109L82.8588 18.0768L83.0424 18.156ZM84.9324 18.156L85.125 18.2101L85.1963 17.956H84.9324V18.156ZM85.0584 16.734V16.934H85.2462L85.258 16.7465L85.0584 16.734ZM77.6784 16.734V16.534H77.4572L77.4794 16.7541L77.6784 16.734ZM77.7144 15.258L77.5163 15.2308L77.4851 15.458H77.7144V15.258ZM83.1144 15.258V15.458H83.322L83.3143 15.2505L83.1144 15.258ZM83.0424 18.356H84.9324V17.956H83.0424V18.356ZM84.7399 18.1019C84.3125 19.6233 82.947 21.034 80.5764 21.034V21.434C83.1378 21.434 84.6523 19.8927 85.125 18.2101L84.7399 18.1019ZM80.5764 21.034C79.0628 21.034 77.9132 20.4835 77.1398 19.6076C76.3636 18.7285 75.9524 17.5051 75.9524 16.14H75.5524C75.5524 17.5829 75.9872 18.9065 76.84 19.8724C77.6956 20.8415 78.9581 21.434 80.5764 21.434V21.034ZM75.9524 16.14C75.9524 14.6826 76.4404 13.4836 77.2483 12.6499C78.056 11.8165 79.1953 11.336 80.5224 11.336V10.936C79.0955 10.936 77.8498 11.4545 76.961 12.3716C76.0725 13.2884 75.5524 14.5914 75.5524 16.14H75.9524ZM80.5224 11.336C81.9568 11.336 83.0813 11.9211 83.8275 12.8768C84.5768 13.8365 84.9554 15.1848 84.8588 16.7215L85.258 16.7465C85.3594 15.1332 84.964 13.6825 84.1428 12.6307C83.3185 11.5749 82.076 10.936 80.5224 10.936V11.336ZM85.0584 16.534H77.6784V16.934H85.0584V16.534ZM77.4794 16.7541C77.5732 17.6824 77.9172 18.4521 78.4495 18.9917C78.9832 19.5327 79.6965 19.832 80.5044 19.832V19.432C79.8003 19.432 79.1906 19.1733 78.7343 18.7108C78.2766 18.2469 77.9636 17.5676 77.8774 16.7139L77.4794 16.7541ZM80.5044 19.832C81.2067 19.832 81.7806 19.6868 82.2354 19.4089C82.6917 19.1302 83.014 18.7267 83.226 18.2352L82.8588 18.0768C82.6748 18.5033 82.4031 18.8378 82.0269 19.0676C81.6493 19.2982 81.1521 19.432 80.5044 19.432V19.832ZM77.7144 15.458H83.1144V15.058H77.7144V15.458ZM83.3143 15.2505C83.2567 13.7165 82.173 12.466 80.5044 12.466V12.866C81.9318 12.866 82.8641 13.9194 82.9145 15.2655L83.3143 15.2505ZM80.5044 12.466C79.7413 12.466 79.0557 12.6643 78.5263 13.1222C77.9965 13.5806 77.647 14.2783 77.5163 15.2308L77.9125 15.2852C78.0338 14.4017 78.3503 13.8034 78.788 13.4248C79.2261 13.0457 79.8096 12.866 80.5044 12.866V12.466ZM93.4897 13.476L93.5546 13.6652L93.8329 13.5697L93.6418 13.3461L93.4897 13.476ZM96.4597 13.926L96.3791 13.743L96.1209 13.8567L96.3137 14.0627L96.4597 13.926ZM98.8357 16.464L98.6897 16.6007L98.9056 16.8313L99.0217 16.5375L98.8357 16.464ZM99.4117 13.854V13.654H99.2262L99.2123 13.8389L99.4117 13.854ZM101.32 13.854L101.519 13.8721L101.539 13.654H101.32V13.854ZM100.114 17.832L99.9397 17.7333L99.8674 17.861L99.9674 17.9683L100.114 17.832ZM103.066 21V21.2H103.525L103.212 20.8637L103.066 21ZM100.438 21L100.291 21.1364L100.351 21.2H100.438V21ZM98.9437 19.398L99.09 19.2616L98.9476 19.1089L98.8011 19.2577L98.9437 19.398ZM95.3977 12.774L95.5766 12.6846L95.5627 12.6567L95.541 12.6344L95.3977 12.774ZM95.4157 12.81L95.2368 12.8994L95.3187 13.0632L95.489 12.9961L95.4157 12.81ZM97.8277 18.192L97.9777 18.3243L98.0972 18.1889L97.9746 18.0563L97.8277 18.192ZM94.5337 14.628L94.6806 14.4923L94.5904 14.3947L94.4656 14.44L94.5337 14.628ZM90.4677 17.4C90.4677 15.5362 91.7658 14.279 93.5546 13.6652L93.4248 13.2868C91.5416 13.933 90.0677 15.3038 90.0677 17.4H90.4677ZM93.6418 13.3461C92.8034 12.365 92.2857 11.4578 92.2857 10.506H91.8857C91.8857 11.6062 92.484 12.607 93.3377 13.6059L93.6418 13.3461ZM92.2857 10.506C92.2857 9.71639 92.6322 9.07172 93.2202 8.6193C93.8123 8.1637 94.6574 7.89805 95.6497 7.89805V7.49805C94.59 7.49805 93.6532 7.78139 92.9762 8.3023C92.2952 8.82637 91.8857 9.58571 91.8857 10.506H92.2857ZM95.6497 7.89805C96.434 7.89805 97.2452 8.07741 97.8541 8.49521C98.4531 8.90627 98.8697 9.55605 98.8697 10.542H99.2697C99.2697 9.42205 98.7863 8.64983 98.0804 8.16539C97.3842 7.68769 96.4854 7.49805 95.6497 7.49805V7.89805ZM98.8697 10.542C98.8697 12.0149 97.853 13.0938 96.3791 13.743L96.5403 14.109C98.0904 13.4262 99.2697 12.2371 99.2697 10.542H98.8697ZM96.3137 14.0627L98.6897 16.6007L98.9817 16.3273L96.6057 13.7893L96.3137 14.0627ZM99.0217 16.5375C99.3359 15.7429 99.5378 14.841 99.6111 13.8691L99.2123 13.8389C99.1416 14.775 98.9476 15.6371 98.6497 16.3905L99.0217 16.5375ZM99.4117 14.054H101.32V13.654H99.4117V14.054ZM101.12 13.8359C100.997 15.1972 100.608 16.5551 99.9397 17.7333L100.287 17.9307C100.987 16.6969 101.39 15.2828 101.519 13.8721L101.12 13.8359ZM99.9674 17.9683L102.919 21.1363L103.212 20.8637L100.26 17.6957L99.9674 17.9683ZM103.066 20.8H100.438V21.2H103.066V20.8ZM100.584 20.8636L99.09 19.2616L98.7974 19.5344L100.291 21.1364L100.584 20.8636ZM98.8011 19.2577C97.7369 20.3394 96.3289 21.034 94.6057 21.034V21.434C96.4466 21.434 97.9545 20.6886 99.0863 19.5383L98.8011 19.2577ZM94.6057 21.034C93.3252 21.034 92.2911 20.6295 91.5794 19.9793C90.8683 19.3299 90.4677 18.4255 90.4677 17.4H90.0677C90.0677 18.5345 90.5131 19.5471 91.3096 20.2747C92.1053 21.0015 93.2402 21.434 94.6057 21.434V21.034ZM95.2188 12.8634L95.2368 12.8994L95.5946 12.7206L95.5766 12.6846L95.2188 12.8634ZM95.489 12.9961C96.7199 12.5112 97.4877 11.6451 97.4877 10.596H97.0877C97.0877 11.4189 96.4875 12.1728 95.3424 12.6239L95.489 12.9961ZM97.4877 10.596C97.4877 10.0534 97.2787 9.64252 96.9342 9.3722C96.5964 9.10722 96.1478 8.99205 95.6857 8.99205V9.39205C96.0876 9.39205 96.44 9.49288 96.6873 9.6869C96.9277 9.87558 97.0877 10.1666 97.0877 10.596H97.4877ZM95.6857 8.99205C95.2335 8.99205 94.7862 9.10218 94.4455 9.33524C94.0985 9.57266 93.8657 9.93727 93.8657 10.416H94.2657C94.2657 10.0848 94.4199 9.83744 94.6714 9.66536C94.9293 9.48892 95.2919 9.39205 95.6857 9.39205V8.99205ZM93.8657 10.416C93.8657 10.8643 94.048 11.3155 94.3048 11.7335C94.563 12.1536 94.907 12.5569 95.2545 12.9136L95.541 12.6344C95.2045 12.2891 94.8824 11.9094 94.6456 11.524C94.4074 11.1365 94.2657 10.7597 94.2657 10.416H93.8657ZM97.9746 18.0563L94.6806 14.4923L94.3868 14.7637L97.6808 18.3277L97.9746 18.0563ZM94.4656 14.44C93.7261 14.708 93.1216 15.0699 92.7008 15.5463C92.2765 16.0268 92.0477 16.6141 92.0477 17.31H92.4477C92.4477 16.7099 92.6419 16.2172 93.0006 15.8111C93.3628 15.4011 93.9014 15.07 94.6019 14.816L94.4656 14.44ZM92.0477 17.31C92.0477 18.0833 92.3393 18.7237 92.8365 19.169C93.3315 19.6122 94.0162 19.85 94.7857 19.85V19.45C94.0972 19.45 93.5129 19.2378 93.1034 18.871C92.6961 18.5063 92.4477 17.9767 92.4477 17.31H92.0477ZM94.7857 19.85C96.0398 19.85 97.1359 19.2783 97.9777 18.3243L97.6777 18.0597C96.8995 18.9417 95.9076 19.45 94.7857 19.45V19.85ZM110.168 19.254H109.968V19.454H110.168V19.254ZM116.9 19.254H117.1V19.054H116.9V19.254ZM116.9 21V21.2H117.1V21H116.9ZM108.116 21H107.916V21.2H108.116V21ZM108.116 7.95005V7.75005H107.916V7.95005H108.116ZM110.168 7.95005H110.368V7.75005H110.168V7.95005ZM110.168 19.454H116.9V19.054H110.168V19.454ZM116.7 19.254V21H117.1V19.254H116.7ZM116.9 20.8H108.116V21.2H116.9V20.8ZM108.316 21V7.95005H107.916V21H108.316ZM108.116 8.15005H110.168V7.75005H108.116V8.15005ZM109.968 7.95005V19.254H110.368V7.95005H109.968ZM120.038 7.95005H120.238V7.75005H120.038V7.95005ZM120.038 10.02V10.22H120.238V10.02H120.038ZM118.166 10.02H117.966V10.22H118.166V10.02ZM118.166 7.95005V7.75005H117.966V7.95005H118.166ZM120.038 11.316H120.238V11.116H120.038V11.316ZM120.038 21V21.2H120.238V21H120.038ZM118.166 21H117.966V21.2H118.166V21ZM118.166 11.316V11.116H117.966V11.316H118.166ZM119.838 7.95005V10.02H120.238V7.95005H119.838ZM120.038 9.82005H118.166V10.22H120.038V9.82005ZM118.366 10.02V7.95005H117.966V10.02H118.366ZM118.166 8.15005H120.038V7.75005H118.166V8.15005ZM119.838 11.316V21H120.238V11.316H119.838ZM120.038 20.8H118.166V21.2H120.038V20.8ZM118.366 21V11.316H117.966V21H118.366ZM118.166 11.516H120.038V11.116H118.166V11.516ZM129.005 11.316V11.116H128.805V11.316H129.005ZM130.877 11.316H131.077V11.116H130.877V11.316ZM129.833 23.268L129.691 23.1265L129.688 23.13L129.833 23.268ZM122.399 21.468V21.268H122.166L122.201 21.4978L122.399 21.468ZM124.325 21.468L124.52 21.4242L124.485 21.268H124.325V21.468ZM128.429 22.17L128.281 22.0351L128.279 22.0379L128.429 22.17ZM129.005 19.236H129.205V18.5139L128.833 19.1331L129.005 19.236ZM129.005 12.738L128.833 12.8409L129.205 13.4601V12.738H129.005ZM129.005 11.516H130.877V11.116H129.005V11.516ZM130.677 11.316V19.866H131.077V11.316H130.677ZM130.677 19.866C130.677 21.6193 130.306 22.5123 129.691 23.1265L129.974 23.4094C130.692 22.6916 131.077 21.6767 131.077 19.866H130.677ZM129.688 23.13C129.001 23.8503 127.893 24.238 126.449 24.238V24.638C127.956 24.638 129.188 24.2337 129.978 23.406L129.688 23.13ZM126.449 24.238C125.395 24.238 124.503 24.0095 123.842 23.5514C123.187 23.0969 122.742 22.405 122.597 21.4382L122.201 21.4978C122.362 22.565 122.862 23.3581 123.615 23.8801C124.362 24.3985 125.342 24.638 126.449 24.638V24.238ZM122.399 21.668H124.325V21.268H122.399V21.668ZM124.13 21.5118C124.236 21.9848 124.445 22.3863 124.837 22.6639C125.224 22.9381 125.761 23.072 126.485 23.072V22.672C125.804 22.672 125.361 22.5449 125.068 22.3376C124.781 22.1337 124.612 21.8332 124.52 21.4242L124.13 21.5118ZM126.485 23.072C127.438 23.072 128.133 22.8094 128.579 22.3021L128.279 22.0379C127.933 22.4306 127.367 22.672 126.485 22.672V23.072ZM128.576 22.3049C128.999 21.8424 129.205 21.2836 129.205 20.262H128.805C128.805 21.2204 128.615 21.6696 128.281 22.0351L128.576 22.3049ZM129.205 20.262V19.236H128.805V20.262H129.205ZM128.833 19.1331C128.276 20.0614 127.37 20.638 126.017 20.638V21.038C127.507 21.038 128.545 20.3906 129.176 19.3389L128.833 19.1331ZM126.017 20.638C124.947 20.638 123.971 20.2152 123.261 19.4283C122.55 18.6407 122.095 17.4762 122.095 15.978H121.695C121.695 17.5578 122.176 18.8233 122.964 19.6962C123.752 20.5698 124.837 21.038 126.017 21.038V20.638ZM122.095 15.978C122.095 14.4891 122.55 13.3291 123.26 12.5437C123.971 11.7588 124.947 11.336 126.017 11.336V10.936C124.837 10.936 123.752 11.4042 122.964 12.2753C122.176 13.1459 121.695 14.4069 121.695 15.978H122.095ZM126.017 11.336C127.37 11.336 128.276 11.9126 128.833 12.8409L129.176 12.6351C128.545 11.5834 127.507 10.936 126.017 10.936V11.336ZM129.205 12.738V11.316H128.805V12.738H129.205ZM126.449 12.484C125.617 12.484 124.919 12.8155 124.433 13.4309C123.952 14.0411 123.693 14.913 123.693 15.978H124.093C124.093 14.973 124.338 14.1979 124.747 13.6786C125.153 13.1645 125.733 12.884 126.449 12.884V12.484ZM123.693 15.978C123.693 17.0603 123.952 17.9411 124.433 18.556C124.918 19.1764 125.617 19.508 126.449 19.508V19.108C125.733 19.108 125.153 18.8276 124.748 18.3095C124.338 17.7859 124.093 17.0017 124.093 15.978H123.693ZM126.449 19.508C127.217 19.508 127.932 19.2376 128.453 18.6458C128.971 18.0566 129.277 17.1715 129.277 15.978H128.877C128.877 17.1065 128.588 17.8864 128.153 18.3817C127.719 18.8744 127.12 19.108 126.449 19.108V19.508ZM129.277 15.978C129.277 14.7931 128.971 13.9166 128.452 13.334C127.931 12.7491 127.216 12.484 126.449 12.484V12.884C127.121 12.884 127.72 13.1139 128.153 13.6C128.588 14.0884 128.877 14.8589 128.877 15.978H129.277ZM135.243 12.72H135.043V13.4581L135.416 12.821L135.243 12.72ZM141.525 21V21.2H141.725V21H141.525ZM139.653 21H139.453V21.2H139.653V21ZM135.243 21V21.2H135.443V21H135.243ZM133.371 21H133.171V21.2H133.371V21ZM133.371 7.95005V7.75005H133.171V7.95005H133.371ZM135.243 7.95005H135.443V7.75005H135.243V7.95005ZM135.416 12.821C135.936 11.9327 136.839 11.336 138.285 11.336V10.936C136.707 10.936 135.667 11.5993 135.071 12.619L135.416 12.821ZM138.285 11.336C139.409 11.336 140.154 11.6965 140.626 12.2967C141.104 12.906 141.325 13.7945 141.325 14.898H141.725C141.725 13.7515 141.497 12.759 140.94 12.0498C140.376 11.3315 139.502 10.936 138.285 10.936V11.336ZM141.325 14.898V21H141.725V14.898H141.325ZM141.525 20.8H139.653V21.2H141.525V20.8ZM139.853 21V15.402H139.453V21H139.853ZM139.853 15.402C139.853 14.6989 139.797 13.9768 139.49 13.428C139.334 13.1482 139.113 12.9131 138.806 12.7498C138.5 12.5874 138.12 12.502 137.655 12.502V12.902C138.072 12.902 138.384 12.9786 138.618 13.1031C138.85 13.2266 139.018 13.4033 139.141 13.623C139.393 14.0732 139.453 14.7011 139.453 15.402H139.853ZM137.655 12.502C136.792 12.502 136.125 12.8172 135.682 13.4076C135.245 13.9889 135.043 14.8121 135.043 15.798H135.443C135.443 14.8579 135.637 14.1331 136.002 13.6479C136.359 13.1718 136.899 12.902 137.655 12.902V12.502ZM135.043 15.798V21H135.443V15.798H135.043ZM135.243 20.8H133.371V21.2H135.243V20.8ZM133.571 21V7.95005H133.171V21H133.571ZM133.371 8.15005H135.243V7.75005H133.371V8.15005ZM135.043 7.95005V12.72H135.443V7.95005H135.043ZM144.243 8.83205V8.63205H144.043V8.83205H144.243ZM146.115 8.83205H146.315V8.63205H146.115V8.83205ZM146.115 11.316H145.915V11.516H146.115V11.316ZM148.023 11.316H148.223V11.116H148.023V11.316ZM148.023 12.738V12.938H148.223V12.738H148.023ZM146.115 12.738V12.538H145.915V12.738H146.115ZM148.005 19.506H148.205V19.306H148.005V19.506ZM148.005 21V21.2H148.205V21H148.005ZM144.243 12.738H144.443V12.538H144.243V12.738ZM142.767 12.738H142.567V12.938H142.767V12.738ZM142.767 11.316V11.116H142.567V11.316H142.767ZM144.243 11.316V11.516H144.443V11.316H144.243ZM144.243 9.03205H146.115V8.63205H144.243V9.03205ZM145.915 8.83205V11.316H146.315V8.83205H145.915ZM146.115 11.516H148.023V11.116H146.115V11.516ZM147.823 11.316V12.738H148.223V11.316H147.823ZM148.023 12.538H146.115V12.938H148.023V12.538ZM145.915 12.738V18.264H146.315V12.738H145.915ZM145.915 18.264C145.915 18.5146 145.926 18.7306 145.959 18.9117C145.992 19.0938 146.051 19.2555 146.161 19.3852C146.383 19.6487 146.747 19.706 147.213 19.706V19.306C146.744 19.306 146.559 19.2373 146.466 19.1273C146.418 19.0702 146.378 18.9834 146.352 18.8397C146.326 18.6952 146.315 18.5084 146.315 18.264H145.915ZM147.213 19.706H148.005V19.306H147.213V19.706ZM147.805 19.506V21H148.205V19.506H147.805ZM148.005 20.8H146.637V21.2H148.005V20.8ZM146.637 20.8C145.654 20.8 145.138 20.6728 144.85 20.3694C144.558 20.0625 144.443 19.5209 144.443 18.516H144.043C144.043 19.5091 144.145 20.2095 144.56 20.6451C144.978 21.0842 145.659 21.2 146.637 21.2V20.8ZM144.443 18.516V12.738H144.043V18.516H144.443ZM144.243 12.538H142.767V12.938H144.243V12.538ZM142.967 12.738V11.316H142.567V12.738H142.967ZM142.767 11.516H144.243V11.116H142.767V11.516ZM144.443 11.316V8.83205H144.043V11.316H144.443Z" fill="white"/>
</g>
</g>
<defs>
<clipPath id="clip0_4_27">
<rect width="159" height="30" fill="white"/>
</clipPath>
</defs>
</svg>
