<svg width="41" height="30" viewBox="0 0 41 30" fill="none" xmlns="http://www.w3.org/2000/svg">
<g clip-path="url(#clip0_4_65)">
<mask id="mask0_4_65" style="mask-type:luminance" maskUnits="userSpaceOnUse" x="0" y="0" width="41" height="30">
<path d="M41 0H0V30H41V0Z" fill="white"/>
</mask>
<g mask="url(#mask0_4_65)">
<path d="M36 0.5H5C2.51472 0.5 0.5 2.51472 0.5 5V25C0.5 27.4853 2.51472 29.5 5 29.5H36C38.4853 29.5 40.5 27.4853 40.5 25V5C40.5 2.51472 38.4853 0.5 36 0.5Z" fill="black"/>
<path d="M36 0.5H5C2.51472 0.5 0.5 2.51472 0.5 5V25C0.5 27.4853 2.51472 29.5 5 29.5H36C38.4853 29.5 40.5 27.4853 40.5 25V5C40.5 2.51472 38.4853 0.5 36 0.5Z" stroke="black"/>
<path d="M14.9358 7.94995H17.2038L22.1178 21H19.8857L18.8598 18.138H13.1898L12.1818 21H10.0938L14.9358 7.94995ZM13.8018 16.41H18.2297L15.9978 10.182L13.8018 16.41ZM25.2492 21H23.3771V7.94995H25.2492V21ZM29.6437 21H27.7717V7.94995H29.6437V21Z" fill="white"/>
<path d="M14.9362 7.95V7.75H14.797L14.7486 7.88043L14.9362 7.95ZM17.2042 7.95L17.3913 7.87952L17.3425 7.75H17.2042V7.95ZM22.1182 21V21.2H22.4072L22.3053 20.9295L22.1182 21ZM19.8862 21L19.6979 21.0675L19.7454 21.2H19.8862V21ZM18.8602 18.138L19.0484 18.0705L19.0009 17.938H18.8602V18.138ZM13.1902 18.138V17.938H13.0485L13.0015 18.0716L13.1902 18.138ZM12.1822 21V21.2H12.3238L12.3708 21.0664L12.1822 21ZM10.0942 21L9.90666 20.9304L9.80664 21.2H10.0942V21ZM13.8022 16.41L13.6135 16.3435L13.5196 16.61H13.8022V16.41ZM18.2302 16.41V16.61H18.5143L18.4184 16.3425L18.2302 16.41ZM15.9982 10.182L16.1864 10.1145L15.9966 9.5849L15.8095 10.1155L15.9982 10.182ZM14.9362 8.15H17.2042V7.75H14.9362V8.15ZM17.017 8.02048L21.931 21.0705L22.3053 20.9295L17.3913 7.87952L17.017 8.02048ZM22.1182 20.8H19.8862V21.2H22.1182V20.8ZM20.0744 20.9325L19.0484 18.0705L18.6719 18.2055L19.6979 21.0675L20.0744 20.9325ZM18.8602 17.938H13.1902V18.338H18.8602V17.938ZM13.0015 18.0716L11.9935 20.9336L12.3708 21.0664L13.3788 18.2044L13.0015 18.0716ZM12.1822 20.8H10.0942V21.2H12.1822V20.8ZM10.2817 21.0696L15.1237 8.01957L14.7486 7.88043L9.90666 20.9304L10.2817 21.0696ZM13.8022 16.61H18.2302V16.21H13.8022V16.61ZM18.4184 16.3425L16.1864 10.1145L15.8099 10.2495L18.0419 16.4775L18.4184 16.3425ZM15.8095 10.1155L13.6135 16.3435L13.9908 16.4765L16.1868 10.2485L15.8095 10.1155ZM25.2496 21V21.2H25.4496V21H25.2496ZM23.3776 21H23.1776V21.2H23.3776V21ZM23.3776 7.95V7.75H23.1776V7.95H23.3776ZM25.2496 7.95H25.4496V7.75H25.2496V7.95ZM25.2496 20.8H23.3776V21.2H25.2496V20.8ZM23.5776 21V7.95H23.1776V21H23.5776ZM23.3776 8.15H25.2496V7.75H23.3776V8.15ZM25.0496 7.95V21H25.4496V7.95H25.0496ZM29.6441 21V21.2H29.8441V21H29.6441ZM27.7721 21H27.5721V21.2H27.7721V21ZM27.7721 7.95V7.75H27.5721V7.95H27.7721ZM29.6441 7.95H29.8441V7.75H29.6441V7.95ZM29.6441 20.8H27.7721V21.2H29.6441V20.8ZM27.9721 21V7.95H27.5721V21H27.9721ZM27.7721 8.15H29.6441V7.75H27.7721V8.15ZM29.4441 7.95V21H29.8441V7.95H29.4441Z" fill="white"/>
</g>
</g>
<defs>
<clipPath id="clip0_4_65">
<rect width="41" height="30" fill="white"/>
</clipPath>
</defs>
</svg>
