<svg width="151" height="30" viewBox="0 0 151 30" fill="none" xmlns="http://www.w3.org/2000/svg">
<rect x="0.5" y="0.5" width="150" height="29" rx="4.5" stroke="black"/>
<path d="M14.7961 14.952C12.9421 14.574 11.1781 13.53 11.1781 11.334C11.1781 8.868 13.7521 7.716 15.9481 7.716C18.3421 7.716 20.4121 8.814 20.9161 11.442H18.9361C18.5221 9.894 17.1001 9.426 15.8581 9.426C14.9041 9.426 13.2661 9.876 13.2661 11.244C13.2661 12.324 14.1301 12.882 15.2461 13.116L16.7941 13.44C18.8821 13.872 21.1681 14.664 21.1681 17.292C21.1681 19.884 18.6841 21.234 16.1461 21.234C13.1221 21.234 11.0881 19.56 10.7821 16.824H12.7981C13.1761 18.606 14.3821 19.524 16.2181 19.524C17.9101 19.524 19.0981 18.714 19.0981 17.454C19.0981 16.104 17.8021 15.564 16.3981 15.276L14.7961 14.952ZM32.0797 16.194C32.0797 19.686 29.6677 21.234 27.3637 21.234C25.0777 21.234 22.6657 19.686 22.6657 16.194C22.6657 12.684 25.0777 11.136 27.3637 11.136C29.6677 11.136 32.0797 12.684 32.0797 16.194ZM27.3637 19.65C28.7857 19.65 30.0997 18.552 30.0997 16.194C30.0997 13.782 28.7857 12.72 27.3637 12.72C25.9597 12.72 24.6457 13.746 24.6457 16.194C24.6457 18.588 25.9597 19.65 27.3637 19.65ZM35.8205 21H33.9485V11.316H35.8205V12.72C36.3785 11.766 37.2965 11.136 38.6825 11.136C40.1765 11.136 41.0585 11.766 41.4905 12.846C42.3005 11.64 43.4345 11.136 44.6945 11.136C46.9625 11.136 47.8445 12.648 47.8445 14.898V21H45.9725V15.402C45.9725 13.998 45.7565 12.702 44.0645 12.702C42.5885 12.702 41.8325 13.872 41.8325 15.798V21H39.9605V15.402C39.9605 13.998 39.7445 12.702 38.0525 12.702C36.5585 12.702 35.8205 13.872 35.8205 15.798V21ZM56.8322 18.156H58.7222C58.2722 19.758 56.8322 21.234 54.3662 21.234C51.2342 21.234 49.5422 18.948 49.5422 16.14C49.5422 13.134 51.5582 11.136 54.3122 11.136C57.3002 11.136 59.0462 13.584 58.8482 16.734H51.4682C51.6482 18.516 52.7822 19.632 54.2942 19.632C55.6442 19.632 56.4362 19.074 56.8322 18.156ZM51.5042 15.258H56.9042C56.8502 13.818 55.8422 12.666 54.2942 12.666C52.8362 12.666 51.7562 13.422 51.5042 15.258ZM61.0628 8.832H62.9348V11.316H64.8428V12.738H62.9348V18.264C62.9348 19.254 63.0968 19.506 64.0328 19.506H64.8248V21H63.4568C61.4948 21 61.0628 20.514 61.0628 18.516V12.738H59.5868V11.316H61.0628V8.832ZM68.7091 12.72C69.2671 11.766 70.2391 11.136 71.7511 11.136C74.0911 11.136 74.9911 12.648 74.9911 14.898V21H73.1191V15.402C73.1191 13.998 72.8851 12.702 71.1211 12.702C69.5011 12.702 68.7091 13.872 68.7091 15.798V21H66.8371V7.95H68.7091V12.72ZM79.2033 7.95V10.02H77.3313V7.95H79.2033ZM79.2033 11.316V21H77.3313V11.316H79.2033ZM83.5978 12.72C84.1558 11.766 85.1278 11.136 86.6398 11.136C88.9798 11.136 89.8798 12.648 89.8798 14.898V21H88.0078V15.402C88.0078 13.998 87.7738 12.702 86.0098 12.702C84.3898 12.702 83.5978 13.872 83.5978 15.798V21H81.7258V11.316H83.5978V12.72ZM98.664 11.316H100.536V19.866C100.536 21.648 100.158 22.602 99.492 23.268C98.754 24.042 97.584 24.438 96.108 24.438C93.948 24.438 92.364 23.502 92.058 21.468H93.984C94.182 22.35 94.74 22.872 96.144 22.872C97.062 22.872 97.692 22.62 98.088 22.17C98.466 21.756 98.664 21.252 98.664 20.262V19.236C98.07 20.226 97.098 20.838 95.676 20.838C93.426 20.838 91.554 19.056 91.554 15.978C91.554 12.918 93.426 11.136 95.676 11.136C97.098 11.136 98.07 11.748 98.664 12.738V11.316ZM96.108 12.684C94.56 12.684 93.552 13.908 93.552 15.978C93.552 18.084 94.56 19.308 96.108 19.308C97.548 19.308 98.736 18.3 98.736 15.978C98.736 13.674 97.548 12.684 96.108 12.684ZM113.873 18.156H115.763C115.313 19.758 113.873 21.234 111.407 21.234C108.275 21.234 106.583 18.948 106.583 16.14C106.583 13.134 108.599 11.136 111.353 11.136C114.341 11.136 116.087 13.584 115.889 16.734H108.509C108.689 18.516 109.823 19.632 111.335 19.632C112.685 19.632 113.477 19.074 113.873 18.156ZM108.545 15.258H113.945C113.891 13.818 112.883 12.666 111.335 12.666C109.877 12.666 108.797 13.422 108.545 15.258ZM119.598 21H117.726V7.95H119.598V21ZM127.628 14.016C127.358 13.026 126.53 12.63 125.432 12.63C124.514 12.63 123.524 13.008 123.524 13.8C123.524 14.52 123.992 14.826 124.874 15.006L126.26 15.276C128.096 15.636 129.698 16.266 129.698 18.156C129.698 20.118 127.862 21.234 125.63 21.234C123.182 21.234 121.688 19.812 121.454 17.994H123.362C123.614 19.092 124.334 19.74 125.684 19.74C126.89 19.74 127.826 19.236 127.826 18.372C127.826 17.472 126.98 17.112 125.972 16.914L124.514 16.626C123.056 16.338 121.688 15.69 121.688 13.872C121.688 12.162 123.488 11.118 125.612 11.118C127.556 11.118 129.122 12.144 129.482 14.016H127.628ZM138.201 18.156H140.091C139.641 19.758 138.201 21.234 135.735 21.234C132.603 21.234 130.911 18.948 130.911 16.14C130.911 13.134 132.927 11.136 135.681 11.136C138.669 11.136 140.415 13.584 140.217 16.734H132.837C133.017 18.516 134.151 19.632 135.663 19.632C137.013 19.632 137.805 19.074 138.201 18.156ZM132.873 15.258H138.273C138.219 13.818 137.211 12.666 135.663 12.666C134.205 12.666 133.125 13.422 132.873 15.258Z" fill="black"/>
</svg>
