<svg width="176" height="30" viewBox="0 0 176 30" fill="none" xmlns="http://www.w3.org/2000/svg">
<g clip-path="url(#clip0_4_227)">
<mask id="mask0_4_227" style="mask-type:luminance" maskUnits="userSpaceOnUse" x="0" y="0" width="176" height="30">
<path d="M176 0H0V30H176V0Z" fill="white"/>
</mask>
<g mask="url(#mask0_4_227)">
<path d="M171 0.5H5C2.51472 0.5 0.5 2.51472 0.5 5V25C0.5 27.4853 2.51472 29.5 5 29.5H171C173.485 29.5 175.5 27.4853 175.5 25V5C175.5 2.51472 173.485 0.5 171 0.5Z" fill="black"/>
<path d="M171 0.5H5C2.51472 0.5 0.5 2.51472 0.5 5V25C0.5 27.4853 2.51472 29.5 5 29.5H171C173.485 29.5 175.5 27.4853 175.5 25V5C175.5 2.51472 173.485 0.5 171 0.5Z" stroke="black"/>
<path d="M13.9202 21H11.8682V7.94995H13.9202V21ZM25.1484 11.316H27.0924L28.8924 18.336L30.5484 11.316H32.5824L29.8824 21H28.1364L26.1024 13.512L24.1224 21H22.3584L19.6764 11.316H21.7104L23.3484 18.336L25.1484 11.316ZM33.1728 18.39C33.1728 16.032 35.9448 15.402 39.7068 15.006V14.808C39.7068 13.098 38.8068 12.522 37.6188 12.522C36.3228 12.522 35.5848 13.188 35.5128 14.376H33.6228C33.7848 12.324 35.4768 11.082 37.6908 11.082C40.1928 11.082 41.6328 12.288 41.5968 15.186C41.5968 15.42 41.5608 17.094 41.5608 17.508C41.5608 18.948 41.6508 20.136 41.8308 21H40.0308C39.9588 20.622 39.9048 20.334 39.8688 19.722C39.2928 20.694 38.1948 21.234 36.6288 21.234C34.6668 21.234 33.1728 20.154 33.1728 18.39ZM39.7968 16.392C36.7908 16.68 35.2068 17.094 35.2068 18.354C35.2068 19.236 35.9088 19.794 37.0428 19.794C38.5908 19.794 39.7968 19.02 39.7968 17.094V16.392ZM45.7809 12.72C46.3389 11.766 47.3109 11.136 48.8229 11.136C51.1629 11.136 52.0629 12.648 52.0629 14.898V21H50.1909V15.402C50.1909 13.998 49.9569 12.702 48.1929 12.702C46.5729 12.702 45.7809 13.872 45.7809 15.798V21H43.9089V11.316H45.7809V12.72ZM54.7811 8.83195H56.6531V11.316H58.5611V12.738H56.6531V18.264C56.6531 19.254 56.8151 19.506 57.7511 19.506H58.5431V21H57.1751C55.2131 21 54.7811 20.514 54.7811 18.516V12.738H53.3051V11.316H54.7811V8.83195ZM64.9764 8.83195H66.8484V11.316H68.7564V12.738H66.8484V18.264C66.8484 19.254 67.0104 19.506 67.9464 19.506H68.7384V21H67.3704C65.4084 21 64.9764 20.514 64.9764 18.516V12.738H63.5004V11.316H64.9764V8.83195ZM79.2531 16.194C79.2531 19.686 76.8411 21.234 74.5371 21.234C72.2511 21.234 69.8391 19.686 69.8391 16.194C69.8391 12.684 72.2511 11.136 74.5371 11.136C76.8411 11.136 79.2531 12.684 79.2531 16.194ZM74.5371 19.65C75.9591 19.65 77.2731 18.552 77.2731 16.194C77.2731 13.782 75.9591 12.72 74.5371 12.72C73.1331 12.72 71.8191 13.746 71.8191 16.194C71.8191 18.588 73.1331 19.65 74.5371 19.65ZM89.6426 11.316H91.5866L93.3866 18.336L95.0426 11.316H97.0766L94.3766 21H92.6306L90.5966 13.512L88.6166 21H86.8526L84.1706 11.316H86.2046L87.8426 18.336L89.6426 11.316ZM107.096 16.194C107.096 19.686 104.684 21.234 102.38 21.234C100.094 21.234 97.6828 19.686 97.6828 16.194C97.6828 12.684 100.094 11.136 102.38 11.136C104.684 11.136 107.096 12.684 107.096 16.194ZM102.38 19.65C103.802 19.65 105.116 18.552 105.116 16.194C105.116 13.782 103.802 12.72 102.38 12.72C100.976 12.72 99.6628 13.746 99.6628 16.194C99.6628 18.588 100.976 19.65 102.38 19.65ZM114.005 13.242C113.663 13.206 113.339 13.188 113.033 13.188C111.593 13.188 110.837 13.89 110.837 15.924V21H108.965V11.316H110.801V13.026C111.305 11.928 112.277 11.298 113.483 11.28C113.645 11.28 113.843 11.28 114.005 11.298V13.242ZM117.359 7.94995V15.456L121.211 11.316H123.497L119.735 15.312L123.767 21H121.535L118.457 16.662L117.359 17.832V21H115.487V7.94995H117.359ZM130.911 12.72C131.469 11.766 132.441 11.136 133.953 11.136C136.293 11.136 137.193 12.648 137.193 14.898V21H135.321V15.402C135.321 13.998 135.087 12.702 133.323 12.702C131.703 12.702 130.911 13.872 130.911 15.798V21H129.039V7.94995H130.911V12.72ZM146.157 18.156H148.047C147.597 19.758 146.157 21.234 143.691 21.234C140.559 21.234 138.867 18.948 138.867 16.14C138.867 13.134 140.883 11.136 143.637 11.136C146.625 11.136 148.371 13.584 148.173 16.734H140.793C140.973 18.516 142.107 19.632 143.619 19.632C144.969 19.632 145.761 19.074 146.157 18.156ZM140.829 15.258H146.229C146.175 13.818 145.167 12.666 143.619 12.666C142.161 12.666 141.081 13.422 140.829 15.258ZM155.05 13.242C154.708 13.206 154.384 13.188 154.078 13.188C152.638 13.188 151.882 13.89 151.882 15.924V21H150.01V11.316H151.846V13.026C152.35 11.928 153.322 11.298 154.528 11.28C154.69 11.28 154.888 11.28 155.05 11.298V13.242ZM162.98 18.156H164.87C164.42 19.758 162.98 21.234 160.514 21.234C157.382 21.234 155.69 18.948 155.69 16.14C155.69 13.134 157.706 11.136 160.46 11.136C163.448 11.136 165.194 13.584 164.996 16.734H157.616C157.796 18.516 158.93 19.632 160.442 19.632C161.792 19.632 162.584 19.074 162.98 18.156ZM157.652 15.258H163.052C162.998 13.818 161.99 12.666 160.442 12.666C158.984 12.666 157.904 13.422 157.652 15.258Z" fill="white" stroke="white" stroke-width="0.4"/>
</g>
</g>
<defs>
<clipPath id="clip0_4_227">
<rect width="176" height="30" fill="white"/>
</clipPath>
</defs>
</svg>
