<svg width="176" height="30" viewBox="0 0 176 30" fill="none" xmlns="http://www.w3.org/2000/svg">
<rect x="0.5" y="0.5" width="175" height="29" rx="4.5" fill="black"/>
<rect x="0.5" y="0.5" width="175" height="29" rx="4.5" stroke="black"/>
<path d="M13.9197 21H11.8677V7.95H13.9197V21ZM25.1479 11.316H27.0919L28.8919 18.336L30.5479 11.316H32.5819L29.8819 21H28.1359L26.1019 13.512L24.1219 21H22.3579L19.6759 11.316H21.7099L23.3479 18.336L25.1479 11.316ZM33.1723 18.39C33.1723 16.032 35.9443 15.402 39.7063 15.006V14.808C39.7063 13.098 38.8063 12.522 37.6183 12.522C36.3223 12.522 35.5843 13.188 35.5123 14.376H33.6223C33.7843 12.324 35.4763 11.082 37.6903 11.082C40.1923 11.082 41.6323 12.288 41.5963 15.186C41.5963 15.42 41.5603 17.094 41.5603 17.508C41.5603 18.948 41.6503 20.136 41.8303 21H40.0303C39.9583 20.622 39.9043 20.334 39.8683 19.722C39.2923 20.694 38.1943 21.234 36.6283 21.234C34.6663 21.234 33.1723 20.154 33.1723 18.39ZM39.7963 16.392C36.7903 16.68 35.2063 17.094 35.2063 18.354C35.2063 19.236 35.9083 19.794 37.0423 19.794C38.5903 19.794 39.7963 19.02 39.7963 17.094V16.392ZM45.7804 12.72C46.3384 11.766 47.3104 11.136 48.8224 11.136C51.1624 11.136 52.0624 12.648 52.0624 14.898V21H50.1904V15.402C50.1904 13.998 49.9564 12.702 48.1924 12.702C46.5724 12.702 45.7804 13.872 45.7804 15.798V21H43.9084V11.316H45.7804V12.72ZM54.7806 8.832H56.6526V11.316H58.5606V12.738H56.6526V18.264C56.6526 19.254 56.8146 19.506 57.7506 19.506H58.5426V21H57.1746C55.2126 21 54.7806 20.514 54.7806 18.516V12.738H53.3046V11.316H54.7806V8.832ZM64.9759 8.832H66.8479V11.316H68.7559V12.738H66.8479V18.264C66.8479 19.254 67.0099 19.506 67.9459 19.506H68.7379V21H67.3699C65.4079 21 64.9759 20.514 64.9759 18.516V12.738H63.4999V11.316H64.9759V8.832ZM79.2526 16.194C79.2526 19.686 76.8406 21.234 74.5366 21.234C72.2506 21.234 69.8386 19.686 69.8386 16.194C69.8386 12.684 72.2506 11.136 74.5366 11.136C76.8406 11.136 79.2526 12.684 79.2526 16.194ZM74.5366 19.65C75.9586 19.65 77.2726 18.552 77.2726 16.194C77.2726 13.782 75.9586 12.72 74.5366 12.72C73.1326 12.72 71.8186 13.746 71.8186 16.194C71.8186 18.588 73.1326 19.65 74.5366 19.65ZM89.6421 11.316H91.5861L93.3861 18.336L95.0421 11.316H97.0761L94.3761 21H92.6301L90.5961 13.512L88.6161 21H86.8521L84.1701 11.316H86.2041L87.8421 18.336L89.6421 11.316ZM107.096 16.194C107.096 19.686 104.684 21.234 102.38 21.234C100.094 21.234 97.6823 19.686 97.6823 16.194C97.6823 12.684 100.094 11.136 102.38 11.136C104.684 11.136 107.096 12.684 107.096 16.194ZM102.38 19.65C103.802 19.65 105.116 18.552 105.116 16.194C105.116 13.782 103.802 12.72 102.38 12.72C100.976 12.72 99.6623 13.746 99.6623 16.194C99.6623 18.588 100.976 19.65 102.38 19.65ZM114.005 13.242C113.663 13.206 113.339 13.188 113.033 13.188C111.593 13.188 110.837 13.89 110.837 15.924V21H108.965V11.316H110.801V13.026C111.305 11.928 112.277 11.298 113.483 11.28C113.645 11.28 113.843 11.28 114.005 11.298V13.242ZM117.359 7.95V15.456L121.211 11.316H123.497L119.735 15.312L123.767 21H121.535L118.457 16.662L117.359 17.832V21H115.487V7.95H117.359ZM130.911 12.72C131.469 11.766 132.441 11.136 133.953 11.136C136.293 11.136 137.193 12.648 137.193 14.898V21H135.321V15.402C135.321 13.998 135.087 12.702 133.323 12.702C131.703 12.702 130.911 13.872 130.911 15.798V21H129.039V7.95H130.911V12.72ZM146.157 18.156H148.047C147.597 19.758 146.157 21.234 143.691 21.234C140.559 21.234 138.867 18.948 138.867 16.14C138.867 13.134 140.883 11.136 143.637 11.136C146.625 11.136 148.371 13.584 148.173 16.734H140.793C140.973 18.516 142.107 19.632 143.619 19.632C144.969 19.632 145.761 19.074 146.157 18.156ZM140.829 15.258H146.229C146.175 13.818 145.167 12.666 143.619 12.666C142.161 12.666 141.081 13.422 140.829 15.258ZM155.05 13.242C154.708 13.206 154.384 13.188 154.078 13.188C152.638 13.188 151.882 13.89 151.882 15.924V21H150.01V11.316H151.846V13.026C152.35 11.928 153.322 11.298 154.528 11.28C154.69 11.28 154.888 11.28 155.05 11.298V13.242ZM162.98 18.156H164.87C164.42 19.758 162.98 21.234 160.514 21.234C157.382 21.234 155.69 18.948 155.69 16.14C155.69 13.134 157.706 11.136 160.46 11.136C163.448 11.136 165.194 13.584 164.996 16.734H157.616C157.796 18.516 158.93 19.632 160.442 19.632C161.792 19.632 162.584 19.074 162.98 18.156ZM157.652 15.258H163.052C162.998 13.818 161.99 12.666 160.442 12.666C158.984 12.666 157.904 13.422 157.652 15.258Z" fill="white"/>
</svg>
