<svg width="151" height="30" viewBox="0 0 151 30" fill="none" xmlns="http://www.w3.org/2000/svg">
<g clip-path="url(#clip0_4_36)">
<mask id="mask0_4_36" style="mask-type:luminance" maskUnits="userSpaceOnUse" x="0" y="0" width="151" height="30">
<path d="M151 0H0V30H151V0Z" fill="white"/>
</mask>
<g mask="url(#mask0_4_36)">
<path d="M146 0.5H5C2.51472 0.5 0.5 2.51472 0.5 5V25C0.5 27.4853 2.51472 29.5 5 29.5H146C148.485 29.5 150.5 27.4853 150.5 25V5C150.5 2.51472 148.485 0.5 146 0.5Z" stroke="black"/>
<path d="M14.7962 14.9521C12.9422 14.5741 11.1782 13.5301 11.1782 11.3341C11.1782 8.86806 13.7522 7.71606 15.9482 7.71606C18.3422 7.71606 20.4122 8.81406 20.9162 11.4421H18.9362C18.5222 9.89406 17.1002 9.42606 15.8582 9.42606C14.9042 9.42606 13.2662 9.87606 13.2662 11.2441C13.2662 12.3241 14.1302 12.8821 15.2462 13.1161L16.7942 13.4401C18.8822 13.8721 21.1682 14.6641 21.1682 17.2921C21.1682 19.8841 18.6842 21.2341 16.1462 21.2341C13.1222 21.2341 11.0882 19.5601 10.7822 16.8241H12.7982C13.1762 18.6061 14.3822 19.5241 16.2182 19.5241C17.9102 19.5241 19.0982 18.7141 19.0982 17.4541C19.0982 16.1041 17.8022 15.5641 16.3982 15.2761L14.7962 14.9521ZM32.0798 16.1941C32.0798 19.6861 29.6678 21.2341 27.3638 21.2341C25.0778 21.2341 22.6658 19.6861 22.6658 16.1941C22.6658 12.6841 25.0778 11.1361 27.3638 11.1361C29.6678 11.1361 32.0798 12.6841 32.0798 16.1941ZM27.3638 19.6501C28.7858 19.6501 30.0998 18.5521 30.0998 16.1941C30.0998 13.7821 28.7858 12.7201 27.3638 12.7201C25.9598 12.7201 24.6458 13.7461 24.6458 16.1941C24.6458 18.5881 25.9598 19.6501 27.3638 19.6501ZM35.8206 21.0001H33.9486V11.3161H35.8206V12.7201C36.3786 11.7661 37.2966 11.1361 38.6826 11.1361C40.1766 11.1361 41.0586 11.7661 41.4906 12.8461C42.3006 11.6401 43.4346 11.1361 44.6946 11.1361C46.9626 11.1361 47.8446 12.6481 47.8446 14.8981V21.0001H45.9726V15.4021C45.9726 13.9981 45.7566 12.7021 44.0646 12.7021C42.5886 12.7021 41.8326 13.8721 41.8326 15.7981V21.0001H39.9606V15.4021C39.9606 13.9981 39.7446 12.7021 38.0526 12.7021C36.5586 12.7021 35.8206 13.8721 35.8206 15.7981V21.0001ZM56.8323 18.1561H58.7223C58.2723 19.7581 56.8323 21.2341 54.3663 21.2341C51.2343 21.2341 49.5423 18.9481 49.5423 16.1401C49.5423 13.1341 51.5583 11.1361 54.3123 11.1361C57.3003 11.1361 59.0463 13.5841 58.8483 16.7341H51.4683C51.6483 18.5161 52.7823 19.6321 54.2943 19.6321C55.6443 19.6321 56.4363 19.0741 56.8323 18.1561ZM51.5043 15.2581H56.9043C56.8503 13.8181 55.8423 12.6661 54.2943 12.6661C52.8363 12.6661 51.7563 13.4221 51.5043 15.2581ZM61.0629 8.83206H62.9349V11.3161H64.8429V12.7381H62.9349V18.2641C62.9349 19.2541 63.0969 19.5061 64.0329 19.5061H64.8249V21.0001H63.4569C61.4949 21.0001 61.0629 20.5141 61.0629 18.5161V12.7381H59.5869V11.3161H61.0629V8.83206ZM68.7092 12.7201C69.2672 11.7661 70.2392 11.1361 71.7512 11.1361C74.0912 11.1361 74.9912 12.6481 74.9912 14.8981V21.0001H73.1192V15.4021C73.1192 13.9981 72.8852 12.7021 71.1212 12.7021C69.5012 12.7021 68.7092 13.8721 68.7092 15.7981V21.0001H66.8372V7.95006H68.7092V12.7201ZM79.2034 7.95006V10.0201H77.3314V7.95006H79.2034ZM79.2034 11.3161V21.0001H77.3314V11.3161H79.2034ZM83.5979 12.7201C84.1559 11.7661 85.1279 11.1361 86.6399 11.1361C88.9799 11.1361 89.8799 12.6481 89.8799 14.8981V21.0001H88.0079V15.4021C88.0079 13.9981 87.7739 12.7021 86.0099 12.7021C84.3899 12.7021 83.5979 13.8721 83.5979 15.7981V21.0001H81.7259V11.3161H83.5979V12.7201ZM98.6641 11.3161H100.536V19.8661C100.536 21.6481 100.158 22.6021 99.4921 23.2681C98.7541 24.0421 97.5841 24.4381 96.1081 24.4381C93.9481 24.4381 92.3641 23.5021 92.0581 21.4681H93.9841C94.1821 22.3501 94.7401 22.8721 96.1441 22.8721C97.0621 22.8721 97.6921 22.6201 98.0881 22.1701C98.4661 21.7561 98.6641 21.2521 98.6641 20.2621V19.2361C98.0701 20.2261 97.0981 20.8381 95.6761 20.8381C93.4261 20.8381 91.5541 19.0561 91.5541 15.9781C91.5541 12.9181 93.4261 11.1361 95.6761 11.1361C97.0981 11.1361 98.0701 11.7481 98.6641 12.7381V11.3161ZM96.1081 12.6841C94.5601 12.6841 93.5521 13.9081 93.5521 15.9781C93.5521 18.0841 94.5601 19.3081 96.1081 19.3081C97.5481 19.3081 98.7361 18.3001 98.7361 15.9781C98.7361 13.6741 97.5481 12.6841 96.1081 12.6841ZM113.873 18.1561H115.763C115.313 19.7581 113.873 21.2341 111.407 21.2341C108.275 21.2341 106.583 18.9481 106.583 16.1401C106.583 13.1341 108.599 11.1361 111.353 11.1361C114.341 11.1361 116.087 13.5841 115.889 16.7341H108.509C108.689 18.5161 109.823 19.6321 111.335 19.6321C112.685 19.6321 113.477 19.0741 113.873 18.1561ZM108.545 15.2581H113.945C113.891 13.8181 112.883 12.6661 111.335 12.6661C109.877 12.6661 108.797 13.4221 108.545 15.2581ZM119.598 21.0001H117.726V7.95006H119.598V21.0001ZM127.628 14.0161C127.358 13.0261 126.53 12.6301 125.432 12.6301C124.514 12.6301 123.524 13.0081 123.524 13.8001C123.524 14.5201 123.992 14.8261 124.874 15.0061L126.26 15.2761C128.096 15.6361 129.698 16.2661 129.698 18.1561C129.698 20.1181 127.862 21.2341 125.63 21.2341C123.182 21.2341 121.688 19.8121 121.454 17.9941H123.362C123.614 19.0921 124.334 19.7401 125.684 19.7401C126.89 19.7401 127.826 19.2361 127.826 18.3721C127.826 17.4721 126.98 17.1121 125.972 16.9141L124.514 16.6261C123.056 16.3381 121.688 15.6901 121.688 13.8721C121.688 12.1621 123.488 11.1181 125.612 11.1181C127.556 11.1181 129.122 12.1441 129.482 14.0161H127.628ZM138.201 18.1561H140.091C139.641 19.7581 138.201 21.2341 135.735 21.2341C132.603 21.2341 130.911 18.9481 130.911 16.1401C130.911 13.1341 132.927 11.1361 135.681 11.1361C138.669 11.1361 140.415 13.5841 140.217 16.7341H132.837C133.017 18.5161 134.151 19.6321 135.663 19.6321C137.013 19.6321 137.805 19.0741 138.201 18.1561ZM132.873 15.2581H138.273C138.219 13.8181 137.211 12.6661 135.663 12.6661C134.205 12.6661 133.125 13.4221 132.873 15.2581Z" fill="black" stroke="black" stroke-width="0.4"/>
</g>
</g>
<defs>
<clipPath id="clip0_4_36">
<rect width="151" height="30" fill="white"/>
</clipPath>
</defs>
</svg>
