<svg width="147" height="30" viewBox="0 0 147 30" fill="none" xmlns="http://www.w3.org/2000/svg">
<g clip-path="url(#clip0_4_129)">
<mask id="mask0_4_129" style="mask-type:luminance" maskUnits="userSpaceOnUse" x="0" y="0" width="147" height="30">
<path d="M147 0H0V30H147V0Z" fill="white"/>
</mask>
<g mask="url(#mask0_4_129)">
<path d="M142 0.5H5C2.51472 0.5 0.5 2.51472 0.5 5V25C0.5 27.4853 2.51472 29.5 5 29.5H142C144.485 29.5 146.5 27.4853 146.5 25V5C146.5 2.51472 144.485 0.5 142 0.5Z" stroke="black"/>
<path d="M13.5354 21H11.4834V7.94995H13.5354V21ZM22.3336 12.72C22.8916 11.766 23.8636 11.136 25.3756 11.136C27.7156 11.136 28.6156 12.648 28.6156 14.898V21H26.7436V15.402C26.7436 13.998 26.5096 12.702 24.7456 12.702C23.1256 12.702 22.3336 13.872 22.3336 15.798V21H20.4616V11.316H22.3336V12.72ZM37.5797 18.156H39.4697C39.0197 19.758 37.5797 21.234 35.1137 21.234C31.9817 21.234 30.2897 18.948 30.2897 16.14C30.2897 13.134 32.3057 11.136 35.0597 11.136C38.0477 11.136 39.7937 13.584 39.5957 16.734H32.2157C32.3957 18.516 33.5297 19.632 35.0417 19.632C36.3917 19.632 37.1837 19.074 37.5797 18.156ZM32.2517 15.258H37.6517C37.5977 13.818 36.5897 12.666 35.0417 12.666C33.5837 12.666 32.5037 13.422 32.2517 15.258ZM48.1442 18.156H50.0342C49.5842 19.758 48.1442 21.234 45.6782 21.234C42.5462 21.234 40.8542 18.948 40.8542 16.14C40.8542 13.134 42.8702 11.136 45.6242 11.136C48.6122 11.136 50.3582 13.584 50.1602 16.734H42.7802C42.9602 18.516 44.0942 19.632 45.6062 19.632C46.9562 19.632 47.7482 19.074 48.1442 18.156ZM42.8162 15.258H48.2162C48.1622 13.818 47.1542 12.666 45.6062 12.666C44.1482 12.666 43.0682 13.422 42.8162 15.258ZM58.6186 7.94995H60.4906V21H58.6186V19.632C58.0246 20.622 57.0166 21.234 55.5946 21.234C53.3446 21.234 51.4186 19.344 51.4186 16.176C51.4186 13.026 53.3446 11.136 55.5946 11.136C57.0166 11.136 58.0246 11.748 58.6186 12.738V7.94995ZM56.0266 12.702C54.4786 12.702 53.4166 13.998 53.4166 16.176C53.4166 18.354 54.4786 19.668 56.0266 19.668C57.4666 19.668 58.6906 18.57 58.6906 16.176C58.6906 13.782 57.4666 12.702 56.0266 12.702ZM66.661 18.39C66.661 16.032 69.433 15.402 73.195 15.006V14.808C73.195 13.098 72.295 12.522 71.107 12.522C69.811 12.522 69.073 13.188 69.001 14.376H67.111C67.273 12.324 68.965 11.082 71.179 11.082C73.681 11.082 75.121 12.288 75.085 15.186C75.085 15.42 75.049 17.094 75.049 17.508C75.049 18.948 75.139 20.136 75.319 21H73.519C73.447 20.622 73.393 20.334 73.357 19.722C72.781 20.694 71.683 21.234 70.117 21.234C68.155 21.234 66.661 20.154 66.661 18.39ZM73.285 16.392C70.279 16.68 68.695 17.094 68.695 18.354C68.695 19.236 69.397 19.794 70.531 19.794C72.079 19.794 73.285 19.02 73.285 17.094V16.392ZM88.1499 7.94995H90.0219V21H88.1499V19.632C87.5559 20.622 86.5479 21.234 85.1259 21.234C82.8759 21.234 80.9499 19.344 80.9499 16.176C80.9499 13.026 82.8759 11.136 85.1259 11.136C86.5479 11.136 87.5559 11.748 88.1499 12.738V7.94995ZM85.5579 12.702C84.0099 12.702 82.9479 13.998 82.9479 16.176C82.9479 18.354 84.0099 19.668 85.5579 19.668C86.9979 19.668 88.2219 18.57 88.2219 16.176C88.2219 13.782 86.9979 12.702 85.5579 12.702ZM99.1735 18.156H101.063C100.613 19.758 99.1735 21.234 96.7075 21.234C93.5755 21.234 91.8835 18.948 91.8835 16.14C91.8835 13.134 93.8995 11.136 96.6535 11.136C99.6415 11.136 101.387 13.584 101.189 16.734H93.8095C93.9895 18.516 95.1235 19.632 96.6355 19.632C97.9855 19.632 98.7775 19.074 99.1735 18.156ZM93.8455 15.258H99.2455C99.1915 13.818 98.1835 12.666 96.6355 12.666C95.1775 12.666 94.0975 13.422 93.8455 15.258ZM108.569 14.016C108.299 13.026 107.471 12.63 106.373 12.63C105.455 12.63 104.465 13.008 104.465 13.8C104.465 14.52 104.933 14.826 105.815 15.006L107.201 15.276C109.037 15.636 110.639 16.266 110.639 18.156C110.639 20.118 108.803 21.234 106.571 21.234C104.123 21.234 102.629 19.812 102.395 17.994H104.303C104.555 19.092 105.275 19.74 106.625 19.74C107.831 19.74 108.767 19.236 108.767 18.372C108.767 17.472 107.921 17.112 106.913 16.914L105.455 16.626C103.997 16.338 102.629 15.69 102.629 13.872C102.629 12.162 104.429 11.118 106.553 11.118C108.497 11.118 110.063 12.144 110.423 14.016H108.569ZM114.39 7.94995V10.02H112.518V7.94995H114.39ZM114.39 11.316V21H112.518V11.316H114.39ZM123.356 11.316H125.228V19.866C125.228 21.648 124.85 22.602 124.184 23.268C123.446 24.042 122.276 24.438 120.8 24.438C118.64 24.438 117.056 23.502 116.75 21.468H118.676C118.874 22.35 119.432 22.872 120.836 22.872C121.754 22.872 122.384 22.62 122.78 22.17C123.158 21.756 123.356 21.252 123.356 20.262V19.236C122.762 20.226 121.79 20.838 120.368 20.838C118.118 20.838 116.246 19.056 116.246 15.978C116.246 12.918 118.118 11.136 120.368 11.136C121.79 11.136 122.762 11.748 123.356 12.738V11.316ZM120.8 12.684C119.252 12.684 118.244 13.908 118.244 15.978C118.244 18.084 119.252 19.308 120.8 19.308C122.24 19.308 123.428 18.3 123.428 15.978C123.428 13.674 122.24 12.684 120.8 12.684ZM129.595 12.72C130.153 11.766 131.125 11.136 132.637 11.136C134.977 11.136 135.877 12.648 135.877 14.898V21H134.005V15.402C134.005 13.998 133.771 12.702 132.007 12.702C130.387 12.702 129.595 13.872 129.595 15.798V21H127.723V11.316H129.595V12.72Z" fill="black" stroke="black" stroke-width="0.4"/>
</g>
</g>
<defs>
<clipPath id="clip0_4_129">
<rect width="147" height="30" fill="white"/>
</clipPath>
</defs>
</svg>
