<svg width="102" height="20" viewBox="0 0 102 20" fill="none" xmlns="http://www.w3.org/2000/svg">
<path d="M4.08 9.624C2.432 9.288 0.864 8.36 0.864 6.408C0.864 4.216 3.152 3.192 5.104 3.192C7.232 3.192 9.072 4.168 9.52 6.504H7.76C7.392 5.128 6.128 4.712 5.024 4.712C4.176 4.712 2.72 5.112 2.72 6.328C2.72 7.288 3.488 7.784 4.48 7.992L5.856 8.28C7.712 8.664 9.744 9.368 9.744 11.704C9.744 14.008 7.536 15.208 5.28 15.208C2.592 15.208 0.784 13.72 0.512 11.288H2.304C2.64 12.872 3.712 13.688 5.344 13.688C6.848 13.688 7.904 12.968 7.904 11.848C7.904 10.648 6.752 10.168 5.504 9.912L4.08 9.624ZM11.5769 3.4H19.6089V4.952H13.4009V8.264H19.2569V9.8H13.4009V13.448H19.6089V15H11.5769V3.4ZM21.405 3.4H29.437V4.952H23.229V8.264H29.085V9.8H23.229V13.448H29.437V15H21.405V3.4ZM39.8631 15L36.7751 5.24V15H34.9831V3.4H37.9111L40.8071 12.872L43.7031 3.4H46.6311V15H44.8391V5.24L41.7511 15H39.8631ZM54.1466 15.208C50.7706 15.208 48.6586 12.728 48.6586 9.192C48.6586 5.656 50.7706 3.192 54.1466 3.192C57.5066 3.192 59.6186 5.656 59.6186 9.192C59.6186 12.728 57.5066 15.208 54.1466 15.208ZM54.1466 13.688C56.1626 13.688 57.7466 12.104 57.7466 9.192C57.7466 6.28 56.1626 4.712 54.1466 4.712C52.1146 4.712 50.5306 6.28 50.5306 9.192C50.5306 12.104 52.1146 13.688 54.1466 13.688ZM66.2466 10.104C66.0066 10.12 65.7506 10.12 65.4946 10.12H63.4946V15H61.6706V3.4H65.3506C68.4706 3.4 70.3426 4.056 70.3426 6.744C70.3426 8.408 69.5426 9.352 68.1026 9.8L70.7746 15H68.7266L66.2466 10.104ZM63.4946 4.904V8.632H65.5906C67.3026 8.632 68.4706 8.376 68.4706 6.776C68.4706 5.112 67.2066 4.904 65.5586 4.904H63.4946ZM72.53 3.4H80.562V4.952H74.354V8.264H80.21V9.8H74.354V13.448H80.562V15H72.53V3.4Z" fill="black"/>
<path d="M100.75 8.875H95.125V3.25H93.875V8.875H88.25V10.125H93.875V15.75H95.125V10.125H100.75V8.875Z" fill="black"/>
</svg>
