<svg width="102" height="22" viewBox="0 0 102 22" fill="none" xmlns="http://www.w3.org/2000/svg">
<path d="M4.07972 9.62389C2.43172 9.28789 0.863719 8.35989 0.863719 6.40789C0.863719 4.21589 3.15172 3.19189 5.10372 3.19189C7.23172 3.19189 9.07172 4.16789 9.51972 6.50389H7.75972C7.39172 5.12789 6.12772 4.71189 5.02372 4.71189C4.17572 4.71189 2.71972 5.11189 2.71972 6.32789C2.71972 7.28789 3.48772 7.78389 4.47972 7.99189L5.85572 8.27989C7.71172 8.66389 9.74372 9.36791 9.74372 11.7039C9.74372 14.0079 7.53572 15.2079 5.27972 15.2079C2.59172 15.2079 0.783719 13.7199 0.511719 11.2879H2.30372C2.63972 12.8719 3.71172 13.6879 5.34372 13.6879C6.84772 13.6879 7.90372 12.9679 7.90372 11.8479C7.90372 10.6479 6.75172 10.1679 5.50372 9.91189L4.07972 9.62389ZM11.5766 3.39989H19.6086V4.95189H13.4006V8.2639H19.2566V9.79989H13.4006V13.4479H19.6086V14.9999H11.5766V3.39989ZM21.4047 3.39989H29.4367V4.95189H23.2287V8.2639H29.0847V9.79989H23.2287V13.4479H29.4367V14.9999H21.4047V3.39989ZM39.8628 14.9999L36.7748 5.23989V14.9999H34.9828V3.39989H37.9108L40.8068 12.8719L43.7028 3.39989H46.6308V14.9999H44.8388V5.23989L41.7508 14.9999H39.8628ZM54.1463 15.2079C50.7703 15.2079 48.6583 12.7279 48.6583 9.19191C48.6583 5.65589 50.7703 3.19189 54.1463 3.19189C57.5063 3.19189 59.6183 5.65589 59.6183 9.19191C59.6183 12.7279 57.5063 15.2079 54.1463 15.2079ZM54.1463 13.6879C56.1623 13.6879 57.7463 12.1039 57.7463 9.19191C57.7463 6.27991 56.1623 4.71189 54.1463 4.71189C52.1143 4.71189 50.5303 6.27991 50.5303 9.19191C50.5303 12.1039 52.1143 13.6879 54.1463 13.6879ZM66.2463 10.1039C66.0063 10.1199 65.7503 10.1199 65.4943 10.1199H63.4943V14.9999H61.6703V3.39989H65.3503C68.4703 3.39989 70.3423 4.05589 70.3423 6.74389C70.3423 8.40789 69.5423 9.35189 68.1023 9.79989L70.7743 14.9999H68.7263L66.2463 10.1039ZM63.4943 4.90389V8.6319H65.5903C67.3023 8.6319 68.4703 8.37589 68.4703 6.77589C68.4703 5.11189 67.2063 4.90389 65.5583 4.90389H63.4943ZM72.5297 3.39989H80.5617V4.95189H74.3537V8.2639H80.2097V9.79989H74.3537V13.4479H80.5617V14.9999H72.5297V3.39989Z" fill="black"/>
<path d="M9.5197 6.50394V6.70394H9.7617L9.71612 6.46627L9.5197 6.50394ZM7.7597 6.50394L7.56649 6.55561L7.60616 6.70394H7.7597V6.50394ZM0.511701 11.2879V11.0879H0.288086L0.31294 11.3101L0.511701 11.2879ZM2.3037 11.2879L2.49935 11.2464L2.46573 11.0879H2.3037V11.2879ZM4.11966 9.42797C3.31544 9.26401 2.54773 8.95852 1.98465 8.47077C1.42787 7.98848 1.0637 7.32253 1.0637 6.40794H0.663701C0.663701 7.44535 1.08353 8.2194 1.72275 8.77311C2.35567 9.32136 3.19596 9.64787 4.03975 9.81991L4.11966 9.42797ZM1.0637 6.40794C1.0637 5.39343 1.58883 4.64697 2.36064 4.14567C3.13805 3.64073 4.15831 3.39194 5.1037 3.39194V2.99194C4.09709 2.99194 2.99735 3.25515 2.14276 3.81021C1.28257 4.36891 0.663701 5.23045 0.663701 6.40794H1.0637ZM5.1037 3.39194C6.13897 3.39194 7.08837 3.62952 7.82863 4.13691C8.5647 4.64143 9.10863 5.42236 9.32328 6.54161L9.71612 6.46627C9.48277 5.24952 8.8827 4.37445 8.05477 3.80697C7.23103 3.24236 6.19643 2.99194 5.1037 2.99194V3.39194ZM9.5197 6.30394H7.7597V6.70394H9.5197V6.30394ZM7.95291 6.45227C7.54978 4.94491 6.16296 4.51194 5.0237 4.51194V4.91194C6.09244 4.91194 7.23362 5.31097 7.56649 6.55561L7.95291 6.45227ZM5.0237 4.51194C4.57505 4.51194 3.9648 4.61658 3.45919 4.88768C2.94869 5.1614 2.5197 5.62211 2.5197 6.32794H2.9197C2.9197 5.81776 3.21871 5.47048 3.64821 5.2402C4.0826 5.0073 4.62435 4.91194 5.0237 4.91194V4.51194ZM2.5197 6.32794C2.5197 6.86947 2.73967 7.28801 3.09778 7.59399C3.44897 7.89406 3.92512 8.08001 4.43866 8.18768L4.52074 7.7962C4.04228 7.69587 3.63843 7.52982 3.35762 7.28988C3.08373 7.05587 2.9197 6.74641 2.9197 6.32794H2.5197ZM4.43866 8.18768L5.81473 8.4757L5.89667 8.08418L4.52074 7.7962L4.43866 8.18768ZM5.81473 8.4757C6.73904 8.66694 7.67688 8.9328 8.38131 9.42399C9.0728 9.90617 9.5437 10.6073 9.5437 11.7039H9.9437C9.9437 10.4645 9.3986 9.64571 8.6101 9.09589C7.83452 8.55508 6.82836 8.27694 5.89667 8.08418L5.81473 8.4757ZM9.5437 11.7039C9.5437 12.7826 9.03045 13.6009 8.24246 14.1564C7.44893 14.7159 6.37554 15.0079 5.2797 15.0079V15.4079C6.43986 15.4079 7.59848 15.0999 8.47294 14.4834C9.35295 13.8629 9.9437 12.9292 9.9437 11.7039H9.5437ZM5.2797 15.0079C3.9723 15.0079 2.89608 14.6463 2.11674 14.0054C1.33896 13.3658 0.84128 12.4353 0.710462 11.2657L0.31294 11.3101C0.454122 12.5725 0.996443 13.602 1.86266 14.3144C2.72732 15.0255 3.8991 15.4079 5.2797 15.4079V15.0079ZM0.511701 11.4879H2.3037V11.0879H0.511701V11.4879ZM2.10805 11.3294C2.28376 12.1577 2.65636 12.8029 3.21449 13.2394C3.77175 13.6753 4.49452 13.8879 5.3437 13.8879V13.4879C4.56088 13.4879 3.93165 13.2925 3.46091 12.9244C2.99104 12.5569 2.65964 12.0021 2.49935 11.2464L2.10805 11.3294ZM5.3437 13.8879C6.12495 13.8879 6.80875 13.7012 7.30326 13.3511C7.80292 12.9974 8.1037 12.479 8.1037 11.8479H7.7037C7.7037 12.3368 7.47648 12.7384 7.07214 13.0247C6.66265 13.3146 6.06646 13.4879 5.3437 13.4879V13.8879ZM8.1037 11.8479C8.1037 11.1693 7.77178 10.6922 7.28418 10.3605C6.80664 10.0357 6.17488 9.84545 5.54389 9.71602L5.46351 10.1078C6.08052 10.2344 6.64876 10.4121 7.05922 10.6913C7.45962 10.9636 7.7037 11.3265 7.7037 11.8479H8.1037ZM5.54389 9.71602L4.11966 9.42797L4.03975 9.81991L5.46351 10.1078L5.54389 9.71602ZM11.5766 3.39994V3.19994H11.3766V3.39994H11.5766ZM19.6086 3.39994H19.8086V3.19994H19.6086V3.39994ZM19.6086 4.95194V5.15194H19.8086V4.95194H19.6086ZM13.4006 4.95194V4.75194H13.2006V4.95194H13.4006ZM13.4006 8.26394H13.2006V8.46394H13.4006V8.26394ZM19.2566 8.26394H19.4566V8.06394H19.2566V8.26394ZM19.2566 9.79994V9.99994H19.4566V9.79994H19.2566ZM13.4006 9.79994V9.59994H13.2006V9.79994H13.4006ZM13.4006 13.4479H13.2006V13.6479H13.4006V13.4479ZM19.6086 13.4479H19.8086V13.2479H19.6086V13.4479ZM19.6086 14.9999V15.1999H19.8086V14.9999H19.6086ZM11.5766 14.9999H11.3766V15.1999H11.5766V14.9999ZM11.5766 3.59994H19.6086V3.19994H11.5766V3.59994ZM19.4086 3.39994V4.95194H19.8086V3.39994H19.4086ZM19.6086 4.75194H13.4006V5.15194H19.6086V4.75194ZM13.2006 4.95194V8.26394H13.6006V4.95194H13.2006ZM13.4006 8.46394H19.2566V8.06394H13.4006V8.46394ZM19.0566 8.26394V9.79994H19.4566V8.26394H19.0566ZM19.2566 9.59994H13.4006V9.99994H19.2566V9.59994ZM13.2006 9.79994V13.4479H13.6006V9.79994H13.2006ZM13.4006 13.6479H19.6086V13.2479H13.4006V13.6479ZM19.4086 13.4479V14.9999H19.8086V13.4479H19.4086ZM19.6086 14.7999H11.5766V15.1999H19.6086V14.7999ZM11.7766 14.9999V3.39994H11.3766V14.9999H11.7766ZM21.4047 3.39994V3.19994H21.2047V3.39994H21.4047ZM29.4367 3.39994H29.6367V3.19994H29.4367V3.39994ZM29.4367 4.95194V5.15194H29.6367V4.95194H29.4367ZM23.2287 4.95194V4.75194H23.0287V4.95194H23.2287ZM23.2287 8.26394H23.0287V8.46394H23.2287V8.26394ZM29.0847 8.26394H29.2847V8.06394H29.0847V8.26394ZM29.0847 9.79994V9.99994H29.2847V9.79994H29.0847ZM23.2287 9.79994V9.59994H23.0287V9.79994H23.2287ZM23.2287 13.4479H23.0287V13.6479H23.2287V13.4479ZM29.4367 13.4479H29.6367V13.2479H29.4367V13.4479ZM29.4367 14.9999V15.1999H29.6367V14.9999H29.4367ZM21.4047 14.9999H21.2047V15.1999H21.4047V14.9999ZM21.4047 3.59994H29.4367V3.19994H21.4047V3.59994ZM29.2367 3.39994V4.95194H29.6367V3.39994H29.2367ZM29.4367 4.75194H23.2287V5.15194H29.4367V4.75194ZM23.0287 4.95194V8.26394H23.4287V4.95194H23.0287ZM23.2287 8.46394H29.0847V8.06394H23.2287V8.46394ZM28.8847 8.26394V9.79994H29.2847V8.26394H28.8847ZM29.0847 9.59994H23.2287V9.99994H29.0847V9.59994ZM23.0287 9.79994V13.4479H23.4287V9.79994H23.0287ZM23.2287 13.6479H29.4367V13.2479H23.2287V13.6479ZM29.2367 13.4479V14.9999H29.6367V13.4479H29.2367ZM29.4367 14.7999H21.4047V15.1999H29.4367V14.7999ZM21.6047 14.9999V3.39994H21.2047V14.9999H21.6047ZM39.8628 14.9999L39.6721 15.0602L39.7163 15.1999H39.8628V14.9999ZM36.7748 5.23994L36.9655 5.17961L36.5748 5.23994H36.7748ZM36.7748 14.9999V15.1999H36.9748V14.9999H36.7748ZM34.9828 14.9999H34.7828V15.1999H34.9828V14.9999ZM34.9828 3.39994V3.19994H34.7828V3.39994H34.9828ZM37.9108 3.39994L38.1021 3.34146L38.0588 3.19994H37.9108V3.39994ZM40.8068 12.8719L40.6156 12.9304L40.8068 13.5559L40.9981 12.9304L40.8068 12.8719ZM43.7028 3.39994V3.19994H43.5548L43.5116 3.34146L43.7028 3.39994ZM46.6308 3.39994H46.8308V3.19994H46.6308V3.39994ZM46.6308 14.9999V15.1999H46.8308V14.9999H46.6308ZM44.8388 14.9999H44.6388V15.1999H44.8388V14.9999ZM44.8388 5.23994H45.0388L44.6481 5.17961L44.8388 5.23994ZM41.7508 14.9999V15.1999H41.8973L41.9415 15.0602L41.7508 14.9999ZM40.0535 14.9396L36.9655 5.17961L36.5841 5.30027L39.6721 15.0602L40.0535 14.9396ZM36.5748 5.23994V14.9999H36.9748V5.23994H36.5748ZM36.7748 14.7999H34.9828V15.1999H36.7748V14.7999ZM35.1828 14.9999V3.39994H34.7828V14.9999H35.1828ZM34.9828 3.59994H37.9108V3.19994H34.9828V3.59994ZM37.7196 3.45842L40.6156 12.9304L40.9981 12.8134L38.1021 3.34146L37.7196 3.45842ZM40.9981 12.9304L43.8941 3.45842L43.5116 3.34146L40.6156 12.8134L40.9981 12.9304ZM43.7028 3.59994H46.6308V3.19994H43.7028V3.59994ZM46.4308 3.39994V14.9999H46.8308V3.39994H46.4308ZM46.6308 14.7999H44.8388V15.1999H46.6308V14.7999ZM45.0388 14.9999V5.23994H44.6388V14.9999H45.0388ZM44.6481 5.17961L41.5601 14.9396L41.9415 15.0602L45.0295 5.30027L44.6481 5.17961ZM41.7508 14.7999H39.8628V15.1999H41.7508V14.7999ZM54.1463 15.0079C52.5104 15.0079 51.1943 14.4087 50.2854 13.3926C49.3744 12.3741 48.8583 10.9208 48.8583 9.19194H48.4583C48.4583 10.999 48.9983 12.5537 49.9873 13.6592C50.9783 14.7671 52.4063 15.4079 54.1463 15.4079V15.0079ZM48.8583 9.19194C48.8583 7.46306 49.3743 6.01391 50.2851 4.99956C51.1939 3.98749 52.51 3.39194 54.1463 3.39194V2.99194C52.4067 2.99194 50.9788 3.62839 49.9875 4.73232C48.9983 5.83397 48.4583 7.38482 48.4583 9.19194H48.8583ZM54.1463 3.39194C55.7744 3.39194 57.0865 3.98729 57.9934 4.99941C58.9023 6.01381 59.4183 7.46306 59.4183 9.19194H59.8183C59.8183 7.38482 59.2783 5.83407 58.2913 4.73247C57.3022 3.62859 55.8782 2.99194 54.1463 2.99194V3.39194ZM59.4183 9.19194C59.4183 10.9208 58.9023 12.3742 57.9931 13.3927C57.0861 14.4089 55.774 15.0079 54.1463 15.0079V15.4079C55.8787 15.4079 57.3026 14.7669 58.2915 13.6591C59.2784 12.5536 59.8183 10.999 59.8183 9.19194H59.4183ZM54.1463 13.8879C55.2098 13.8879 56.1666 13.4685 56.8545 12.6617C57.5405 11.8571 57.9463 10.6832 57.9463 9.19194H57.5463C57.5463 10.6126 57.1601 11.6867 56.5501 12.4021C55.9421 13.1153 55.0988 13.4879 54.1463 13.4879V13.8879ZM57.9463 9.19194C57.9463 7.70065 57.5405 6.53048 56.8542 5.72978C56.1659 4.92684 55.2092 4.51194 54.1463 4.51194V4.91194C55.0995 4.91194 55.9427 5.28104 56.5505 5.9901C57.1602 6.7014 57.5463 7.77123 57.5463 9.19194H57.9463ZM54.1463 4.51194C53.0759 4.51194 52.1151 4.9265 51.4247 5.72955C50.7362 6.53034 50.3303 7.70066 50.3303 9.19194H50.7303C50.7303 7.77122 51.1165 6.70154 51.728 5.99033C52.3375 5.28138 53.1847 4.91194 54.1463 4.91194V4.51194ZM50.3303 9.19194C50.3303 10.6832 50.7361 11.8572 51.4243 12.6619C52.1145 13.4689 53.0753 13.8879 54.1463 13.8879V13.4879C53.1854 13.4879 52.3382 13.1149 51.7283 12.4019C51.1165 11.6866 50.7303 10.6126 50.7303 9.19194H50.3303ZM66.2463 10.1039L66.4247 10.0135L66.365 9.89559L66.233 9.90438L66.2463 10.1039ZM63.4943 10.1199V9.91994H63.2943V10.1199H63.4943ZM63.4943 14.9999V15.1999H63.6943V14.9999H63.4943ZM61.6703 14.9999H61.4703V15.1999H61.6703V14.9999ZM61.6703 3.39994V3.19994H61.4703V3.39994H61.6703ZM68.1023 9.79994L68.0429 9.60897L67.8157 9.67967L67.9244 9.89135L68.1023 9.79994ZM70.7743 14.9999V15.1999H71.102L70.9522 14.9085L70.7743 14.9999ZM68.7263 14.9999L68.5479 15.0903L68.6034 15.1999H68.7263V14.9999ZM63.4943 4.90394V4.70394H63.2943V4.90394H63.4943ZM63.4943 8.63194H63.2943V8.83194H63.4943V8.63194ZM66.233 9.90438C66.0009 9.91986 65.7517 9.91994 65.4943 9.91994V10.3199C65.7489 10.3199 66.0118 10.32 66.2596 10.3035L66.233 9.90438ZM65.4943 9.91994H63.4943V10.3199H65.4943V9.91994ZM63.2943 10.1199V14.9999H63.6943V10.1199H63.2943ZM63.4943 14.7999H61.6703V15.1999H63.4943V14.7999ZM61.8703 14.9999V3.39994H61.4703V14.9999H61.8703ZM61.6703 3.59994H65.3503V3.19994H61.6703V3.59994ZM65.3503 3.59994C66.9065 3.59994 68.1071 3.76559 68.9156 4.23674C69.3146 4.46921 69.6177 4.77603 69.8229 5.17834C70.0292 5.58268 70.1423 6.09459 70.1423 6.74394H70.5423C70.5423 6.04929 70.4214 5.4712 70.1792 4.99654C69.936 4.51985 69.5761 4.15866 69.117 3.89114C68.2095 3.36229 66.9142 3.19994 65.3503 3.19994V3.59994ZM70.1423 6.74394C70.1423 7.54329 69.9507 8.1496 69.6031 8.60692C69.255 9.065 68.7352 9.39359 68.0429 9.60897L68.1617 9.99091C68.9095 9.75829 69.5097 9.39088 69.9216 8.84896C70.334 8.30628 70.5423 7.60859 70.5423 6.74394H70.1423ZM67.9244 9.89135L70.5964 15.0913L70.9522 14.9085L68.2802 9.70853L67.9244 9.89135ZM70.7743 14.7999H68.7263V15.1999H70.7743V14.7999ZM68.9047 14.9095L66.4247 10.0135L66.0679 10.1943L68.5479 15.0903L68.9047 14.9095ZM63.2943 4.90394V8.63194H63.6943V4.90394H63.2943ZM63.4943 8.83194H65.5903V8.43194H63.4943V8.83194ZM65.5903 8.83194C66.445 8.83194 67.2107 8.77036 67.7648 8.48126C68.0483 8.33338 68.2789 8.125 68.4365 7.83694C68.593 7.55096 68.6703 7.19968 68.6703 6.77594H68.2703C68.2703 7.1522 68.2016 7.43292 68.0856 7.64493C67.9707 7.85488 67.8024 8.0105 67.5798 8.12662C67.1219 8.36552 66.4477 8.43194 65.5903 8.43194V8.83194ZM68.6703 6.77594C68.6703 6.33508 68.5866 5.97369 68.4209 5.68253C68.2542 5.38956 68.0126 5.1819 67.7215 5.03692C67.1523 4.75339 66.3794 4.70394 65.5583 4.70394V5.10394C66.3853 5.10394 67.0684 5.15849 67.5432 5.39496C67.7741 5.50998 67.9515 5.66632 68.0732 5.88035C68.1961 6.09619 68.2703 6.3848 68.2703 6.77594H68.6703ZM65.5583 4.70394H63.4943V5.10394H65.5583V4.70394ZM72.5297 3.39994V3.19994H72.3297V3.39994H72.5297ZM80.5617 3.39994H80.7617V3.19994H80.5617V3.39994ZM80.5617 4.95194V5.15194H80.7617V4.95194H80.5617ZM74.3537 4.95194V4.75194H74.1537V4.95194H74.3537ZM74.3537 8.26394H74.1537V8.46394H74.3537V8.26394ZM80.2097 8.26394H80.4097V8.06394H80.2097V8.26394ZM80.2097 9.79994V9.99994H80.4097V9.79994H80.2097ZM74.3537 9.79994V9.59994H74.1537V9.79994H74.3537ZM74.3537 13.4479H74.1537V13.6479H74.3537V13.4479ZM80.5617 13.4479H80.7617V13.2479H80.5617V13.4479ZM80.5617 14.9999V15.1999H80.7617V14.9999H80.5617ZM72.5297 14.9999H72.3297V15.1999H72.5297V14.9999ZM72.5297 3.59994H80.5617V3.19994H72.5297V3.59994ZM80.3617 3.39994V4.95194H80.7617V3.39994H80.3617ZM80.5617 4.75194H74.3537V5.15194H80.5617V4.75194ZM74.1537 4.95194V8.26394H74.5537V4.95194H74.1537ZM74.3537 8.46394H80.2097V8.06394H74.3537V8.46394ZM80.0097 8.26394V9.79994H80.4097V8.26394H80.0097ZM80.2097 9.59994H74.3537V9.99994H80.2097V9.59994ZM74.1537 9.79994V13.4479H74.5537V9.79994H74.1537ZM74.3537 13.6479H80.5617V13.2479H74.3537V13.6479ZM80.3617 13.4479V14.9999H80.7617V13.4479H80.3617ZM80.5617 14.7999H72.5297V15.1999H80.5617V14.7999ZM72.7297 14.9999V3.39994H72.3297V14.9999H72.7297Z" fill="black"/>
<path d="M100.75 8.875H95.125V3.25H93.875V8.875H88.25V10.125H93.875V15.75H95.125V10.125H100.75V8.875Z" fill="black" stroke="black" stroke-width="0.4"/>
</svg>
