<svg width="101" height="30" viewBox="0 0 101 30" fill="none" xmlns="http://www.w3.org/2000/svg">
<rect x="0.5" width="100" height="30" rx="5" fill="#D4D4D4"/>
<path d="M14.83 15.624C13.182 15.288 11.614 14.36 11.614 12.408C11.614 10.216 13.902 9.192 15.854 9.192C17.982 9.192 19.822 10.168 20.27 12.504H18.51C18.142 11.128 16.878 10.712 15.774 10.712C14.926 10.712 13.47 11.112 13.47 12.328C13.47 13.288 14.238 13.784 15.23 13.992L16.606 14.28C18.462 14.664 20.494 15.368 20.494 17.704C20.494 20.008 18.286 21.208 16.03 21.208C13.342 21.208 11.534 19.72 11.262 17.288H13.054C13.39 18.872 14.462 19.688 16.094 19.688C17.598 19.688 18.654 18.968 18.654 17.848C18.654 16.648 17.502 16.168 16.254 15.912L14.83 15.624ZM23.9749 9.4V16.36C23.9749 18.552 24.6629 19.672 26.8389 19.672C29.0149 19.672 29.7189 18.44 29.7189 16.232V9.4H31.5429V16.136C31.5429 19.656 30.2149 21.208 26.8389 21.208C23.5589 21.208 22.1509 19.896 22.1509 16.232V9.4H23.9749ZM33.905 9.4H38.177C40.305 9.4 42.289 9.96 42.289 12.312C42.289 13.4 41.761 14.392 41.009 14.824C42.049 15.288 42.753 16.088 42.753 17.576C42.753 20.04 40.865 21 38.513 21H33.905V9.4ZM35.729 14.312H38.401C39.649 14.312 40.449 13.784 40.449 12.536C40.449 11.432 39.617 10.904 38.401 10.904H35.729V14.312ZM35.729 19.496H38.561C40.113 19.496 40.881 18.808 40.881 17.576C40.881 16.296 40.113 15.72 38.465 15.72H35.729V19.496ZM49.5038 21L46.4158 11.24V21H44.6238V9.4H47.5518L50.4478 18.872L53.3438 9.4H56.2718V21H54.4798V11.24L51.3918 21H49.5038ZM60.6353 21H58.8113V9.4H60.6353V21ZM65.6819 10.952H61.9539V9.4H71.2179V10.952H67.5059V21H65.6819V10.952Z" fill="black"/>
<path d="M80.5817 11.4997H86.1736L78.5488 19.1244L79.3737 19.9493L86.9984 12.3245V17.9163H88.1651V10.333H80.5817V11.4997Z" fill="black"/>
</svg>
