<svg width="140" height="30" viewBox="0 0 140 30" fill="none" xmlns="http://www.w3.org/2000/svg">
<g clip-path="url(#clip0_4_82)">
<mask id="mask0_4_82" style="mask-type:luminance" maskUnits="userSpaceOnUse" x="0" y="0" width="140" height="30">
<path d="M140 0H0V30H140V0Z" fill="white"/>
</mask>
<g mask="url(#mask0_4_82)">
<path d="M135 0.5H5C2.51472 0.5 0.5 2.51472 0.5 5V25C0.5 27.4853 2.51472 29.5 5 29.5H135C137.485 29.5 139.5 27.4853 139.5 25V5C139.5 2.51472 137.485 0.5 135 0.5Z" fill="#D4D4D4"/>
<path d="M135 0.5H5C2.51472 0.5 0.5 2.51472 0.5 5V25C0.5 27.4853 2.51472 29.5 5 29.5H135C137.485 29.5 139.5 27.4853 139.5 25V5C139.5 2.51472 137.485 0.5 135 0.5Z" stroke="#D4D4D4"/>
<path d="M13.1472 9.39989V16.3599C13.1472 18.5519 13.8352 19.6719 16.0112 19.6719C18.1872 19.6719 18.8912 18.4399 18.8912 16.2319V9.39989H20.7152V16.1359C20.7152 19.6559 19.3872 21.2079 16.0112 21.2079C12.7312 21.2079 11.3232 19.8959 11.3232 16.2319V9.39989H13.1472ZM26.8053 9.39989C29.4933 9.39989 31.6693 9.9279 31.6693 12.9679C31.6693 15.8799 29.6053 16.5039 26.8053 16.5039H24.9013V20.9999H23.0773V9.39989H26.8053ZM24.9013 10.9039V14.9679H26.9173C28.5333 14.9679 29.7813 14.7759 29.7813 12.9839C29.7813 11.0959 28.4373 10.9039 26.8693 10.9039H24.9013ZM35.0419 19.4479H41.0259V20.9999H33.2179V9.39989H35.0419V19.4479ZM46.4908 21.2079C43.1148 21.2079 41.0028 18.7279 41.0028 15.1919C41.0028 11.6559 43.1148 9.19189 46.4908 9.19189C49.8508 9.19189 51.9628 11.6559 51.9628 15.1919C51.9628 18.7279 49.8508 21.2079 46.4908 21.2079ZM46.4908 19.6879C48.5068 19.6879 50.0908 18.1039 50.0908 15.1919C50.0908 12.2799 48.5068 10.7119 46.4908 10.7119C44.4588 10.7119 42.8748 12.2799 42.8748 15.1919C42.8748 18.1039 44.4588 19.6879 46.4908 19.6879ZM56.6169 9.39989H58.6329L63.0009 20.9999H61.0169L60.1049 18.4559H55.0649L54.1689 20.9999H52.3129L56.6169 9.39989ZM55.6089 16.9199H59.5449L57.5609 11.3839L55.6089 16.9199ZM67.4484 9.39989C71.1284 9.39989 73.8484 10.7279 73.8484 15.1919C73.8484 19.6719 71.1284 20.9999 67.4484 20.9999H64.2804V9.39989H67.4484ZM67.3684 10.9039H66.1044V19.4959H67.3684C69.6884 19.4959 71.9604 19.0159 71.9604 15.1919C71.9604 11.3839 69.6884 10.9039 67.3684 10.9039ZM79.6242 9.39989H87.4322V10.9519H81.4482V14.2639H87.0802V15.7999H81.4482V20.9999H79.6242V9.39989ZM90.5732 20.9999H88.7492V9.39989H90.5732V20.9999ZM94.9638 19.4479H100.947V20.9999H93.1398V9.39989H94.9638V19.4479ZM102.233 9.39989H110.265V10.9519H104.057V14.2639H109.913V15.7999H104.057V19.4479H110.265V20.9999H102.233V9.39989Z" fill="black"/>
<path d="M13.147 9.39994H13.347V9.19994H13.147V9.39994ZM18.891 9.39994V9.19994H18.691V9.39994H18.891ZM20.715 9.39994H20.915V9.19994H20.715V9.39994ZM11.323 9.39994V9.19994H11.123V9.39994H11.323ZM12.947 9.39994V16.3599H13.347V9.39994H12.947ZM12.947 16.3599C12.947 17.4678 13.1188 18.354 13.6069 18.963C14.1036 19.5828 14.8907 19.8719 16.011 19.8719V19.4719C14.9552 19.4719 14.3103 19.201 13.919 18.7128C13.5191 18.2138 13.347 17.444 13.347 16.3599H12.947ZM16.011 19.8719C17.1372 19.8719 17.9273 19.5513 18.4256 18.9016C18.9146 18.2642 19.091 17.3489 19.091 16.2319H18.691C18.691 17.3229 18.5153 18.1276 18.1083 18.6582C17.7106 19.1765 17.0607 19.4719 16.011 19.4719V19.8719ZM19.091 16.2319V9.39994H18.691V16.2319H19.091ZM18.891 9.59994H20.715V9.19994H18.891V9.59994ZM20.515 9.39994V16.1359H20.915V9.39994H20.515ZM20.515 16.1359C20.515 17.8781 20.1849 19.0843 19.4811 19.8572C18.7813 20.6257 17.6727 21.0079 16.011 21.0079V21.4079C17.7252 21.4079 18.9686 21.0141 19.7768 20.1266C20.581 19.2435 20.915 17.9137 20.915 16.1359H20.515ZM16.011 21.0079C14.3908 21.0079 13.2863 20.6827 12.5805 19.9547C11.873 19.2249 11.523 18.0461 11.523 16.2319H11.123C11.123 18.0817 11.4769 19.3909 12.2934 20.2331C13.1116 21.0771 14.3511 21.4079 16.011 21.4079V21.0079ZM11.523 16.2319V9.39994H11.123V16.2319H11.523ZM11.323 9.59994H13.147V9.19994H11.323V9.59994ZM24.9011 16.5039V16.3039H24.7011V16.5039H24.9011ZM24.9011 20.9999V21.1999H25.1011V20.9999H24.9011ZM23.0771 20.9999H22.8771V21.1999H23.0771V20.9999ZM23.0771 9.39994V9.19994H22.8771V9.39994H23.0771ZM24.9011 10.9039V10.7039H24.7011V10.9039H24.9011ZM24.9011 14.9679H24.7011V15.1679H24.9011V14.9679ZM26.8051 9.59994C28.1458 9.59994 29.3142 9.73373 30.1445 10.2168C30.5546 10.4554 30.8823 10.7794 31.1093 11.2196C31.3373 11.6615 31.4691 12.2313 31.4691 12.9679H31.8691C31.8691 12.1845 31.7289 11.5483 31.4648 11.0362C31.1998 10.5224 30.8156 10.1444 30.3457 9.87107C29.416 9.33015 28.1524 9.19994 26.8051 9.19994V9.59994ZM31.4691 12.9679C31.4691 14.3683 30.9784 15.1795 30.1841 15.6564C29.3679 16.1466 28.1996 16.3039 26.8051 16.3039V16.7039C28.2106 16.7039 29.4743 16.5492 30.39 15.9994C31.3278 15.4363 31.8691 14.4795 31.8691 12.9679H31.4691ZM26.8051 16.3039H24.9011V16.7039H26.8051V16.3039ZM24.7011 16.5039V20.9999H25.1011V16.5039H24.7011ZM24.9011 20.7999H23.0771V21.1999H24.9011V20.7999ZM23.2771 20.9999V9.39994H22.8771V20.9999H23.2771ZM23.0771 9.59994H26.8051V9.19994H23.0771V9.59994ZM24.7011 10.9039V14.9679H25.1011V10.9039H24.7011ZM24.9011 15.1679H26.9171V14.7679H24.9011V15.1679ZM26.9171 15.1679C27.7206 15.1679 28.485 15.1229 29.0486 14.8247C29.3375 14.6718 29.5749 14.4523 29.7378 14.1431C29.8993 13.8366 29.9811 13.4542 29.9811 12.9839H29.5811C29.5811 13.4096 29.5069 13.7232 29.3839 13.9567C29.2623 14.1875 29.0867 14.352 28.8615 14.4711C28.3972 14.7169 27.7295 14.7679 26.9171 14.7679V15.1679ZM29.9811 12.9839C29.9811 12.4889 29.893 12.0885 29.7232 11.7686C29.5522 11.4464 29.3046 11.2182 29.0073 11.0595C28.4257 10.749 27.6495 10.7039 26.8691 10.7039V11.1039C27.6566 11.1039 28.3365 11.1548 28.8189 11.4123C29.0535 11.5376 29.24 11.7114 29.3699 11.9562C29.5011 12.2033 29.5811 12.5349 29.5811 12.9839H29.9811ZM26.8691 10.7039H24.9011V11.1039H26.8691V10.7039ZM35.0417 19.4479H34.8417V19.6479H35.0417V19.4479ZM41.0257 19.4479H41.2257V19.2479H41.0257V19.4479ZM41.0257 20.9999V21.1999H41.2257V20.9999H41.0257ZM33.2177 20.9999H33.0177V21.1999H33.2177V20.9999ZM33.2177 9.39994V9.19994H33.0177V9.39994H33.2177ZM35.0417 9.39994H35.2417V9.19994H35.0417V9.39994ZM35.0417 19.6479H41.0257V19.2479H35.0417V19.6479ZM40.8257 19.4479V20.9999H41.2257V19.4479H40.8257ZM41.0257 20.7999H33.2177V21.1999H41.0257V20.7999ZM33.4177 20.9999V9.39994H33.0177V20.9999H33.4177ZM33.2177 9.59994H35.0417V9.19994H33.2177V9.59994ZM34.8417 9.39994V19.4479H35.2417V9.39994H34.8417ZM46.4906 21.0079C44.8546 21.0079 43.5386 20.4087 42.6296 19.3926C41.7186 18.3741 41.2026 16.9208 41.2026 15.1919H40.8026C40.8026 16.999 41.3425 18.5537 42.3315 19.6592C43.3226 20.7671 44.7505 21.4079 46.4906 21.4079V21.0079ZM41.2026 15.1919C41.2026 13.463 41.7186 12.0139 42.6294 10.9995C43.5381 9.98749 44.8542 9.39194 46.4906 9.39194V8.99194C44.7509 8.99194 43.323 9.62839 42.3318 10.7323C41.3426 11.8339 40.8026 13.3848 40.8026 15.1919H41.2026ZM46.4906 9.39194C48.1187 9.39194 49.4307 9.98729 50.3376 10.9994C51.2466 12.0138 51.7626 13.463 51.7626 15.1919H52.1626C52.1626 13.3848 51.6226 11.834 50.6355 10.7324C49.6464 9.62859 48.2225 8.99194 46.4906 8.99194V9.39194ZM51.7626 15.1919C51.7626 16.9208 51.2465 18.3742 50.3374 19.3927C49.4303 20.4089 48.1182 21.0079 46.4906 21.0079V21.4079C48.2229 21.4079 49.6468 20.7669 50.6358 19.6591C51.6226 18.5536 52.1626 16.999 52.1626 15.1919H51.7626ZM46.4906 19.8879C47.5541 19.8879 48.5108 19.4685 49.1988 18.6617C49.8848 17.8571 50.2906 16.6832 50.2906 15.1919H49.8906C49.8906 16.6126 49.5044 17.6867 48.8944 18.4021C48.2863 19.1153 47.4431 19.4879 46.4906 19.4879V19.8879ZM50.2906 15.1919C50.2906 13.7006 49.8847 12.5304 49.1984 11.7297C48.5102 10.9268 47.5534 10.5119 46.4906 10.5119V10.9119C47.4437 10.9119 48.287 11.281 48.8947 11.9901C49.5044 12.7014 49.8906 13.7712 49.8906 15.1919H50.2906ZM46.4906 10.5119C45.4202 10.5119 44.4594 10.9265 43.7689 11.7295C43.0804 12.5303 42.6746 13.7006 42.6746 15.1919H43.0746C43.0746 13.7712 43.4607 12.7015 44.0722 11.9903C44.6818 11.2813 45.529 10.9119 46.4906 10.9119V10.5119ZM42.6746 15.1919C42.6746 16.6832 43.0804 17.8572 43.7686 18.6619C44.4587 19.4689 45.4195 19.8879 46.4906 19.8879V19.4879C45.5296 19.4879 44.6824 19.1149 44.0726 18.4019C43.4608 17.6866 43.0746 16.6126 43.0746 15.1919H42.6746ZM56.6167 9.39994V9.19994H56.4776L56.4292 9.33037L56.6167 9.39994ZM58.6327 9.39994L58.8199 9.32946L58.7711 9.19994H58.6327V9.39994ZM63.0007 20.9999V21.1999H63.2897L63.1879 20.9294L63.0007 20.9999ZM61.0167 20.9999L60.8284 21.0674L60.8759 21.1999H61.0167V20.9999ZM60.1047 18.4559L60.293 18.3884L60.2455 18.2559H60.1047V18.4559ZM55.0647 18.4559V18.2559H54.9231L54.8761 18.3895L55.0647 18.4559ZM54.1687 20.9999V21.1999H54.3103L54.3573 21.0663L54.1687 20.9999ZM52.3127 20.9999L52.1252 20.9303L52.0252 21.1999H52.3127V20.9999ZM55.6087 16.9199L55.4201 16.8534L55.3261 17.1199H55.6087V16.9199ZM59.5447 16.9199V17.1199H59.8288L59.733 16.8524L59.5447 16.9199ZM57.5607 11.3839L57.749 11.3164L57.5592 10.7868L57.3721 11.3174L57.5607 11.3839ZM56.6167 9.59994H58.6327V9.19994H56.6167V9.59994ZM58.4455 9.47042L62.8135 21.0704L63.1879 20.9294L58.8199 9.32946L58.4455 9.47042ZM63.0007 20.7999H61.0167V21.1999H63.0007V20.7999ZM61.205 20.9324L60.293 18.3884L59.9164 18.5234L60.8284 21.0674L61.205 20.9324ZM60.1047 18.2559H55.0647V18.6559H60.1047V18.2559ZM54.8761 18.3895L53.9801 20.9335L54.3573 21.0663L55.2533 18.5223L54.8761 18.3895ZM54.1687 20.7999H52.3127V21.1999H54.1687V20.7999ZM52.5002 21.0695L56.8042 9.46951L56.4292 9.33037L52.1252 20.9303L52.5002 21.0695ZM55.6087 17.1199H59.5447V16.7199H55.6087V17.1199ZM59.733 16.8524L57.749 11.3164L57.3724 11.4514L59.3564 16.9874L59.733 16.8524ZM57.3721 11.3174L55.4201 16.8534L55.7973 16.9864L57.7493 11.4504L57.3721 11.3174ZM64.2802 20.9999H64.0802V21.1999H64.2802V20.9999ZM64.2802 9.39994V9.19994H64.0802V9.39994H64.2802ZM66.1042 10.9039V10.7039H65.9042V10.9039H66.1042ZM66.1042 19.4959H65.9042V19.6959H66.1042V19.4959ZM67.4482 9.59994C69.2705 9.59994 70.8168 9.92996 71.9051 10.7795C72.9834 11.6213 73.6483 13.0025 73.6483 15.1919H74.0482C74.0482 12.9173 73.353 11.4025 72.1513 10.4643C70.9596 9.53392 69.3059 9.19994 67.4482 9.19994V9.59994ZM73.6483 15.1919C73.6483 17.3895 72.9832 18.7747 71.905 19.6184C70.8167 20.4699 69.2705 20.7999 67.4482 20.7999V21.1999C69.3059 21.1999 70.9597 20.8659 72.1514 19.9334C73.3532 18.9931 74.0482 17.4743 74.0482 15.1919H73.6483ZM67.4482 20.7999H64.2802V21.1999H67.4482V20.7999ZM64.4803 20.9999V9.39994H64.0802V20.9999H64.4803ZM64.2802 9.59994H67.4482V9.19994H64.2802V9.59994ZM67.3682 10.7039H66.1042V11.1039H67.3682V10.7039ZM65.9042 10.9039V19.4959H66.3042V10.9039H65.9042ZM66.1042 19.6959H67.3682V19.2959H66.1042V19.6959ZM67.3682 19.6959C68.5321 19.6959 69.7359 19.5781 70.6486 18.942C71.5778 18.2943 72.1603 17.1445 72.1603 15.1919H71.7603C71.7603 17.0633 71.2066 18.0655 70.4198 18.6138C69.6165 19.1737 68.5243 19.2959 67.3682 19.2959V19.6959ZM72.1603 15.1919C72.1603 13.247 71.5776 12.1011 70.6483 11.4556C69.7357 10.8217 68.5321 10.7039 67.3682 10.7039V11.1039C68.5243 11.1039 69.6167 11.2261 70.4201 11.7842C71.2068 12.3307 71.7603 13.3288 71.7603 15.1919H72.1603ZM79.624 9.39994V9.19994H79.424V9.39994H79.624ZM87.432 9.39994H87.632V9.19994H87.432V9.39994ZM87.432 10.9519V11.1519H87.632V10.9519H87.432ZM81.448 10.9519V10.7519H81.248V10.9519H81.448ZM81.448 14.2639H81.248V14.4639H81.448V14.2639ZM87.08 14.2639H87.28V14.0639H87.08V14.2639ZM87.08 15.7999V15.9999H87.28V15.7999H87.08ZM81.448 15.7999V15.5999H81.248V15.7999H81.448ZM81.448 20.9999V21.1999H81.648V20.9999H81.448ZM79.624 20.9999H79.424V21.1999H79.624V20.9999ZM79.624 9.59994H87.432V9.19994H79.624V9.59994ZM87.232 9.39994V10.9519H87.632V9.39994H87.232ZM87.432 10.7519H81.448V11.1519H87.432V10.7519ZM81.248 10.9519V14.2639H81.648V10.9519H81.248ZM81.448 14.4639H87.08V14.0639H81.448V14.4639ZM86.88 14.2639V15.7999H87.28V14.2639H86.88ZM87.08 15.5999H81.448V15.9999H87.08V15.5999ZM81.248 15.7999V20.9999H81.648V15.7999H81.248ZM81.448 20.7999H79.624V21.1999H81.448V20.7999ZM79.824 20.9999V9.39994H79.424V20.9999H79.824ZM90.573 20.9999V21.1999H90.773V20.9999H90.573ZM88.749 20.9999H88.549V21.1999H88.749V20.9999ZM88.749 9.39994V9.19994H88.549V9.39994H88.749ZM90.573 9.39994H90.773V9.19994H90.573V9.39994ZM90.573 20.7999H88.749V21.1999H90.573V20.7999ZM88.949 20.9999V9.39994H88.549V20.9999H88.949ZM88.749 9.59994H90.573V9.19994H88.749V9.59994ZM90.373 9.39994V20.9999H90.773V9.39994H90.373ZM94.9636 19.4479H94.7636V19.6479H94.9636V19.4479ZM100.947 19.4479H101.147V19.2479H100.947V19.4479ZM100.947 20.9999V21.1999H101.147V20.9999H100.947ZM93.1396 20.9999H92.9396V21.1999H93.1396V20.9999ZM93.1396 9.39994V9.19994H92.9396V9.39994H93.1396ZM94.9636 9.39994H95.1636V9.19994H94.9636V9.39994ZM94.9636 19.6479H100.947V19.2479H94.9636V19.6479ZM100.747 19.4479V20.9999H101.147V19.4479H100.747ZM100.947 20.7999H93.1396V21.1999H100.947V20.7999ZM93.3396 20.9999V9.39994H92.9396V20.9999H93.3396ZM93.1396 9.59994H94.9636V9.19994H93.1396V9.59994ZM94.7636 9.39994V19.4479H95.1636V9.39994H94.7636ZM102.233 9.39994V9.19994H102.033V9.39994H102.233ZM110.265 9.39994H110.465V9.19994H110.265V9.39994ZM110.265 10.9519V11.1519H110.465V10.9519H110.265ZM104.057 10.9519V10.7519H103.857V10.9519H104.057ZM104.057 14.2639H103.857V14.4639H104.057V14.2639ZM109.913 14.2639H110.113V14.0639H109.913V14.2639ZM109.913 15.7999V15.9999H110.113V15.7999H109.913ZM104.057 15.7999V15.5999H103.857V15.7999H104.057ZM104.057 19.4479H103.857V19.6479H104.057V19.4479ZM110.265 19.4479H110.465V19.2479H110.265V19.4479ZM110.265 20.9999V21.1999H110.465V20.9999H110.265ZM102.233 20.9999H102.033V21.1999H102.233V20.9999ZM102.233 9.59994H110.265V9.19994H102.233V9.59994ZM110.065 9.39994V10.9519H110.465V9.39994H110.065ZM110.265 10.7519H104.057V11.1519H110.265V10.7519ZM103.857 10.9519V14.2639H104.257V10.9519H103.857ZM104.057 14.4639H109.913V14.0639H104.057V14.4639ZM109.713 14.2639V15.7999H110.113V14.2639H109.713ZM109.913 15.5999H104.057V15.9999H109.913V15.5999ZM103.857 15.7999V19.4479H104.257V15.7999H103.857ZM104.057 19.6479H110.265V19.2479H104.057V19.6479ZM110.065 19.4479V20.9999H110.465V19.4479H110.065ZM110.265 20.7999H102.233V21.1999H110.265V20.7999ZM102.433 20.9999V9.39994H102.033V20.9999H102.433Z" fill="black"/>
<path d="M122.417 11.4001V17.5752H123.583V11.4001L125.504 13.321L126.329 12.4961L123 9.16699L119.671 12.4961L120.496 13.321L122.417 11.4001ZM117.75 19.3252V20.4919H128.25V19.3252H117.75Z" fill="black" stroke="black" stroke-width="0.4"/>
</g>
</g>
<defs>
<clipPath id="clip0_4_82">
<rect width="140" height="30" fill="white"/>
</clipPath>
</defs>
</svg>
