<svg width="130" height="40" viewBox="0 0 130 40" fill="none" xmlns="http://www.w3.org/2000/svg">
<g clip-path="url(#clip0_118_83)">
<path d="M12.582 1.25985C11.1024 1.95276 9.7524 2.57218 9.5904 2.64567L9.3096 2.78216L11.5668 7.50657C12.8088 10.0997 13.878 12.3675 13.9428 12.5459C14.0508 12.8294 13.9536 13.0709 12.8736 15.3281C12.2148 16.6824 11.4912 18.1207 11.2644 18.5302C10.2492 20.315 9.18 21.5223 8.1432 22.0682C6.9876 22.6772 5.0868 22.8451 3.618 22.4672C3.2076 22.3622 2.8512 22.2887 2.8404 22.2992C2.808 22.3307 0.3672 27.4226 0.1512 27.895L0 28.2205L0.864 28.5039C2.6244 29.0709 4.8384 29.2388 6.2532 28.9239C7.29 28.6824 8.532 28 9.45 27.1706C11.0484 25.7218 11.8908 24.3675 14.094 19.748C14.9796 17.9003 15.7248 16.378 15.7572 16.378C15.8004 16.378 16.9452 18.7402 18.306 21.6273L20.79 26.8661L24.4944 26.8766C26.5248 26.8766 28.188 26.8556 28.188 26.8346C28.188 26.8136 27.4752 25.3228 26.6112 23.5171L25.0452 20.231L25.3368 19.5906C26.3844 17.3228 26.9136 16.336 27 16.4829C27.0432 16.5669 28.1664 18.9081 29.484 21.6798C30.8016 24.4514 31.9356 26.7822 31.9896 26.8451C32.1408 27.0341 39.312 27.0446 39.312 26.8556C39.312 26.7297 26.6976 0.220476 26.5788 0.083992C26.5248 0.0314999 20.7036 2.61418 20.5524 2.77166C20.52 2.80315 21.5676 5.07087 22.8744 7.81103L25.2612 12.8084L24.3432 14.7192C23.8356 15.769 23.4144 16.6509 23.3928 16.6614C23.382 16.6824 21.5676 12.9344 19.3752 8.34646C17.1828 3.75853 15.3684 3.8147e-06 15.336 0.0105019C15.3036 0.0105019 14.0724 0.577431 12.582 1.25985Z" fill="black"/>
<path d="M112.861 3.34915C111.522 3.95807 110.366 4.50401 110.301 4.546C110.193 4.60899 110.161 5.11293 110.161 6.46726V8.29403H109.351H108.541V9.92133V11.5486H109.351H110.161V19.2127V26.8767H112.861H115.561V19.2127V11.5486H116.911H118.261V9.92133V8.29403H116.911H115.561V5.24941C115.561 2.87671 115.529 2.20479 115.431 2.21529C115.356 2.21529 114.2 2.72973 112.861 3.34915Z" fill="black"/>
<path d="M124.071 3.39115L121.501 4.567V6.42527V8.29403H120.637H119.762L119.794 9.88983L119.827 11.4961L120.669 11.5276L121.501 11.5591V19.2127V26.8767H124.201H126.901V19.2127V11.5486H128.251H129.601V9.92133V8.29403H128.251H126.901V5.24941C126.901 2.87671 126.868 2.20479 126.771 2.21529C126.695 2.21529 125.475 2.75072 124.071 3.39115Z" fill="black"/>
<path d="M46.2223 7.9788C44.9803 8.12578 43.5763 8.47224 42.4423 8.90269L41.4163 9.30164L41.3839 11.2124C41.3731 12.2623 41.3839 13.1232 41.4271 13.1232C41.4595 13.1232 41.6215 13.0392 41.7727 12.9237C42.2911 12.5772 43.3495 12.0943 44.1703 11.8423C44.8399 11.6428 45.2179 11.6008 46.3303 11.6008C47.5075 11.6008 47.7451 11.6323 48.2203 11.8423C49.2247 12.2938 49.6783 12.8817 49.6783 13.7321V14.2465L48.7387 14.3725C44.8507 14.8764 41.8375 16.3988 40.5199 18.4985C38.8891 21.1337 39.3859 24.7242 41.6107 26.3095C42.6475 27.0549 43.2523 27.2334 44.7643 27.2439C45.8443 27.2439 46.1791 27.2019 46.7731 27.0024C47.7235 26.6875 48.6307 26.1415 49.3111 25.5011L49.8619 24.9762L49.9915 25.9211L50.1319 26.8764H52.6051H55.0891L55.0567 19.6533C55.0135 11.7793 55.0243 11.9473 54.3655 10.6875C53.7391 9.48011 52.3027 8.51423 50.5423 8.13628C49.5811 7.92631 47.3563 7.85282 46.2223 7.9788ZM49.6567 19.8423C49.6027 21.4801 49.3975 22.11 48.7063 22.719C48.1879 23.1809 47.6479 23.3384 46.8595 23.2859C46.3627 23.2544 46.1467 23.1809 45.8227 22.9289C44.6995 22.047 44.6347 20.2728 45.6823 19.2229C46.4059 18.4985 47.4427 18.089 48.8683 17.9631C49.7755 17.8896 49.7215 17.7531 49.6567 19.8423Z" fill="black"/>
<path d="M66.4508 8.03157C65.3924 8.31503 64.4528 8.93446 63.8156 9.78485C63.4808 10.2363 63.47 10.2258 63.3404 9.29141C63.308 8.99745 63.2432 8.66149 63.2108 8.52501L63.1568 8.29403H60.7376H58.3184V17.5854V26.8767H60.9644H63.6104V20.231V13.5749L64.1288 13.0709C64.4096 12.7875 64.9064 12.441 65.2304 12.294C66.0512 11.9161 67.3256 11.9266 68.3948 12.3045L69.1184 12.5775L69.0968 10.3518L69.0644 8.13655L68.5244 8.02107C67.8008 7.85309 67.1312 7.85309 66.4508 8.03157Z" fill="black"/>
<path d="M79.0786 8.03156C78.031 8.31503 77.2642 8.81896 76.573 9.66936C76.1086 10.2363 76.1194 10.2468 75.979 9.18642C75.8494 8.19954 76.1086 8.29403 73.3762 8.29403H70.957V17.5854V26.8767H73.603H76.249V20.252V13.6379L76.789 13.0709C77.5666 12.273 78.2146 12.0211 79.381 12.0316C80.2234 12.0526 80.6554 12.147 81.6814 12.546C81.8542 12.6195 81.865 12.4725 81.865 10.4148V8.19954L81.4654 8.08406C80.7526 7.88458 79.6942 7.86358 79.0786 8.03156Z" fill="black"/>
<path d="M98.0963 7.98954C96.4115 8.24151 95.0615 8.90293 94.0139 9.99479C93.1823 10.8767 92.6315 11.8741 92.2535 13.2074C91.9727 14.2153 91.9727 14.2678 91.9727 17.6378C91.9727 20.8189 91.9835 21.1024 92.2103 21.8898C93.2147 25.4699 95.7095 27.2966 99.5759 27.2966C103.431 27.2966 105.937 25.4594 106.941 21.8898C107.157 21.1129 107.179 20.8084 107.179 17.6903C107.19 14.5302 107.179 14.2783 106.941 13.3859C106.812 12.8609 106.499 12.042 106.25 11.5591C105.429 9.88981 103.777 8.61946 101.844 8.14702C100.98 7.93705 98.9927 7.85306 98.0963 7.98954ZM100.505 11.7481C101.012 11.9685 101.293 12.315 101.585 13.0709C101.768 13.5538 101.79 13.9213 101.79 17.5853C101.79 21.1864 101.768 21.6273 101.595 22.1313C101.217 23.1706 100.58 23.6536 99.5759 23.6536C98.5715 23.6536 97.9343 23.1706 97.5563 22.1313C97.3835 21.6273 97.3619 21.1864 97.3619 17.5853C97.3619 13.9213 97.3835 13.5538 97.5671 13.0709C97.6751 12.7769 97.8695 12.4095 97.9883 12.2415C98.2691 11.8531 98.9603 11.5486 99.5759 11.5486C99.8459 11.5486 100.256 11.6431 100.505 11.7481Z" fill="black"/>
<path d="M83.8086 17.5854V26.8767H86.4546H89.1006V17.5854V8.29403H86.4546H83.8086V17.5854Z" fill="black"/>
<path d="M87.1452 33.3858C86.0436 33.5748 84.996 34.3622 84.5316 35.37C84.1968 36.0735 84.2184 37.3333 84.5532 38.0892C84.888 38.8031 85.7736 39.601 86.508 39.8425C87.318 40.1049 88.7652 40.0315 89.4564 39.685C90.0936 39.37 90.774 38.6771 91.0764 38.0262C91.4112 37.3123 91.3896 36.0525 91.0548 35.2965C90.4284 33.9422 88.7544 33.1128 87.1452 33.3858ZM88.5384 34.8031C89.3916 35.1496 89.7804 35.7585 89.7804 36.6929C89.7804 37.3858 89.6184 37.7952 89.1324 38.2362C88.1928 39.0971 86.616 38.8031 85.9896 37.6378C85.7736 37.2283 85.7736 36.1574 85.9896 35.748C86.508 34.8031 87.5664 34.4147 88.5384 34.8031Z" fill="black"/>
<path d="M23.0579 33.5223C23.0255 33.5958 23.0147 35.0656 23.0255 36.7979L23.0579 39.9475L23.7923 39.979L24.5159 40.0105V36.6929V33.3858H23.8139C23.3387 33.3858 23.0903 33.4278 23.0579 33.5223Z" fill="black"/>
<path d="M27.3782 33.5223C27.3458 33.5958 27.335 35.0656 27.3458 36.7979L27.3782 39.9475H28.0802H28.7822L28.8362 37.9423L28.8902 35.937L30.4562 37.9423L32.033 39.9475L32.6486 39.979L33.2642 40.0105V36.6929V33.3858H32.5622H31.8602L31.8386 35.4016L31.8062 37.4278L30.467 35.6955C28.631 33.3228 28.7066 33.3858 28.0046 33.3858C27.6374 33.3858 27.4106 33.4383 27.3782 33.5223Z" fill="black"/>
<path d="M35.0977 34.0682V34.7507H36.0697H37.0417L37.0633 37.3438L37.0957 39.9475L37.8301 39.979L38.5537 40.0105V37.3753V34.7507H39.5797H40.6165L40.5841 34.0892L40.5517 33.4383L37.8301 33.4068L35.0977 33.3858V34.0682Z" fill="black"/>
<path d="M42.39 33.5221C42.3576 33.5956 42.3468 35.0654 42.3576 36.7977L42.39 39.9473L44.9064 39.9788L47.412 39.9998V39.3173V38.6349H45.63H43.848V37.9525V37.2701H45.414H46.98V36.6402V36.0103H45.414H43.848V35.3803V34.7504H45.63H47.412V34.068V33.3856H44.928C43.0272 33.3856 42.4224 33.4171 42.39 33.5221Z" fill="black"/>
<path d="M49.8945 36.6932V40.0002H50.5965H51.2985V38.9504V37.9005H51.9249L52.5405 37.911L53.2425 38.9294L53.9445 39.9478L54.7869 39.9793C55.2621 40.0002 55.6185 39.9688 55.5969 39.9268C55.5861 39.8848 55.2081 39.3388 54.7869 38.7194C54.0957 37.7325 54.0309 37.596 54.2037 37.5331C55.5969 37.1026 55.8453 34.6774 54.5709 33.869C54.0309 33.5226 53.1129 33.3861 51.3309 33.3861H49.8945V36.6932ZM53.5449 34.9189C53.9013 35.1604 54.0309 35.5488 53.8905 35.9478C53.7285 36.4307 53.4153 36.5672 52.3569 36.6197L51.4065 36.6617V35.7063V34.7509H52.3569C53.0481 34.7509 53.3721 34.7929 53.5449 34.9189Z" fill="black"/>
<path d="M57.8867 36.6927V39.9998H58.5887H59.2907V37.942C59.2907 36.7767 59.3339 35.9158 59.3879 35.9473C59.4419 35.9788 60.1547 36.8712 60.9755 37.921C61.7963 38.9814 62.5199 39.8738 62.5739 39.9263C62.6387 39.9683 62.9411 39.9893 63.2327 39.9788L63.7727 39.9473V36.6927V33.4381H63.0707H62.3687L62.3147 35.3803L62.2607 37.3226L60.7487 35.3803L59.2259 33.4381L58.5563 33.4066L57.8867 33.3751V36.6927Z" fill="black"/>
<path d="M68.3857 33.5642C68.1589 33.9737 65.6641 39.7899 65.6641 39.8949C65.6641 39.9684 65.9233 39.9999 66.3769 39.9789L67.1005 39.9474L67.3813 39.2335L67.6621 38.5196L69.1093 38.5511L70.5673 38.5826L70.8481 39.265L71.1289 39.9474L71.8525 39.9789C72.3817 39.9999 72.5761 39.9684 72.5761 39.8739C72.5761 39.8004 71.9605 38.3201 71.2045 36.5668L69.8221 33.3962L69.1525 33.3857C68.6233 33.3857 68.4613 33.4277 68.3857 33.5642ZM69.5953 36.2624C69.8113 36.7873 69.9841 37.2178 69.9841 37.2388C69.9841 37.2598 69.5953 37.2703 69.1093 37.2703C68.3209 37.2703 68.2453 37.2493 68.2993 37.0813C68.7313 35.9579 69.0769 35.1915 69.1417 35.2545C69.1741 35.2965 69.3793 35.7479 69.5953 36.2624Z" fill="black"/>
<path d="M73.0078 34.0682V34.7506H74.0338H75.0598V37.3753V40H75.7618H76.4638L76.4854 37.4068L76.5178 34.8031L77.5222 34.7716L78.5158 34.7401V34.0682V33.3858H75.7618H73.0078V34.0682Z" fill="black"/>
<path d="M80.515 33.5118C80.4826 33.5853 80.4718 35.0656 80.4826 36.7979L80.515 39.9475H81.217H81.919V36.6929V33.4383L81.2386 33.4068C80.7634 33.3858 80.5474 33.4173 80.515 33.5118Z" fill="black"/>
<path d="M93.7982 33.5223C93.7658 33.5958 93.755 35.0656 93.7658 36.7979L93.7982 39.9475H94.5002H95.2022L95.2346 37.9213L95.2562 35.8845L96.8546 37.9213L98.4422 39.9475L99.0686 39.979L99.6842 40.0105V36.6929V33.3858H98.9822H98.2802L98.2586 35.4016L98.2262 37.4278L96.887 35.6955C95.051 33.3228 95.1266 33.3858 94.4246 33.3858C94.0574 33.3858 93.8306 33.4383 93.7982 33.5223Z" fill="black"/>
<path d="M104.252 33.5643C104.209 33.6693 103.582 35.1181 102.848 36.7979C102.114 38.4672 101.52 39.8845 101.52 39.9265C101.52 39.9685 101.844 40 102.243 39.979L102.967 39.9475L103.269 39.2651L103.561 38.5827L104.997 38.5512L106.434 38.5197L106.714 39.2336L106.995 39.9475L107.784 39.979C108.442 40 108.561 39.979 108.507 39.853C108.475 39.769 107.827 38.2782 107.071 36.5459L105.699 33.3858H105.008C104.457 33.3858 104.306 33.4173 104.252 33.5643ZM105.84 37.1758C105.84 37.2283 105.451 37.2703 104.976 37.2703C104.5 37.2703 104.112 37.2598 104.112 37.2388C104.112 37.2283 104.274 36.8399 104.468 36.3779C104.673 35.916 104.868 35.4436 104.911 35.3281C104.976 35.1601 105.084 35.3176 105.418 36.105C105.645 36.6404 105.84 37.1234 105.84 37.1758Z" fill="black"/>
<path d="M110.27 36.6927V39.9998H112.646H115.022V39.3173V38.6349H113.348H111.674V36.0103V33.3856H110.972H110.27V36.6927Z" fill="black"/>
</g>
<defs>
<clipPath id="clip0_118_83">
<rect width="129.6" height="40" fill="white"/>
</clipPath>
</defs>
</svg>
