<svg width="151" height="40" viewBox="0 0 151 40" fill="none" xmlns="http://www.w3.org/2000/svg">
<path d="M77.6318 0.0528793C76.6259 0.196173 75.8119 0.446938 74.9313 0.88876C73.17 1.77241 71.855 3.10185 70.9783 4.89701C70.3756 6.13092 70.0977 7.34892 70.0977 8.76196C70.0938 10.1352 70.3717 11.3373 70.9783 12.5911C71.8393 14.3743 73.1505 15.7037 74.8843 16.5675C76.1406 17.1924 77.2522 17.4631 78.6298 17.487C79.6826 17.5029 80.5398 17.3715 81.526 17.0451C82.4614 16.7307 83.4986 16.1575 84.2657 15.5286C84.614 15.242 85.2911 14.5654 85.2755 14.5176C85.2677 14.5017 84.7823 14.1355 84.1953 13.7056L83.1268 12.9254L82.8254 13.2001C82.1718 13.7971 81.4908 14.2031 80.6767 14.4818C79.9762 14.7206 79.5926 14.7763 78.7472 14.7763C77.9645 14.7763 77.5418 14.7126 76.9077 14.4977C75.7023 14.0877 74.5947 13.1921 73.9058 12.0736C73.5732 11.5363 73.2561 10.7203 73.1074 10.0277C73.0057 9.54609 72.9626 8.35596 73.0291 7.86637C73.4558 4.82536 75.8236 2.64411 78.6885 2.64809C80.3245 2.65207 81.9174 3.32077 83.0289 4.4711C83.2012 4.6542 83.299 4.72585 83.3342 4.70595C83.3812 4.67808 83.98 4.23626 84.4418 3.89395C84.5514 3.81434 84.8136 3.6193 85.0289 3.46009C85.2442 3.30087 85.4242 3.1536 85.432 3.13768C85.4555 3.07797 84.4888 2.12666 84.1092 1.83609C82.8607 0.880798 81.526 0.307625 80.0075 0.0767612C79.3969 -0.0147877 78.2071 -0.0267277 77.6318 0.0528793Z" fill="black"/>
<path d="M0 8.84945V17.268H1.38941H2.77881V10.7003C2.77881 7.08614 2.79055 4.13269 2.81012 4.13269C2.82578 4.13667 4.48132 7.16973 6.49302 10.8794L10.1446 17.6262H10.5047H10.8608L14.3637 11.1501C16.2893 7.59165 17.9409 4.54267 18.031 4.3755L18.1953 4.07299L18.1875 10.6526L18.1797 17.2282H19.5808H20.9781V8.82955V0.430937L19.2129 0.438896L17.4439 0.450838L13.9958 6.88712C12.1015 10.4297 10.5399 13.3234 10.5282 13.3234C10.5164 13.3274 8.94307 10.4257 7.02922 6.87916L3.54592 0.430937H1.77296H0V8.84945Z" fill="black"/>
<path d="M29.1582 8.849V17.2675H35.8117H42.4652V16.1331V14.9987H37.2011H31.937L31.9448 12.2602L31.9566 9.52566H35.9095L39.8625 9.52168L39.8742 8.39921L39.8821 7.27674H35.9095H31.937V4.98802V2.6993H37.1033H42.2695V1.56489V0.430485H35.7138H29.1582V8.849Z" fill="black"/>
<path d="M136.709 8.84958V17.2681H143.362H150.016V16.1337V14.9993H144.752H139.488L139.496 12.2608L139.507 9.52624H143.46L147.413 9.52226L147.425 8.39979L147.433 7.27732H143.46H139.488V4.9886V2.69988H144.654H149.82V1.56547V0.431065H143.265H136.709V8.84958Z" fill="black"/>
<path d="M50.6445 8.8689V17.2675H52.0339H53.4233L53.4312 14.3499L53.4429 11.4362H55.9008H58.3587L59.8303 14.3499L61.3019 17.2675H62.8439H64.382L64.2998 17.0964C64.2529 17.0048 63.4779 15.5002 62.5738 13.7528C61.6698 12.0054 60.934 10.5725 60.9418 10.5645C60.9496 10.5606 61.0827 10.481 61.2353 10.3894C62.3899 9.70478 63.1531 8.51863 63.4271 6.97822C63.5288 6.42893 63.5249 5.11938 63.4271 4.55019C63.0357 2.32117 61.6424 1.03153 59.1767 0.613586C58.39 0.482233 57.979 0.470291 54.3196 0.470291H50.6445V8.8689ZM58.5622 2.97395C59.9046 3.27646 60.5974 3.95711 60.8048 5.17511C60.8831 5.62887 60.8596 6.44883 60.7617 6.83891C60.4643 8.00914 59.5367 8.69774 58.0416 8.86492C57.8577 8.88482 56.7344 8.90472 55.5485 8.90472L53.3842 8.9087V5.87963V2.85056L55.7834 2.87046C58.069 2.88638 58.1943 2.89036 58.5622 2.97395Z" fill="black"/>
<path d="M92.418 5.4344C92.4337 10.2188 92.4376 10.4178 92.5119 10.8398C92.8172 12.5075 93.4747 13.837 94.5745 14.9913C95.2673 15.7157 95.9013 16.1974 96.7271 16.6193C97.8817 17.2084 98.9815 17.4751 100.273 17.4711C101.572 17.4711 102.653 17.2124 103.803 16.6272C105.318 15.855 106.516 14.653 107.275 13.1325C107.658 12.3642 107.858 11.7433 108.034 10.8C108.112 10.378 108.112 10.2029 108.128 5.4145L108.144 0.470861H106.735H105.326L105.31 5.29509C105.298 10.0397 105.298 10.1313 105.216 10.4815C104.97 11.5522 104.512 12.4001 103.776 13.1484C102.966 13.9763 101.944 14.4938 100.86 14.637C100.469 14.6888 99.6977 14.6609 99.3337 14.5853C98.6331 14.434 97.8621 14.0878 97.3181 13.6738C96.9659 13.4111 96.4727 12.9096 96.2144 12.5513C95.9483 12.1891 95.6117 11.5284 95.4629 11.0786C95.2007 10.2785 95.2125 10.5373 95.1968 5.25528L95.1812 0.470861H93.7917H92.4023L92.418 5.4344Z" fill="black"/>
<path d="M115.803 8.86907L115.791 17.2677H117.192H118.589V14.3501V11.4324H121.055H123.517L124.973 14.3182C125.771 15.9104 126.441 17.2199 126.452 17.2398C126.468 17.2557 127.168 17.2637 128.01 17.2597L129.54 17.2478L127.822 13.9281C126.879 12.1011 126.104 10.5966 126.104 10.5846C126.104 10.5727 126.198 10.509 126.311 10.4453C127.364 9.85222 128.151 8.79742 128.472 7.53564C128.628 6.91868 128.667 6.57637 128.664 5.80417C128.664 4.35531 128.378 3.31643 127.752 2.46861C126.981 1.43371 125.877 0.860535 124.049 0.562006C123.709 0.5023 123.133 0.494341 119.736 0.482399L115.811 0.466478L115.803 8.86907ZM123.646 2.95024C124.91 3.20498 125.669 3.84582 125.928 4.86878C126.037 5.29468 126.073 5.86388 126.026 6.32162C125.889 7.62719 125.215 8.39938 123.936 8.72975C123.341 8.88499 123.028 8.90091 120.715 8.90489L118.55 8.90887V5.8798V2.85073L120.949 2.87063C122.902 2.88257 123.399 2.89849 123.646 2.95024Z" fill="black"/>
<path d="M58.1279 31.7963C57.216 31.9277 56.2924 32.3854 55.6779 33.0143C54.8638 33.8502 54.4724 34.901 54.5311 36.1111C54.5585 36.7081 54.6642 37.15 54.8912 37.6396C55.5761 39.1123 57.0086 40.0039 58.6876 39.9999C60.7932 39.9999 62.4997 38.6267 62.8363 36.6644C63.0672 35.311 62.6601 33.9497 61.7365 33.0104C61.1298 32.3974 60.351 31.9914 59.4312 31.8163C59.2082 31.7725 58.3745 31.7605 58.1279 31.7963ZM59.2473 33.0542C60.4527 33.3049 61.302 34.2483 61.4899 35.5379C61.5721 36.127 61.4821 36.6405 61.1846 37.2495C60.8637 37.9062 60.2727 38.4157 59.5487 38.6665C58.9146 38.8854 58.0966 38.8376 57.4665 38.5431C56.8129 38.2366 56.3667 37.7828 56.0654 37.1181C55.8579 36.6564 55.7992 36.334 55.8188 35.7887C55.854 34.9886 56.0928 34.4234 56.6329 33.8622C57.3217 33.1537 58.2884 32.8551 59.2473 33.0542Z" fill="black"/>
<path d="M104.185 31.8003C103.136 31.9356 102.42 32.3695 102.091 33.078C101.751 33.8064 101.861 34.7418 102.35 35.2792C102.71 35.6772 103.234 35.9479 104.432 36.3499C105.359 36.6604 105.61 36.7758 105.864 36.9987C106.193 37.2813 106.283 37.7828 106.08 38.1968C105.626 39.1242 104.033 39.1481 102.534 38.2406C102.455 38.1928 102.365 38.1649 102.334 38.1769C102.24 38.2127 101.825 39.1282 101.868 39.1998C101.966 39.363 102.843 39.7531 103.418 39.8884C103.939 40.0118 105.121 40.0079 105.575 39.8845C106.084 39.7452 106.659 39.4347 106.945 39.1401C107.888 38.1848 107.774 36.521 106.721 35.8285C106.322 35.5658 106.04 35.4463 105.164 35.1757C104.119 34.8572 103.751 34.698 103.516 34.4672C103.148 34.101 103.156 33.5756 103.54 33.2332C103.814 32.9904 104.197 32.871 104.725 32.871C105.305 32.871 105.849 33.0103 106.475 33.3168C106.725 33.4402 106.796 33.4601 106.835 33.4163C106.894 33.3566 107.183 32.7596 107.262 32.5407L107.316 32.3894L106.952 32.2143C106.154 31.8282 105.14 31.6769 104.185 31.8003Z" fill="black"/>
<path d="M92.2176 31.8677C92.1785 31.8956 92.1707 32.7235 92.1785 35.88L92.1903 39.8564H94.7538H97.3174L97.3291 39.3668C97.333 39.0762 97.3213 38.8493 97.2978 38.8016C97.2586 38.722 97.2117 38.722 95.3604 38.722H93.4622V35.3426V31.9593L93.3761 31.8996C93.3057 31.8478 93.1765 31.8359 92.7773 31.8359C92.4994 31.8359 92.245 31.8518 92.2176 31.8677Z" fill="black"/>
<path d="M42.3556 31.9238C42.3203 31.9596 42.3086 32.903 42.3086 35.9241C42.3086 39.801 42.3086 39.8806 42.383 39.9085C42.426 39.9244 42.7117 39.9363 43.0131 39.9323C43.4436 39.9284 43.5767 39.9164 43.6041 39.8726C43.6236 39.8408 43.6393 39.0686 43.6393 38.1531V36.4933H45.7332H47.8271V38.1412C47.8271 39.59 47.8349 39.801 47.8897 39.8527C47.9406 39.9045 48.0541 39.9164 48.5081 39.9164C48.8877 39.9164 49.0795 39.9005 49.1108 39.8686C49.1773 39.801 49.1773 31.9915 49.1108 31.9238C49.0795 31.892 48.8877 31.876 48.5081 31.876C48.0541 31.876 47.9406 31.888 47.8897 31.9397C47.8349 31.9915 47.8271 32.2024 47.8271 33.6513V35.2992H45.7332H43.6393V33.6513C43.6393 32.2024 43.6315 31.9915 43.5767 31.9397C43.5258 31.888 43.4123 31.876 42.9583 31.876C42.5786 31.876 42.3869 31.892 42.3556 31.9238Z" fill="black"/>
<path d="M67.5841 31.9201C67.5215 31.9559 67.5137 32.0276 67.5137 32.4694C67.5137 32.8993 67.5254 32.9868 67.5763 33.0067C67.6115 33.0187 68.2103 33.0306 68.907 33.0306H70.1751V36.4538V39.8769H70.7974C71.3296 39.8769 71.4236 39.8689 71.4431 39.8132C71.4549 39.7774 71.4666 38.237 71.4666 36.3901V33.0306H72.7308C73.4235 33.0306 74.0145 33.0147 74.0419 32.9988C74.0771 32.9709 74.0889 32.8316 74.0811 32.4296L74.0693 31.8962L70.86 31.8883C68.727 31.8803 67.6272 31.8922 67.5841 31.9201Z" fill="black"/>
<path d="M79.7635 31.9516C79.7009 32.075 79.7087 39.7611 79.7753 39.8487C79.8183 39.9123 80.0297 39.9163 82.6793 39.9084L85.5364 39.8964L85.5482 39.4068C85.5521 39.1163 85.5403 38.8894 85.5169 38.8416C85.4777 38.762 85.4308 38.762 83.2468 38.762H81.016V37.6077V36.4534H82.9103C84.4758 36.4534 84.8124 36.4454 84.8476 36.3977C84.8789 36.3618 84.8906 36.1748 84.8828 35.8324L84.8711 35.319L82.9455 35.307L81.016 35.2991V34.1647V33.0303H83.239C84.9141 33.0303 85.4738 33.0183 85.509 32.9825C85.5599 32.9307 85.5795 32.059 85.5325 31.9396C85.509 31.8839 85.2194 31.8759 82.6559 31.8759C79.877 31.8759 79.8027 31.8759 79.7635 31.9516Z" fill="black"/>
</svg>
