<svg width="139" height="50" viewBox="0 0 139 50" fill="none" xmlns="http://www.w3.org/2000/svg">
<path d="M83.4423 0.973917C75.438 8.05114 66.7498 11.2497 56.139 10.9923C54.6602 10.9739 53.551 10.9923 53.6619 11.0475C54.0317 11.2313 56.9339 11.746 58.9673 11.9666C65.1785 12.6651 72.4434 11.0107 77.1757 7.84893C78.8579 6.7276 80.7804 5.10995 81.7232 4.00701C83.0541 2.46289 84.8287 -0.000349998 84.6069 -0.000349998C84.5699 -0.000349998 84.0523 0.440827 83.4423 0.973917Z" fill="black"/>
<path d="M35.4929 19.5036C32.6461 19.9816 30.4833 21.9117 29.6699 24.7058C29.2263 26.1948 29.3557 28.9154 29.9287 30.386C30.4279 31.6728 31.9622 33.3823 33.1268 33.9522C34.2544 34.522 35.9551 34.9265 37.1936 34.9265C40.5025 34.9265 43.072 33.4191 44.4215 30.6985C44.9946 29.5404 45.013 29.4301 45.013 27.1139C45.013 24.7978 44.9946 24.6875 44.4215 23.511C42.8687 20.3676 39.5043 18.8602 35.4929 19.5036ZM38.8943 22.3161C40.1328 22.6838 41.0201 23.4375 41.5193 24.522C42.4066 26.4706 42.2587 28.9338 41.168 30.3676C39.2455 32.8676 34.735 32.7022 33.1822 30.0919C31.8143 27.7573 32.3689 24.2647 34.3283 22.9228C35.5299 22.0955 37.3415 21.8566 38.8943 22.3161Z" fill="black"/>
<path d="M74.7744 19.4302C72.8334 19.6876 70.7076 20.864 69.6908 22.2611C68.6557 23.6765 68.3229 24.8714 68.3229 27.1141C68.3044 28.8052 68.3784 29.3016 68.7481 30.2023C69.543 32.206 70.9664 33.6214 72.9628 34.3935C74.4971 35.0001 77.8245 35.0001 79.3034 34.4119C82.6863 33.0699 84.5163 29.6508 83.9433 25.7721C83.2963 21.4707 79.4698 18.8052 74.7744 19.4302ZM77.843 22.353C79.784 22.9229 80.9671 24.7611 80.9671 27.2244C80.9671 29.228 80.0243 30.8641 78.3791 31.728C77.3624 32.2795 74.8668 32.2244 73.7022 31.6361C72.1125 30.8273 71.3361 29.3199 71.3361 27.0773C71.3361 23.3824 74.2198 21.2868 77.843 22.353Z" fill="black"/>
<path d="M7.57812 27.1142V34.559H9.05698H10.5358V29.1914V23.8237L11.1089 24.3752C11.4416 24.6693 12.7541 26.3053 14.0481 28.0333C17.8561 33.07 19.6862 34.559 22.1448 34.559H23.2909V27.1142V19.6693H21.8121H20.3332L20.2963 25.3127L20.2408 30.9561L19.4274 30.1472C18.9838 29.6877 17.6343 27.9965 16.3958 26.3972C12.4399 21.1766 10.6652 19.6693 8.55786 19.6693H7.57812V27.1142Z" fill="black"/>
<path d="M49.9657 22.3716C50.7052 23.879 52.3504 27.2614 53.6074 29.9084L55.9181 34.7246H56.6575H57.397L60.0774 29.2099C61.5562 26.1768 63.183 22.7944 63.7191 21.6731L64.6803 19.6694H62.9796L61.2789 19.6878L59.338 24.0261C58.2658 26.4158 57.2306 28.732 57.0273 29.1731L56.6575 29.982L54.3468 24.8349L52.0361 19.6694H50.3354H48.6348L49.9657 22.3716Z" fill="black"/>
<path d="M87.25 20.9556V22.2424H90.0228H92.8142L92.7587 28.4005L92.7033 34.5586H94.1267H95.5685L95.6055 28.4373L95.661 22.3343L98.3968 22.2792L101.114 22.224V20.9556V19.6689H94.1821H87.25V20.9556Z" fill="black"/>
<path d="M105.958 25.4962C106.013 30.6617 106.05 31.4337 106.346 32.0771C106.808 33.1065 107.658 33.9154 108.768 34.4117C109.599 34.7793 110.006 34.8161 112.391 34.8345C113.87 34.8345 115.459 34.7609 115.959 34.6874L116.827 34.5404V33.1433C116.827 31.9668 116.79 31.783 116.55 31.8749C116.014 32.0771 112.298 32.2242 111.208 32.0955C110.431 31.9852 109.988 31.8198 109.563 31.4337C109.045 30.9742 108.971 30.8087 108.916 29.6139L108.842 28.3087H112.557H116.273V27.022V25.7352L115.404 25.7168C114.905 25.6984 113.278 25.68 111.744 25.6617L108.971 25.6433L108.916 24.0256L108.86 22.4264H112.853H116.827V21.0477V19.669H111.356H105.902L105.958 25.4962Z" fill="black"/>
<path d="M123.152 25.4962C123.208 31.1396 123.226 31.3786 123.633 32.2977C124.15 33.4374 124.594 33.8602 125.796 34.4117C126.609 34.7793 127.016 34.8345 129.215 34.8345C130.583 34.8345 132.192 34.7609 132.783 34.6874L133.837 34.5404V33.1433C133.837 31.9484 133.8 31.783 133.541 31.8749C133.375 31.9301 132.136 32.0403 130.768 32.1139C128.735 32.2058 128.18 32.169 127.515 31.9301C126.165 31.4153 126.165 31.4705 126.11 25.2205L126.054 19.669H124.575H123.078L123.152 25.4962Z" fill="black"/>
<path d="M8.59684 44.0255C7.89438 44.3931 7.6171 44.7608 7.37678 45.6248C7.11798 46.5807 7.43224 47.6468 8.15318 48.2351C8.91109 48.8785 10.5933 48.9152 11.3512 48.327C13.3107 46.8012 12.2755 43.7498 9.7984 43.7498C9.44718 43.7498 8.91109 43.8784 8.59684 44.0255ZM11.1663 45.0549C11.7394 45.7351 11.7949 46.5439 11.2773 47.3711C10.5933 48.5108 8.72624 48.3454 8.19015 47.1137C7.6171 45.7351 8.43047 44.4851 9.89083 44.4851C10.5563 44.4851 10.7781 44.577 11.1663 45.0549Z" fill="black"/>
<path d="M34.3833 43.8789C33.7917 44.0995 33.459 44.559 33.459 45.1473C33.459 45.8642 33.8472 46.1767 35.1227 46.5076C36.1209 46.7649 36.4167 46.9855 36.4167 47.4451C36.4167 47.9782 35.7327 48.2171 34.5312 48.1068C33.5884 48.0149 33.4405 48.0517 33.496 48.309C33.5514 48.5664 33.8102 48.6399 34.8639 48.6767C36.4167 48.7318 37.1561 48.3274 37.1561 47.4083C37.1561 46.6914 36.657 46.2318 35.4369 45.8826C34.2169 45.5333 33.9211 45.2392 34.2724 44.7612C34.4757 44.4855 34.7345 44.4304 35.7512 44.4487C36.6755 44.4855 36.9713 44.4304 36.9713 44.2282C36.9713 44.0995 36.7864 43.934 36.5646 43.8605C36.047 43.7318 34.7715 43.7318 34.3833 43.8789Z" fill="black"/>
<path d="M47.1372 43.8787C46.5456 44.0993 46.2129 44.5589 46.2129 45.1471C46.2129 45.864 46.6011 46.1765 47.8766 46.5074C48.8748 46.7647 49.1706 46.9853 49.1706 47.4449C49.1706 47.978 48.4866 48.217 47.2851 48.1067C46.3423 48.0147 46.1944 48.0515 46.2499 48.3089C46.3053 48.5662 46.5641 48.6397 47.6178 48.6765C49.2261 48.7317 49.91 48.3456 49.91 47.3346C49.91 46.5809 49.6142 46.3236 48.1724 45.864C47.396 45.6067 47.0263 45.3861 46.9893 45.1471C46.8784 44.5956 47.2296 44.4302 48.5051 44.4486C49.4109 44.4669 49.7252 44.4118 49.7252 44.228C49.7252 44.0809 49.5403 43.9339 49.3185 43.8603C48.8009 43.7317 47.5254 43.7317 47.1372 43.8787Z" fill="black"/>
<path d="M77.8049 44.0254C77.5276 44.1724 77.2504 44.5217 77.1949 44.7791C76.9916 45.5695 77.5461 46.1394 78.9325 46.5805C80.2265 46.9849 80.4853 47.3342 79.9308 47.8857C79.6535 48.143 79.3762 48.1982 78.341 48.1247C77.3982 48.0511 77.084 48.0879 77.084 48.2533C77.084 48.6026 77.5276 48.7129 78.8586 48.7129C79.8938 48.7129 80.1156 48.6394 80.5038 48.2533C81.3727 47.4077 80.9475 46.3599 79.5426 45.9739C79.1544 45.8636 78.7477 45.7717 78.6368 45.7717C78.5259 45.7717 78.2856 45.6063 78.1007 45.4041C77.7864 45.0548 77.7864 44.9996 78.0637 44.7239C78.2856 44.4849 78.6738 44.4298 79.5795 44.4482C80.8366 44.4849 81.1693 44.246 80.3005 43.9335C79.635 43.6761 78.3595 43.7129 77.8049 44.0254Z" fill="black"/>
<path d="M86.789 44.1357C86.3823 44.4666 86.3084 44.6504 86.3823 45.2019C86.4378 45.7166 86.3453 45.9923 86.0126 46.3967C85.4765 47.0401 85.532 47.8673 86.1605 48.382C86.6041 48.7497 87.9721 48.8232 88.5451 48.5291C88.7854 48.4004 88.9333 48.4004 89.0073 48.5291C89.0627 48.621 89.34 48.7129 89.5988 48.7129H90.0794L89.7097 48.2901C89.4324 47.996 89.377 47.7754 89.4694 47.518C89.7282 46.9114 89.6728 46.1761 89.3585 45.882C88.9518 45.4776 88.7115 45.6798 88.9148 46.2313C89.0073 46.4886 89.0258 46.8563 88.9518 47.0769C88.8224 47.4261 88.73 47.371 87.9351 46.4519C87.4545 45.9004 87.0663 45.2754 87.0663 45.0548C87.0663 44.5585 87.6948 44.246 88.3788 44.393C88.7854 44.4849 88.9148 44.4482 88.9148 44.246C88.9148 43.6394 87.5284 43.5658 86.789 44.1357ZM87.6578 47.132C88.046 47.5732 88.2863 47.9776 88.2309 48.0511C88.009 48.2717 86.8999 48.1614 86.6226 47.8673C86.2714 47.5364 86.2529 47.1688 86.5117 46.6724C86.789 46.1761 86.8999 46.2129 87.6578 47.132Z" fill="black"/>
<path d="M108.698 43.952C108.125 44.191 107.958 44.43 107.958 45.1469C107.958 45.8638 108.199 46.0844 109.659 46.5807C110.565 46.8748 110.842 47.0587 110.879 47.3712C110.971 47.9778 110.324 48.2351 108.938 48.1065C108.032 48.0145 107.773 48.0513 107.773 48.2351C107.773 48.6028 108.199 48.7131 109.548 48.7131C110.583 48.7131 110.805 48.6395 111.193 48.2535C112.136 47.3344 111.637 46.3785 109.936 45.8822C108.698 45.5329 108.31 45.1469 108.753 44.7241C108.975 44.5035 109.363 44.43 110.269 44.4484C111.175 44.4851 111.471 44.43 111.471 44.2278C111.471 43.7866 109.604 43.6028 108.698 43.952Z" fill="black"/>
<path d="M115.592 44.0258C113.947 44.7243 113.78 47.4816 115.333 48.4008C115.925 48.75 117.274 48.8052 118.013 48.5294C119.104 48.125 119.622 46.011 118.938 44.853C118.346 43.8603 116.83 43.4927 115.592 44.0258ZM118.032 44.9449C118.771 45.6618 118.716 46.9302 117.902 47.6838C116.424 49.0441 114.224 47.1691 115.204 45.3493C115.536 44.7059 115.943 44.5037 116.793 44.4853C117.385 44.4853 117.699 44.5956 118.032 44.9449Z" fill="black"/>
<path d="M135.557 43.934C135.094 44.1178 134.762 44.6509 134.762 45.2024C134.762 45.7722 135.39 46.2318 136.592 46.5627C137.793 46.8936 138.089 47.2796 137.59 47.8495C137.294 48.162 137.091 48.1987 136 48.1068C134.91 48.0333 134.743 48.07 134.799 48.3274C134.854 48.548 135.131 48.6399 136.056 48.6767C137.609 48.7502 138.034 48.6215 138.329 48.0149C138.847 46.9855 138.348 46.3053 136.777 45.8825C135.594 45.5333 135.279 45.184 135.741 44.7061C135.963 44.5039 136.351 44.4303 137.165 44.4487C137.997 44.4671 138.274 44.412 138.274 44.2281C138.274 43.7686 136.444 43.5847 135.557 43.934Z" fill="black"/>
<path d="M0 46.3234C0 48.5844 0.0184857 48.7131 0.369713 48.7131C0.702455 48.7131 0.739426 48.5844 0.739426 47.6101V46.4888L2.18131 46.544L3.6047 46.5991L3.66016 47.6469C3.69713 48.4006 3.78956 48.7131 3.97442 48.7131C4.28867 48.7131 4.49201 46.9851 4.39959 45.1837C4.36261 44.1359 4.28867 43.9337 4.02987 43.9337C3.75259 43.9337 3.69713 44.0991 3.69713 44.9447V45.9557H2.21828H0.739426V44.9447C0.739426 44.0623 0.702455 43.9337 0.369713 43.9337C0.0184857 43.9337 0 44.0623 0 46.3234Z" fill="black"/>
<path d="M14.418 44.2092C14.418 44.4114 14.6398 44.4849 15.3423 44.4849H16.2665V46.5989C16.2665 48.6026 16.285 48.7129 16.6547 48.7129C17.006 48.7129 17.0244 48.621 16.9875 46.6357L16.9505 44.5769L17.8008 44.5217C18.3184 44.4849 18.6697 44.3563 18.7436 44.1908C18.8176 43.9702 18.4848 43.9335 16.6362 43.9335C14.7877 43.9335 14.418 43.9886 14.418 44.2092Z" fill="black"/>
<path d="M21.2769 45.4962C21.2215 47.2241 21.4803 48.2535 21.9978 48.5292C22.1827 48.6395 22.8852 48.7131 23.5506 48.7131C24.6043 48.7131 24.7707 48.6763 24.7707 48.3822C24.7707 48.0881 24.6413 48.0513 23.7725 48.1248C22.9406 48.1984 22.7188 48.1432 22.386 47.8123C22.1827 47.6101 21.9978 47.2241 21.9978 46.9667C21.9978 46.5256 22.0348 46.5072 23.2918 46.5072C24.3086 46.5072 24.5858 46.452 24.5858 46.2315C24.5858 46.0292 24.2901 45.9557 23.3473 45.919L22.0903 45.8638L22.0348 45.1653L21.9794 44.4851H23.3658C24.4934 44.4851 24.7707 44.43 24.7707 44.2094C24.7707 43.9888 24.4564 43.9337 23.0515 43.9337H21.3324L21.2769 45.4962Z" fill="black"/>
<path d="M27.7285 45.8452C27.7285 47.4813 27.784 47.8122 28.1167 48.2349C28.4679 48.6761 28.6158 48.7129 29.7804 48.7129C30.908 48.7129 31.0559 48.6761 31.0559 48.3636C31.0559 48.0695 30.945 48.0511 30.1501 48.1247C29.6695 48.1614 29.078 48.1063 28.8561 47.996C28.5049 47.7938 28.4679 47.6283 28.4679 45.8636C28.4679 44.0621 28.4495 43.9335 28.0982 43.9335C27.747 43.9335 27.7285 44.0621 27.7285 45.8452Z" fill="black"/>
<path d="M52.9058 45.8822C52.9613 47.7572 52.9797 47.8491 53.4789 48.2719C53.904 48.6212 54.1998 48.7131 55.0871 48.7131C55.9744 48.7131 56.2702 48.6212 56.6954 48.2719C57.1945 47.8491 57.213 47.7572 57.2684 45.8822C57.3424 44.0072 57.3239 43.9337 56.9542 43.9337C56.5844 43.9337 56.566 44.0256 56.566 45.6616C56.566 47.316 56.5475 47.4263 56.0853 47.7756C55.808 47.9962 55.3644 48.1616 55.0871 48.1616C54.8098 48.1616 54.3662 47.9962 54.0889 47.7756C53.6267 47.4263 53.6083 47.316 53.6083 45.6616C53.6083 44.0256 53.5898 43.9337 53.2201 43.9337C52.8503 43.9337 52.8319 44.0072 52.9058 45.8822Z" fill="black"/>
<path d="M60.6328 46.3232C60.6328 48.3269 60.6698 48.7129 60.9101 48.7129C61.1504 48.7129 61.1874 48.3269 61.1874 46.3232C61.1874 44.3195 61.1504 43.9335 60.9101 43.9335C60.6698 43.9335 60.6328 44.3195 60.6328 46.3232Z" fill="black"/>
<path d="M63.959 44.2092C63.959 44.4114 64.1808 44.4849 64.8833 44.4849H65.8075V46.5989C65.8075 48.5842 65.826 48.7129 66.1773 48.7129C66.5285 48.7129 66.547 48.5842 66.547 46.5989V44.4849H67.4713C68.1737 44.4849 68.3955 44.4114 68.3955 44.2092C68.3955 43.9702 68.0258 43.9335 66.1773 43.9335C64.3287 43.9335 63.959 43.9702 63.959 44.2092Z" fill="black"/>
<path d="M70.9844 45.8639C70.9844 47.7021 71.0029 47.8308 71.4465 48.272C71.8532 48.6764 72.0381 48.7315 73.1472 48.6764C74.1454 48.6396 74.4042 48.5661 74.4597 48.3087C74.5151 48.0514 74.3857 48.0146 73.5169 48.1065C72.2044 48.2352 71.7238 47.9779 71.7238 47.1506V46.5256L72.9623 46.4705C73.7387 46.4337 74.2194 46.3234 74.2748 46.1764C74.3303 46.0109 73.9975 45.9558 73.0363 45.9558H71.7238V45.2205V44.4852H73.1102C74.2194 44.4852 74.4966 44.4301 74.4966 44.2095C74.4966 43.9889 74.1824 43.9337 72.7405 43.9337H70.9844V45.8639Z" fill="black"/>
<path d="M95.1973 46.3232C95.1973 48.5842 95.2158 48.7129 95.567 48.7129C95.8812 48.7129 95.9367 48.5842 95.9367 47.7938C95.9367 46.9114 95.9552 46.8747 96.4173 46.9114C96.7501 46.9482 97.1567 47.2423 97.6559 47.8305C98.1735 48.4372 98.5432 48.7129 98.8389 48.7129C99.2826 48.7129 99.2641 48.6945 98.5617 47.8673L97.8407 47.0217L98.2659 46.5805C98.8759 45.9923 98.8759 44.8894 98.2844 44.3379C97.9331 44.007 97.6374 43.9335 96.5282 43.9335H95.1973V46.3232ZM97.6189 44.6688C98.0256 44.8894 98.0995 45.7533 97.7483 46.1026C97.6189 46.2313 97.1752 46.3232 96.7316 46.3232H95.9367V45.4041V44.4849H96.6022C96.9534 44.4849 97.4155 44.5769 97.6189 44.6688Z" fill="black"/>
<path d="M101.707 45.9739C101.781 48.5107 101.929 48.7129 103.907 48.7129C105.034 48.7129 105.182 48.6761 105.182 48.3636C105.182 48.0695 105.071 48.0511 104.258 48.1247C103.075 48.2349 102.409 47.8489 102.409 47.0585V46.507H103.722C104.849 46.507 105.016 46.4702 104.96 46.1945C104.923 45.9371 104.701 45.9004 103.666 45.9371L102.409 45.9739V45.2386V44.4849H103.796C104.905 44.4849 105.182 44.4298 105.182 44.2092C105.182 43.9886 104.868 43.9335 103.407 43.9335H101.633L101.707 45.9739Z" fill="black"/>
<path d="M122.209 46.3232C122.209 48.5474 122.246 48.7129 122.56 48.7129C122.837 48.7129 122.911 48.5474 122.967 47.8305C123.022 47.0769 123.078 46.9666 123.448 46.9482C123.91 46.9298 124.15 47.1136 124.889 48.0879C125.204 48.4923 125.536 48.7129 125.832 48.7129C126.276 48.7129 126.276 48.6945 125.592 47.8857L124.908 47.0401L125.278 46.6357C125.777 46.1026 125.906 45.496 125.666 44.8342C125.407 44.0989 125.019 43.9335 123.503 43.9335H122.209V46.3232ZM124.889 44.9445C125.167 45.3673 125.167 45.4408 124.889 45.8636C124.631 46.2497 124.427 46.3232 123.762 46.3232H122.93V45.4041V44.4849H123.762C124.427 44.4849 124.631 44.5585 124.889 44.9445Z" fill="black"/>
<path d="M128.105 44.2094C128.105 44.4116 128.327 44.4851 129.03 44.4851H129.954V46.5991C129.954 48.5844 129.973 48.7131 130.324 48.7131C130.675 48.7131 130.675 48.6212 130.564 47.077C130.509 46.1763 130.509 45.2388 130.583 44.9631C130.693 44.5403 130.786 44.4851 131.525 44.4851C132.135 44.4851 132.357 44.4116 132.357 44.2094C132.357 43.9888 132.006 43.9337 130.231 43.9337C128.457 43.9337 128.105 43.9888 128.105 44.2094Z" fill="black"/>
<path d="M39.504 48.75C39.4486 49.0809 39.3561 49.5037 39.2822 49.6691C39.1898 49.8897 39.2452 50 39.4301 50C39.8183 50 40.114 49.5772 40.2434 48.8235C40.3359 48.2537 40.2989 48.1618 39.9846 48.1618C39.7074 48.1618 39.578 48.3088 39.504 48.75Z" fill="black"/>
</svg>
