<svg width="76" height="40" viewBox="0 0 76 40" fill="none" xmlns="http://www.w3.org/2000/svg">
<g clip-path="url(#clip0_118_109)">
<path d="M0.0311469 1.52988C-0.0204383 2.5269 -0.00324319 3.91259 0.048342 4.60544C0.220293 6.48119 0.203098 6.48119 4.20955 6.48119H7.45941V3.62531C7.45941 0.837035 7.44222 0.735643 7.04673 0.27938L6.63405 -0.193783L3.36699 -0.244479L0.117122 -0.295175L0.0311469 1.52988Z" fill="black"/>
<path d="M13.3066 18.8341V37.9465L13.7881 38.4027C14.6994 39.3153 18.5167 40.0926 22.7811 40.2278C26.9939 40.3799 29.4184 39.9743 32.1352 38.6731C37.2594 36.2397 39.6151 30.8152 39.0992 22.6532C38.7897 17.8371 37.7924 14.9981 35.6774 12.852C33.9751 11.1114 32.2384 10.3848 29.47 10.2496C27.974 10.1651 27.4066 10.2158 26.2029 10.5199C24.4662 10.9424 22.9187 11.6522 21.7494 12.5647C21.268 12.9365 20.8553 13.2406 20.8037 13.2406C20.7693 13.2406 20.7521 10.4862 20.7521 7.10642C20.7693 3.74359 20.7177 0.820118 20.6489 0.600433C20.3566 -0.143105 19.7548 -0.278294 16.4018 -0.278294H13.3066V18.8341ZM28.4555 16.3838C29.8483 17.0766 30.966 19.2735 31.3615 22.0786C31.585 23.7685 31.585 27.1989 31.3615 28.6184C30.6221 33.1473 28.1804 35.1244 23.6409 34.8202C22.8327 34.7695 21.8526 34.6174 21.4743 34.4991L20.7865 34.2795L20.7349 26.6751C20.7177 22.4842 20.7349 18.9017 20.7865 18.682C20.9069 18.175 22.7123 16.8907 23.7956 16.5359C25.6011 15.9444 27.4582 15.8768 28.4555 16.3838Z" fill="black"/>
<path d="M43.5693 2.66184C43.5693 6.68372 43.2598 6.37954 47.5929 6.44714L50.9632 6.49783V3.60816V0.701595L50.4645 0.211534L49.9659 -0.278527H46.7676H43.5693V2.66184Z" fill="black"/>
<path d="M63.7751 10.3003C58.4446 11.0438 55.6074 13.9166 55.6074 18.5637C55.6074 20.5071 56.0201 21.9266 57.0002 23.3629C58.1523 25.0528 59.5795 25.9653 64.7208 28.3142C67.2485 29.4634 68.1598 30.4097 68.1598 31.863C68.1598 32.8769 67.644 33.6373 66.6466 34.0767C65.1163 34.7526 61.2474 34.6512 57.4129 33.8401C56.5703 33.6711 55.8482 33.519 55.8138 33.519C55.7794 33.519 55.7794 34.5499 55.8138 35.8004C55.8653 38.0648 55.8653 38.0817 56.3812 38.5886C57.774 39.9574 64.8928 40.5658 68.5553 39.6195C73.5419 38.3352 76.2415 34.1443 75.1926 29.2606C74.436 25.7288 72.2522 23.7685 66.2168 21.183C64.205 20.3212 63.2592 19.679 62.8809 18.9186C62.623 18.3609 62.623 18.3102 63.0185 17.5329C63.2936 16.9752 63.6375 16.6204 64.0502 16.4176C65.3914 15.7416 68.8648 15.8599 72.3898 16.688L74.0061 17.0766V14.9305C74.0061 12.2943 73.7998 11.855 72.2866 11.348C69.9825 10.5876 65.5978 10.0468 63.7751 10.3003Z" fill="black"/>
<path d="M-0.105448 24.6472C-0.105448 39.6532 -0.122643 39.4166 0.84028 39.7715C1.09821 39.8729 2.68015 39.9405 4.38246 39.9405H7.46038V25.9991C7.46038 11.1959 7.46038 11.2804 6.6866 10.9762C6.53184 10.9255 4.9327 10.8748 3.14442 10.8748H-0.105448V24.6472Z" fill="black"/>
<path d="M43.5703 24.7652C43.5703 32.4203 43.6219 38.8418 43.6735 39.0615C43.8798 39.805 44.4988 39.9402 47.8691 39.9402H50.9642L50.9298 25.7284L50.8782 11.5167L50.4655 11.1956C50.1044 10.9083 49.7605 10.8745 46.8202 10.8745H43.5703V24.7652Z" fill="black"/>
</g>
<defs>
<clipPath id="clip0_118_109">
<rect width="75.102" height="40" fill="white"/>
</clipPath>
</defs>
</svg>
