<svg width="60" height="50" viewBox="0 0 60 50" fill="none" xmlns="http://www.w3.org/2000/svg">
<path d="M25.819 0.235872C22.6862 0.839378 19.6545 3.3037 18.1639 6.42181C17.406 8.03116 17.3555 8.30777 17.3555 10.8978C17.3807 13.161 17.4818 13.9153 17.9365 15.0469C19.0482 17.8381 21.5241 20.2773 24.3031 21.3837C25.4147 21.8364 26.2232 21.9369 28.3454 21.9369C30.897 21.9621 31.0739 21.9118 32.9687 21.0317C39.9669 17.7124 41.6848 8.91127 36.4046 3.35399C33.8277 0.638208 29.8107 -0.543657 25.819 0.235872ZM31.5792 4.08322C33.0192 4.81246 34.2824 6.17035 34.9898 7.70426C35.672 9.28846 35.6467 12.5826 34.914 14.2422C33.7772 16.8071 31.0234 18.668 28.3454 18.668C25.6926 18.668 22.863 16.7569 21.7767 14.2422C21.044 12.5323 20.9935 9.31361 21.7009 7.72941C22.6357 5.61714 24.48 4.03293 26.7032 3.45457C27.9664 3.12767 30.2654 3.42943 31.5792 4.08322Z" fill="black"/>
<path d="M47.4721 0.211208C44.693 0.9153 43.2782 2.39892 42.874 5.01411C42.6214 6.74919 43.1014 8.20767 44.4151 9.43983C45.3499 10.3451 45.4509 10.5211 45.0467 10.6468C44.1877 10.8983 42.5456 12.9351 42.2424 14.0919C41.6613 16.2041 42.3434 18.5679 44.0614 20.3029C46.5626 22.8427 51.767 23.0187 54.4197 20.6298C56.0619 19.1714 56.6429 17.6375 56.6429 14.8462V12.5328H58.0325H59.422V10.7726V9.01234H58.0325H56.6429V7.62931V6.24627H54.7481H52.8533V7.62931V9.01234H50.9585C48.1542 9.01234 46.7899 8.13223 46.7899 6.29656C46.7899 4.38546 48.1037 3.22874 50.2764 3.22874H51.4891L51.9438 1.82056C52.1965 1.04103 52.3228 0.336939 52.2217 0.261501C51.9691 -0.0151062 48.5079 -0.0402527 47.4721 0.211208ZM52.8028 14.117C52.9039 16.4304 52.247 17.8386 50.8069 18.417C49.569 18.9199 48.7858 18.9199 47.6742 18.4673C45.9562 17.738 45.2741 15.5 46.2847 13.8404C47.0173 12.6334 48.0531 12.2813 50.5796 12.3568L52.727 12.4071L52.8028 14.117Z" fill="black"/>
<path d="M4.34543 2.09671V3.73121H6.99817H9.6509V9.74113C9.6509 13.0353 9.57511 16.0779 9.49931 16.5306C9.27194 17.5867 8.36243 18.492 7.30133 18.6931C5.53285 19.02 4.11805 17.7124 3.89068 15.575L3.76436 14.2926H1.89481H0L0.101057 15.9774C0.202113 17.9136 0.707396 19.1206 1.86955 20.3025C3.25907 21.7107 4.47175 22.1884 6.74552 22.1884C8.53928 22.2136 8.91824 22.113 10.1309 21.4592C10.8636 21.0569 11.7731 20.3528 12.1015 19.9002C13.3647 18.2657 13.4153 17.7627 13.4405 8.81072V0.462215H8.89298H4.34543V2.09671Z" fill="black"/>
<path d="M47.5469 27.9973C45.9805 28.5002 44.692 29.6318 43.9088 31.1908L43.252 32.4984V40.9978V49.4972H47.9258H52.5997V47.8627V46.2282H49.8206H47.0416V39.9417C47.0416 32.7247 47.1679 32.1464 48.709 31.4926C50.7554 30.6376 52.4228 31.7943 52.726 34.2838L52.9029 35.6668H54.7977H56.7177L56.5914 33.9569C56.4146 31.392 55.1514 29.4306 53.0292 28.3242C51.7407 27.6704 49.0374 27.5195 47.5469 27.9973Z" fill="black"/>
<path d="M25.1615 28.3242C20.3613 29.7575 17.2285 34.0072 17.2285 39.0867C17.2285 45.3229 22.0034 50.0001 28.37 50.0001C32.9175 50.0001 36.4545 47.7872 38.4251 43.7136C39.3094 41.9031 39.3346 41.727 39.3094 39.0615C39.3094 36.7733 39.2083 36.044 38.7283 34.9124C37.5156 31.9703 35.0397 29.5815 32.2101 28.5756C30.1385 27.8464 27.1321 27.7458 25.1615 28.3242ZM31.3764 32.0206C32.8418 32.775 34.2565 34.2335 34.9134 35.7171C35.6461 37.4019 35.6713 40.696 34.9134 42.3808C32.3617 48.1393 24.3025 48.1141 21.7508 42.3305C21.0687 40.7966 21.0181 38.0306 21.6497 36.1949C22.4329 33.8312 24.7067 31.9201 27.3594 31.4171C28.7742 31.1405 29.9616 31.3165 31.3764 32.0206Z" fill="black"/>
<path d="M0.0488281 29.7575V31.392H4.84901H9.6492V34.2838V37.1756H5.9859H2.3226V38.8101V40.4194L5.93537 40.4949L9.52288 40.5703L9.59867 43.3867L9.67446 46.2282H5.10166H0.554111V47.8627V49.4972H6.99647H13.4388V38.8101V28.123H6.74382H0.0488281V29.7575Z" fill="black"/>
</svg>
