<svg width="146" height="40" viewBox="0 0 146 40" fill="none" xmlns="http://www.w3.org/2000/svg">
<path d="M31.9559 0.184803C31.4005 0.477899 31.1074 0.986959 31.1074 1.63485C31.1074 2.37531 31.4931 2.94607 32.1718 3.23917C33.1745 3.64025 34.3469 2.82266 34.3469 1.71199C34.3469 0.817272 33.6219 -0.000309944 32.8197 -0.000309944C32.5112 -0.000309944 32.1255 0.0922465 31.9559 0.184803Z" fill="black"/>
<path d="M38.776 0.308773C38.3132 0.678999 37.9893 1.54286 38.1281 2.03649C38.2978 2.56098 38.9611 3.20888 39.4393 3.31686C40.3649 3.5174 41.4447 2.63811 41.4447 1.69712C41.4447 1.24976 41.0437 0.524738 40.6426 0.247069C40.1644 -0.0923049 39.2542 -0.0614529 38.776 0.308773Z" fill="black"/>
<path d="M6.68762 2.96184C6.48708 3.57888 5.70035 5.86194 4.97532 8.02159C4.23487 10.1812 3.35559 12.7111 3.03164 13.6521C2.70769 14.5777 1.92096 16.8453 1.28849 18.6656C0.656022 20.4859 0.100683 22.1056 0.0389787 22.2444C-0.0690039 22.4913 0.00812649 22.5221 0.77943 22.5221C1.73585 22.5221 2.78482 22.121 3.30931 21.5503C3.64868 21.18 4.20402 19.6529 6.13228 13.6984C6.84188 11.5079 7.48978 9.74931 7.58233 9.76474C7.65946 9.79559 9.09409 12.7265 10.7755 16.29C12.457 19.838 13.8762 22.7689 13.9533 22.7998C14.015 22.8152 15.1411 20.563 16.4523 17.7863C19.5067 11.2765 20.3243 9.5642 20.386 9.5642C20.4168 9.5642 21.2807 12.1249 22.3142 15.2719C24.3351 21.4423 24.4739 21.72 25.6771 22.229C26.2942 22.5067 27.8676 22.6455 27.8676 22.4296C27.8676 22.3833 27.6671 21.7354 27.4203 20.9949C26.9266 19.5912 24.3042 11.9244 23.1472 8.56151C22.7616 7.45083 22.0983 5.49172 21.6663 4.19592C21.2344 2.91556 20.8179 1.85116 20.7408 1.85116C20.6636 1.85116 20.494 2.11341 20.3551 2.42193C20.2317 2.74587 19.4141 4.5353 18.5348 6.40186C17.671 8.26841 16.3135 11.1994 15.5268 12.9117C14.74 14.6394 14.0304 16.0432 13.9533 16.0432C13.8916 16.0432 13.7682 15.8889 13.6911 15.6884C13.6139 15.5032 13.1357 14.4543 12.6112 13.3744C12.0867 12.2792 11.6702 11.3691 11.6702 11.3382C11.6702 11.3073 10.9144 9.65676 9.9888 7.68222C9.07866 5.70768 8.09139 3.57888 7.81372 2.96184C7.53605 2.36022 7.25838 1.85116 7.19668 1.85116C7.13498 1.85116 6.90358 2.36022 6.68762 2.96184Z" fill="black"/>
<path d="M120.981 5.33758C117.356 6.21687 115.026 9.20953 114.78 13.3437C114.548 16.8609 116.183 20.27 118.806 21.7355C120.256 22.5685 121.104 22.7536 123.202 22.7536C125.238 22.7536 126.01 22.5839 127.521 21.8281C128.308 21.427 129.527 20.4243 129.527 20.1775C129.527 19.9924 128.108 18.2029 127.969 18.2029C127.923 18.2029 127.568 18.4343 127.198 18.712C126.287 19.4062 124.853 20.0078 123.804 20.1312C122.77 20.2546 121.305 19.9307 120.318 19.3445C118.374 18.2184 117.248 14.948 117.865 12.2947C118.528 9.50263 120.21 7.92917 122.755 7.74405C124.159 7.6515 125.578 8.09885 126.827 9.03984C127.336 9.41007 127.815 9.71859 127.907 9.71859C128 9.71859 128.447 9.33294 128.91 8.85473L129.758 7.99087L128.91 7.23499C127.938 6.35571 126.287 5.50727 125.084 5.26045C123.989 5.02906 122.092 5.05992 120.981 5.33758Z" fill="black"/>
<path d="M34.7028 5.39951C32.1884 5.90857 30.3218 7.28149 29.2574 9.47199C28.5941 10.8141 28.3164 12.1561 28.3164 13.961C28.3164 19.283 31.5713 22.6767 36.6619 22.6767C41.5828 22.6613 44.776 19.6224 45.1 14.578C45.3314 10.9992 43.7579 7.69799 41.1509 6.27879C39.5312 5.39951 36.7082 5.01385 34.7028 5.39951ZM39.053 8.31504C40.1482 8.79325 41.0121 9.71881 41.6137 11.0146C42.5855 13.0971 42.3696 15.9509 41.1046 17.8175C40.4413 18.7893 39.7009 19.3601 38.621 19.7458C36.3071 20.5633 33.5613 19.7612 32.3426 17.9255C30.0904 14.5163 31.1548 9.51827 34.4251 8.26876C35.3816 7.91396 35.5667 7.88311 36.9704 7.92939C37.9269 7.96024 38.4822 8.05279 39.053 8.31504Z" fill="black"/>
<path d="M76.955 13.8376L77.0012 22.4454L78.4359 22.4916L79.8551 22.5379V17.3548C79.8551 14.5164 79.9013 12.187 79.9785 12.187C80.0402 12.187 82.4775 14.5781 85.4085 17.509C88.3394 20.44 90.7767 22.831 90.8384 22.831C90.9156 22.831 90.9618 18.9128 90.9618 14.1153V5.39954H89.4964H88.0309V10.5673C88.0309 13.4057 87.9846 15.735 87.9229 15.735C87.8766 15.735 86.4729 14.393 84.8068 12.7424C80.287 8.28422 77.2326 5.32241 77.0629 5.27614C76.9704 5.24528 76.9395 8.50019 76.955 13.8376Z" fill="black"/>
<path d="M45.3624 5.66154C45.9178 7.18872 52.9521 22.6765 53.06 22.6302C53.1526 22.5994 53.6462 21.6121 54.1707 20.4243C58.8448 9.94999 60.2023 6.91105 60.5108 6.26316C60.7114 5.83123 60.8811 5.47643 60.8811 5.44558C60.8811 5.41472 60.1715 5.41472 59.3076 5.43015L57.7341 5.47643L57.4102 6.32486C57.0863 7.12702 56.3612 8.90102 54.5564 13.2666C54.1244 14.331 53.6154 15.5651 53.4457 16.0124C53.276 16.4752 53.0755 16.7837 52.9983 16.7066C52.9366 16.6449 52.0265 14.5315 50.9929 12.0325C49.9594 9.53349 48.9259 7.03446 48.7099 6.47912L48.278 5.47643L46.7816 5.43015C45.3779 5.38387 45.2699 5.41472 45.3624 5.66154Z" fill="black"/>
<path d="M62.7285 13.9609V22.5224H68.4362H74.1438V21.2883V20.0542H69.9942C66.6467 20.0542 65.8137 20.008 65.6749 19.8383C65.5515 19.6995 65.5052 18.959 65.5361 17.5707L65.5823 15.5036L68.8989 15.4264L72.2156 15.3493L72.2618 14.0844L72.3081 12.804L68.9452 12.7731L65.5823 12.7269V10.4129V8.09904L69.8245 8.02191L74.0667 7.94478L74.113 6.66441L74.1592 5.39947H68.4362H62.7285V13.9609Z" fill="black"/>
<path d="M94.2012 13.9455V22.5224H95.6666H97.1321V19.4526V16.3828L99.6466 16.3211C101.914 16.2749 102.238 16.2286 103.117 15.8584C105.539 14.8557 107.005 12.3566 106.573 9.98102C106.311 8.6081 105.678 7.46657 104.737 6.69526C103.411 5.61544 102.886 5.50746 98.2582 5.44575L94.2012 5.38405V13.9455ZM102.377 8.34586C103.627 9.0246 104.12 10.706 103.472 12.1098C102.871 13.4365 102.13 13.7141 99.2609 13.7296H97.1321V10.9066C97.1321 9.34855 97.1784 8.02191 97.2555 7.9602C97.3172 7.88307 98.3354 7.86765 99.5232 7.8985C101.467 7.9602 101.76 8.00648 102.377 8.34586Z" fill="black"/>
<path d="M109.162 13.9607V22.5221H110.55H111.939V13.9607V5.39918H110.55H109.162V13.9607Z" fill="black"/>
<path d="M132.148 13.9611V22.5226H133.614H135.079V18.8821C135.079 16.7224 135.141 15.2724 135.218 15.3032C135.342 15.3341 139.337 19.53 141.635 22.029L142.114 22.538L143.903 22.4918L145.708 22.4455L143.826 20.5172C142.792 19.4528 140.88 17.4783 139.584 16.1208L137.239 13.6835L138.581 12.2951C139.337 11.5238 140.108 10.7217 140.324 10.5057C140.54 10.2743 141.697 9.07108 142.916 7.83699C144.119 6.58748 145.106 5.53851 145.106 5.49223C145.106 5.44595 144.32 5.39967 143.363 5.39967H141.605L139.229 7.8987C135.743 11.5701 135.295 12.0329 135.187 12.0329C135.126 12.0329 135.079 10.5366 135.079 8.71628V5.39967H133.614H132.148V13.9611Z" fill="black"/>
<path d="M45.3763 32.4412C44.8981 32.6571 44.5279 33.2433 44.5279 33.7678C44.5279 34.1689 44.929 35.079 45.2066 35.3259C45.4226 35.4955 45.3917 35.5881 44.9135 36.128C44.0188 37.1153 43.8183 38.0408 44.3273 38.8893C44.6204 39.3829 45.6386 39.9537 46.2402 39.9537C46.8572 39.9537 48.153 39.5218 48.6004 39.167L49.0169 38.843L49.711 39.4138L50.4206 40L50.7446 39.6606L51.084 39.3058L50.7137 39.059C49.6493 38.3339 49.6802 38.4265 50.143 37.3004C50.3589 36.7296 50.5441 36.02 50.5441 35.7269C50.5441 35.2487 50.4978 35.1716 50.1738 35.1716C49.8499 35.1716 49.7882 35.2642 49.6956 35.8195C49.5568 36.6679 49.1711 37.6398 48.9706 37.6398C48.7855 37.6398 46.8418 35.912 46.8418 35.7578C46.8418 35.6961 47.0886 35.3259 47.3817 34.9248C48.0605 34.0455 48.1222 33.2433 47.5514 32.7189C47.0886 32.2715 46.0242 32.1481 45.3763 32.4412ZM46.7184 33.0428C47.1812 33.3976 47.1349 34.0763 46.6104 34.6625L46.2248 35.0945L45.8391 34.6317C45.3917 34.0918 45.3455 33.5364 45.7157 33.1354C46.0088 32.8114 46.379 32.7806 46.7184 33.0428ZM47.1812 37.3158C47.8136 37.9329 48.2301 38.4419 48.1684 38.5345C48.1067 38.6425 47.6902 38.8276 47.2275 38.951C46.5024 39.167 46.3482 39.167 45.87 38.9664C45.2529 38.7196 44.9907 38.3339 44.9907 37.6552C44.9907 37.2078 45.6386 36.2514 45.9471 36.2514C46.0242 36.2514 46.5796 36.7296 47.1812 37.3158Z" fill="black"/>
<path d="M10.6206 32.9038C10.3275 32.9964 9.80297 33.3512 9.43275 33.706C8.92368 34.2151 8.73857 34.539 8.59974 35.1561C8.22951 36.8992 8.55346 38.411 9.44817 39.1514C11.6541 40.9717 14.7393 39.3211 14.7547 36.3284C14.7547 35.8194 14.6776 35.1406 14.5851 34.8167C14.1531 33.2432 12.3174 32.3639 10.6206 32.9038ZM12.9807 34.1225C13.3972 34.5236 13.5515 34.8167 13.6749 35.48C14.0606 37.5317 13.1659 39.028 11.5461 39.028C9.92638 39.028 8.90826 37.0072 9.57158 35.1252C9.97266 34.0145 10.4971 33.6597 11.7158 33.6443C12.3328 33.6289 12.5334 33.706 12.9807 34.1225Z" fill="black"/>
<path d="M35.78 32.8883C34.6231 33.2739 34.0369 34.616 34.6076 35.5416C34.7928 35.8347 35.3481 36.2357 36.1194 36.6214C37.0758 37.115 37.3689 37.331 37.3998 37.6241C37.554 38.6885 36.9061 39.1358 35.4098 38.9661L34.4842 38.8736L34.5305 39.3055C34.5768 39.6603 34.6693 39.7375 35.271 39.8609C36.212 40.0305 37.1529 39.7683 37.8625 39.105C38.3716 38.6422 38.4333 38.5034 38.4333 37.8246C38.4333 36.8373 38.1556 36.5134 36.7056 35.8655C36.0885 35.5724 35.5332 35.2022 35.4252 35.0171C34.9624 34.1378 35.9034 33.3665 37.1838 33.5516C37.77 33.6442 37.8625 33.6133 37.9397 33.3356C37.986 33.1505 37.9551 32.9808 37.878 32.9346C37.6003 32.7494 36.2582 32.7186 35.78 32.8883Z" fill="black"/>
<path d="M71.2916 32.8733C70.3969 33.151 69.8262 33.876 69.8262 34.7245C69.8262 35.5112 70.2735 35.9894 71.5385 36.5756C72.1247 36.8533 72.68 37.1927 72.7726 37.3469C73.0348 37.856 72.9268 38.3805 72.4949 38.7198C72.1092 39.0284 71.9395 39.0592 71.0294 38.9821C70.1038 38.9049 69.9804 38.9204 69.9033 39.198C69.7645 39.6454 69.9033 39.7534 70.7363 39.8768C72.8188 40.1545 74.4848 38.5964 73.729 37.0538C73.4976 36.591 73.2199 36.3751 72.2635 35.9123C71.6156 35.6038 70.9986 35.1873 70.906 35.0176C70.4278 34.1383 71.3842 33.367 72.6954 33.5675C73.3433 33.6601 73.3742 33.6447 73.3742 33.2744C73.3742 33.0122 73.2662 32.8733 73.0348 32.7962C72.5566 32.6728 71.847 32.7037 71.2916 32.8733Z" fill="black"/>
<path d="M78.4508 32.8421C76.8928 33.3203 76.0135 34.6007 75.998 36.4056C75.998 37.6088 76.4917 38.812 77.1859 39.3057C77.8183 39.753 78.8982 40.0153 79.5769 39.8919C80.3791 39.7376 81.5514 38.8892 81.9217 38.1796C82.3382 37.3774 82.369 35.0481 81.9679 34.3076C81.32 33.0735 79.7929 32.4411 78.4508 32.8421ZM80.3019 33.8603C80.8418 34.1379 81.3972 35.372 81.3818 36.2821C81.3818 37.1769 80.9498 38.2413 80.4408 38.6115C80.2094 38.7812 79.7003 38.9509 79.2838 38.9817C78.3582 39.0588 77.6178 38.6423 77.2938 37.871C77.0162 37.1923 77.0162 35.4646 77.2938 34.7858C77.7258 33.7677 79.2375 33.3049 80.3019 33.8603Z" fill="black"/>
<path d="M98.6735 32.8581C97.8867 33.0432 97.1309 33.9379 97.1309 34.6938C97.1309 35.5268 97.5319 35.9587 98.8894 36.6066C99.7841 37.0385 100.077 37.2545 100.154 37.5476C100.417 38.6274 99.7379 39.1365 98.2261 38.9822C97.3468 38.8896 97.316 38.8896 97.2388 39.2753C97.1617 39.7227 97.1771 39.7381 98.0719 39.8769C100.124 40.1854 101.882 38.4577 101.034 36.9922C100.833 36.622 100.417 36.3289 99.5682 35.9124C98.9203 35.6039 98.3032 35.2028 98.2107 35.0331C97.7479 34.1538 98.7043 33.3671 99.9693 33.5522C100.555 33.6448 100.648 33.6139 100.725 33.3208C100.864 32.7809 99.9384 32.565 98.6735 32.8581Z" fill="black"/>
<path d="M0.564453 36.3442V39.8151L0.996383 39.7688L1.41289 39.7225L1.45917 38.1336L1.50544 36.5602H3.26402H5.03802V38.1799V39.7996H5.5008H5.96358V36.3288V32.8579H5.5008H5.03802V34.3234V35.7888H3.26402H1.49002V34.3234V32.8579H1.02724H0.564453V36.3442Z" fill="black"/>
<path d="M16.1445 33.228C16.1445 33.5982 16.1908 33.6136 17.1164 33.6599L18.0728 33.7062L18.1191 36.7605L18.1499 39.8149L18.5819 39.7686L18.9984 39.7223L19.0292 36.8685C19.0446 35.2951 19.0601 33.9376 19.0755 33.8296C19.0755 33.7062 19.4149 33.629 20.0473 33.5982C20.8803 33.5519 21.0037 33.5211 21.0037 33.2434C21.0037 32.9503 20.8803 32.9349 18.5819 32.8886L16.1445 32.8423V33.228Z" fill="black"/>
<path d="M23.1148 36.2823L23.1611 39.7223L24.9043 39.7686L26.632 39.8149V39.4293C26.632 39.0436 26.6011 39.0436 25.367 38.9973L24.0867 38.951L24.0404 37.7478L23.9941 36.56H25.2436C26.4623 36.56 26.4931 36.5446 26.4469 36.2052C26.4006 35.8967 26.308 35.8658 25.2128 35.8195L24.0095 35.7733V34.7089V33.629H25.3208C26.6166 33.629 26.632 33.629 26.632 33.2434V32.8577H24.858H23.084L23.1148 36.2823Z" fill="black"/>
<path d="M29.4121 36.3291V39.8154L31.0781 39.7691C32.6516 39.7228 32.7287 39.7074 32.775 39.3835C32.8213 39.0595 32.7596 39.0441 31.5409 38.9978L30.2605 38.9515L30.2297 35.9434L30.1988 32.9354L29.7978 32.8891L29.4121 32.8428V36.3291Z" fill="black"/>
<path d="M57.0215 36.3445V39.8154L57.4534 39.7691L57.8699 39.7228L57.947 38.1802L58.0242 36.6376L58.888 37.7946C59.3508 38.427 59.8599 39.1366 60.0141 39.368C60.2301 39.7074 60.4152 39.8 60.8163 39.8C61.1094 39.8 61.3408 39.7537 61.3408 39.692C61.3408 39.6457 60.8626 38.9515 60.261 38.1802C59.6748 37.4089 59.1811 36.6993 59.1811 36.6068C59.1811 36.5142 59.4125 36.3908 59.6902 36.3445C60.4152 36.2057 60.8934 35.6349 60.986 34.8173C61.1402 33.429 60.3844 32.8582 58.379 32.8582H57.0215V36.3445ZM59.7056 33.8764C60.0913 34.2466 60.153 34.7865 59.8907 35.311C59.6439 35.7892 59.3508 35.928 58.487 35.9897L58.0242 36.0206L57.9779 34.8173L57.9316 33.6295H58.7029C59.1966 33.6295 59.5514 33.7221 59.7056 33.8764Z" fill="black"/>
<path d="M63.9629 36.1748C63.9629 37.9951 63.9629 39.5377 63.9629 39.5994C63.9629 39.6766 64.7188 39.7383 65.6598 39.7691L67.3566 39.8154V39.4297C67.3566 39.0441 67.3258 39.0441 66.0917 38.9978L64.8113 38.9515V37.7946V36.6376L66.0454 36.5605C67.1561 36.4988 67.2795 36.4525 67.2795 36.1748C67.2795 35.8972 67.1715 35.8663 66.1997 35.8355C65.6135 35.82 65.0273 35.8046 64.9193 35.8046C64.765 35.7892 64.7342 35.5115 64.765 34.7402L64.8113 33.7067L66.0917 33.6604C67.3258 33.6141 67.3566 33.6141 67.3566 33.2439V32.8582H65.6598H63.9629V36.1748Z" fill="black"/>
<path d="M84.791 36.3286V39.7995H85.2538H85.7166V38.2569C85.7166 37.4084 85.7629 36.7142 85.84 36.7297C85.9017 36.7297 86.457 37.4238 87.0741 38.2723C88.0459 39.6143 88.2465 39.7995 88.6475 39.7995C88.9098 39.7995 89.1103 39.7378 89.1103 39.6606C89.1103 39.5372 88.7247 38.9973 87.5677 37.5318C86.9044 36.7142 86.8735 36.4057 87.4443 36.4057C87.614 36.4057 87.9842 36.1743 88.2773 35.8812C88.7247 35.4339 88.8018 35.2642 88.8018 34.6009C88.7864 33.2588 88.1539 32.8577 86.0868 32.8577H84.791V36.3286ZM87.5677 33.9376C88.231 34.6009 87.8145 35.6653 86.8118 35.9429C85.84 36.2052 85.7166 36.0818 85.7166 34.7706V33.629H86.4879C87.0586 33.629 87.3363 33.7062 87.5677 33.9376Z" fill="black"/>
<path d="M90.6523 33.2283C90.6523 33.5985 90.6986 33.6139 91.6242 33.6602L92.5806 33.7065L92.6269 36.7454L92.6577 39.7998H93.0434H93.429L93.4599 36.7454L93.5062 33.7065L94.5089 33.6293C95.3882 33.5676 95.5116 33.5059 95.5116 33.2437C95.5116 32.9506 95.3882 32.9352 93.0897 32.8889L90.6523 32.8426V33.2283Z" fill="black"/>
</svg>
