<svg width="111" height="51" viewBox="0 0 111 51" fill="none" xmlns="http://www.w3.org/2000/svg">
<path d="M55.5835 27.4903V37.3025H43.4127V27.4903H40.1542V50.5892H43.4127V40.1033H55.5835V50.5892H58.8419V27.4903H55.5835Z" fill="black"/>
<path d="M109.136 7.11106C109.543 6.70559 109.543 6.05685 109.136 5.65139C108.73 5.24593 108.079 5.24593 107.673 5.65139C107.273 6.05062 107.273 6.7056 107.673 7.10482C108.079 7.51028 108.73 7.51028 109.13 7.10482" fill="black"/>
<path d="M104.426 7.17959C104.019 6.77413 103.363 6.78037 102.963 7.17959C102.556 7.58506 102.556 8.2338 102.963 8.63926C103.369 9.04472 104.019 9.04472 104.426 8.63926C104.826 8.24004 104.833 7.58506 104.426 7.17959Z" fill="black"/>
<path d="M107.561 10.3111C107.16 9.9119 106.497 9.9119 106.097 10.3111C105.691 10.7166 105.697 11.3716 106.097 11.7708C106.504 12.1763 107.154 12.1763 107.561 11.7708C107.961 11.3716 107.967 10.7166 107.561 10.3111Z" fill="black"/>
<path d="M101.289 5.50813C101.689 5.1089 101.689 4.44769 101.289 4.04846C100.883 3.643 100.226 3.64924 99.8256 4.04846C99.4191 4.45392 99.4191 5.10266 99.8256 5.50813C100.226 5.90735 100.883 5.91359 101.289 5.50813Z" fill="black"/>
<path d="M110.7 13.4425C110.293 13.037 109.637 13.0432 109.236 13.4425C108.83 13.8479 108.83 14.4967 109.236 14.9021C109.637 15.3014 110.293 15.3076 110.7 14.9021C111.1 14.5029 111.1 13.8417 110.7 13.4425Z" fill="black"/>
<path d="M98.1475 2.38287C98.5478 1.98365 98.5478 1.32243 98.1475 0.923209C97.7473 0.523984 97.0843 0.523984 96.684 0.923209C96.2838 1.32243 96.2838 1.98365 96.684 2.38287C97.0906 2.78834 97.7473 2.78834 98.1538 2.38287" fill="black"/>
<path d="M104.475 14.9209C104.068 15.3264 104.075 15.9814 104.475 16.3806C104.881 16.7861 105.532 16.7861 105.938 16.3806C106.345 15.9751 106.345 15.3264 105.938 14.9209C105.538 14.5217 104.881 14.5155 104.475 14.9209Z" fill="black"/>
<path d="M98.2939 10.2114C98.6942 10.6106 99.3509 10.6169 99.7574 10.2114C100.164 9.80595 100.158 9.15098 99.7574 8.75176C99.3509 8.3463 98.6942 8.3463 98.2939 8.75176C97.8874 9.15722 97.8937 9.81219 98.2939 10.2114Z" fill="black"/>
<path d="M101.382 11.8332C100.975 12.2387 100.982 12.8937 101.382 13.2992C101.782 13.6984 102.439 13.6984 102.845 13.2992C103.252 12.8937 103.252 12.245 102.845 11.8457C102.439 11.4403 101.782 11.4403 101.382 11.8457" fill="black"/>
<path d="M96.6668 7.12994C97.0734 6.72448 97.0671 6.0695 96.6668 5.67027C96.2603 5.26481 95.6099 5.26481 95.2033 5.67027C94.7968 6.07574 94.7968 6.72448 95.2033 7.12994C95.6036 7.52917 96.2603 7.5354 96.6668 7.12994Z" fill="black"/>
<path d="M93.5432 10.2427C93.9435 9.84343 93.9435 9.18845 93.5432 8.78922C93.1367 8.38376 92.4863 8.38376 92.086 8.78922C91.6795 9.19469 91.6795 9.84344 92.086 10.2489C92.4863 10.6481 93.143 10.6544 93.5495 10.2489" fill="black"/>
<path d="M96.6328 11.8706C96.2263 11.4651 95.5696 11.4651 95.1693 11.8643C94.7691 12.2636 94.7691 12.9248 95.1693 13.3302C95.5696 13.7295 96.2263 13.7357 96.6328 13.3302C97.0393 12.9248 97.0331 12.276 96.6328 11.8768" fill="black"/>
<path d="M101.358 18.0336C100.951 18.4391 100.957 19.0941 101.358 19.4933C101.764 19.8988 102.414 19.8988 102.821 19.4933C103.221 19.0941 103.221 18.4391 102.821 18.0399C102.421 17.6406 101.764 17.6344 101.364 18.0399" fill="black"/>
<path d="M99.7232 14.9521C99.3167 14.5466 98.66 14.5466 98.2597 14.9458C97.8532 15.3513 97.8595 16.0063 98.2597 16.4117C98.66 16.8109 99.3167 16.8109 99.7232 16.4117C100.123 16.0125 100.123 15.3575 99.7232 14.9583" fill="black"/>
<path d="M99.8745 22.7809C99.468 23.1864 99.468 23.8351 99.8745 24.2406C100.275 24.6398 100.931 24.6461 101.338 24.2406C101.744 23.8351 101.738 23.1802 101.338 22.7809C100.931 22.3755 100.281 22.3755 99.8745 22.7809Z" fill="black"/>
<path d="M96.7352 19.6493C96.3287 20.0548 96.335 20.7097 96.7352 21.109C97.1418 21.5144 97.7922 21.5144 98.1987 21.109C98.6053 20.7035 98.6053 20.0548 98.1987 19.6493C97.7985 19.2501 97.1418 19.2438 96.7352 19.6493Z" fill="black"/>
<path d="M88.7783 10.2614C88.378 9.86216 87.7213 9.85592 87.3148 10.2614C86.9083 10.6668 86.9145 11.3218 87.3148 11.721C87.7213 12.1265 88.378 12.1265 88.7783 11.721C89.1848 11.3156 89.1785 10.6606 88.7783 10.2551" fill="black"/>
<path d="M91.9175 13.3927C91.511 12.9873 90.8605 12.9873 90.454 13.3927C90.0475 13.7982 90.0475 14.4469 90.454 14.8524C90.8543 15.2516 91.511 15.2578 91.9175 14.8524C92.324 14.4469 92.3178 13.7919 91.9175 13.3927Z" fill="black"/>
<path d="M93.5958 16.5242C93.1893 16.9296 93.1893 17.5784 93.5958 17.9838C94.0023 18.3893 94.6528 18.3893 95.0593 17.9838C95.4658 17.5784 95.4658 16.9296 95.0593 16.5242C94.6528 16.1187 94.0023 16.1187 93.5958 16.5242Z" fill="black"/>
<path d="M92.0641 21.2215C91.6638 21.6207 91.6576 22.2757 92.0641 22.6811C92.4706 23.0866 93.1273 23.0804 93.5276 22.6811C93.9279 22.2819 93.9341 21.6269 93.5276 21.2215C93.1211 20.816 92.4706 20.816 92.0641 21.2215Z" fill="black"/>
<path d="M88.8832 18.0587C88.483 18.4579 88.4767 19.1129 88.8832 19.5183C89.2898 19.9238 89.9465 19.9175 90.3467 19.5183C90.7533 19.1129 90.7533 18.4641 90.3467 18.0587C89.9402 17.6532 89.2898 17.6532 88.8832 18.0587Z" fill="black"/>
<path d="M105.96 3.94855C106.367 3.54309 106.367 2.89435 105.96 2.48888C105.554 2.08342 104.903 2.08342 104.497 2.48888C104.09 2.89435 104.09 3.54309 104.497 3.94855C104.903 4.35401 105.56 4.34778 105.96 3.94855Z" fill="black"/>
<path d="M93.5765 4.04845C93.983 3.64299 93.983 2.99425 93.5765 2.58879C93.1699 2.18333 92.5195 2.18333 92.113 2.58879C91.7127 2.98801 91.7064 3.64299 92.113 4.04845C92.5195 4.45392 93.1762 4.44768 93.5765 4.04845Z" fill="black"/>
<path d="M107.578 18.0151C107.177 18.4143 107.171 19.0693 107.578 19.4748C107.984 19.8802 108.641 19.874 109.041 19.4748C109.448 19.0693 109.448 18.4206 109.041 18.0151C108.635 17.6096 107.984 17.6096 107.578 18.0151Z" fill="black"/>
<path d="M90.4468 7.16101C90.8533 6.75554 90.8533 6.10681 90.4468 5.70134C90.0403 5.29588 89.3898 5.29588 88.9833 5.70134C88.5768 6.10681 88.5768 6.75554 88.9833 7.16101C89.3898 7.56647 90.0465 7.56023 90.4468 7.16101Z" fill="black"/>
<path d="M104.46 21.1277C104.06 21.5269 104.054 22.1819 104.46 22.5873C104.867 22.9928 105.523 22.9866 105.924 22.5873C106.33 22.1819 106.33 21.5331 105.924 21.1277C105.517 20.7222 104.867 20.7222 104.46 21.1277Z" fill="black"/>
<path d="M84.4278 42.8605L76.8977 50.3772C78.5926 49.8095 80.1812 48.8551 81.5321 47.514L81.5633 47.4828C82.908 46.1354 83.8649 44.551 84.434 42.8605M85.0532 38.6748L72.7011 50.9947C73.3203 51.0134 73.9394 50.9822 74.5523 50.9074L84.9657 40.5213C85.0407 39.91 85.072 39.2924 85.0532 38.6748ZM61.7186 35.1629L69.1799 27.7211C67.5038 28.295 65.9215 29.2431 64.5831 30.5843C63.2447 31.9192 62.2878 33.4912 61.7186 35.1692M61.0807 39.3735L73.3953 27.0911C72.7761 27.0724 72.157 27.1036 71.5378 27.1847L61.1683 37.5271C61.0932 38.1384 61.0619 38.7622 61.0744 39.3797M61.5623 42.4613L76.4786 27.5839C76.0033 27.4466 75.528 27.3344 75.0402 27.2595L61.2308 41.0328C61.3121 41.5131 61.4184 41.9934 61.5623 42.4675M62.6317 44.9689L78.9866 28.6568C78.6051 28.4385 78.2111 28.2451 77.8108 28.0704L62.0501 43.7899C62.2252 44.1892 62.4191 44.5821 62.638 44.9627M64.1328 47.0399L81.0693 30.1477C80.7565 29.8669 80.4313 29.6049 80.0936 29.3617L63.3447 46.0668C63.5886 46.4036 63.8513 46.728 64.1328 47.0399ZM66.0153 48.7303L82.7704 32.019C82.5265 31.6822 82.2638 31.3578 81.9824 31.0459L65.0396 47.9381C65.3523 48.2188 65.6776 48.4808 66.0153 48.7241M68.2918 50.0216L84.065 34.2834C83.8899 33.8842 83.696 33.4912 83.4771 33.1107L67.116 49.429C67.4975 49.6473 67.8916 49.8407 68.2918 50.0154M71.05 50.8325L84.8844 37.0343C84.803 36.554 84.6967 36.0737 84.5529 35.6058L69.6177 50.5019C70.0868 50.6454 70.5684 50.7514 71.05 50.8325Z" fill="black"/>
<path d="M110.283 31.2955H106.749V27.771H110.283V31.2955ZM102.934 27.771H106.467V31.2955H102.934V27.771ZM106.467 35.1006H102.934V31.5761H106.467V35.1006ZM110.283 35.1006H106.749V31.5761H110.283V35.1006ZM106.749 46.7904H110.283V50.3148H106.749V46.7904ZM102.934 46.7904H106.467V50.3148H102.934V46.7904ZM99.1187 46.7904H102.652V50.3148H99.1187V46.7904ZM95.3036 46.7904H98.8372V50.3148H95.3036V46.7904ZM91.4885 46.7904H95.0221V50.3148H91.4885V46.7904ZM87.6734 46.7904H91.2071V50.3148H87.6734V46.7904ZM91.2071 31.3017H87.6734V27.7773H91.2071V31.3017ZM95.0221 31.3017H91.4885V27.7773H95.0221V31.3017ZM98.8372 31.3017H95.3036V27.7773H98.8372V31.3017ZM99.1187 27.7773H102.652V31.3017H99.1187V27.7773ZM99.1187 31.5824H102.652V35.1068H99.1187V31.5824ZM102.652 38.9119H99.1187V35.3875H102.652V38.9119ZM106.467 38.9119H102.934V35.3875H106.467V38.9119ZM110.283 38.9119H106.749V35.3875H110.283V38.9119ZM110.283 42.717H106.749V39.1926H110.283V42.717ZM102.934 42.9978H106.467V46.5222H102.934V42.9978ZM99.1187 42.9978H102.652V46.5222H99.1187V42.9978ZM95.3036 42.9978H98.8372V46.5222H95.3036V42.9978ZM91.4885 42.9978H95.0221V46.5222H91.4885V42.9978ZM87.6734 42.9978H91.2071V46.5222H87.6734V42.9978ZM87.6734 39.1926H91.2071V42.717H87.6734V39.1926ZM87.6734 35.3875H91.2071V38.9119H87.6734V35.3875ZM95.0221 35.1068H91.4885V31.5824H95.0221V35.1068ZM95.3036 31.5824H98.8372V35.1068H95.3036V31.5824ZM95.3036 35.3875H98.8372V38.9119H95.3036V35.3875ZM91.4885 35.3875H95.0221V38.9119H91.4885V35.3875ZM95.0221 42.717H91.4885V39.1926H95.0221V42.717ZM98.8372 42.717H95.3036V39.1926H98.8372V42.717ZM102.928 39.1926H106.461V42.717H102.928V39.1926ZM102.646 42.717H99.1124V39.1926H102.646V42.717ZM87.6734 31.5824H91.2071V35.1068H87.6734V31.5824ZM110.276 46.5159H106.743V42.9915H110.276V46.5159ZM110.558 27.5028H87.3982V50.6017H110.551V27.5028H110.558Z" fill="black"/>
<path d="M59.4029 0.411694V23.5106H65.7259C73.0434 23.5106 78.3407 20.741 78.3407 11.9456C78.3407 3.15013 73.0371 0.411694 65.7259 0.411694H59.4029ZM75.0197 11.9456C75.0197 19.8178 70.3853 20.7722 65.6258 20.7722H62.6551V3.15638H65.6258C70.3853 3.15638 75.0197 4.11077 75.0197 11.9518" fill="black"/>
<path d="M83.2503 0.411694H79.9918V23.5106H83.2503V0.411694ZM38.3886 0.411694V14.1101C38.3886 21.3086 41.1967 23.9223 47.6198 23.9223C54.3619 23.9223 56.9449 20.61 56.9449 13.8544V0.411694H53.6865V14.1101C53.6865 18.6638 52.0604 21.1215 47.6198 21.1215C43.1793 21.1215 41.647 19.0193 41.647 14.4657V0.417938H38.3886V0.411694ZM25.73 23.5106H28.9884V3.21875H36.5248V0.417938H18.1936V3.21875H25.73V23.5106ZM0.769272 6.30652C0.769272 10.1303 3.93392 11.9144 7.12359 12.613L10.0005 13.2181C12.8775 13.8856 14.9852 14.84 14.9852 17.2977C14.9852 19.5932 13.0401 21.1839 9.58776 21.1839C6.13542 21.1839 3.80884 19.5246 3.19592 16.3433H0C0.606662 20.9281 4.05901 23.9223 9.51896 23.9223C14.1158 23.9223 18.3375 21.502 18.3375 17.0108C18.3375 12.5195 14.0908 11.0224 10.5447 10.2551L7.86159 9.65002C5.69137 9.1697 4.09028 8.15293 4.09028 6.11313C4.09028 3.53064 7.22366 2.73844 9.01237 2.73844C11.3139 2.73844 13.997 3.66165 14.76 6.30652H17.9247C16.999 1.87761 13.3278 0 9.14371 0C5.40367 0 0.775527 1.87761 0.775527 6.30652" fill="black"/>
<path d="M18.8378 32.7614C18.8378 36.5853 22.0024 38.3693 25.1921 39.068L28.0691 39.673C30.946 40.3405 33.0537 41.2949 33.0537 43.7526C33.0537 46.0482 31.1086 47.6388 27.6563 47.6388C24.2039 47.6388 21.8774 45.9795 21.2644 42.7982H18.0685C18.6752 47.3831 22.1275 50.3773 27.5875 50.3773C32.1844 50.3773 36.406 47.957 36.406 43.4657C36.406 38.9744 32.1593 37.4773 28.6132 36.71L25.9301 36.1049C23.7599 35.6246 22.1588 34.6079 22.1588 32.5681C22.1588 29.9856 25.2922 29.1934 27.0809 29.1934C29.3825 29.1934 32.0655 30.1166 32.8285 32.7614H35.9932C35.0676 28.3325 31.3963 26.4549 27.206 26.4549C23.4659 26.4549 18.8378 28.3325 18.8378 32.7614Z" fill="black"/>
</svg>
