<?xml version="1.0" standalone="no"?>
<!DOCTYPE svg PUBLIC "-//W3C//DTD SVG 20010904//EN"
 "http://www.w3.org/TR/2001/REC-SVG-20010904/DTD/svg10.dtd">
<svg version="1.0" xmlns="http://www.w3.org/2000/svg"
 width="700.000000pt" height="700.000000pt" viewBox="0 0 700.000000 700.000000"
 preserveAspectRatio="xMidYMid meet">
<metadata>
Created by potrace 1.14, written by Peter Selinger 2001-2017
</metadata>
<g transform="translate(0.000000,700.000000) scale(0.100000,-0.100000)"
fill="#000000" stroke="none">
<path d="M0 3500 l0 -3500 3500 0 3500 0 0 3500 0 3500 -3500 0 -3500 0 0
-3500z m3808 2165 c529 -75 1029 -352 1364 -757 268 -322 432 -692 495 -1108
23 -155 23 -445 0 -600 -63 -416 -227 -786 -495 -1108 -343 -414 -849 -689
-1402 -763 -138 -19 -430 -16 -570 4 -243 37 -448 100 -665 207 -441 217 -778
554 -995 995 -155 316 -224 611 -224 965 0 592 222 1128 639 1545 366 366 832
584 1356 635 119 11 364 4 497 -15z"/>
</g>
</svg>
