<svg width="147" height="40" viewBox="0 0 147 40" fill="none" xmlns="http://www.w3.org/2000/svg">
<path d="M76.3056 5.49122C76.3056 10.6745 76.2934 10.9823 76.097 10.8961C73.2253 9.66491 70.3781 9.75109 68.0341 11.13C66.7455 11.881 65.4446 13.5924 64.9046 15.2298C64.2419 17.2366 64.0946 20.5362 64.5855 22.4076C65.3955 25.4363 67.1136 27.32 70.0467 28.3419L71.2126 28.7481H73.7898C76.3915 28.7481 76.9438 28.6866 79.2878 28.1695L80.4782 27.9109V15.6484L80.466 3.38591L79.3983 2.56103C78.8092 2.10549 77.9133 1.34216 77.3856 0.874315C76.8702 0.394157 76.4161 0.000179291 76.3793 0.000179291C76.3425 0.000179291 76.3056 2.47484 76.3056 5.49122ZM73.9984 13.6785C74.3543 13.7524 75.017 13.9863 75.4834 14.1833L76.3056 14.565V19.7729V24.9931L75.9743 25.0792C75.7779 25.1408 74.833 25.1777 73.8512 25.1777C72.1821 25.1777 72.0226 25.1531 71.3844 24.8576C70.464 24.4144 69.789 23.7988 69.3349 22.937C68.6845 21.6935 68.5127 20.9179 68.525 19.2065C68.5372 17.8769 68.5863 17.5321 68.8686 16.6826C69.0527 16.1409 69.3472 15.4761 69.5313 15.2175C70.4763 13.8386 72.0962 13.2846 73.9984 13.6785Z" fill="black"/>
<path d="M16.1086 1.8961C5.5666 3.64437 -1.51455 13.5553 0.277212 24.0942C0.719017 26.6674 2.00762 29.7453 3.55393 31.9491C4.51118 33.3034 6.58521 35.4087 7.91062 36.3567C13.6664 40.4688 20.9684 41.146 27.3378 38.1542C29.9886 36.8984 32.9585 34.3991 34.6644 31.9737C38.7142 26.1995 39.3401 18.7878 36.2966 12.4965C35.3148 10.4528 34.333 9.09848 32.5535 7.32559C29.8168 4.56776 27.0555 3.02879 23.2879 2.13003C22.1957 1.87148 21.6311 1.82223 19.5448 1.77299C17.8881 1.74836 16.7713 1.7853 16.1086 1.8961ZM21.2384 8.92612C24.2206 9.44321 27.1414 11.29 28.8841 13.74C29.6327 14.7865 30.455 16.5963 30.7863 17.9137C31.1667 19.4527 31.179 21.8904 30.8108 23.3924C29.8904 27.049 27.5832 29.9177 24.3188 31.4813C22.4043 32.3923 21.6066 32.5524 19.1153 32.5524C17.1394 32.5524 16.8817 32.5278 15.8877 32.22C11.7273 30.9395 8.69605 27.8 7.61608 23.651C7.16201 21.9396 7.17428 19.5389 7.62836 17.8029C9.22376 11.684 15.1022 7.855 21.2384 8.92612Z" fill="black"/>
<path d="M121.48 2.84414C120.682 3.25043 120.24 4.01376 120.24 4.9987C120.24 5.90977 120.375 6.32837 120.829 6.82084C121.836 7.90427 123.762 7.89196 124.683 6.79621C125.137 6.2545 125.309 5.63891 125.247 4.80171C125.186 3.97682 124.867 3.41048 124.192 2.94264C123.566 2.51172 122.228 2.46248 121.48 2.84414Z" fill="black"/>
<path d="M52.0534 10.0956C50.8875 10.2433 48.9117 10.6866 48.7767 10.822C48.654 10.9451 49.0221 13.8876 49.1694 14.06C49.2062 14.0969 49.6603 14.023 50.1635 13.8876C51.4766 13.5183 55.0356 13.4936 55.686 13.8384C56.8274 14.4416 57.2937 15.2542 57.3796 16.7316L57.441 17.7658L57.0237 17.6796C56.7905 17.6304 55.7719 17.5688 54.7533 17.5196C53.2929 17.4703 52.6793 17.495 51.8693 17.655C48.6785 18.2952 46.9727 20.1912 46.9727 23.0722C46.9727 26.1748 48.5558 28.0338 51.7221 28.6371C53.207 28.908 57.1587 28.8218 59.4291 28.4524C60.3127 28.3047 61.1227 28.1569 61.2454 28.12C61.454 28.0585 61.4663 27.726 61.4295 21.5702C61.3927 15.9191 61.3559 14.9957 61.1718 14.3801C60.5213 12.1517 59.2573 10.9205 56.9746 10.2803C56.1033 10.034 53.3543 9.93554 52.0534 10.0956ZM57.036 20.536L57.4655 20.6345L57.5023 22.986L57.5269 25.3252L56.9624 25.4114C55.8824 25.5592 53.5506 25.4976 52.9002 25.3006C51.7343 24.9559 51.1453 24.1802 51.1453 22.986C51.1453 21.1516 52.667 20.2405 55.5019 20.3882C56.1156 20.4252 56.8028 20.4867 57.036 20.536Z" fill="black"/>
<path d="M88.27 10.0954C87.865 10.157 86.9937 10.3293 86.331 10.4771C85.1528 10.7479 85.1283 10.7602 85.1896 11.068C85.2265 11.2404 85.3492 12.0037 85.4596 12.7547L85.656 14.1213L86.5151 13.8997C87.6564 13.5919 89.8286 13.3703 90.7122 13.4688C91.8044 13.5796 92.3444 13.7889 92.9212 14.306C93.5839 14.8847 93.8662 15.5495 93.9521 16.793L94.0135 17.7656L93.5962 17.6794C90.0863 16.9654 86.5396 17.6425 84.8828 19.3538C83.3488 20.9174 83.0297 23.6137 84.0974 25.8175C84.846 27.3319 86.2573 28.2552 88.4541 28.6369C90.4177 28.9816 93.6576 28.8093 97.2656 28.1814L98.0388 28.0459L98.002 21.6808C97.9529 15.6357 97.9406 15.2786 97.6952 14.3799C97.0816 12.1761 96.0384 11.0803 93.8785 10.3663C93.0562 10.0954 92.688 10.0585 90.9699 10.0215C89.8899 10.0092 88.675 10.0338 88.27 10.0954ZM93.5226 20.5727L93.9766 20.6958V22.9612C93.9766 24.6356 93.9398 25.2512 93.8294 25.325C93.7435 25.3743 92.8108 25.4358 91.7676 25.4605C90.0495 25.5097 89.7918 25.4851 89.1659 25.2389C87.9877 24.7956 87.3496 23.7614 87.5337 22.6041C87.7546 21.3114 88.5032 20.7081 90.2213 20.425C90.9699 20.3142 92.8721 20.388 93.5226 20.5727Z" fill="black"/>
<path d="M108.703 10.096C103.831 10.7731 100.984 14.4051 101.254 19.6376C101.463 23.7005 103.316 26.2859 106.666 27.2093C107.488 27.4432 107.869 27.4679 109.243 27.4309C110.814 27.3817 111.477 27.2339 112.802 26.6553C113.011 26.5568 113.023 26.6553 112.986 28.6375C112.937 30.7059 112.937 30.7305 112.532 31.5554C112.066 32.5034 111.514 32.9589 110.323 33.3529C109.268 33.7099 106.752 33.6853 105.193 33.2913C104.923 33.2175 104.936 33.2544 105.39 34.3132C105.647 34.9165 105.991 35.7783 106.138 36.2215L106.421 37.0341L107.599 37.1203C108.949 37.2065 110.704 37.0341 112.017 36.6771C114.557 35.9876 116.104 34.424 116.84 31.777C117.098 30.8659 117.098 30.632 117.147 20.9057L117.183 10.9824L116.104 10.7362C113.723 10.1822 110.274 9.88667 108.703 10.096ZM112.667 13.7156C112.864 13.8141 112.876 14.1589 112.876 18.4803V23.1341L112.606 23.3311C111.698 23.9713 109.317 24.2422 108.126 23.8359C106.052 23.1341 104.948 20.3886 105.562 17.4584C105.979 15.4885 107.047 14.1958 108.703 13.6541C109.071 13.531 112.36 13.5925 112.667 13.7156Z" fill="black"/>
<path d="M136.046 10.0956C132.904 10.4773 130.106 12.4841 128.756 15.3281C126.903 19.2186 127.934 23.9094 131.235 26.6426C134.009 28.9449 138.083 29.4128 141.262 27.8122C143.594 26.6303 145.189 24.7835 146.011 22.3212C146.993 19.3541 146.465 16.2269 144.539 13.6537C143.729 12.5703 142.624 11.6715 141.286 11.019C139.617 10.1941 137.813 9.874 136.046 10.0956ZM138.586 14.2324C141.164 14.8972 142.906 17.5688 142.452 20.1543C141.998 22.8137 139.875 24.6358 137.237 24.6358C135.629 24.6358 134.5 24.1433 133.383 22.9614C132.242 21.7548 131.714 20.0804 131.984 18.5169C132.524 15.402 135.543 13.4321 138.586 14.2324Z" fill="black"/>
<path d="M120.73 19.3909V28.44H122.755H124.78V19.3909V10.3417H122.755H120.73V19.3909Z" fill="black"/>
<path d="M80.857 33.1185C79.5193 33.4386 78.8321 35.2115 79.4825 36.6396C80.1575 38.1417 82.477 38.1909 83.2747 36.7258C83.7042 35.9379 83.7042 34.8298 83.2747 34.0911C82.796 33.2785 81.8143 32.8846 80.857 33.1185ZM82.4279 34.1527C82.7101 34.4482 82.747 34.5713 82.747 35.4085C82.747 36.3072 82.7347 36.3565 82.342 36.7012C81.7897 37.1937 81.127 37.1937 80.5748 36.7012C80.2311 36.3934 80.182 36.2703 80.1452 35.5685C80.0961 34.6944 80.3538 34.0788 80.8816 33.8572C81.3356 33.6602 82.072 33.8079 82.4279 34.1527Z" fill="black"/>
<path d="M48.7416 33.5128C48.6311 33.7344 48.2139 34.744 47.8212 35.7659L47.1094 37.6126L47.4162 37.6496C47.8948 37.7111 48.0175 37.6249 48.1893 37.0709L48.3366 36.5661H49.3061H50.2634L50.4352 37.0832C50.5947 37.5634 50.6561 37.6126 51.0611 37.6496C51.3065 37.6742 51.5152 37.6373 51.5152 37.5757C51.5152 37.4033 50.9752 35.9875 50.3247 34.4362C49.7847 33.1312 49.7725 33.1188 49.3552 33.1188C49.0116 33.1188 48.9134 33.1927 48.7416 33.5128ZM49.6743 34.8671C49.8338 35.298 49.9811 35.7166 50.0057 35.7905C50.0547 35.9136 49.8707 35.9505 49.3061 35.9505C48.6311 35.9505 48.5575 35.9259 48.6189 35.7289C49.0239 34.6455 49.257 34.1038 49.3184 34.1038C49.3675 34.1038 49.527 34.4485 49.6743 34.8671Z" fill="black"/>
<path d="M53.2324 35.3962V37.6739H53.6006C53.9688 37.6739 53.9688 37.6739 53.9688 36.9475V36.2334L54.7051 36.1596C55.1101 36.1103 55.6133 35.9872 55.8219 35.8764C56.2882 35.6425 56.595 34.953 56.4969 34.3744C56.3619 33.5002 55.6255 33.1186 54.1038 33.1186H53.2324V35.3962ZM55.4783 34.1281C55.9814 34.7191 55.5396 35.3347 54.5824 35.3347H53.9688V34.5221V33.7095L54.6192 33.7957C55.0365 33.845 55.331 33.9681 55.4783 34.1281Z" fill="black"/>
<path d="M58.8784 34.0671C58.4243 35.1628 57.7247 36.9849 57.5898 37.3912C57.5161 37.6498 57.5529 37.6744 57.9211 37.6744C58.3016 37.6744 58.3506 37.6252 58.5102 37.145L58.6943 36.6279L59.7006 36.591L60.6947 36.554L60.8665 37.0834C61.026 37.539 61.0996 37.6128 61.431 37.6498C61.6519 37.6744 61.8237 37.6375 61.8237 37.5636C61.8237 37.3789 60.9401 35.0643 60.4615 33.9932C60.0933 33.1683 60.0565 33.1191 59.6761 33.1191C59.2833 33.1191 59.2588 33.156 58.8784 34.0671ZM60.1179 35.0643L60.4492 35.8892L59.7742 35.9261C59.4061 35.9508 59.0624 35.9384 59.0256 35.9015C58.9888 35.8646 59.1115 35.4337 59.3079 34.9658C59.492 34.4857 59.6761 34.1286 59.7251 34.1656C59.762 34.2148 59.946 34.6211 60.1179 35.0643Z" fill="black"/>
<path d="M63.6269 33.2052C63.5778 33.2421 63.541 34.2763 63.541 35.4829V37.6744H63.9705H64.4001V36.8126V35.9507H64.756C65.0505 35.9507 65.1855 36.0615 65.5537 36.6156C65.7991 36.9849 66.0323 37.3789 66.0691 37.4774C66.1182 37.6128 66.3023 37.6744 66.6214 37.6744H67.1123L66.9036 37.2681C66.7932 37.0588 66.5355 36.6402 66.3391 36.357L65.9709 35.8522L66.3759 35.4829C66.7196 35.1751 66.7686 35.052 66.7686 34.5595C66.7686 33.907 66.5355 33.5499 65.9096 33.2914C65.5046 33.119 63.7742 33.0452 63.6269 33.2052ZM65.7255 33.9316C65.9096 34.0547 65.9955 34.2394 65.9955 34.5349C65.9955 35.0643 65.6396 35.3351 64.9278 35.3351H64.4001V34.5349V33.7346H64.9278C65.2101 33.7346 65.5782 33.8208 65.7255 33.9316Z" fill="black"/>
<path d="M68.3281 33.4879V33.8573H69.0645H69.8008V35.7656V37.6739H70.169H70.5372V35.7656V33.8573H71.2735H72.0098V33.4879V33.1186H70.169H68.3281V33.4879Z" fill="black"/>
<path d="M73.6035 35.3963V37.674H74.033H74.4626V36.689V35.7041H75.4444H76.4262V36.689V37.674H76.8557H77.2852V35.3963V33.1186H76.8557H76.4262V34.042V34.9654H75.4444H74.4626V34.042V33.1186H74.033H73.6035V35.3963Z" fill="black"/>
<path d="M85.0176 33.4884C85.0176 33.8578 85.0299 33.8578 85.6926 33.8578H86.3675V35.7661V37.6744H86.7971H87.2266V35.7661V33.8578H87.9016C88.5643 33.8578 88.5766 33.8578 88.5766 33.4884V33.1191H86.7971H85.0176V33.4884Z" fill="black"/>
<path d="M90.2949 35.3962V37.6739H91.829H93.363V37.3661C93.363 37.0706 93.3385 37.0706 92.234 37.0337L91.0926 36.9968L91.0558 36.3442L91.019 35.704H92.0008H92.9948V35.3347V34.9653H92.0131H91.0313V34.4113V33.8696L92.1112 33.8327C93.1789 33.7957 93.1789 33.7957 93.2157 33.451L93.2526 33.1186H91.7799H90.2949V35.3962Z" fill="black"/>
<path d="M95.2012 35.3967V37.6744H96.6125H98.0238V37.3666C98.0238 37.0711 97.9993 37.0711 97.0175 37.0342L95.9989 36.9973L95.9621 35.052L95.9252 33.1191H95.5693H95.2012V35.3967Z" fill="black"/>
</svg>
