<svg width="85" height="50" viewBox="0 0 85 50" fill="none" xmlns="http://www.w3.org/2000/svg">
<path d="M84.6154 50H0V0H84.6154V50ZM3.68093 46.3506H80.9345V3.65054H3.68093V46.3506ZM13.7945 17.1016H17.3113V36.3679H20.9301V17.1016H24.3781V13.8168H13.7933V17.1016H13.7945ZM37.2514 22.2484V18.2525C37.2514 15.205 35.3055 13.8168 32.7788 13.8168H26.9746V36.3679H30.5934V26.8522H32.0619L34.009 36.3679H37.7483L35.1867 25.845C36.487 25.2072 37.2514 23.6739 37.2514 22.2472V22.2484ZM30.5934 16.8991H32.4708C33.3248 16.8991 33.7001 17.4069 33.7001 18.3553V22.4522C33.7001 23.5365 33.2225 24.0434 32.3351 24.0434H30.5934V16.8991ZM40.7006 36.3692H44.3194V13.8181H40.7006V36.3692ZM55.8953 24.8569C57.4998 24.3833 58.1492 23.1645 58.1492 21.4708V18.1858C58.1492 15.1384 56.3054 13.8181 53.7786 13.8181H47.9059V36.3692H53.8471C56.3389 36.3692 58.2176 35.0824 58.2176 32.0016V28.2431C58.2176 26.584 57.5695 25.3984 55.8965 24.8569H55.8953ZM51.5596 16.9003H53.4034C54.2575 16.9003 54.6663 17.4082 54.6663 18.3566V22.0481C54.6663 23.0978 54.1538 23.606 53.2662 23.606H51.5596V16.9016V16.9003ZM54.7011 31.8333C54.7011 32.7814 54.3259 33.2896 53.4719 33.2896H51.5596V26.3478H53.3014C54.1887 26.3478 54.7011 26.9242 54.7011 27.9403V31.8346V31.8333ZM61.4625 36.3704H70.5439V33.0855H65.0813V26.212H68.8709V23.2324H65.0813V17.0028H70.5439V13.8194H61.4625V36.3704Z" fill="black"/>
</svg>
