<svg width="101" height="40" viewBox="0 0 101 40" fill="none" xmlns="http://www.w3.org/2000/svg">
<path d="M38.2111 0.722666C36.7283 2.85823 35.979 4.39881 35.7345 5.82783C35.6123 6.545 35.6548 7.53841 35.8408 8.24495C36.064 9.11617 36.08 9.14805 38.6309 14.4498C39.0774 15.3688 39.5876 16.4366 39.7683 16.8244C39.949 17.2122 40.1084 17.5256 40.1243 17.5309C40.1403 17.5309 40.422 17.3184 40.7515 17.0528C41.5008 16.4632 42.0163 16.1391 42.4627 15.9904C42.755 15.8894 42.8879 15.8788 43.3396 15.9C43.9668 15.9266 44.1953 16.0116 44.95 16.511C45.221 16.6916 45.5877 16.8881 45.7631 16.9519C45.9331 17.0156 46.0766 17.0847 46.0766 17.1113C46.0766 17.175 45.7631 17.2281 45.4442 17.2228C45.221 17.2228 45.0509 17.1697 44.6577 16.9784C43.8339 16.58 43.2493 16.5535 42.5371 16.8881C42.1386 17.0741 42.0216 17.1591 41.0916 17.9294C40.2094 18.6518 39.173 19.3956 38.1314 20.033C37.4245 20.4687 36.1862 21.1433 36.0906 21.1433C36.0746 21.1433 36.0587 20.8033 36.0534 20.3837C36.0481 19.8365 36.0162 19.4859 35.9312 19.0928C35.5804 17.4194 34.5972 15.576 33.1091 13.7857C32.5511 13.1164 31.738 12.2451 31.7061 12.277C31.6901 12.293 31.6264 12.6276 31.5679 13.0314C31.3606 14.3754 30.9727 15.7407 30.5103 16.75C30.3934 17.005 30.0214 17.7275 29.6812 18.3543C28.2304 21.0371 27.954 21.8499 27.954 23.3958C27.954 24.4529 28.1028 25.0213 28.6874 26.2697C28.9106 26.7372 29.0382 27.0825 29.0382 27.1994C29.0435 27.5181 28.7671 27.9803 28.2729 28.4797C27.7148 29.0428 27.0665 29.4784 26.0461 29.9671C24.7865 30.5674 24.6855 30.6206 24.6855 30.7056C24.6855 30.8543 25.4402 30.7959 26.3171 30.5834C29.0701 29.9087 30.9886 29.0428 32.9922 27.5606C34.3049 26.5885 35.1924 25.6907 36.7443 23.7729C37.9879 22.2377 38.7851 21.3186 39.2846 20.8511C40.0127 20.1712 40.9853 19.4806 41.081 19.5815C41.1022 19.6081 42.2767 22.0358 43.6904 24.9788L46.2573 30.3337H49.8075H53.3523L53.044 29.6803C52.874 29.3243 50.1104 23.5711 46.9004 16.8935C43.6957 10.2158 40.7833 4.15444 40.4326 3.42665C39.2634 0.988283 38.7798 0.00018692 38.7479 0.00018692C38.7319 0.00018692 38.4875 0.32424 38.2111 0.722666Z" fill="black"/>
<path d="M56.2285 13.3767C56.2285 22.3971 56.2445 26.8966 56.287 27.1994C56.4145 28.23 56.6537 28.7878 57.217 29.3669C57.5093 29.6591 57.6847 29.7919 57.9876 29.93C58.8061 30.3019 58.7636 30.2965 61.931 30.3231C63.4988 30.3337 64.785 30.3231 64.785 30.2965C64.785 30.2753 64.5883 30.2009 64.3438 30.1319C63.6583 29.9406 63.164 29.675 62.7601 29.2713C62.2233 28.7347 62.0108 28.1982 61.9151 27.1198C61.8832 26.7585 61.8619 21.4727 61.8619 13.2652V0.000228882H59.0452H56.2285V13.3767Z" fill="black"/>
<path d="M67.6156 13.5571C67.6315 26.0465 67.6368 27.1567 67.7218 27.5552C68.0513 29.1436 68.9017 29.9829 70.4535 30.2538C70.8149 30.3176 71.4527 30.3335 73.5679 30.3335C75.04 30.3335 76.2092 30.3123 76.1773 30.2857C76.1507 30.2645 75.9754 30.2007 75.784 30.1529C75.5927 30.0998 75.2154 29.951 74.9443 29.8235C74.1259 29.4304 73.6582 28.8567 73.4084 27.9377C73.3234 27.6189 73.3128 26.7743 73.3021 13.7962L73.2862 2.28882e-05H70.4429H67.5996L67.6156 13.5571Z" fill="black"/>
<path d="M9.10248 34.217C7.90139 34.3339 6.9554 35.0617 6.57806 36.1666C6.408 36.6713 6.408 37.5425 6.58338 38.0366C6.74813 38.4987 7.11483 39.0459 7.44965 39.3115C8.62417 40.2465 10.4949 40.2253 11.5419 39.2637L11.8182 39.0087L11.4303 38.6422C11.2177 38.4403 11.0157 38.265 10.9891 38.2544C10.9626 38.2438 10.851 38.3234 10.7447 38.4244C10.4152 38.7431 10.091 38.86 9.53827 38.86C9.13437 38.86 9.01213 38.8387 8.76235 38.7219C7.94922 38.3394 7.5772 37.4257 7.85356 36.5119C8.22558 35.2954 9.804 34.897 10.7766 35.7788L10.9785 35.9594L11.3984 35.561L11.8235 35.1679L11.5578 34.9235C10.9626 34.387 10.0644 34.1267 9.10248 34.217Z" fill="black"/>
<path d="M14.8693 34.2167C13.5938 34.3495 12.5841 35.2047 12.3024 36.4C11.9941 37.7228 12.6 39.0774 13.7692 39.6512C14.9437 40.2302 16.4371 40.0709 17.3246 39.274L17.5957 39.0296L17.2609 38.6896C16.7879 38.2062 16.7772 38.2009 16.5168 38.4347C16.1608 38.7587 15.8844 38.8596 15.3317 38.8596C14.9278 38.8596 14.8055 38.8384 14.5611 38.7215C14.1518 38.5303 13.9712 38.3603 13.7586 37.9725C13.5885 37.6537 13.5779 37.6112 13.5779 37.1066C13.5779 36.6763 13.5991 36.5275 13.6895 36.331C14.189 35.2526 15.5974 34.9657 16.5275 35.7466L16.7666 35.9485L17.1811 35.566L17.5904 35.1835L17.314 34.9179C16.7294 34.3707 15.8525 34.1157 14.8693 34.2167Z" fill="black"/>
<path d="M20.6899 34.2169C19.3985 34.339 18.3197 35.2528 18.0752 36.4321C17.7351 38.0683 18.7129 39.5823 20.3286 39.9223C21.9708 40.2676 23.5758 39.4336 24.0275 37.9886C24.171 37.5265 24.1816 36.7562 24.0541 36.3099C23.6342 34.8862 22.3109 34.0628 20.6899 34.2169ZM21.7741 35.444C22.093 35.5609 22.4756 35.9062 22.6351 36.2143C23.0018 36.9368 22.837 37.9143 22.2684 38.4295C21.9017 38.7589 21.6253 38.8598 21.0726 38.8598C20.6581 38.8598 20.5571 38.8386 20.2914 38.7111C19.9459 38.5411 19.6483 38.2383 19.4835 37.8824C19.3932 37.6805 19.3719 37.5371 19.3719 37.0802C19.3719 36.5809 19.3879 36.4959 19.5154 36.2568C19.9565 35.4228 20.8441 35.0987 21.7741 35.444Z" fill="black"/>
<path d="M93.1592 34.2168C92.4843 34.2752 91.99 34.4824 91.6392 34.8649C91.0865 35.4599 91.0493 36.3098 91.5489 36.8676C91.8571 37.2076 92.1601 37.3457 93.1645 37.6114C94.0414 37.8451 94.2327 37.9248 94.4028 38.1532C94.5038 38.286 94.5038 38.3126 94.4347 38.4985C94.3018 38.8385 94.0999 38.9129 93.3505 38.9076C92.7819 38.9076 92.6703 38.8916 92.3142 38.7588C92.0963 38.6738 91.8306 38.5516 91.7243 38.4826L91.5276 38.3604L91.3151 38.8491C91.0653 39.4122 91.0493 39.3804 91.5967 39.6301C92.0591 39.8425 92.5321 39.9488 93.1379 39.986C94.3337 40.055 95.2213 39.6885 95.5986 38.9713C95.7208 38.7376 95.7421 38.6366 95.7421 38.2488C95.7421 37.3192 95.3913 37.0164 93.8182 36.6073C92.9679 36.3842 92.6171 36.2408 92.5587 36.0973C92.5108 35.9645 92.5215 35.7042 92.5799 35.5874C92.6649 35.4333 92.9998 35.2845 93.3558 35.2474C93.7544 35.1996 94.254 35.2899 94.7323 35.4917C94.9343 35.5767 95.1203 35.6245 95.1415 35.6033C95.1947 35.5502 95.5029 34.7958 95.5029 34.7161C95.5029 34.6205 94.929 34.3761 94.5091 34.2911C94.0308 34.1955 93.6481 34.1743 93.1592 34.2168Z" fill="black"/>
<path d="M98.4512 34.1953C97.5211 34.2538 96.8249 34.6256 96.5007 35.2366C96.3997 35.4225 96.3785 35.5447 96.3785 35.9378C96.3785 36.3681 96.3944 36.4425 96.5273 36.6709C96.7983 37.1278 97.181 37.3296 98.3449 37.6218C99.3706 37.8768 99.5938 38.0096 99.5938 38.3549C99.5938 38.7799 99.1899 38.9658 98.3714 38.9233C97.8081 38.8968 97.3245 38.7586 96.9206 38.5143L96.6708 38.3602L96.5964 38.5302C96.5539 38.6258 96.4582 38.8383 96.3838 39.0136C96.2828 39.2314 96.2563 39.343 96.2988 39.3908C96.4104 39.5236 97.1119 39.7999 97.5849 39.9008C98.4405 40.0761 99.3015 40.007 99.9392 39.7149C100.944 39.258 101.241 37.9937 100.513 37.2818C100.189 36.9684 99.9605 36.8674 98.9454 36.6018C98.026 36.3575 97.7922 36.2565 97.6912 36.0493C97.6008 35.8687 97.6859 35.5872 97.8719 35.4384C98.2598 35.1303 99.2271 35.1834 100.008 35.5553C100.141 35.6137 100.258 35.6403 100.279 35.6137C100.343 35.5394 100.673 34.6894 100.646 34.6628C100.635 34.6522 100.492 34.5831 100.338 34.5141C99.8489 34.2963 99.0411 34.1635 98.4512 34.1953Z" fill="black"/>
<path d="M2.39687 34.4613C2.25337 34.7535 0 39.8215 0 39.864C0 39.8799 0.297615 39.8958 0.659005 39.8958H1.3127L1.55185 39.3221L1.78569 38.7537H3.10902H4.42703L4.66618 39.3274L4.90534 39.8958H5.5856H6.27118L6.19677 39.7205C6.12768 39.5665 5.03289 37.1069 4.17193 35.1944C3.97529 34.7535 3.78928 34.3657 3.76271 34.3285C3.7255 34.286 3.52355 34.2648 3.1037 34.2648H2.49784L2.39687 34.4613ZM3.56075 36.6553C3.77334 37.1653 3.95403 37.6168 3.96997 37.6487C3.99123 37.7018 3.79991 37.7178 3.10902 37.7178C2.41812 37.7178 2.2268 37.7018 2.24806 37.6487C2.264 37.6168 2.43407 37.2025 2.62539 36.735C3.1037 35.5822 3.08244 35.6247 3.13027 35.6778C3.15685 35.7044 3.34817 36.1453 3.56075 36.6553Z" fill="black"/>
<path d="M25.1812 34.2963C25.1546 34.3176 25.1387 35.5872 25.1387 37.1172V39.8955H25.803H26.4673V39.1252V38.355H27.0679H27.6631L28.1892 39.1252L28.7207 39.8955H29.4328H30.145L29.959 39.6405C29.8633 39.5024 29.5763 39.104 29.3372 38.7587C28.928 38.1797 28.9014 38.1212 28.9917 38.0681C29.3425 37.8609 29.6401 37.5528 29.8155 37.2128C29.9909 36.8675 30.0015 36.825 30.0015 36.315C30.0015 35.8475 29.9802 35.7413 29.858 35.4757C29.6932 35.1197 29.3319 34.7479 28.9917 34.5832C28.4709 34.3282 28.2689 34.3016 26.7065 34.2804C25.888 34.2645 25.2024 34.2751 25.1812 34.2963ZM28.2264 35.5022C28.7632 35.7891 28.8695 36.6019 28.4284 37.0109C28.1945 37.2234 27.8916 37.2925 27.1529 37.2925H26.4673V36.3363V35.38H27.2273C27.9235 35.38 28.0138 35.3907 28.2264 35.5022Z" fill="black"/>
<path d="M37.3985 34.2963C37.3773 34.3176 37.3613 35.5872 37.3613 37.1172V39.8955H39.434H41.5067V39.3643V38.8331H40.0983H38.69L38.6793 36.5594L38.6634 34.291L38.0469 34.2751C37.7121 34.2698 37.4198 34.2804 37.3985 34.2963Z" fill="black"/>
<path d="M42.2892 34.2964C42.2679 34.3176 42.252 35.5873 42.252 37.1172V39.9009L42.9056 39.885L43.554 39.869V37.0801V34.2911L42.9375 34.2751C42.6027 34.2698 42.3104 34.2804 42.2892 34.2964Z" fill="black"/>
<path d="M44.1621 34.3284C44.1621 34.3656 44.6936 35.6299 45.3473 37.1333L46.5271 39.8692H47.1914H47.8504L49.0356 37.1333C49.6892 35.6299 50.2207 34.3709 50.2207 34.3337C50.2207 34.2806 50.0772 34.2646 49.6095 34.2646H49.0037L48.9186 34.424C48.8761 34.509 48.4882 35.3856 48.063 36.3736C47.6378 37.3617 47.2764 38.1905 47.2605 38.217C47.2446 38.2436 46.8619 37.4042 46.4155 36.3577C45.9691 35.3059 45.5758 34.4081 45.5492 34.355C45.4961 34.2753 45.4004 34.2646 44.8264 34.2646C44.3322 34.2646 44.1621 34.2806 44.1621 34.3284Z" fill="black"/>
<path d="M50.7911 34.3018C50.7698 34.3177 50.7539 35.5874 50.7539 37.1173V39.8957H52.9329H55.1118V39.3644V38.8332H53.5706H52.0241L52.04 38.2064L52.056 37.5848L53.3474 37.5689L54.6335 37.5583V37.0536V36.5489L53.3474 36.5383L52.056 36.5223L52.04 35.922L52.0241 35.3271H53.5175H55.0109L54.9949 34.8065L54.979 34.2912L52.901 34.2752C51.7584 34.2699 50.8124 34.2805 50.7911 34.3018Z" fill="black"/>
<path d="M58.4609 37.08V39.8955H60.507H62.5531V39.3643V38.8331H61.1448H59.7364L59.7258 36.5594L59.7099 34.291L59.0881 34.2751L58.4609 34.2591V37.08Z" fill="black"/>
<path d="M63.3341 34.2963C63.3128 34.3176 63.2969 35.5872 63.2969 37.1172V39.8955H63.9612H64.6255L64.6149 37.0959L64.5989 34.291L63.9825 34.2751C63.6476 34.2698 63.3553 34.2804 63.3341 34.2963Z" fill="black"/>
<path d="M65.9903 34.2963C65.9691 34.3176 65.9531 35.5872 65.9531 37.1172V39.8955H66.5643H67.1755L67.1861 38.2753L67.202 36.655L67.9992 37.9725L68.8017 39.2846H69.1153H69.4288L70.2313 37.9406L71.0285 36.5966L71.0445 38.2434L71.0551 39.8955H71.6663H72.2774L72.2668 37.0906L72.2509 34.291H71.7247H71.1986L70.1835 36.0016C69.6255 36.9472 69.1525 37.7122 69.1312 37.7015C69.11 37.6962 68.6317 36.9259 68.063 35.991L67.0373 34.291L66.5324 34.2751C66.2561 34.2698 66.0116 34.2751 65.9903 34.2963Z" fill="black"/>
<path d="M73.6602 37.08V39.8955H74.2979H74.9356L74.925 37.0959L74.9091 34.291L74.2873 34.2751L73.6602 34.2591V37.08Z" fill="black"/>
<path d="M75.647 34.3336C75.6311 34.3761 75.6258 34.6204 75.6364 34.8807L75.6523 35.3535L76.5399 35.3695L77.4327 35.3801L77.4433 37.6272L77.4593 39.869L78.113 39.885L78.7613 39.9009V37.6432V35.3801L79.6542 35.3695L80.5417 35.3535V34.8223V34.2911L78.1077 34.2751C76.1147 34.2645 75.6736 34.2751 75.647 34.3336Z" fill="black"/>
<path d="M81.295 34.2963C81.2738 34.3176 81.2578 35.5872 81.2578 37.1172V39.8955H83.3305H85.4032V39.3643V38.8331H83.9948H82.5865L82.5758 36.5594L82.5599 34.291L81.9434 34.2751C81.6086 34.2698 81.3163 34.2804 81.295 34.2963Z" fill="black"/>
<path d="M86.1484 37.08V39.8955H88.3274H90.5117L90.4957 39.3749L90.4798 38.8596L88.9545 38.8437L87.4239 38.8331V38.1956V37.5581H88.726H90.0281V37.0534V36.5488H88.726H87.4239V35.9378V35.3269H88.912H90.4054L90.3895 34.8063L90.3735 34.291L88.2636 34.2751L86.1484 34.2644V37.08Z" fill="black"/>
<path d="M33.1459 36.342C32.8058 36.5226 32.6517 36.9848 32.8111 37.362C32.9865 37.7817 33.4542 37.9676 33.874 37.7763C34.1876 37.6382 34.3311 37.4098 34.3311 37.0486C34.3311 36.4111 33.7093 36.0445 33.1459 36.342Z" fill="black"/>
</svg>
