<svg width="73" height="22" viewBox="0 0 73 22" fill="none" xmlns="http://www.w3.org/2000/svg">
<path d="M11.0876 11.2239C10.5916 13.7999 8.65558 15.2079 6.07958 15.2079C2.71958 15.2079 0.767578 12.7439 0.767578 9.17589C0.767578 5.54389 2.86358 3.19189 6.19158 3.19189C8.67158 3.19189 10.5596 4.63189 11.0396 7.17589H9.27958C8.92758 5.67189 7.80758 4.71189 6.11158 4.71189C4.15958 4.71189 2.63958 6.26389 2.63958 9.17589C2.63958 12.0399 4.11158 13.6879 6.12758 13.6879C7.83958 13.6879 8.97558 12.7599 9.32758 11.2239H11.0876ZM14.713 13.4479H20.697V14.9999H12.889V3.39989H14.713V13.4479ZM26.1619 15.2079C22.7859 15.2079 20.6739 12.7279 20.6739 9.19191C20.6739 5.65589 22.7859 3.19189 26.1619 3.19189C29.5219 3.19189 31.6339 5.65589 31.6339 9.19191C31.6339 12.7279 29.5219 15.2079 26.1619 15.2079ZM26.1619 13.6879C28.1779 13.6879 29.7619 12.1039 29.7619 9.19191C29.7619 6.27991 28.1779 4.71189 26.1619 4.71189C24.1298 4.71189 22.5459 6.27991 22.5459 9.19191C22.5459 12.1039 24.1298 13.6879 26.1619 13.6879ZM36.4077 9.62389C34.7597 9.28789 33.1917 8.35989 33.1917 6.40789C33.1917 4.21589 35.4797 3.19189 37.4317 3.19189C39.5597 3.19189 41.3997 4.16789 41.8477 6.50389H40.0877C39.7197 5.12789 38.4557 4.71189 37.3517 4.71189C36.5037 4.71189 35.0477 5.11189 35.0477 6.32789C35.0477 7.28789 35.8157 7.78389 36.8077 7.99189L38.1837 8.27989C40.0397 8.66389 42.0717 9.36791 42.0717 11.7039C42.0717 14.0079 39.8637 15.2079 37.6077 15.2079C34.9197 15.2079 33.1117 13.7199 32.8397 11.2879H34.6317C34.9677 12.8719 36.0397 13.6879 37.6717 13.6879C39.1757 13.6879 40.2317 12.9679 40.2317 11.8479C40.2317 10.6479 39.0797 10.1679 37.8317 9.91189L36.4077 9.62389ZM43.9046 3.39989H51.9366V4.95189H45.7286V8.2639H51.5846V9.79989H45.7286V13.4479H51.9366V14.9999H43.9046V3.39989Z" fill="black"/>
<path d="M11.0884 11.2239L11.2848 11.2617L11.3306 11.0239H11.0884V11.2239ZM11.0404 7.17594V7.37594H11.2817L11.2369 7.13886L11.0404 7.17594ZM9.28036 7.17594L9.08562 7.22152L9.12176 7.37594H9.28036V7.17594ZM9.32836 11.2239V11.0239H9.16901L9.13341 11.1792L9.32836 11.2239ZM10.892 11.1861C10.6522 12.4314 10.0675 13.3827 9.2417 14.0239C8.41464 14.6661 7.33197 15.0079 6.08036 15.0079V15.4079C7.40475 15.4079 8.57808 15.0457 9.48702 14.3399C10.3973 13.6331 11.0286 12.5924 11.2848 11.2617L10.892 11.1861ZM6.08036 15.0079C4.45304 15.0079 3.18276 14.4133 2.31637 13.3999C1.44678 12.3828 0.968359 10.9251 0.968359 9.17594H0.568359C0.568359 10.9947 1.06594 12.553 2.01235 13.6599C2.96196 14.7705 4.34768 15.4079 6.08036 15.4079V15.0079ZM0.968359 9.17594C0.968359 7.3976 1.48116 5.95323 2.38086 4.95591C3.27854 3.96083 4.57805 3.39194 6.19236 3.39194V2.99194C4.47867 2.99194 3.06619 3.59905 2.08386 4.68797C1.10356 5.77465 0.568359 7.32228 0.568359 9.17594H0.968359ZM6.19236 3.39194C7.39323 3.39194 8.43922 3.74016 9.24093 4.38572C10.042 5.03074 10.6117 5.98264 10.8439 7.21302L11.2369 7.13886C10.9891 5.82524 10.3748 4.78514 9.4918 4.07416C8.6095 3.36372 7.47149 2.99194 6.19236 2.99194V3.39194ZM11.0404 6.97594H9.28036V7.37594H11.0404V6.97594ZM9.4751 7.13036C9.29038 6.34112 8.90109 5.68354 8.32516 5.22365C7.74891 4.76352 6.99915 4.51194 6.11236 4.51194V4.91194C6.92157 4.91194 7.57981 5.14036 8.07556 5.53623C8.57163 5.93234 8.91834 6.50676 9.08562 7.22152L9.4751 7.13036ZM6.11236 4.51194C5.0797 4.51194 4.15423 4.92429 3.49045 5.72423C2.82916 6.52116 2.44036 7.68658 2.44036 9.17594H2.84036C2.84036 7.7533 3.21156 6.68672 3.79827 5.97965C4.3825 5.27559 5.19302 4.91194 6.11236 4.91194V4.51194ZM2.44036 9.17594C2.44036 10.6404 2.8167 11.8168 3.47258 12.6313C4.13144 13.4496 5.06127 13.8879 6.12836 13.8879V13.4879C5.17945 13.4879 4.36528 13.1022 3.78414 12.3805C3.20002 11.655 2.84036 10.5754 2.84036 9.17594H2.44036ZM6.12836 13.8879C7.0211 13.8879 7.77863 13.6455 8.36159 13.1894C8.94478 12.7332 9.33858 12.0746 9.52331 11.2686L9.13341 11.1792C8.96614 11.9092 8.61595 12.4826 8.11513 12.8744C7.61409 13.2663 6.94762 13.4879 6.12836 13.4879V13.8879ZM9.32836 11.4239H11.0884V11.0239H9.32836V11.4239ZM14.7138 13.4479H14.5138V13.6479H14.7138V13.4479ZM20.6978 13.4479H20.8978V13.2479H20.6978V13.4479ZM20.6978 14.9999V15.1999H20.8978V14.9999H20.6978ZM12.8898 14.9999H12.6898V15.1999H12.8898V14.9999ZM12.8898 3.39994V3.19994H12.6898V3.39994H12.8898ZM14.7138 3.39994H14.9138V3.19994H14.7138V3.39994ZM14.7138 13.6479H20.6978V13.2479H14.7138V13.6479ZM20.4978 13.4479V14.9999H20.8978V13.4479H20.4978ZM20.6978 14.7999H12.8898V15.1999H20.6978V14.7999ZM13.0898 14.9999V3.39994H12.6898V14.9999H13.0898ZM12.8898 3.59994H14.7138V3.19994H12.8898V3.59994ZM14.5138 3.39994V13.4479H14.9138V3.39994H14.5138ZM26.1627 15.0079C24.5267 15.0079 23.2106 14.4087 22.3017 13.3926C21.3907 12.3741 20.8747 10.9208 20.8747 9.19194H20.4747C20.4747 10.999 21.0146 12.5537 22.0036 13.6592C22.9947 14.7671 24.4226 15.4079 26.1627 15.4079V15.0079ZM20.8747 9.19194C20.8747 7.46306 21.3907 6.01391 22.3015 4.99956C23.2102 3.98749 24.5263 3.39194 26.1627 3.39194V2.99194C24.423 2.99194 22.9951 3.62839 22.0038 4.73232C21.0146 5.83397 20.4747 7.38482 20.4747 9.19194H20.8747ZM26.1627 3.39194C27.7907 3.39194 29.1028 3.98729 30.0097 4.99941C30.9186 6.01381 31.4347 7.46306 31.4347 9.19194H31.8347C31.8347 7.38482 31.2947 5.83407 30.3076 4.73247C29.3185 3.62859 27.8946 2.99194 26.1627 2.99194V3.39194ZM31.4347 9.19194C31.4347 10.9208 30.9186 12.3742 30.0094 13.3927C29.1024 14.4089 27.7903 15.0079 26.1627 15.0079V15.4079C27.895 15.4079 29.3189 14.7669 30.3079 13.6591C31.2947 12.5536 31.8347 10.999 31.8347 9.19194H31.4347ZM26.1627 13.8879C27.2262 13.8879 28.1829 13.4685 28.8708 12.6617C29.5568 11.8571 29.9627 10.6832 29.9627 9.19194H29.5627C29.5627 10.6126 29.1765 11.6867 28.5665 12.4021C27.9584 13.1153 27.1151 13.4879 26.1627 13.4879V13.8879ZM29.9627 9.19194C29.9627 7.70065 29.5568 6.53048 28.8705 5.72978C28.1823 4.92684 27.2255 4.51194 26.1627 4.51194V4.91194C27.1158 4.91194 27.959 5.28104 28.5668 5.9901C29.1765 6.7014 29.5627 7.77123 29.5627 9.19194H29.9627ZM26.1627 4.51194C25.0923 4.51194 24.1315 4.9265 23.441 5.72955C22.7525 6.53034 22.3467 7.70066 22.3467 9.19194H22.7467C22.7467 7.77122 23.1328 6.70154 23.7443 5.99033C24.3538 5.28138 25.201 4.91194 26.1627 4.91194V4.51194ZM22.3467 9.19194C22.3467 10.6832 22.7525 11.8572 23.4407 12.6619C24.1308 13.4689 25.0916 13.8879 26.1627 13.8879V13.4879C25.2017 13.4879 24.3545 13.1149 23.7446 12.4019C23.1328 11.6866 22.7467 10.6126 22.7467 9.19194H22.3467ZM41.8485 6.50394V6.70394H42.0905L42.0449 6.46627L41.8485 6.50394ZM40.0885 6.50394L39.8953 6.55561L39.935 6.70394H40.0885V6.50394ZM32.8405 11.2879V11.0879H32.6169L32.6418 11.3101L32.8405 11.2879ZM34.6325 11.2879L34.8282 11.2464L34.7946 11.0879H34.6325V11.2879ZM36.4485 9.42797C35.6443 9.26401 34.8766 8.95852 34.3135 8.47077C33.7567 7.98848 33.3925 7.32253 33.3925 6.40794H32.9925C32.9925 7.44535 33.4124 8.2194 34.0516 8.77311C34.6845 9.32136 35.5248 9.64787 36.3686 9.81991L36.4485 9.42797ZM33.3925 6.40794C33.3925 5.39343 33.9177 4.64697 34.6895 4.14567C35.4669 3.64073 36.4871 3.39194 37.4325 3.39194V2.99194C36.4259 2.99194 35.3262 3.25515 34.4716 3.81021C33.6114 4.36891 32.9925 5.23045 32.9925 6.40794H33.3925ZM37.4325 3.39194C38.4678 3.39194 39.4172 3.62952 40.1575 4.13691C40.8935 4.64143 41.4375 5.42236 41.6521 6.54161L42.0449 6.46627C41.8116 5.24952 41.2115 4.37445 40.3836 3.80697C39.5599 3.24236 38.5253 2.99194 37.4325 2.99194V3.39194ZM41.8485 6.30394H40.0885V6.70394H41.8485V6.30394ZM40.2817 6.45227C39.8786 4.94491 38.4918 4.51194 37.3525 4.51194V4.91194C38.4213 4.91194 39.5624 5.31097 39.8953 6.55561L40.2817 6.45227ZM37.3525 4.51194C36.9039 4.51194 36.2936 4.61658 35.788 4.88768C35.2775 5.1614 34.8485 5.62211 34.8485 6.32794H35.2485C35.2485 5.81776 35.5475 5.47048 35.977 5.2402C36.4114 5.0073 36.9532 4.91194 37.3525 4.91194V4.51194ZM34.8485 6.32794C34.8485 6.86947 35.0685 7.28801 35.4266 7.59399C35.7778 7.89406 36.2539 8.08001 36.7675 8.18768L36.8496 7.7962C36.3711 7.69587 35.9673 7.52982 35.6864 7.28988C35.4126 7.05587 35.2485 6.74641 35.2485 6.32794H34.8485ZM36.7675 8.18768L38.1436 8.4757L38.2255 8.08418L36.8496 7.7962L36.7675 8.18768ZM38.1436 8.4757C39.0679 8.66694 40.0057 8.9328 40.7101 9.42399C41.4016 9.90617 41.8725 10.6073 41.8725 11.7039H42.2725C42.2725 10.4645 41.7274 9.64571 40.9389 9.09589C40.1633 8.55508 39.1572 8.27694 38.2255 8.08418L38.1436 8.4757ZM41.8725 11.7039C41.8725 12.7826 41.3593 13.6009 40.5713 14.1564C39.7778 14.7159 38.7044 15.0079 37.6085 15.0079V15.4079C38.7687 15.4079 39.9273 15.0999 40.8018 14.4834C41.6818 13.8629 42.2725 12.9292 42.2725 11.7039H41.8725ZM37.6085 15.0079C36.3011 15.0079 35.2249 14.6463 34.4456 14.0054C33.6678 13.3658 33.1701 12.4353 33.0393 11.2657L32.6418 11.3101C32.7829 12.5725 33.3253 13.602 34.1915 14.3144C35.0561 15.0255 36.2279 15.4079 37.6085 15.4079V15.0079ZM32.8405 11.4879H34.6325V11.0879H32.8405V11.4879ZM34.4369 11.3294C34.6126 12.1577 34.9852 12.8029 35.5433 13.2394C36.1006 13.6753 36.8233 13.8879 37.6725 13.8879V13.4879C36.8897 13.4879 36.2605 13.2925 35.7897 12.9244C35.3199 12.5569 34.9885 12.0021 34.8282 11.2464L34.4369 11.3294ZM37.6725 13.8879C38.4538 13.8879 39.1376 13.7012 39.6321 13.3511C40.1317 12.9974 40.4325 12.479 40.4325 11.8479H40.0325C40.0325 12.3368 39.8053 12.7384 39.401 13.0247C38.9915 13.3146 38.3953 13.4879 37.6725 13.4879V13.8879ZM40.4325 11.8479C40.4325 11.1693 40.1006 10.6922 39.613 10.3605C39.1355 10.0357 38.5037 9.84545 37.8727 9.71602L37.7923 10.1078C38.4093 10.2344 38.9776 10.4121 39.388 10.6913C39.7884 10.9636 40.0325 11.3265 40.0325 11.8479H40.4325ZM37.8727 9.71602L36.4485 9.42797L36.3686 9.81991L37.7923 10.1078L37.8727 9.71602ZM43.9054 3.39994V3.19994H43.7054V3.39994H43.9054ZM51.9374 3.39994H52.1374V3.19994H51.9374V3.39994ZM51.9374 4.95194V5.15194H52.1374V4.95194H51.9374ZM45.7294 4.95194V4.75194H45.5294V4.95194H45.7294ZM45.7294 8.26394H45.5294V8.46394H45.7294V8.26394ZM51.5854 8.26394H51.7854V8.06394H51.5854V8.26394ZM51.5854 9.79994V9.99994H51.7854V9.79994H51.5854ZM45.7294 9.79994V9.59994H45.5294V9.79994H45.7294ZM45.7294 13.4479H45.5294V13.6479H45.7294V13.4479ZM51.9374 13.4479H52.1374V13.2479H51.9374V13.4479ZM51.9374 14.9999V15.1999H52.1374V14.9999H51.9374ZM43.9054 14.9999H43.7054V15.1999H43.9054V14.9999ZM43.9054 3.59994H51.9374V3.19994H43.9054V3.59994ZM51.7374 3.39994V4.95194H52.1374V3.39994H51.7374ZM51.9374 4.75194H45.7294V5.15194H51.9374V4.75194ZM45.5294 4.95194V8.26394H45.9294V4.95194H45.5294ZM45.7294 8.46394H51.5854V8.06394H45.7294V8.46394ZM51.3854 8.26394V9.79994H51.7854V8.26394H51.3854ZM51.5854 9.59994H45.7294V9.99994H51.5854V9.59994ZM45.5294 9.79994V13.4479H45.9294V9.79994H45.5294ZM45.7294 13.6479H51.9374V13.2479H45.7294V13.6479ZM51.7374 13.4479V14.9999H52.1374V13.4479H51.7374ZM51.9374 14.7999H43.9054V15.1999H51.9374V14.7999ZM44.1054 14.9999V3.39994H43.7054V14.9999H44.1054Z" fill="black"/>
<mask id="mask0_4_163" style="mask-type:luminance" maskUnits="userSpaceOnUse" x="58" y="2" width="15" height="15">
<path d="M73 2H58V17H73V2Z" fill="white"/>
</mask>
<g mask="url(#mask0_4_163)">
<path d="M69.4785 4.63867L65.5009 8.61615L61.5235 4.63867L60.6396 5.52255L64.6172 9.50003L60.6396 13.4775L61.5235 14.3614L65.5009 10.3839L69.4785 14.3614L70.3623 13.4775L66.3849 9.50003L70.3623 5.52255L69.4785 4.63867Z" fill="black" stroke="black" stroke-width="0.4"/>
</g>
</svg>
