<svg width="73" height="22" viewBox="0 0 73 22" fill="none" xmlns="http://www.w3.org/2000/svg">
<path d="M11.088 11.224C10.592 13.8 8.656 15.208 6.08 15.208C2.72 15.208 0.768 12.744 0.768 9.176C0.768 5.544 2.864 3.192 6.192 3.192C8.672 3.192 10.56 4.632 11.04 7.176H9.28C8.928 5.672 7.808 4.712 6.112 4.712C4.16 4.712 2.64 6.264 2.64 9.176C2.64 12.04 4.112 13.688 6.128 13.688C7.84 13.688 8.976 12.76 9.328 11.224H11.088ZM14.7134 13.448H20.6974V15H12.8894V3.4H14.7134V13.448ZM26.1623 15.208C22.7863 15.208 20.6743 12.728 20.6743 9.192C20.6743 5.656 22.7863 3.192 26.1623 3.192C29.5223 3.192 31.6343 5.656 31.6343 9.192C31.6343 12.728 29.5223 15.208 26.1623 15.208ZM26.1623 13.688C28.1783 13.688 29.7623 12.104 29.7623 9.192C29.7623 6.28 28.1783 4.712 26.1623 4.712C24.1302 4.712 22.5463 6.28 22.5463 9.192C22.5463 12.104 24.1302 13.688 26.1623 13.688ZM36.4081 9.624C34.7601 9.288 33.1921 8.36 33.1921 6.408C33.1921 4.216 35.4801 3.192 37.4321 3.192C39.5601 3.192 41.4001 4.168 41.8481 6.504H40.0881C39.7201 5.128 38.4561 4.712 37.3521 4.712C36.5041 4.712 35.0481 5.112 35.0481 6.328C35.0481 7.288 35.8161 7.784 36.8081 7.992L38.1841 8.28C40.0401 8.664 42.0721 9.368 42.0721 11.704C42.0721 14.008 39.8641 15.208 37.6081 15.208C34.9201 15.208 33.1121 13.72 32.8401 11.288H34.6321C34.9681 12.872 36.0401 13.688 37.6721 13.688C39.1761 13.688 40.2321 12.968 40.2321 11.848C40.2321 10.648 39.0801 10.168 37.8321 9.912L36.4081 9.624ZM43.905 3.4H51.937V4.952H45.729V8.264H51.585V9.8H45.729V13.448H51.937V15H43.905V3.4Z" fill="black"/>
<path d="M69.4784 4.63864L65.5009 8.61612L61.5235 4.63864L60.6396 5.52252L64.6171 9.5L60.6396 13.4775L61.5235 14.3614L65.5009 10.3839L69.4784 14.3614L70.3623 13.4775L66.3848 9.5L70.3623 5.52252L69.4784 4.63864Z" fill="black"/>
</svg>
