<svg width="140" height="30" viewBox="0 0 140 30" fill="none" xmlns="http://www.w3.org/2000/svg">
<g clip-path="url(#clip0_4_111)">
<mask id="mask0_4_111" style="mask-type:luminance" maskUnits="userSpaceOnUse" x="0" y="0" width="140" height="30">
<path d="M140 0H0V30H140V0Z" fill="white"/>
</mask>
<g mask="url(#mask0_4_111)">
<path d="M135 0.5H5C2.51472 0.5 0.5 2.51472 0.5 5V25C0.5 27.4853 2.51472 29.5 5 29.5H135C137.485 29.5 139.5 27.4853 139.5 25V5C139.5 2.51472 137.485 0.5 135 0.5Z" fill="black"/>
<path d="M135 0.5H5C2.51472 0.5 0.5 2.51472 0.5 5V25C0.5 27.4853 2.51472 29.5 5 29.5H135C137.485 29.5 139.5 27.4853 139.5 25V5C139.5 2.51472 137.485 0.5 135 0.5Z" stroke="#D4D4D4"/>
<path d="M21.1423 17.2239C20.6463 19.7999 18.7103 21.2079 16.1343 21.2079C12.7743 21.2079 10.8223 18.7439 10.8223 15.1759C10.8223 11.5439 12.9183 9.19189 16.2463 9.19189C18.7263 9.19189 20.6143 10.6319 21.0943 13.1759H19.3343C18.9823 11.6719 17.8623 10.7119 16.1663 10.7119C14.2143 10.7119 12.6943 12.2639 12.6943 15.1759C12.6943 18.0399 14.1663 19.6879 16.1823 19.6879C17.8943 19.6879 19.0303 18.7599 19.3823 17.2239H21.1423ZM27.9197 21.2079C24.5437 21.2079 22.4317 18.7279 22.4317 15.1919C22.4317 11.6559 24.5437 9.19189 27.9197 9.19189C31.2797 9.19189 33.3917 11.6559 33.3917 15.1919C33.3917 18.7279 31.2797 21.2079 27.9197 21.2079ZM27.9197 19.6879C29.9357 19.6879 31.5197 18.1039 31.5197 15.1919C31.5197 12.2799 29.9357 10.7119 27.9197 10.7119C25.8877 10.7119 24.3037 12.2799 24.3037 15.1919C24.3037 18.1039 25.8877 19.6879 27.9197 19.6879ZM42.3557 20.9999L37.2357 11.3999V20.9999H35.4437V9.39989H37.9877L43.1077 18.9839V9.39989H44.8997V20.9999H42.3557ZM49.9393 10.9519H46.2113V9.39989H55.4753V10.9519H51.7633V20.9999H49.9393V10.9519ZM58.6552 9.39989H60.6712L65.0392 20.9999H63.0552L62.1432 18.4559H57.1032L56.2072 20.9999H54.3512L58.6552 9.39989ZM57.6472 16.9199H61.5832L59.5992 11.3839L57.6472 16.9199ZM75.7048 17.2239C75.2088 19.7999 73.2728 21.2079 70.6968 21.2079C67.3368 21.2079 65.3848 18.7439 65.3848 15.1759C65.3848 11.5439 67.4808 9.19189 70.8088 9.19189C73.2888 9.19189 75.1768 10.6319 75.6568 13.1759H73.8968C73.5448 11.6719 72.4248 10.7119 70.7288 10.7119C68.7768 10.7119 67.2568 12.2639 67.2568 15.1759C67.2568 18.0399 68.7288 19.6879 70.7448 19.6879C72.4568 19.6879 73.5928 18.7599 73.9448 17.2239H75.7048ZM79.7518 10.9519H76.0238V9.39989H85.2878V10.9519H81.5758V20.9999H79.7518V10.9519ZM91.9979 9.39989V16.3599C91.9979 18.5519 92.6859 19.6719 94.8619 19.6719C97.0379 19.6719 97.7419 18.4399 97.7419 16.2319V9.39989H99.5659V16.1359C99.5659 19.6559 98.2379 21.2079 94.8619 21.2079C91.5819 21.2079 90.1739 19.8959 90.1739 16.2319V9.39989H91.9979ZM104.728 15.6239C103.08 15.2879 101.512 14.3599 101.512 12.4079C101.512 10.2159 103.8 9.19189 105.752 9.19189C107.88 9.19189 109.72 10.1679 110.168 12.5039H108.408C108.04 11.1279 106.776 10.7119 105.672 10.7119C104.824 10.7119 103.368 11.1119 103.368 12.3279C103.368 13.2879 104.136 13.7839 105.128 13.9919L106.504 14.2799C108.36 14.6639 110.392 15.3679 110.392 17.7039C110.392 20.0079 108.184 21.2079 105.928 21.2079C103.24 21.2079 101.432 19.7199 101.16 17.2879H102.952C103.288 18.8719 104.36 19.6879 105.992 19.6879C107.496 19.6879 108.552 18.9679 108.552 17.8479C108.552 16.6479 107.4 16.1679 106.152 15.9119L104.728 15.6239Z" fill="#D4D4D4"/>
<path d="M21.143 17.2239L21.3394 17.2617L21.3852 17.0239H21.143V17.2239ZM21.095 13.1759V13.3759H21.3363L21.2915 13.1388L21.095 13.1759ZM19.335 13.1759L19.1403 13.2215L19.1764 13.3759H19.335V13.1759ZM19.383 17.2239V17.0239H19.2236L19.188 17.1792L19.383 17.2239ZM20.9466 17.1861C20.7068 18.4314 20.1221 19.3827 19.2963 20.0239C18.4693 20.6661 17.3866 21.0079 16.135 21.0079V21.4079C17.4594 21.4079 18.6327 21.0457 19.5417 20.3399C20.4518 19.6331 21.0832 18.5924 21.3394 17.2617L20.9466 17.1861ZM16.135 21.0079C14.5077 21.0079 13.2374 20.4133 12.371 19.3999C11.5014 18.3828 11.023 16.9251 11.023 15.1759H10.623C10.623 16.9947 11.1206 18.553 12.067 19.6599C13.0166 20.7705 14.4023 21.4079 16.135 21.4079V21.0079ZM11.023 15.1759C11.023 13.3976 11.5358 11.9532 12.4355 10.9559C13.3332 9.96083 14.6327 9.39194 16.247 9.39194V8.99194C14.5333 8.99194 13.1208 9.59905 12.1385 10.6879C11.1582 11.7746 10.623 13.3222 10.623 15.1759H11.023ZM16.247 9.39194C17.4479 9.39194 18.4938 9.74016 19.2956 10.3857C20.0966 11.0307 20.6663 11.9826 20.8985 13.213L21.2915 13.1388C21.0437 11.8252 20.4294 10.7851 19.5464 10.0741C18.6641 9.36372 17.5261 8.99194 16.247 8.99194V9.39194ZM21.095 12.9759H19.335V13.3759H21.095V12.9759ZM19.5297 13.1303C19.345 12.3411 18.9557 11.6835 18.3798 11.2236C17.8035 10.7635 17.0538 10.5119 16.167 10.5119V10.9119C16.9762 10.9119 17.6344 11.1403 18.1302 11.5362C18.6263 11.9323 18.973 12.5067 19.1403 13.2215L19.5297 13.1303ZM16.167 10.5119C15.1343 10.5119 14.2089 10.9242 13.5451 11.7242C12.8838 12.5211 12.495 13.6865 12.495 15.1759H12.895C12.895 13.7533 13.2662 12.6867 13.8529 11.9796C14.4371 11.2756 15.2476 10.9119 16.167 10.9119V10.5119ZM12.495 15.1759C12.495 16.6404 12.8713 17.8168 13.5272 18.6313C14.1861 19.4496 15.1159 19.8879 16.183 19.8879V19.4879C15.2341 19.4879 14.4199 19.1022 13.8388 18.3805C13.2546 17.655 12.895 16.5754 12.895 15.1759H12.495ZM16.183 19.8879C17.0757 19.8879 17.8333 19.6455 18.4162 19.1894C18.9994 18.7332 19.3932 18.0746 19.5779 17.2686L19.188 17.1792C19.0208 17.9092 18.6706 18.4826 18.1698 18.8744C17.6687 19.2663 17.0023 19.4879 16.183 19.4879V19.8879ZM19.383 17.4239H21.143V17.0239H19.383V17.4239ZM27.9204 21.0079C26.2844 21.0079 24.9684 20.4087 24.0594 19.3926C23.1484 18.3741 22.6324 16.9208 22.6324 15.1919H22.2324C22.2324 16.999 22.7723 18.5537 23.7613 19.6592C24.7524 20.7671 26.1803 21.4079 27.9204 21.4079V21.0079ZM22.6324 15.1919C22.6324 13.463 23.1484 12.0139 24.0592 10.9995C24.9679 9.98749 26.284 9.39194 27.9204 9.39194V8.99194C26.1807 8.99194 24.7528 9.62839 23.7616 10.7323C22.7724 11.8339 22.2324 13.3848 22.2324 15.1919H22.6324ZM27.9204 9.39194C29.5484 9.39194 30.8605 9.98729 31.7674 10.9994C32.6763 12.0138 33.1924 13.463 33.1924 15.1919H33.5924C33.5924 13.3848 33.0524 11.834 32.0653 10.7324C31.0762 9.62859 29.6523 8.99194 27.9204 8.99194V9.39194ZM33.1924 15.1919C33.1924 16.9208 32.6763 18.3742 31.7672 19.3927C30.8601 20.4089 29.548 21.0079 27.9204 21.0079V21.4079C29.6527 21.4079 31.0766 20.7669 32.0656 19.6591C33.0524 18.5536 33.5924 16.999 33.5924 15.1919H33.1924ZM27.9204 19.8879C28.9839 19.8879 29.9406 19.4685 30.6286 18.6617C31.3145 17.8571 31.7204 16.6832 31.7204 15.1919H31.3204C31.3204 16.6126 30.9342 17.6867 30.3242 18.4021C29.7161 19.1153 28.8729 19.4879 27.9204 19.4879V19.8879ZM31.7204 15.1919C31.7204 13.7006 31.3145 12.5304 30.6282 11.7297C29.94 10.9268 28.9832 10.5119 27.9204 10.5119V10.9119C28.8735 10.9119 29.7168 11.281 30.3245 11.9901C30.9342 12.7014 31.3204 13.7712 31.3204 15.1919H31.7204ZM27.9204 10.5119C26.85 10.5119 25.8892 10.9265 25.1987 11.7295C24.5102 12.5303 24.1044 13.7006 24.1044 15.1919H24.5044C24.5044 13.7712 24.8905 12.7015 25.502 11.9903C26.1116 11.2813 26.9588 10.9119 27.9204 10.9119V10.5119ZM24.1044 15.1919C24.1044 16.6832 24.5102 17.8572 25.1984 18.6619C25.8885 19.4689 26.8493 19.8879 27.9204 19.8879V19.4879C26.9594 19.4879 26.1122 19.1149 25.5024 18.4019C24.8905 17.6866 24.5044 16.6126 24.5044 15.1919H24.1044ZM42.3564 20.9999L42.1799 21.094L42.2364 21.1999H42.3564V20.9999ZM37.2364 11.3999L37.4128 11.3058L37.0364 11.3999H37.2364ZM37.2364 20.9999V21.1999H37.4364V20.9999H37.2364ZM35.4444 20.9999H35.2444V21.1999H35.4444V20.9999ZM35.4444 9.39994V9.19994H35.2444V9.39994H35.4444ZM37.9884 9.39994L38.1648 9.3057L38.1083 9.19994H37.9884V9.39994ZM43.1084 18.9839L42.932 19.0781L43.3084 18.9839H43.1084ZM43.1084 9.39994V9.19994H42.9084V9.39994H43.1084ZM44.9004 9.39994H45.1004V9.19994H44.9004V9.39994ZM44.9004 20.9999V21.1999H45.1004V20.9999H44.9004ZM42.5328 20.9058L37.4128 11.3058L37.0599 11.494L42.1799 21.094L42.5328 20.9058ZM37.0364 11.3999V20.9999H37.4364V11.3999H37.0364ZM37.2364 20.7999H35.4444V21.1999H37.2364V20.7999ZM35.6444 20.9999V9.39994H35.2444V20.9999H35.6444ZM35.4444 9.59994H37.9884V9.19994H35.4444V9.59994ZM37.812 9.49418L42.932 19.0781L43.2848 18.8897L38.1648 9.3057L37.812 9.49418ZM43.3084 18.9839V9.39994H42.9084V18.9839H43.3084ZM43.1084 9.59994H44.9004V9.19994H43.1084V9.59994ZM44.7004 9.39994V20.9999H45.1004V9.39994H44.7004ZM44.9004 20.7999H42.3564V21.1999H44.9004V20.7999ZM49.94 10.9519H50.14V10.7519H49.94V10.9519ZM46.212 10.9519H46.012V11.1519H46.212V10.9519ZM46.212 9.39994V9.19994H46.012V9.39994H46.212ZM55.476 9.39994H55.676V9.19994H55.476V9.39994ZM55.476 10.9519V11.1519H55.676V10.9519H55.476ZM51.764 10.9519V10.7519H51.564V10.9519H51.764ZM51.764 20.9999V21.1999H51.964V20.9999H51.764ZM49.94 20.9999H49.74V21.1999H49.94V20.9999ZM49.94 10.7519H46.212V11.1519H49.94V10.7519ZM46.412 10.9519V9.39994H46.012V10.9519H46.412ZM46.212 9.59994H55.476V9.19994H46.212V9.59994ZM55.276 9.39994V10.9519H55.676V9.39994H55.276ZM55.476 10.7519H51.764V11.1519H55.476V10.7519ZM51.564 10.9519V20.9999H51.964V10.9519H51.564ZM51.764 20.7999H49.94V21.1999H51.764V20.7999ZM50.14 20.9999V10.9519H49.74V20.9999H50.14ZM58.6559 9.39994V9.19994H58.5167L58.4684 9.33037L58.6559 9.39994ZM60.6719 9.39994L60.859 9.32946L60.8103 9.19994H60.6719V9.39994ZM65.0399 20.9999V21.1999H65.3289L65.227 20.9294L65.0399 20.9999ZM63.0559 20.9999L62.8676 21.0674L62.9151 21.1999H63.0559V20.9999ZM62.1439 18.4559L62.3321 18.3884L62.2846 18.2559H62.1439V18.4559ZM57.1039 18.4559V18.2559H56.9623L56.9152 18.3895L57.1039 18.4559ZM56.2079 20.9999V21.1999H56.3495L56.3965 21.0663L56.2079 20.9999ZM54.3519 20.9999L54.1644 20.9303L54.0643 21.1999H54.3519V20.9999ZM57.6479 16.9199L57.4592 16.8534L57.3653 17.1199H57.6479V16.9199ZM61.5839 16.9199V17.1199H61.868L61.7721 16.8524L61.5839 16.9199ZM59.5999 11.3839L59.7881 11.3164L59.5983 10.7868L59.4112 11.3174L59.5999 11.3839ZM58.6559 9.59994H60.6719V9.19994H58.6559V9.59994ZM60.4847 9.47042L64.8527 21.0704L65.227 20.9294L60.859 9.32946L60.4847 9.47042ZM65.0399 20.7999H63.0559V21.1999H65.0399V20.7999ZM63.2441 20.9324L62.3321 18.3884L61.9556 18.5234L62.8676 21.0674L63.2441 20.9324ZM62.1439 18.2559H57.1039V18.6559H62.1439V18.2559ZM56.9152 18.3895L56.0192 20.9335L56.3965 21.0663L57.2925 18.5223L56.9152 18.3895ZM56.2079 20.7999H54.3519V21.1999H56.2079V20.7999ZM54.5394 21.0695L58.8434 9.46951L58.4684 9.33037L54.1644 20.9303L54.5394 21.0695ZM57.6479 17.1199H61.5839V16.7199H57.6479V17.1199ZM61.7721 16.8524L59.7881 11.3164L59.4116 11.4514L61.3956 16.9874L61.7721 16.8524ZM59.4112 11.3174L57.4592 16.8534L57.8365 16.9864L59.7885 11.4504L59.4112 11.3174ZM75.7056 17.2239L75.9019 17.2617L75.9478 17.0239H75.7056V17.2239ZM75.6575 13.1759V13.3759H75.8988L75.854 13.1388L75.6575 13.1759ZM73.8975 13.1759L73.7028 13.2215L73.7389 13.3759H73.8975V13.1759ZM73.9455 17.2239V17.0239H73.7861L73.7505 17.1792L73.9455 17.2239ZM75.5091 17.1861C75.2693 18.4314 74.6846 19.3827 73.8588 20.0239C73.0318 20.6661 71.9491 21.0079 70.6975 21.0079V21.4079C72.0219 21.4079 73.1952 21.0457 74.1042 20.3399C75.0143 19.6331 75.6457 18.5924 75.9019 17.2617L75.5091 17.1861ZM70.6975 21.0079C69.0702 21.0079 67.7999 20.4133 66.9335 19.3999C66.0639 18.3828 65.5855 16.9251 65.5855 15.1759H65.1856C65.1856 16.9947 65.6832 18.553 66.6296 19.6599C67.5792 20.7705 68.9648 21.4079 70.6975 21.4079V21.0079ZM65.5855 15.1759C65.5855 13.3976 66.0984 11.9532 66.9981 10.9559C67.8958 9.96083 69.1952 9.39194 70.8095 9.39194V8.99194C69.0958 8.99194 67.6833 9.59905 66.701 10.6879C65.7207 11.7746 65.1856 13.3222 65.1856 15.1759H65.5855ZM70.8095 9.39194C72.0104 9.39194 73.0564 9.74016 73.8582 10.3857C74.6592 11.0307 75.2288 11.9826 75.461 13.213L75.854 13.1388C75.6062 11.8252 74.9919 10.7851 74.1089 10.0741C73.2266 9.36372 72.0886 8.99194 70.8095 8.99194V9.39194ZM75.6575 12.9759H73.8975V13.3759H75.6575V12.9759ZM74.0923 13.1303C73.9076 12.3411 73.5182 11.6835 72.9423 11.2236C72.366 10.7635 71.6163 10.5119 70.7295 10.5119V10.9119C71.5387 10.9119 72.1969 11.1403 72.6927 11.5362C73.1888 11.9323 73.5355 12.5067 73.7028 13.2215L74.0923 13.1303ZM70.7295 10.5119C69.6968 10.5119 68.7714 10.9242 68.1076 11.7242C67.4463 12.5211 67.0575 13.6865 67.0575 15.1759H67.4575C67.4575 13.7533 67.8287 12.6867 68.4154 11.9796C68.9996 11.2756 69.8101 10.9119 70.7295 10.9119V10.5119ZM67.0575 15.1759C67.0575 16.6404 67.4338 17.8168 68.0897 18.6313C68.7486 19.4496 69.6784 19.8879 70.7455 19.8879V19.4879C69.7966 19.4879 68.9824 19.1022 68.4013 18.3805C67.8171 17.655 67.4575 16.5754 67.4575 15.1759H67.0575ZM70.7455 19.8879C71.6382 19.8879 72.3958 19.6455 72.9787 19.1894C73.5619 18.7332 73.9557 18.0746 74.1404 17.2686L73.7505 17.1792C73.5833 17.9092 73.2331 18.4826 72.7323 18.8744C72.2312 19.2663 71.5648 19.4879 70.7455 19.4879V19.8879ZM73.9455 17.4239H75.7056V17.0239H73.9455V17.4239ZM79.7525 10.9519H79.9525V10.7519H79.7525V10.9519ZM76.0246 10.9519H75.8246V11.1519H76.0246V10.9519ZM76.0246 9.39994V9.19994H75.8246V9.39994H76.0246ZM85.2885 9.39994H85.4885V9.19994H85.2885V9.39994ZM85.2885 10.9519V11.1519H85.4885V10.9519H85.2885ZM81.5766 10.9519V10.7519H81.3765V10.9519H81.5766ZM81.5766 20.9999V21.1999H81.7766V20.9999H81.5766ZM79.7525 20.9999H79.5526V21.1999H79.7525V20.9999ZM79.7525 10.7519H76.0246V11.1519H79.7525V10.7519ZM76.2245 10.9519V9.39994H75.8246V10.9519H76.2245ZM76.0246 9.59994H85.2885V9.19994H76.0246V9.59994ZM85.0885 9.39994V10.9519H85.4885V9.39994H85.0885ZM85.2885 10.7519H81.5766V11.1519H85.2885V10.7519ZM81.3765 10.9519V20.9999H81.7766V10.9519H81.3765ZM81.5766 20.7999H79.7525V21.1999H81.5766V20.7999ZM79.9525 20.9999V10.9519H79.5526V20.9999H79.9525ZM91.9986 9.39994H92.1987V9.19994H91.9986V9.39994ZM97.7426 9.39994V9.19994H97.5426V9.39994H97.7426ZM99.5667 9.39994H99.7666V9.19994H99.5667V9.39994ZM90.1747 9.39994V9.19994H89.9746V9.39994H90.1747ZM91.7986 9.39994V16.3599H92.1987V9.39994H91.7986ZM91.7986 16.3599C91.7986 17.4678 91.9705 18.354 92.4585 18.963C92.9553 19.5828 93.7423 19.8719 94.8626 19.8719V19.4719C93.8069 19.4719 93.162 19.201 92.7708 18.7128C92.3708 18.2138 92.1987 17.444 92.1987 16.3599H91.7986ZM94.8626 19.8719C95.9888 19.8719 96.7789 19.5513 97.2773 18.9016C97.7663 18.2642 97.9426 17.3489 97.9426 16.2319H97.5426C97.5426 17.3229 97.367 18.1276 96.9599 18.6582C96.5623 19.1765 95.9124 19.4719 94.8626 19.4719V19.8719ZM97.9426 16.2319V9.39994H97.5426V16.2319H97.9426ZM97.7426 9.59994H99.5667V9.19994H97.7426V9.59994ZM99.3667 9.39994V16.1359H99.7666V9.39994H99.3667ZM99.3667 16.1359C99.3667 17.8781 99.0366 19.0843 98.3327 19.8572C97.633 20.6257 96.5243 21.0079 94.8626 21.0079V21.4079C96.5769 21.4079 97.8202 21.0141 98.6285 20.1266C99.4327 19.2435 99.7666 17.9137 99.7666 16.1359H99.3667ZM94.8626 21.0079C93.2424 21.0079 92.1381 20.6827 91.4323 19.9547C90.7248 19.2249 90.3746 18.0461 90.3746 16.2319H89.9746C89.9746 18.0817 90.3286 19.3909 91.1451 20.2331C91.9634 21.0771 93.2028 21.4079 94.8626 21.4079V21.0079ZM90.3746 16.2319V9.39994H89.9746V16.2319H90.3746ZM90.1747 9.59994H91.9986V9.19994H90.1747V9.59994ZM110.168 12.5039V12.7039H110.41L110.365 12.4662L110.168 12.5039ZM108.408 12.5039L108.215 12.5556L108.255 12.7039H108.408V12.5039ZM101.16 17.2879V17.0879H100.937L100.962 17.3101L101.16 17.2879ZM102.952 17.2879L103.148 17.2464L103.114 17.0879H102.952V17.2879ZM104.768 15.4279C103.964 15.264 103.196 14.9585 102.633 14.4707C102.077 13.9884 101.712 13.3225 101.712 12.4079H101.312C101.312 13.4453 101.732 14.2194 102.371 14.7731C103.004 15.3213 103.845 15.6478 104.688 15.8199L104.768 15.4279ZM101.712 12.4079C101.712 11.3934 102.238 10.6469 103.009 10.1456C103.787 9.64073 104.807 9.39194 105.752 9.39194V8.99194C104.746 8.99194 103.646 9.25515 102.791 9.81021C101.931 10.3689 101.312 11.2304 101.312 12.4079H101.712ZM105.752 9.39194C106.788 9.39194 107.737 9.62952 108.477 10.1369C109.213 10.6414 109.757 11.4223 109.972 12.5416L110.365 12.4662C110.132 11.2495 109.531 10.3744 108.704 9.80697C107.88 9.24236 106.845 8.99194 105.752 8.99194V9.39194ZM110.168 12.3039H108.408V12.7039H110.168V12.3039ZM108.602 12.4522C108.199 10.9449 106.812 10.5119 105.672 10.5119V10.9119C106.741 10.9119 107.882 11.3109 108.215 12.5556L108.602 12.4522ZM105.672 10.5119C105.224 10.5119 104.614 10.6165 104.108 10.8876C103.597 11.1614 103.168 11.6221 103.168 12.3279H103.568C103.568 11.8177 103.867 11.4704 104.297 11.2402C104.731 11.0073 105.273 10.9119 105.672 10.9119V10.5119ZM103.168 12.3279C103.168 12.8694 103.388 13.288 103.747 13.594C104.098 13.894 104.574 14.08 105.087 14.1876L105.169 13.7962C104.691 13.6958 104.287 13.5298 104.006 13.2898C103.732 13.0558 103.568 12.7464 103.568 12.3279H103.168ZM105.087 14.1876L106.463 14.4757L106.545 14.0841L105.169 13.7962L105.087 14.1876ZM106.463 14.4757C107.387 14.6669 108.326 14.9328 109.03 15.424C109.722 15.9061 110.192 16.6073 110.192 17.7039H110.592C110.592 16.4645 110.047 15.6457 109.259 15.0958C108.483 14.555 107.477 14.2769 106.545 14.0841L106.463 14.4757ZM110.192 17.7039C110.192 18.7826 109.679 19.6009 108.891 20.1564C108.098 20.7159 107.024 21.0079 105.928 21.0079V21.4079C107.089 21.4079 108.247 21.0999 109.122 20.4834C110.002 19.8629 110.592 18.9292 110.592 17.7039H110.192ZM105.928 21.0079C104.621 21.0079 103.545 20.6463 102.765 20.0054C101.988 19.3658 101.49 18.4353 101.359 17.2657L100.962 17.3101C101.103 18.5725 101.645 19.602 102.511 20.3144C103.376 21.0255 104.548 21.4079 105.928 21.4079V21.0079ZM101.16 17.4879H102.952V17.0879H101.16V17.4879ZM102.757 17.3294C102.932 18.1577 103.305 18.8029 103.863 19.2394C104.42 19.6753 105.143 19.8879 105.992 19.8879V19.4879C105.21 19.4879 104.58 19.2925 104.11 18.9244C103.64 18.5569 103.308 18.0021 103.148 17.2464L102.757 17.3294ZM105.992 19.8879C106.774 19.8879 107.457 19.7012 107.952 19.3511C108.452 18.9974 108.752 18.479 108.752 17.8479H108.352C108.352 18.3368 108.125 18.7384 107.721 19.0247C107.311 19.3146 106.715 19.4879 105.992 19.4879V19.8879ZM108.752 17.8479C108.752 17.1693 108.421 16.6922 107.933 16.3605C107.455 16.0357 106.824 15.8454 106.193 15.716L106.112 16.1078C106.729 16.2344 107.297 16.4121 107.708 16.6913C108.108 16.9636 108.352 17.3265 108.352 17.8479H108.752ZM106.193 15.716L104.768 15.4279L104.688 15.8199L106.112 16.1078L106.193 15.716Z" fill="#D4D4D4"/>
<path d="M120.082 11.4997H125.674L118.049 19.1244L118.874 19.9493L126.499 12.3245V17.9163H127.666V10.333H120.082V11.4997Z" fill="#D4D4D4" stroke="#D4D4D4" stroke-width="0.4"/>
</g>
</g>
<defs>
<clipPath id="clip0_4_111">
<rect width="140" height="30" fill="white"/>
</clipPath>
</defs>
</svg>
