<svg width="154" height="30" viewBox="0 0 154 30" fill="none" xmlns="http://www.w3.org/2000/svg">
<g clip-path="url(#clip0_4_136)">
<mask id="mask0_4_136" style="mask-type:luminance" maskUnits="userSpaceOnUse" x="0" y="0" width="154" height="30">
<path d="M154 0H0V30H154V0Z" fill="white"/>
</mask>
<g mask="url(#mask0_4_136)">
<path d="M149 0.5H5C2.51472 0.5 0.5 2.51472 0.5 5V25C0.5 27.4853 2.51472 29.5 5 29.5H149C151.485 29.5 153.5 27.4853 153.5 25V5C153.5 2.51472 151.485 0.5 149 0.5Z" fill="black"/>
<path d="M149 0.5H5C2.51472 0.5 0.5 2.51472 0.5 5V25C0.5 27.4853 2.51472 29.5 5 29.5H149C151.485 29.5 153.5 27.4853 153.5 25V5C153.5 2.51472 151.485 0.5 149 0.5Z" stroke="#D4D4D4"/>
<path d="M14.5485 15.6239C12.9005 15.2879 11.3325 14.3599 11.3325 12.4079C11.3325 10.2159 13.6205 9.19189 15.5725 9.19189C17.7005 9.19189 19.5405 10.1679 19.9885 12.5039H18.2285C17.8605 11.1279 16.5965 10.7119 15.4925 10.7119C14.6445 10.7119 13.1885 11.1119 13.1885 12.3279C13.1885 13.2879 13.9565 13.7839 14.9485 13.9919L16.3245 14.2799C18.1805 14.6639 20.2125 15.3679 20.2125 17.7039C20.2125 20.0079 18.0045 21.2079 15.7485 21.2079C13.0605 21.2079 11.2525 19.7199 10.9805 17.2879H12.7725C13.1085 18.8719 14.1805 19.6879 15.8125 19.6879C17.3165 19.6879 18.3725 18.9679 18.3725 17.8479C18.3725 16.6479 17.2205 16.1679 15.9725 15.9119L14.5485 15.6239ZM22.0453 9.39989H30.0773V10.9519H23.8693V14.2639H29.7253V15.7999H23.8693V19.4479H30.0773V20.9999H22.0453V9.39989ZM38.7855 20.9999L33.6655 11.3999V20.9999H31.8735V9.39989H34.4175L39.5375 18.9839V9.39989H41.3295V20.9999H38.7855ZM47.0571 9.39989C50.7371 9.39989 53.4571 10.7279 53.4571 15.1919C53.4571 19.6719 50.7371 20.9999 47.0571 20.9999H43.8891V9.39989H47.0571ZM46.9771 10.9039H45.7131V19.4959H46.9771C49.2971 19.4959 51.5691 19.0159 51.5691 15.1919C51.5691 11.3839 49.2971 10.9039 46.9771 10.9039ZM63.8088 16.1039C63.5688 16.1199 63.3128 16.1199 63.0568 16.1199H61.0568V20.9999H59.2328V9.39989H62.9128C66.0328 9.39989 67.9048 10.0559 67.9048 12.7439C67.9048 14.4079 67.1048 15.3519 65.6648 15.7999L68.3368 20.9999H66.2888L63.8088 16.1039ZM61.0568 10.9039V14.6319H63.1528C64.8648 14.6319 66.0328 14.3759 66.0328 12.7759C66.0328 11.1119 64.7688 10.9039 63.1208 10.9039H61.0568ZM70.0922 9.39989H78.1242V10.9519H71.9162V14.2639H77.7722V15.7999H71.9162V19.4479H78.1242V20.9999H70.0922V9.39989ZM82.7203 15.6239C81.0723 15.2879 79.5043 14.3599 79.5043 12.4079C79.5043 10.2159 81.7923 9.19189 83.7443 9.19189C85.8723 9.19189 87.7123 10.1679 88.1603 12.5039H86.4003C86.0323 11.1279 84.7683 10.7119 83.6643 10.7119C82.8163 10.7119 81.3603 11.1119 81.3603 12.3279C81.3603 13.2879 82.1283 13.7839 83.1203 13.9919L84.4963 14.2799C86.3523 14.6639 88.3843 15.3679 88.3843 17.7039C88.3843 20.0079 86.1763 21.2079 83.9203 21.2079C81.2323 21.2079 79.4243 19.7199 79.1523 17.2879H80.9443C81.2803 18.8719 82.3523 19.6879 83.9843 19.6879C85.4883 19.6879 86.5443 18.9679 86.5443 17.8479C86.5443 16.6479 85.3923 16.1679 84.1443 15.9119L82.7203 15.6239ZM91.8652 9.39989V16.3599C91.8652 18.5519 92.5532 19.6719 94.7292 19.6719C96.9052 19.6719 97.6092 18.4399 97.6092 16.2319V9.39989H99.4332V16.1359C99.4332 19.6559 98.1052 21.2079 94.7292 21.2079C91.4492 21.2079 90.0412 19.8959 90.0412 16.2319V9.39989H91.8652ZM106.676 20.9999L103.588 11.2399V20.9999H101.796V9.39989H104.724L107.62 18.8719L110.516 9.39989H113.444V20.9999H111.652V11.2399L108.564 20.9999H106.676ZM115.983 9.39989H124.015V10.9519H117.807V14.2639H123.663V15.7999H117.807V19.4479H124.015V20.9999H115.983V9.39989Z" fill="#D4D4D4"/>
<path d="M19.9885 12.5039V12.7039H20.2305L20.1849 12.4662L19.9885 12.5039ZM18.2285 12.5039L18.0352 12.5556L18.0749 12.7039H18.2285V12.5039ZM10.9805 17.2879V17.0879H10.7568L10.7817 17.3101L10.9805 17.2879ZM12.7725 17.2879L12.9681 17.2464L12.9345 17.0879H12.7725V17.2879ZM14.5884 15.4279C13.7842 15.264 13.0165 14.9585 12.4534 14.4707C11.8966 13.9884 11.5325 13.3225 11.5325 12.4079H11.1325C11.1325 13.4453 11.5523 14.2194 12.1915 14.7731C12.8244 15.3213 13.6647 15.6478 14.5085 15.8199L14.5884 15.4279ZM11.5325 12.4079C11.5325 11.3934 12.0576 10.6469 12.8294 10.1456C13.6068 9.64073 14.6271 9.39194 15.5725 9.39194V8.99194C14.5658 8.99194 13.4661 9.25515 12.6115 9.81021C11.7513 10.3689 11.1325 11.2304 11.1325 12.4079H11.5325ZM15.5725 9.39194C16.6077 9.39194 17.5571 9.62952 18.2974 10.1369C19.0334 10.6414 19.5774 11.4223 19.792 12.5416L20.1849 12.4662C19.9515 11.2495 19.3515 10.3744 18.5235 9.80697C17.6998 9.24236 16.6652 8.99194 15.5725 8.99194V9.39194ZM19.9885 12.3039H18.2285V12.7039H19.9885V12.3039ZM18.4217 12.4522C18.0185 10.9449 16.6317 10.5119 15.4925 10.5119V10.9119C16.5612 10.9119 17.7024 11.3109 18.0352 12.5556L18.4217 12.4522ZM15.4925 10.5119C15.0438 10.5119 14.4336 10.6165 13.9279 10.8876C13.4174 11.1614 12.9885 11.6221 12.9885 12.3279H13.3885C13.3885 11.8177 13.6875 11.4704 14.117 11.2402C14.5513 11.0073 15.0931 10.9119 15.4925 10.9119V10.5119ZM12.9885 12.3279C12.9885 12.8694 13.2084 13.288 13.5665 13.594C13.9177 13.894 14.3939 14.08 14.9074 14.1876L14.9895 13.7962C14.511 13.6958 14.1072 13.5298 13.8264 13.2898C13.5525 13.0558 13.3885 12.7464 13.3885 12.3279H12.9885ZM14.9074 14.1876L16.2835 14.4757L16.3654 14.0841L14.9895 13.7962L14.9074 14.1876ZM16.2835 14.4757C17.2078 14.6669 18.1456 14.9328 18.8501 15.424C19.5416 15.9061 20.0125 16.6073 20.0125 17.7039H20.4125C20.4125 16.4645 19.8673 15.6457 19.0788 15.0958C18.3033 14.555 17.2971 14.2769 16.3654 14.0841L16.2835 14.4757ZM20.0125 17.7039C20.0125 18.7826 19.4992 19.6009 18.7112 20.1564C17.9177 20.7159 16.8443 21.0079 15.7485 21.0079V21.4079C16.9086 21.4079 18.0672 21.0999 18.9417 20.4834C19.8217 19.8629 20.4125 18.9292 20.4125 17.7039H20.0125ZM15.7485 21.0079C14.4411 21.0079 13.3648 20.6463 12.5855 20.0054C11.8077 19.3658 11.31 18.4353 11.1792 17.2657L10.7817 17.3101C10.9229 18.5725 11.4652 19.602 12.3314 20.3144C13.1961 21.0255 14.3678 21.4079 15.7485 21.4079V21.0079ZM10.9805 17.4879H12.7725V17.0879H10.9805V17.4879ZM12.5768 17.3294C12.7525 18.1577 13.1251 18.8029 13.6832 19.2394C14.2405 19.6753 14.9633 19.8879 15.8125 19.8879V19.4879C15.0296 19.4879 14.4004 19.2925 13.9297 18.9244C13.4598 18.5569 13.1284 18.0021 12.9681 17.2464L12.5768 17.3294ZM15.8125 19.8879C16.5937 19.8879 17.2775 19.7012 17.772 19.3511C18.2717 18.9974 18.5725 18.479 18.5725 17.8479H18.1725C18.1725 18.3368 17.9452 18.7384 17.5409 19.0247C17.1314 19.3146 16.5352 19.4879 15.8125 19.4879V19.8879ZM18.5725 17.8479C18.5725 17.1693 18.2405 16.6922 17.7529 16.3605C17.2754 16.0357 16.6436 15.8454 16.0126 15.716L15.9323 16.1078C16.5493 16.2344 17.1175 16.4121 17.528 16.6913C17.9284 16.9636 18.1725 17.3265 18.1725 17.8479H18.5725ZM16.0126 15.716L14.5884 15.4279L14.5085 15.8199L15.9323 16.1078L16.0126 15.716ZM22.0453 9.39994V9.19994H21.8453V9.39994H22.0453ZM30.0773 9.39994H30.2773V9.19994H30.0773V9.39994ZM30.0773 10.9519V11.1519H30.2773V10.9519H30.0773ZM23.8693 10.9519V10.7519H23.6693V10.9519H23.8693ZM23.8693 14.2639H23.6693V14.4639H23.8693V14.2639ZM29.7253 14.2639H29.9253V14.0639H29.7253V14.2639ZM29.7253 15.7999V15.9999H29.9253V15.7999H29.7253ZM23.8693 15.7999V15.5999H23.6693V15.7999H23.8693ZM23.8693 19.4479H23.6693V19.6479H23.8693V19.4479ZM30.0773 19.4479H30.2773V19.2479H30.0773V19.4479ZM30.0773 20.9999V21.1999H30.2773V20.9999H30.0773ZM22.0453 20.9999H21.8453V21.1999H22.0453V20.9999ZM22.0453 9.59994H30.0773V9.19994H22.0453V9.59994ZM29.8773 9.39994V10.9519H30.2773V9.39994H29.8773ZM30.0773 10.7519H23.8693V11.1519H30.0773V10.7519ZM23.6693 10.9519V14.2639H24.0693V10.9519H23.6693ZM23.8693 14.4639H29.7253V14.0639H23.8693V14.4639ZM29.5253 14.2639V15.7999H29.9253V14.2639H29.5253ZM29.7253 15.5999H23.8693V15.9999H29.7253V15.5999ZM23.6693 15.7999V19.4479H24.0693V15.7999H23.6693ZM23.8693 19.6479H30.0773V19.2479H23.8693V19.6479ZM29.8773 19.4479V20.9999H30.2773V19.4479H29.8773ZM30.0773 20.7999H22.0453V21.1999H30.0773V20.7999ZM22.2453 20.9999V9.39994H21.8453V20.9999H22.2453ZM38.7855 20.9999L38.609 21.094L38.6655 21.1999H38.7855V20.9999ZM33.6655 11.3999L33.8419 11.3058L33.4655 11.3999H33.6655ZM33.6655 20.9999V21.1999H33.8655V20.9999H33.6655ZM31.8735 20.9999H31.6735V21.1999H31.8735V20.9999ZM31.8735 9.39994V9.19994H31.6735V9.39994H31.8735ZM34.4175 9.39994L34.5939 9.3057L34.5374 9.19994H34.4175V9.39994ZM39.5375 18.9839L39.361 19.0781L39.7375 18.9839H39.5375ZM39.5375 9.39994V9.19994H39.3375V9.39994H39.5375ZM41.3295 9.39994H41.5295V9.19994H41.3295V9.39994ZM41.3295 20.9999V21.1999H41.5295V20.9999H41.3295ZM38.9619 20.9058L33.8419 11.3058L33.489 11.494L38.609 21.094L38.9619 20.9058ZM33.4655 11.3999V20.9999H33.8655V11.3999H33.4655ZM33.6655 20.7999H31.8735V21.1999H33.6655V20.7999ZM32.0735 20.9999V9.39994H31.6735V20.9999H32.0735ZM31.8735 9.59994H34.4175V9.19994H31.8735V9.59994ZM34.241 9.49418L39.361 19.0781L39.7139 18.8897L34.5939 9.3057L34.241 9.49418ZM39.7375 18.9839V9.39994H39.3375V18.9839H39.7375ZM39.5375 9.59994H41.3295V9.19994H39.5375V9.59994ZM41.1295 9.39994V20.9999H41.5295V9.39994H41.1295ZM41.3295 20.7999H38.7855V21.1999H41.3295V20.7999ZM43.8891 20.9999H43.6891V21.1999H43.8891V20.9999ZM43.8891 9.39994V9.19994H43.6891V9.39994H43.8891ZM45.7131 10.9039V10.7039H45.5131V10.9039H45.7131ZM45.7131 19.4959H45.5131V19.6959H45.7131V19.4959ZM47.0571 9.59994C48.8794 9.59994 50.4257 9.92996 51.514 10.7795C52.5922 11.6213 53.2571 13.0025 53.2571 15.1919H53.6571C53.6571 12.9173 52.9619 11.4025 51.7602 10.4643C50.5684 9.53392 48.9147 9.19994 47.0571 9.19994V9.59994ZM53.2571 15.1919C53.2571 17.3895 52.5921 18.7747 51.5138 19.6184C50.4256 20.4699 48.8794 20.7999 47.0571 20.7999V21.1999C48.9147 21.1999 50.5686 20.8659 51.7603 19.9334C52.9621 18.9931 53.6571 17.4743 53.6571 15.1919H53.2571ZM47.0571 20.7999H43.8891V21.1999H47.0571V20.7999ZM44.0891 20.9999V9.39994H43.6891V20.9999H44.0891ZM43.8891 9.59994H47.0571V9.19994H43.8891V9.59994ZM46.9771 10.7039H45.7131V11.1039H46.9771V10.7039ZM45.5131 10.9039V19.4959H45.9131V10.9039H45.5131ZM45.7131 19.6959H46.9771V19.2959H45.7131V19.6959ZM46.9771 19.6959C48.141 19.6959 49.3448 19.5781 50.2574 18.942C51.1867 18.2943 51.7691 17.1445 51.7691 15.1919H51.3691C51.3691 17.0633 50.8155 18.0655 50.0287 18.6138C49.2254 19.1737 48.1332 19.2959 46.9771 19.2959V19.6959ZM51.7691 15.1919C51.7691 13.247 51.1864 12.1011 50.2572 11.4556C49.3446 10.8217 48.141 10.7039 46.9771 10.7039V11.1039C48.1332 11.1039 49.2256 11.2261 50.029 11.7842C50.8157 12.3307 51.3691 13.3288 51.3691 15.1919H51.7691ZM63.8088 16.1039L63.9872 16.0135L63.9275 15.8955L63.7955 15.9043L63.8088 16.1039ZM61.0568 16.1199V15.9199H60.8568V16.1199H61.0568ZM61.0568 20.9999V21.1999H61.2568V20.9999H61.0568ZM59.2328 20.9999H59.0328V21.1999H59.2328V20.9999ZM59.2328 9.39994V9.19994H59.0328V9.39994H59.2328ZM65.6648 15.7999L65.6054 15.6089L65.3782 15.6796L65.4869 15.8913L65.6648 15.7999ZM68.3368 20.9999V21.1999H68.6645L68.5147 20.9085L68.3368 20.9999ZM66.2888 20.9999L66.1104 21.0903L66.1659 21.1999H66.2888V20.9999ZM61.0568 10.9039V10.7039H60.8568V10.9039H61.0568ZM61.0568 14.6319H60.8568V14.8319H61.0568V14.6319ZM63.7955 15.9043C63.5634 15.9198 63.3142 15.9199 63.0568 15.9199V16.3199C63.3114 16.3199 63.5743 16.32 63.8221 16.3035L63.7955 15.9043ZM63.0568 15.9199H61.0568V16.3199H63.0568V15.9199ZM60.8568 16.1199V20.9999H61.2568V16.1199H60.8568ZM61.0568 20.7999H59.2328V21.1999H61.0568V20.7999ZM59.4328 20.9999V9.39994H59.0328V20.9999H59.4328ZM59.2328 9.59994H62.9128V9.19994H59.2328V9.59994ZM62.9128 9.59994C64.469 9.59994 65.6696 9.76559 66.4781 10.2367C66.8771 10.4692 67.1802 10.776 67.3854 11.1783C67.5917 11.5826 67.7048 12.0946 67.7048 12.7439H68.1048C68.1048 12.0492 67.9839 11.4712 67.7417 10.9965C67.4985 10.5198 67.1386 10.1586 66.6795 9.89114C65.772 9.36229 64.4767 9.19994 62.9128 9.19994V9.59994ZM67.7048 12.7439C67.7048 13.5432 67.5132 14.1496 67.1656 14.6069C66.8175 15.065 66.2977 15.3936 65.6054 15.6089L65.7242 15.9909C66.472 15.7582 67.0722 15.3908 67.4841 14.8489C67.8965 14.3062 68.1048 13.6086 68.1048 12.7439H67.7048ZM65.4869 15.8913L68.1589 21.0913L68.5147 20.9085L65.8427 15.7085L65.4869 15.8913ZM68.3368 20.7999H66.2888V21.1999H68.3368V20.7999ZM66.4672 20.9095L63.9872 16.0135L63.6304 16.1943L66.1104 21.0903L66.4672 20.9095ZM60.8568 10.9039V14.6319H61.2568V10.9039H60.8568ZM61.0568 14.8319H63.1528V14.4319H61.0568V14.8319ZM63.1528 14.8319C64.0075 14.8319 64.7732 14.7703 65.3273 14.4812C65.6108 14.3333 65.8414 14.125 65.999 13.8369C66.1555 13.5509 66.2328 13.1996 66.2328 12.7759H65.8328C65.8328 13.1522 65.7641 13.4329 65.6481 13.6449C65.5332 13.8548 65.3649 14.0105 65.1423 14.1266C64.6844 14.3655 64.0102 14.4319 63.1528 14.4319V14.8319ZM66.2328 12.7759C66.2328 12.335 66.1491 11.9736 65.9834 11.6825C65.8167 11.3895 65.5751 11.1819 65.284 11.0369C64.7148 10.7534 63.9419 10.7039 63.1208 10.7039V11.1039C63.9478 11.1039 64.6309 11.1584 65.1057 11.3949C65.3366 11.5099 65.514 11.6663 65.6357 11.8803C65.7586 12.0961 65.8328 12.3848 65.8328 12.7759H66.2328ZM63.1208 10.7039H61.0568V11.1039H63.1208V10.7039ZM70.0922 9.39994V9.19994H69.8922V9.39994H70.0922ZM78.1242 9.39994H78.3242V9.19994H78.1242V9.39994ZM78.1242 10.9519V11.1519H78.3242V10.9519H78.1242ZM71.9162 10.9519V10.7519H71.7162V10.9519H71.9162ZM71.9162 14.2639H71.7162V14.4639H71.9162V14.2639ZM77.7722 14.2639H77.9722V14.0639H77.7722V14.2639ZM77.7722 15.7999V15.9999H77.9722V15.7999H77.7722ZM71.9162 15.7999V15.5999H71.7162V15.7999H71.9162ZM71.9162 19.4479H71.7162V19.6479H71.9162V19.4479ZM78.1242 19.4479H78.3242V19.2479H78.1242V19.4479ZM78.1242 20.9999V21.1999H78.3242V20.9999H78.1242ZM70.0922 20.9999H69.8922V21.1999H70.0922V20.9999ZM70.0922 9.59994H78.1242V9.19994H70.0922V9.59994ZM77.9242 9.39994V10.9519H78.3242V9.39994H77.9242ZM78.1242 10.7519H71.9162V11.1519H78.1242V10.7519ZM71.7162 10.9519V14.2639H72.1162V10.9519H71.7162ZM71.9162 14.4639H77.7722V14.0639H71.9162V14.4639ZM77.5722 14.2639V15.7999H77.9722V14.2639H77.5722ZM77.7722 15.5999H71.9162V15.9999H77.7722V15.5999ZM71.7162 15.7999V19.4479H72.1162V15.7999H71.7162ZM71.9162 19.6479H78.1242V19.2479H71.9162V19.6479ZM77.9242 19.4479V20.9999H78.3242V19.4479H77.9242ZM78.1242 20.7999H70.0922V21.1999H78.1242V20.7999ZM70.2922 20.9999V9.39994H69.8922V20.9999H70.2922ZM88.1603 12.5039V12.7039H88.4023L88.3567 12.4662L88.1603 12.5039ZM86.4003 12.5039L86.2071 12.5556L86.2468 12.7039H86.4003V12.5039ZM79.1523 17.2879V17.0879H78.9287L78.9536 17.3101L79.1523 17.2879ZM80.9443 17.2879L81.14 17.2464L81.1064 17.0879H80.9443V17.2879ZM82.7603 15.4279C81.9561 15.264 81.1884 14.9585 80.6253 14.4707C80.0685 13.9884 79.7043 13.3225 79.7043 12.4079H79.3043C79.3043 13.4453 79.7242 14.2194 80.3634 14.7731C80.9963 15.3213 81.8366 15.6478 82.6804 15.8199L82.7603 15.4279ZM79.7043 12.4079C79.7043 11.3934 80.2295 10.6469 81.0013 10.1456C81.7787 9.64073 82.7989 9.39194 83.7443 9.39194V8.99194C82.7377 8.99194 81.638 9.25515 80.7834 9.81021C79.9232 10.3689 79.3043 11.2304 79.3043 12.4079H79.7043ZM83.7443 9.39194C84.7796 9.39194 85.729 9.62952 86.4693 10.1369C87.2053 10.6414 87.7493 11.4223 87.9639 12.5416L88.3567 12.4662C88.1234 11.2495 87.5233 10.3744 86.6954 9.80697C85.8717 9.24236 84.8371 8.99194 83.7443 8.99194V9.39194ZM88.1603 12.3039H86.4003V12.7039H88.1603V12.3039ZM86.5935 12.4522C86.1904 10.9449 84.8036 10.5119 83.6643 10.5119V10.9119C84.7331 10.9119 85.8742 11.3109 86.2071 12.5556L86.5935 12.4522ZM83.6643 10.5119C83.2157 10.5119 82.6054 10.6165 82.0998 10.8876C81.5893 11.1614 81.1603 11.6221 81.1603 12.3279H81.5603C81.5603 11.8177 81.8593 11.4704 82.2888 11.2402C82.7232 11.0073 83.265 10.9119 83.6643 10.9119V10.5119ZM81.1603 12.3279C81.1603 12.8694 81.3803 13.288 81.7384 13.594C82.0896 13.894 82.5657 14.08 83.0793 14.1876L83.1614 13.7962C82.6829 13.6958 82.2791 13.5298 81.9982 13.2898C81.7244 13.0558 81.5603 12.7464 81.5603 12.3279H81.1603ZM83.0793 14.1876L84.4554 14.4757L84.5373 14.0841L83.1614 13.7962L83.0793 14.1876ZM84.4554 14.4757C85.3797 14.6669 86.3175 14.9328 87.0219 15.424C87.7134 15.9061 88.1843 16.6073 88.1843 17.7039H88.5843C88.5843 16.4645 88.0392 15.6457 87.2507 15.0958C86.4751 14.555 85.469 14.2769 84.5373 14.0841L84.4554 14.4757ZM88.1843 17.7039C88.1843 18.7826 87.6711 19.6009 86.8831 20.1564C86.0896 20.7159 85.0162 21.0079 83.9203 21.0079V21.4079C85.0805 21.4079 86.2391 21.0999 87.1136 20.4834C87.9936 19.8629 88.5843 18.9292 88.5843 17.7039H88.1843ZM83.9203 21.0079C82.6129 21.0079 81.5367 20.6463 80.7574 20.0054C79.9796 19.3658 79.4819 18.4353 79.3511 17.2657L78.9536 17.3101C79.0947 18.5725 79.6371 19.602 80.5033 20.3144C81.3679 21.0255 82.5397 21.4079 83.9203 21.4079V21.0079ZM79.1523 17.4879H80.9443V17.0879H79.1523V17.4879ZM80.7487 17.3294C80.9244 18.1577 81.297 18.8029 81.8551 19.2394C82.4124 19.6753 83.1351 19.8879 83.9843 19.8879V19.4879C83.2015 19.4879 82.5723 19.2925 82.1015 18.9244C81.6317 18.5569 81.3003 18.0021 81.14 17.2464L80.7487 17.3294ZM83.9843 19.8879C84.7656 19.8879 85.4494 19.7012 85.9439 19.3511C86.4435 18.9974 86.7443 18.479 86.7443 17.8479H86.3443C86.3443 18.3368 86.1171 18.7384 85.7128 19.0247C85.3033 19.3146 84.7071 19.4879 83.9843 19.4879V19.8879ZM86.7443 17.8479C86.7443 17.1693 86.4124 16.6922 85.9248 16.3605C85.4473 16.0357 84.8155 15.8454 84.1845 15.716L84.1041 16.1078C84.7211 16.2344 85.2894 16.4121 85.6998 16.6913C86.1002 16.9636 86.3443 17.3265 86.3443 17.8479H86.7443ZM84.1845 15.716L82.7603 15.4279L82.6804 15.8199L84.1041 16.1078L84.1845 15.716ZM91.8652 9.39994H92.0652V9.19994H91.8652V9.39994ZM97.6092 9.39994V9.19994H97.4092V9.39994H97.6092ZM99.4332 9.39994H99.6332V9.19994H99.4332V9.39994ZM90.0412 9.39994V9.19994H89.8412V9.39994H90.0412ZM91.6652 9.39994V16.3599H92.0652V9.39994H91.6652ZM91.6652 16.3599C91.6652 17.4678 91.8371 18.354 92.3251 18.963C92.8219 19.5828 93.6089 19.8719 94.7292 19.8719V19.4719C93.6735 19.4719 93.0285 19.201 92.6373 18.7128C92.2373 18.2138 92.0652 17.444 92.0652 16.3599H91.6652ZM94.7292 19.8719C95.8554 19.8719 96.6455 19.5513 97.1439 18.9016C97.6329 18.2642 97.8092 17.3489 97.8092 16.2319H97.4092C97.4092 17.3229 97.2335 18.1276 96.8265 18.6582C96.4289 19.1765 95.779 19.4719 94.7292 19.4719V19.8719ZM97.8092 16.2319V9.39994H97.4092V16.2319H97.8092ZM97.6092 9.59994H99.4332V9.19994H97.6092V9.59994ZM99.2332 9.39994V16.1359H99.6332V9.39994H99.2332ZM99.2332 16.1359C99.2332 17.8781 98.9031 19.0843 98.1993 19.8572C97.4996 20.6257 96.3909 21.0079 94.7292 21.0079V21.4079C96.4435 21.4079 97.6868 21.0141 98.4951 20.1266C99.2993 19.2435 99.6332 17.9137 99.6332 16.1359H99.2332ZM94.7292 21.0079C93.109 21.0079 92.0046 20.6827 91.2988 19.9547C90.5913 19.2249 90.2412 18.0461 90.2412 16.2319H89.8412C89.8412 18.0817 90.1951 19.3909 91.0116 20.2331C91.8298 21.0771 93.0694 21.4079 94.7292 21.4079V21.0079ZM90.2412 16.2319V9.39994H89.8412V16.2319H90.2412ZM90.0412 9.59994H91.8652V9.19994H90.0412V9.59994ZM106.676 20.9999L106.485 21.0602L106.529 21.1999H106.676V20.9999ZM103.588 11.2399L103.778 11.1796L103.388 11.2399H103.588ZM103.588 20.9999V21.1999H103.788V20.9999H103.588ZM101.796 20.9999H101.596V21.1999H101.796V20.9999ZM101.796 9.39994V9.19994H101.596V9.39994H101.796ZM104.724 9.39994L104.915 9.34146L104.872 9.19994H104.724V9.39994ZM107.62 18.8719L107.428 18.9304L107.62 19.5559L107.811 18.9304L107.62 18.8719ZM110.516 9.39994V9.19994H110.368L110.324 9.34146L110.516 9.39994ZM113.444 9.39994H113.644V9.19994H113.444V9.39994ZM113.444 20.9999V21.1999H113.644V20.9999H113.444ZM111.652 20.9999H111.452V21.1999H111.652V20.9999ZM111.652 11.2399H111.852L111.461 11.1796L111.652 11.2399ZM108.564 20.9999V21.1999H108.71L108.754 21.0602L108.564 20.9999ZM106.866 20.9396L103.778 11.1796L103.397 11.3002L106.485 21.0602L106.866 20.9396ZM103.388 11.2399V20.9999H103.788V11.2399H103.388ZM103.588 20.7999H101.796V21.1999H103.588V20.7999ZM101.996 20.9999V9.39994H101.596V20.9999H101.996ZM101.796 9.59994H104.724V9.19994H101.796V9.59994ZM104.532 9.45842L107.428 18.9304L107.811 18.8134L104.915 9.34146L104.532 9.45842ZM107.811 18.9304L110.707 9.45842L110.324 9.34146L107.428 18.8134L107.811 18.9304ZM110.516 9.59994H113.444V9.19994H110.516V9.59994ZM113.244 9.39994V20.9999H113.644V9.39994H113.244ZM113.444 20.7999H111.652V21.1999H113.444V20.7999ZM111.852 20.9999V11.2399H111.452V20.9999H111.852ZM111.461 11.1796L108.373 20.9396L108.754 21.0602L111.842 11.3002L111.461 11.1796ZM108.564 20.7999H106.676V21.1999H108.564V20.7999ZM115.983 9.39994V9.19994H115.783V9.39994H115.983ZM124.015 9.39994H124.215V9.19994H124.015V9.39994ZM124.015 10.9519V11.1519H124.215V10.9519H124.015ZM117.807 10.9519V10.7519H117.607V10.9519H117.807ZM117.807 14.2639H117.607V14.4639H117.807V14.2639ZM123.663 14.2639H123.863V14.0639H123.663V14.2639ZM123.663 15.7999V15.9999H123.863V15.7999H123.663ZM117.807 15.7999V15.5999H117.607V15.7999H117.807ZM117.807 19.4479H117.607V19.6479H117.807V19.4479ZM124.015 19.4479H124.215V19.2479H124.015V19.4479ZM124.015 20.9999V21.1999H124.215V20.9999H124.015ZM115.983 20.9999H115.783V21.1999H115.983V20.9999ZM115.983 9.59994H124.015V9.19994H115.983V9.59994ZM123.815 9.39994V10.9519H124.215V9.39994H123.815ZM124.015 10.7519H117.807V11.1519H124.015V10.7519ZM117.607 10.9519V14.2639H118.007V10.9519H117.607ZM117.807 14.4639H123.663V14.0639H117.807V14.4639ZM123.463 14.2639V15.7999H123.863V14.2639H123.463ZM123.663 15.5999H117.807V15.9999H123.663V15.5999ZM117.607 15.7999V19.4479H118.007V15.7999H117.607ZM117.807 19.6479H124.015V19.2479H117.807V19.6479ZM123.815 19.4479V20.9999H124.215V19.4479H123.815ZM124.015 20.7999H115.983V21.1999H124.015V20.7999ZM116.183 20.9999V9.39994H115.783V20.9999H116.183Z" fill="#D4D4D4"/>
<path d="M134.082 11.4997H139.674L132.049 19.1244L132.874 19.9493L140.499 12.3245V17.9163H141.666V10.333H134.082V11.4997Z" fill="#D4D4D4" stroke="#D4D4D4" stroke-width="0.4"/>
</g>
</g>
<defs>
<clipPath id="clip0_4_136">
<rect width="154" height="30" fill="white"/>
</clipPath>
</defs>
</svg>
