<svg width="146" height="30" viewBox="0 0 146 30" fill="none" xmlns="http://www.w3.org/2000/svg">
<g clip-path="url(#clip0_4_252)">
<mask id="mask0_4_252" style="mask-type:luminance" maskUnits="userSpaceOnUse" x="0" y="0" width="146" height="30">
<path d="M146 0H0V30H146V0Z" fill="white"/>
</mask>
<g mask="url(#mask0_4_252)">
<path d="M141 0H5C2.23858 0 0 2.23858 0 5V25C0 27.7614 2.23858 30 5 30H141C143.761 30 146 27.7614 146 25V5C146 2.23858 143.761 0 141 0Z" fill="#D4D4D4"/>
<path d="M14.4157 15.6239C12.7677 15.2879 11.1997 14.3599 11.1997 12.4079C11.1997 10.2159 13.4877 9.19189 15.4397 9.19189C17.5677 9.19189 19.4077 10.1679 19.8557 12.5039H18.0957C17.7277 11.1279 16.4637 10.7119 15.3597 10.7119C14.5117 10.7119 13.0557 11.1119 13.0557 12.3279C13.0557 13.2879 13.8237 13.7839 14.8157 13.9919L16.1917 14.2799C18.0477 14.6639 20.0797 15.3679 20.0797 17.7039C20.0797 20.0079 17.8717 21.2079 15.6157 21.2079C12.9277 21.2079 11.1197 19.7199 10.8477 17.2879H12.6397C12.9757 18.8719 14.0477 19.6879 15.6797 19.6879C17.1837 19.6879 18.2397 18.9679 18.2397 17.8479C18.2397 16.6479 17.0877 16.1679 15.8397 15.9119L14.4157 15.6239ZM21.9126 9.39989H29.9446V10.9519H23.7366V14.2639H29.5926V15.7999H23.7366V19.4479H29.9446V20.9999H21.9126V9.39989ZM31.7407 9.39989H39.7727V10.9519H33.5647V14.2639H39.4207V15.7999H33.5647V19.4479H39.7727V20.9999H31.7407V9.39989ZM49.0469 9.39989C51.7349 9.39989 53.9109 9.9279 53.9109 12.9679C53.9109 15.8799 51.8469 16.5039 49.0469 16.5039H47.1429V20.9999H45.3189V9.39989H49.0469ZM47.1429 10.9039V14.9679H49.1589C50.7749 14.9679 52.0229 14.7759 52.0229 12.9839C52.0229 11.0959 50.6789 10.9039 49.1109 10.9039H47.1429ZM60.0355 16.1039C59.7955 16.1199 59.5395 16.1199 59.2835 16.1199H57.2835V20.9999H55.4595V9.39989H59.1395C62.2595 9.39989 64.1315 10.0559 64.1315 12.7439C64.1315 14.4079 63.3315 15.3519 61.8915 15.7999L64.5635 20.9999H62.5155L60.0355 16.1039ZM57.2835 10.9039V14.6319H59.3795C61.0915 14.6319 62.2595 14.3759 62.2595 12.7759C62.2595 11.1119 60.9955 10.9039 59.3475 10.9039H57.2835ZM71.1386 21.2079C67.7626 21.2079 65.6506 18.7279 65.6506 15.1919C65.6506 11.6559 67.7626 9.19189 71.1386 9.19189C74.4986 9.19189 76.6106 11.6559 76.6106 15.1919C76.6106 18.7279 74.4986 21.2079 71.1386 21.2079ZM71.1386 19.6879C73.1546 19.6879 74.7386 18.1039 74.7386 15.1919C74.7386 12.2799 73.1546 10.7119 71.1386 10.7119C69.1066 10.7119 67.5226 12.2799 67.5226 15.1919C67.5226 18.1039 69.1066 19.6879 71.1386 19.6879ZM77.2461 17.2559H79.0061C79.0061 18.8719 79.8541 19.7199 81.0541 19.7199C82.1261 19.7199 83.0221 19.0639 83.0221 17.1919V9.39989H84.8461V17.2079C84.8461 19.7199 83.4541 21.2079 81.0541 21.2079C78.6381 21.2079 77.2461 19.7679 77.2461 17.2559ZM87.4126 9.39989H95.4446V10.9519H89.2366V14.2639H95.0926V15.7999H89.2366V19.4479H95.4446V20.9999H87.4126V9.39989ZM107.049 17.2239C106.553 19.7999 104.617 21.2079 102.041 21.2079C98.6807 21.2079 96.7287 18.7439 96.7287 15.1759C96.7287 11.5439 98.8247 9.19189 102.153 9.19189C104.633 9.19189 106.521 10.6319 107.001 13.1759H105.241C104.889 11.6719 103.769 10.7119 102.073 10.7119C100.121 10.7119 98.6007 12.2639 98.6007 15.1759C98.6007 18.0399 100.073 19.6879 102.089 19.6879C103.801 19.6879 104.937 18.7599 105.289 17.2239H107.049ZM111.096 10.9519H107.368V9.39989H116.632V10.9519H112.92V20.9999H111.096V10.9519Z" fill="black"/>
<path d="M19.8556 12.5039V12.7039H20.0976L20.0521 12.4662L19.8556 12.5039ZM18.0956 12.5039L17.9024 12.5556L17.9421 12.7039H18.0956V12.5039ZM10.8476 17.2879V17.0879H10.624L10.6489 17.3101L10.8476 17.2879ZM12.6396 17.2879L12.8353 17.2464L12.8017 17.0879H12.6396V17.2879ZM14.4556 15.4279C13.6514 15.264 12.8837 14.9585 12.3206 14.4707C11.7638 13.9884 11.3996 13.3225 11.3996 12.4079H10.9996C10.9996 13.4453 11.4195 14.2194 12.0587 14.7731C12.6916 15.3213 13.5319 15.6478 14.3757 15.8199L14.4556 15.4279ZM11.3996 12.4079C11.3996 11.3934 11.9248 10.6469 12.6966 10.1456C13.474 9.64073 14.4942 9.39194 15.4396 9.39194V8.99194C14.433 8.99194 13.3333 9.25515 12.4787 9.81021C11.6185 10.3689 10.9996 11.2304 10.9996 12.4079H11.3996ZM15.4396 9.39194C16.4749 9.39194 17.4243 9.62952 18.1646 10.1369C18.9006 10.6414 19.4446 11.4223 19.6592 12.5416L20.0521 12.4662C19.8187 11.2495 19.2186 10.3744 18.3907 9.80697C17.567 9.24236 16.5324 8.99194 15.4396 8.99194V9.39194ZM19.8556 12.3039H18.0956V12.7039H19.8556V12.3039ZM18.2888 12.4522C17.8857 10.9449 16.4989 10.5119 15.3596 10.5119V10.9119C16.4284 10.9119 17.5696 11.3109 17.9024 12.5556L18.2888 12.4522ZM15.3596 10.5119C14.911 10.5119 14.3007 10.6165 13.7951 10.8876C13.2846 11.1614 12.8556 11.6221 12.8556 12.3279H13.2556C13.2556 11.8177 13.5547 11.4704 13.9841 11.2402C14.4185 11.0073 14.9603 10.9119 15.3596 10.9119V10.5119ZM12.8556 12.3279C12.8556 12.8694 13.0756 13.288 13.4337 13.594C13.7849 13.894 14.2611 14.08 14.7746 14.1876L14.8567 13.7962C14.3782 13.6958 13.9744 13.5298 13.6936 13.2898C13.4197 13.0558 13.2556 12.7464 13.2556 12.3279H12.8556ZM14.7746 14.1876L16.1507 14.4757L16.2326 14.0841L14.8567 13.7962L14.7746 14.1876ZM16.1507 14.4757C17.075 14.6669 18.0128 14.9328 18.7172 15.424C19.4087 15.9061 19.8796 16.6073 19.8796 17.7039H20.2796C20.2796 16.4645 19.7345 15.6457 18.946 15.0958C18.1705 14.555 17.1643 14.2769 16.2326 14.0841L16.1507 14.4757ZM19.8796 17.7039C19.8796 18.7826 19.3664 19.6009 18.5784 20.1564C17.7849 20.7159 16.7115 21.0079 15.6156 21.0079V21.4079C16.7758 21.4079 17.9344 21.0999 18.8089 20.4834C19.6889 19.8629 20.2796 18.9292 20.2796 17.7039H19.8796ZM15.6156 21.0079C14.3082 21.0079 13.232 20.6463 12.4527 20.0054C11.6749 19.3658 11.1772 18.4353 11.0464 17.2657L10.6489 17.3101C10.7901 18.5725 11.3324 19.602 12.1986 20.3144C13.0633 21.0255 14.235 21.4079 15.6156 21.4079V21.0079ZM10.8476 17.4879H12.6396V17.0879H10.8476V17.4879ZM12.444 17.3294C12.6197 18.1577 12.9923 18.8029 13.5504 19.2394C14.1077 19.6753 14.8305 19.8879 15.6796 19.8879V19.4879C14.8968 19.4879 14.2676 19.2925 13.7968 18.9244C13.327 18.5569 12.9956 18.0021 12.8353 17.2464L12.444 17.3294ZM15.6796 19.8879C16.4609 19.8879 17.1447 19.7012 17.6392 19.3511C18.1389 18.9974 18.4396 18.479 18.4396 17.8479H18.0396C18.0396 18.3368 17.8124 18.7384 17.4081 19.0247C16.9986 19.3146 16.4024 19.4879 15.6796 19.4879V19.8879ZM18.4396 17.8479C18.4396 17.1693 18.1077 16.6922 17.6201 16.3605C17.1426 16.0357 16.5108 15.8454 15.8798 15.716L15.7994 16.1078C16.4165 16.2344 16.9847 16.4121 17.3952 16.6913C17.7956 16.9636 18.0396 17.3265 18.0396 17.8479H18.4396ZM15.8798 15.716L14.4556 15.4279L14.3757 15.8199L15.7994 16.1078L15.8798 15.716ZM21.9125 9.39994V9.19994H21.7125V9.39994H21.9125ZM29.9445 9.39994H30.1445V9.19994H29.9445V9.39994ZM29.9445 10.9519V11.1519H30.1445V10.9519H29.9445ZM23.7365 10.9519V10.7519H23.5365V10.9519H23.7365ZM23.7365 14.2639H23.5365V14.4639H23.7365V14.2639ZM29.5925 14.2639H29.7925V14.0639H29.5925V14.2639ZM29.5925 15.7999V15.9999H29.7925V15.7999H29.5925ZM23.7365 15.7999V15.5999H23.5365V15.7999H23.7365ZM23.7365 19.4479H23.5365V19.6479H23.7365V19.4479ZM29.9445 19.4479H30.1445V19.2479H29.9445V19.4479ZM29.9445 20.9999V21.1999H30.1445V20.9999H29.9445ZM21.9125 20.9999H21.7125V21.1999H21.9125V20.9999ZM21.9125 9.59994H29.9445V9.19994H21.9125V9.59994ZM29.7445 9.39994V10.9519H30.1445V9.39994H29.7445ZM29.9445 10.7519H23.7365V11.1519H29.9445V10.7519ZM23.5365 10.9519V14.2639H23.9365V10.9519H23.5365ZM23.7365 14.4639H29.5925V14.0639H23.7365V14.4639ZM29.3925 14.2639V15.7999H29.7925V14.2639H29.3925ZM29.5925 15.5999H23.7365V15.9999H29.5925V15.5999ZM23.5365 15.7999V19.4479H23.9365V15.7999H23.5365ZM23.7365 19.6479H29.9445V19.2479H23.7365V19.6479ZM29.7445 19.4479V20.9999H30.1445V19.4479H29.7445ZM29.9445 20.7999H21.9125V21.1999H29.9445V20.7999ZM22.1125 20.9999V9.39994H21.7125V20.9999H22.1125ZM31.7406 9.39994V9.19994H31.5406V9.39994H31.7406ZM39.7726 9.39994H39.9726V9.19994H39.7726V9.39994ZM39.7726 10.9519V11.1519H39.9726V10.9519H39.7726ZM33.5646 10.9519V10.7519H33.3646V10.9519H33.5646ZM33.5646 14.2639H33.3646V14.4639H33.5646V14.2639ZM39.4206 14.2639H39.6206V14.0639H39.4206V14.2639ZM39.4206 15.7999V15.9999H39.6206V15.7999H39.4206ZM33.5646 15.7999V15.5999H33.3646V15.7999H33.5646ZM33.5646 19.4479H33.3646V19.6479H33.5646V19.4479ZM39.7726 19.4479H39.9726V19.2479H39.7726V19.4479ZM39.7726 20.9999V21.1999H39.9726V20.9999H39.7726ZM31.7406 20.9999H31.5406V21.1999H31.7406V20.9999ZM31.7406 9.59994H39.7726V9.19994H31.7406V9.59994ZM39.5726 9.39994V10.9519H39.9726V9.39994H39.5726ZM39.7726 10.7519H33.5646V11.1519H39.7726V10.7519ZM33.3646 10.9519V14.2639H33.7646V10.9519H33.3646ZM33.5646 14.4639H39.4206V14.0639H33.5646V14.4639ZM39.2206 14.2639V15.7999H39.6206V14.2639H39.2206ZM39.4206 15.5999H33.5646V15.9999H39.4206V15.5999ZM33.3646 15.7999V19.4479H33.7646V15.7999H33.3646ZM33.5646 19.6479H39.7726V19.2479H33.5646V19.6479ZM39.5726 19.4479V20.9999H39.9726V19.4479H39.5726ZM39.7726 20.7999H31.7406V21.1999H39.7726V20.7999ZM31.9406 20.9999V9.39994H31.5406V20.9999H31.9406ZM47.1428 16.5039V16.3039H46.9428V16.5039H47.1428ZM47.1428 20.9999V21.1999H47.3428V20.9999H47.1428ZM45.3188 20.9999H45.1188V21.1999H45.3188V20.9999ZM45.3188 9.39994V9.19994H45.1188V9.39994H45.3188ZM47.1428 10.9039V10.7039H46.9428V10.9039H47.1428ZM47.1428 14.9679H46.9428V15.1679H47.1428V14.9679ZM49.0468 9.59994C50.3875 9.59994 51.5559 9.73373 52.3862 10.2168C52.7963 10.4554 53.124 10.7794 53.351 11.2196C53.5789 11.6615 53.7108 12.2313 53.7108 12.9679H54.1108C54.1108 12.1845 53.9706 11.5483 53.7065 11.0362C53.4415 10.5224 53.0573 10.1444 52.5873 9.87107C51.6576 9.33015 50.394 9.19994 49.0468 9.19994V9.59994ZM53.7108 12.9679C53.7108 14.3683 53.22 15.1795 52.4258 15.6564C51.6096 16.1466 50.4413 16.3039 49.0468 16.3039V16.7039C50.4522 16.7039 51.716 16.5492 52.6317 15.9994C53.5695 15.4363 54.1108 14.4795 54.1108 12.9679H53.7108ZM49.0468 16.3039H47.1428V16.7039H49.0468V16.3039ZM46.9428 16.5039V20.9999H47.3428V16.5039H46.9428ZM47.1428 20.7999H45.3188V21.1999H47.1428V20.7999ZM45.5188 20.9999V9.39994H45.1188V20.9999H45.5188ZM45.3188 9.59994H49.0468V9.19994H45.3188V9.59994ZM46.9428 10.9039V14.9679H47.3428V10.9039H46.9428ZM47.1428 15.1679H49.1588V14.7679H47.1428V15.1679ZM49.1588 15.1679C49.9623 15.1679 50.7267 15.1229 51.2903 14.8247C51.5791 14.6718 51.8166 14.4523 51.9795 14.1431C52.141 13.8366 52.2228 13.4542 52.2228 12.9839H51.8228C51.8228 13.4096 51.7486 13.7232 51.6256 13.9567C51.504 14.1875 51.3284 14.352 51.1032 14.4711C50.6389 14.7169 49.9712 14.7679 49.1588 14.7679V15.1679ZM52.2228 12.9839C52.2228 12.4889 52.1347 12.0885 51.9649 11.7686C51.7939 11.4464 51.5463 11.2182 51.2489 11.0595C50.6673 10.749 49.8912 10.7039 49.1108 10.7039V11.1039C49.8983 11.1039 50.5782 11.1548 51.0606 11.4123C51.2952 11.5376 51.4817 11.7114 51.6116 11.9562C51.7428 12.2033 51.8228 12.5349 51.8228 12.9839H52.2228ZM49.1108 10.7039H47.1428V11.1039H49.1108V10.7039ZM60.0354 16.1039L60.2138 16.0135L60.154 15.8955L60.0221 15.9043L60.0354 16.1039ZM57.2834 16.1199V15.9199H57.0834V16.1199H57.2834ZM57.2834 20.9999V21.1999H57.4834V20.9999H57.2834ZM55.4594 20.9999H55.2594V21.1999H55.4594V20.9999ZM55.4594 9.39994V9.19994H55.2594V9.39994H55.4594ZM61.8914 15.7999L61.832 15.6089L61.6047 15.6796L61.7135 15.8913L61.8914 15.7999ZM64.5634 20.9999V21.1999H64.891L64.7413 20.9085L64.5634 20.9999ZM62.5154 20.9999L62.337 21.0903L62.3925 21.1999H62.5154V20.9999ZM57.2834 10.9039V10.7039H57.0834V10.9039H57.2834ZM57.2834 14.6319H57.0834V14.8319H57.2834V14.6319ZM60.0221 15.9043C59.7899 15.9198 59.5408 15.9199 59.2834 15.9199V16.3199C59.538 16.3199 59.8008 16.32 60.0487 16.3035L60.0221 15.9043ZM59.2834 15.9199H57.2834V16.3199H59.2834V15.9199ZM57.0834 16.1199V20.9999H57.4834V16.1199H57.0834ZM57.2834 20.7999H55.4594V21.1999H57.2834V20.7999ZM55.6594 20.9999V9.39994H55.2594V20.9999H55.6594ZM55.4594 9.59994H59.1394V9.19994H55.4594V9.59994ZM59.1394 9.59994C60.6955 9.59994 61.8962 9.76559 62.7047 10.2367C63.1036 10.4692 63.4067 10.776 63.612 11.1783C63.8183 11.5826 63.9314 12.0946 63.9314 12.7439H64.3314C64.3314 12.0492 64.2105 11.4712 63.9683 10.9965C63.7251 10.5198 63.3652 10.1586 62.9061 9.89114C61.9986 9.36229 60.7033 9.19994 59.1394 9.19994V9.59994ZM63.9314 12.7439C63.9314 13.5432 63.7397 14.1496 63.3922 14.6069C63.044 15.065 62.5243 15.3936 61.832 15.6089L61.9508 15.9909C62.6985 15.7582 63.2988 15.3908 63.7106 14.8489C64.1231 14.3062 64.3314 13.6086 64.3314 12.7439H63.9314ZM61.7135 15.8913L64.3855 21.0913L64.7413 20.9085L62.0693 15.7085L61.7135 15.8913ZM64.5634 20.7999H62.5154V21.1999H64.5634V20.7999ZM62.6938 20.9095L60.2138 16.0135L59.857 16.1943L62.337 21.0903L62.6938 20.9095ZM57.0834 10.9039V14.6319H57.4834V10.9039H57.0834ZM57.2834 14.8319H59.3794V14.4319H57.2834V14.8319ZM59.3794 14.8319C60.234 14.8319 60.9998 14.7703 61.5539 14.4812C61.8373 14.3333 62.068 14.125 62.2256 13.8369C62.3821 13.5509 62.4594 13.1996 62.4594 12.7759H62.0594C62.0594 13.1522 61.9907 13.4329 61.8747 13.6449C61.7598 13.8548 61.5915 14.0105 61.3689 14.1266C60.911 14.3655 60.2367 14.4319 59.3794 14.4319V14.8319ZM62.4594 12.7759C62.4594 12.335 62.3756 11.9736 62.21 11.6825C62.0433 11.3895 61.8016 11.1819 61.5106 11.0369C60.9413 10.7534 60.1684 10.7039 59.3474 10.7039V11.1039C60.1743 11.1039 60.8575 11.1584 61.3322 11.3949C61.5631 11.5099 61.7405 11.6663 61.8623 11.8803C61.9851 12.0961 62.0594 12.3848 62.0594 12.7759H62.4594ZM59.3474 10.7039H57.2834V11.1039H59.3474V10.7039ZM71.1385 21.0079C69.5026 21.0079 68.1865 20.4087 67.2776 19.3926C66.3665 18.3741 65.8505 16.9208 65.8505 15.1919H65.4505C65.4505 16.999 65.9905 18.5537 66.9794 19.6592C67.9705 20.7671 69.3985 21.4079 71.1385 21.4079V21.0079ZM65.8505 15.1919C65.8505 13.463 66.3665 12.0139 67.2773 10.9995C68.1861 9.98749 69.5021 9.39194 71.1385 9.39194V8.99194C69.3989 8.99194 67.9709 9.62839 66.9797 10.7323C65.9905 11.8339 65.4505 13.3848 65.4505 15.1919H65.8505ZM71.1385 9.39194C72.7666 9.39194 74.0787 9.98729 74.9856 10.9994C75.8945 12.0138 76.4105 13.463 76.4105 15.1919H76.8105C76.8105 13.3848 76.2705 11.834 75.2835 10.7324C74.2944 9.62859 72.8704 8.99194 71.1385 8.99194V9.39194ZM76.4105 15.1919C76.4105 16.9208 75.8945 18.3742 74.9853 19.3927C74.0782 20.4089 72.7662 21.0079 71.1385 21.0079V21.4079C72.8708 21.4079 74.2948 20.7669 75.2837 19.6591C76.2706 18.5536 76.8105 16.999 76.8105 15.1919H76.4105ZM71.1385 19.8879C72.202 19.8879 73.1588 19.4685 73.8467 18.6617C74.5327 17.8571 74.9385 16.6832 74.9385 15.1919H74.5385C74.5385 16.6126 74.1523 17.6867 73.5423 18.4021C72.9343 19.1153 72.091 19.4879 71.1385 19.4879V19.8879ZM74.9385 15.1919C74.9385 13.7006 74.5327 12.5304 73.8464 11.7297C73.1581 10.9268 72.2014 10.5119 71.1385 10.5119V10.9119C72.0917 10.9119 72.9349 11.281 73.5427 11.9901C74.1523 12.7014 74.5385 13.7712 74.5385 15.1919H74.9385ZM71.1385 10.5119C70.0681 10.5119 69.1073 10.9265 68.4169 11.7295C67.7283 12.5303 67.3225 13.7006 67.3225 15.1919H67.7225C67.7225 13.7712 68.1087 12.7015 68.7202 11.9903C69.3297 11.2813 70.1769 10.9119 71.1385 10.9119V10.5119ZM67.3225 15.1919C67.3225 16.6832 67.7283 17.8572 68.4165 18.6619C69.1067 19.4689 70.0675 19.8879 71.1385 19.8879V19.4879C70.1776 19.4879 69.3303 19.1149 68.7205 18.4019C68.1087 17.6866 67.7225 16.6126 67.7225 15.1919H67.3225ZM77.246 17.2559V17.0559H77.046V17.2559H77.246ZM79.006 17.2559H79.206V17.0559H79.006V17.2559ZM83.022 9.39994V9.19994H82.822V9.39994H83.022ZM84.846 9.39994H85.046V9.19994H84.846V9.39994ZM77.246 17.4559H79.006V17.0559H77.246V17.4559ZM78.806 17.2559C78.806 18.0974 79.0269 18.7652 79.4295 19.2255C79.8345 19.6887 80.4044 19.9199 81.054 19.9199V19.5199C80.5036 19.5199 80.0496 19.3271 79.7306 18.9623C79.4091 18.5946 79.206 18.0304 79.206 17.2559H78.806ZM81.054 19.9199C81.6312 19.9199 82.1835 19.7421 82.5887 19.2917C82.9912 18.8442 83.222 18.157 83.222 17.1919H82.822C82.822 18.0988 82.6049 18.6756 82.2913 19.0241C81.9805 19.3697 81.5488 19.5199 81.054 19.5199V19.9199ZM83.222 17.1919V9.39994H82.822V17.1919H83.222ZM83.022 9.59994H84.846V9.19994H83.022V9.59994ZM84.646 9.39994V17.2079H85.046V9.39994H84.646ZM84.646 17.2079C84.646 18.428 84.3083 19.3734 83.7046 20.0126C83.1024 20.6501 82.2118 21.0079 81.054 21.0079V21.4079C82.2962 21.4079 83.3016 21.0217 83.9954 20.2872C84.6877 19.5544 85.046 18.4998 85.046 17.2079H84.646ZM81.054 21.0079C79.886 21.0079 78.9914 20.6607 78.388 20.0351C77.7836 19.4084 77.446 18.476 77.446 17.2559H77.046C77.046 18.5478 77.4044 19.5914 78.1001 20.3127C78.7967 21.0351 79.806 21.4079 81.054 21.4079V21.0079ZM87.4125 9.39994V9.19994H87.2125V9.39994H87.4125ZM95.4445 9.39994H95.6445V9.19994H95.4445V9.39994ZM95.4445 10.9519V11.1519H95.6445V10.9519H95.4445ZM89.2365 10.9519V10.7519H89.0365V10.9519H89.2365ZM89.2365 14.2639H89.0365V14.4639H89.2365V14.2639ZM95.0925 14.2639H95.2925V14.0639H95.0925V14.2639ZM95.0925 15.7999V15.9999H95.2925V15.7999H95.0925ZM89.2365 15.7999V15.5999H89.0365V15.7999H89.2365ZM89.2365 19.4479H89.0365V19.6479H89.2365V19.4479ZM95.4445 19.4479H95.6445V19.2479H95.4445V19.4479ZM95.4445 20.9999V21.1999H95.6445V20.9999H95.4445ZM87.4125 20.9999H87.2125V21.1999H87.4125V20.9999ZM87.4125 9.59994H95.4445V9.19994H87.4125V9.59994ZM95.2445 9.39994V10.9519H95.6445V9.39994H95.2445ZM95.4445 10.7519H89.2365V11.1519H95.4445V10.7519ZM89.0365 10.9519V14.2639H89.4365V10.9519H89.0365ZM89.2365 14.4639H95.0925V14.0639H89.2365V14.4639ZM94.8925 14.2639V15.7999H95.2925V14.2639H94.8925ZM95.0925 15.5999H89.2365V15.9999H95.0925V15.5999ZM89.0365 15.7999V19.4479H89.4365V15.7999H89.0365ZM89.2365 19.6479H95.4445V19.2479H89.2365V19.6479ZM95.2445 19.4479V20.9999H95.6445V19.4479H95.2445ZM95.4445 20.7999H87.4125V21.1999H95.4445V20.7999ZM87.6125 20.9999V9.39994H87.2125V20.9999H87.6125ZM107.049 17.2239L107.245 17.2617L107.291 17.0239H107.049V17.2239ZM107.001 13.1759V13.3759H107.242L107.197 13.1388L107.001 13.1759ZM105.241 13.1759L105.046 13.2215L105.082 13.3759H105.241V13.1759ZM105.289 17.2239V17.0239H105.13L105.094 17.1792L105.289 17.2239ZM106.853 17.1861C106.613 18.4314 106.028 19.3827 105.202 20.0239C104.375 20.6661 103.293 21.0079 102.041 21.0079V21.4079C103.365 21.4079 104.539 21.0457 105.448 20.3399C106.358 19.6331 106.989 18.5924 107.245 17.2617L106.853 17.1861ZM102.041 21.0079C100.414 21.0079 99.143 20.4133 98.2767 19.3999C97.4071 18.3828 96.9286 16.9251 96.9286 15.1759H96.5286C96.5286 16.9947 97.0262 18.553 97.9726 19.6599C98.9222 20.7705 100.308 21.4079 102.041 21.4079V21.0079ZM96.9286 15.1759C96.9286 13.3976 97.4414 11.9532 98.3411 10.9559C99.2388 9.96083 100.539 9.39194 102.153 9.39194V8.99194C100.439 8.99194 99.0265 9.59905 98.0441 10.6879C97.0638 11.7746 96.5286 13.3222 96.5286 15.1759H96.9286ZM102.153 9.39194C103.354 9.39194 104.4 9.74016 105.202 10.3857C106.003 11.0307 106.572 11.9826 106.804 13.213L107.197 13.1388C106.95 11.8252 106.335 10.7851 105.452 10.0741C104.57 9.36372 103.432 8.99194 102.153 8.99194V9.39194ZM107.001 12.9759H105.241V13.3759H107.001V12.9759ZM105.436 13.1303C105.251 12.3411 104.862 11.6835 104.286 11.2236C103.709 10.7635 102.96 10.5119 102.073 10.5119V10.9119C102.882 10.9119 103.54 11.1403 104.036 11.5362C104.532 11.9323 104.879 12.5067 105.046 13.2215L105.436 13.1303ZM102.073 10.5119C101.04 10.5119 100.115 10.9242 99.4507 11.7242C98.7894 12.5211 98.4006 13.6865 98.4006 15.1759H98.8006C98.8006 13.7533 99.1718 12.6867 99.7586 11.9796C100.343 11.2756 101.154 10.9119 102.073 10.9119V10.5119ZM98.4006 15.1759C98.4006 16.6404 98.777 17.8168 99.4329 18.6313C100.092 19.4496 101.022 19.8879 102.089 19.8879V19.4879C101.14 19.4879 100.326 19.1022 99.7444 18.3805C99.1603 17.655 98.8006 16.5754 98.8006 15.1759H98.4006ZM102.089 19.8879C102.982 19.8879 103.739 19.6455 104.322 19.1894C104.905 18.7332 105.299 18.0746 105.484 17.2686L105.094 17.1792C104.927 17.9092 104.577 18.4826 104.076 18.8744C103.575 19.2663 102.908 19.4879 102.089 19.4879V19.8879ZM105.289 17.4239H107.049V17.0239H105.289V17.4239ZM111.096 10.9519H111.296V10.7519H111.096V10.9519ZM107.368 10.9519H107.168V11.1519H107.368V10.9519ZM107.368 9.39994V9.19994H107.168V9.39994H107.368ZM116.632 9.39994H116.832V9.19994H116.632V9.39994ZM116.632 10.9519V11.1519H116.832V10.9519H116.632ZM112.92 10.9519V10.7519H112.72V10.9519H112.92ZM112.92 20.9999V21.1999H113.12V20.9999H112.92ZM111.096 20.9999H110.896V21.1999H111.096V20.9999ZM111.096 10.7519H107.368V11.1519H111.096V10.7519ZM107.568 10.9519V9.39994H107.168V10.9519H107.568ZM107.368 9.59994H116.632V9.19994H107.368V9.59994ZM116.432 9.39994V10.9519H116.832V9.39994H116.432ZM116.632 10.7519H112.92V11.1519H116.632V10.7519ZM112.72 10.9519V20.9999H113.12V10.9519H112.72ZM112.92 20.7999H111.096V21.1999H112.92V20.7999ZM111.296 20.9999V10.9519H110.896V20.9999H111.296Z" fill="black"/>
<path d="M126.114 11.2132H131.929L124 19.1422L124.858 20L132.787 12.071V17.886H134V10H126.114V11.2132Z" fill="black" stroke="black" stroke-width="0.4"/>
</g>
</g>
<defs>
<clipPath id="clip0_4_252">
<rect width="146" height="30" fill="white"/>
</clipPath>
</defs>
</svg>
