<svg width="180" height="30" viewBox="0 0 180 30" fill="none" xmlns="http://www.w3.org/2000/svg">
<rect x="0.5" y="0.5" width="179" height="29" rx="4.5" fill="black"/>
<rect x="0.5" y="0.5" width="179" height="29" rx="4.5" stroke="black"/>
<path d="M16.6163 15.492C16.3463 15.51 16.0583 15.51 15.7703 15.51H13.5203V21H11.4683V7.95H15.6083C19.1183 7.95 21.2243 8.688 21.2243 11.712C21.2243 13.584 20.3243 14.646 18.7043 15.15L21.7103 21H19.4063L16.6163 15.492ZM13.5203 9.642V13.836H15.8783C17.8043 13.836 19.1183 13.548 19.1183 11.748C19.1183 9.876 17.6963 9.642 15.8423 9.642H13.5203ZM29.9709 18.156H31.8609C31.4109 19.758 29.9709 21.234 27.5049 21.234C24.3729 21.234 22.6809 18.948 22.6809 16.14C22.6809 13.134 24.6969 11.136 27.4509 11.136C30.4389 11.136 32.1849 13.584 31.9869 16.734H24.6069C24.7869 18.516 25.9209 19.632 27.4329 19.632C28.7829 19.632 29.5749 19.074 29.9709 18.156ZM24.6429 15.258H30.0429C29.9889 13.818 28.9809 12.666 27.4329 12.666C25.9749 12.666 24.8949 13.422 24.6429 15.258ZM39.3666 14.016C39.0966 13.026 38.2686 12.63 37.1706 12.63C36.2526 12.63 35.2626 13.008 35.2626 13.8C35.2626 14.52 35.7306 14.826 36.6126 15.006L37.9986 15.276C39.8346 15.636 41.4366 16.266 41.4366 18.156C41.4366 20.118 39.6006 21.234 37.3686 21.234C34.9206 21.234 33.4266 19.812 33.1926 17.994H35.1006C35.3526 19.092 36.0726 19.74 37.4226 19.74C38.6286 19.74 39.5646 19.236 39.5646 18.372C39.5646 17.472 38.7186 17.112 37.7106 16.914L36.2526 16.626C34.7946 16.338 33.4266 15.69 33.4266 13.872C33.4266 12.162 35.2266 11.118 37.3506 11.118C39.2946 11.118 40.8606 12.144 41.2206 14.016H39.3666ZM43.6937 8.832H45.5657V11.316H47.4737V12.738H45.5657V18.264C45.5657 19.254 45.7277 19.506 46.6637 19.506H47.4557V21H46.0877C44.1257 21 43.6937 20.514 43.6937 18.516V12.738H42.2177V11.316H43.6937V8.832ZM48.7162 18.39C48.7162 16.032 51.4882 15.402 55.2502 15.006V14.808C55.2502 13.098 54.3502 12.522 53.1622 12.522C51.8662 12.522 51.1282 13.188 51.0562 14.376H49.1662C49.3282 12.324 51.0202 11.082 53.2342 11.082C55.7362 11.082 57.1762 12.288 57.1402 15.186C57.1402 15.42 57.1042 17.094 57.1042 17.508C57.1042 18.948 57.1942 20.136 57.3742 21H55.5742C55.5022 20.622 55.4482 20.334 55.4122 19.722C54.8362 20.694 53.7382 21.234 52.1722 21.234C50.2102 21.234 48.7162 20.154 48.7162 18.39ZM55.3402 16.392C52.3342 16.68 50.7502 17.094 50.7502 18.354C50.7502 19.236 51.4522 19.794 52.5862 19.794C54.1342 19.794 55.3402 19.02 55.3402 17.094V16.392ZM65.4284 19.632C64.8704 20.604 63.9344 21.234 62.4764 21.234C60.1904 21.234 59.3084 19.812 59.3084 17.472V11.316H61.1804V16.968C61.1804 18.372 61.4144 19.65 63.1064 19.65C64.6724 19.65 65.4464 18.48 65.4464 16.572V11.316H67.3184V21H65.4284V19.632ZM74.8635 13.242C74.5215 13.206 74.1975 13.188 73.8915 13.188C72.4515 13.188 71.6955 13.89 71.6955 15.924V21H69.8235V11.316H71.6595V13.026C72.1635 11.928 73.1355 11.298 74.3415 11.28C74.5035 11.28 74.7015 11.28 74.8635 11.298V13.242ZM75.4174 18.39C75.4174 16.032 78.1894 15.402 81.9514 15.006V14.808C81.9514 13.098 81.0514 12.522 79.8634 12.522C78.5674 12.522 77.8294 13.188 77.7574 14.376H75.8674C76.0294 12.324 77.7214 11.082 79.9354 11.082C82.4374 11.082 83.8774 12.288 83.8414 15.186C83.8414 15.42 83.8054 17.094 83.8054 17.508C83.8054 18.948 83.8954 20.136 84.0754 21H82.2754C82.2034 20.622 82.1494 20.334 82.1134 19.722C81.5374 20.694 80.4394 21.234 78.8734 21.234C76.9114 21.234 75.4174 20.154 75.4174 18.39ZM82.0414 16.392C79.0354 16.68 77.4514 17.094 77.4514 18.354C77.4514 19.236 78.1534 19.794 79.2874 19.794C80.8354 19.794 82.0414 19.02 82.0414 17.094V16.392ZM88.0256 12.72C88.5836 11.766 89.5556 11.136 91.0676 11.136C93.4076 11.136 94.3076 12.648 94.3076 14.898V21H92.4356V15.402C92.4356 13.998 92.2016 12.702 90.4376 12.702C88.8176 12.702 88.0256 13.872 88.0256 15.798V21H86.1536V11.316H88.0256V12.72ZM97.0257 8.832H98.8977V11.316H100.806V12.738H98.8977V18.264C98.8977 19.254 99.0597 19.506 99.9957 19.506H100.788V21H99.4197C97.4577 21 97.0257 20.514 97.0257 18.516V12.738H95.5497V11.316H97.0257V8.832ZM108.132 14.016C107.862 13.026 107.034 12.63 105.936 12.63C105.018 12.63 104.028 13.008 104.028 13.8C104.028 14.52 104.496 14.826 105.378 15.006L106.764 15.276C108.6 15.636 110.202 16.266 110.202 18.156C110.202 20.118 108.366 21.234 106.134 21.234C103.686 21.234 102.192 19.812 101.958 17.994H103.866C104.118 19.092 104.838 19.74 106.188 19.74C107.394 19.74 108.33 19.236 108.33 18.372C108.33 17.472 107.484 17.112 106.476 16.914L105.018 16.626C103.56 16.338 102.192 15.69 102.192 13.872C102.192 12.162 103.992 11.118 106.116 11.118C108.06 11.118 109.626 12.144 109.986 14.016H108.132ZM115.454 17.4C115.454 15.42 116.84 14.106 118.676 13.476C117.83 12.486 117.272 11.532 117.272 10.506C117.272 8.796 118.784 7.698 120.836 7.698C122.456 7.698 124.256 8.436 124.256 10.542C124.256 12.126 123.158 13.26 121.646 13.926L124.022 16.464C124.328 15.69 124.526 14.808 124.598 13.854H126.506C126.38 15.24 125.984 16.626 125.3 17.832L128.252 21H125.624L124.13 19.398C123.032 20.514 121.574 21.234 119.792 21.234C117.146 21.234 115.454 19.56 115.454 17.4ZM120.584 12.774L120.602 12.81C121.79 12.342 122.474 11.532 122.474 10.596C122.474 9.624 121.736 9.192 120.872 9.192C120.026 9.192 119.252 9.606 119.252 10.416C119.252 11.208 119.9 12.072 120.584 12.774ZM123.014 18.192L119.72 14.628C118.28 15.15 117.434 16.014 117.434 17.31C117.434 18.75 118.514 19.65 119.972 19.65C121.16 19.65 122.204 19.11 123.014 18.192ZM133.302 7.95H138.108C140.502 7.95 142.734 8.58 142.734 11.226C142.734 12.45 142.14 13.566 141.294 14.052C142.464 14.574 143.256 15.474 143.256 17.148C143.256 19.92 141.132 21 138.486 21H133.302V7.95ZM135.354 13.476H138.36C139.764 13.476 140.664 12.882 140.664 11.478C140.664 10.236 139.728 9.642 138.36 9.642H135.354V13.476ZM135.354 19.308H138.54C140.286 19.308 141.15 18.534 141.15 17.148C141.15 15.708 140.286 15.06 138.432 15.06H135.354V19.308ZM144.605 18.39C144.605 16.032 147.377 15.402 151.139 15.006V14.808C151.139 13.098 150.239 12.522 149.051 12.522C147.755 12.522 147.017 13.188 146.945 14.376H145.055C145.217 12.324 146.909 11.082 149.123 11.082C151.625 11.082 153.065 12.288 153.029 15.186C153.029 15.42 152.993 17.094 152.993 17.508C152.993 18.948 153.083 20.136 153.263 21H151.463C151.391 20.622 151.337 20.334 151.301 19.722C150.725 20.694 149.627 21.234 148.061 21.234C146.099 21.234 144.605 20.154 144.605 18.39ZM151.229 16.392C148.223 16.68 146.639 17.094 146.639 18.354C146.639 19.236 147.341 19.794 148.475 19.794C150.023 19.794 151.229 19.02 151.229 17.094V16.392ZM160.381 13.242C160.039 13.206 159.715 13.188 159.409 13.188C157.969 13.188 157.213 13.89 157.213 15.924V21H155.341V11.316H157.177V13.026C157.681 11.928 158.653 11.298 159.859 11.28C160.021 11.28 160.219 11.28 160.381 11.298V13.242ZM167.283 14.016C167.013 13.026 166.185 12.63 165.087 12.63C164.169 12.63 163.179 13.008 163.179 13.8C163.179 14.52 163.647 14.826 164.529 15.006L165.915 15.276C167.751 15.636 169.353 16.266 169.353 18.156C169.353 20.118 167.517 21.234 165.285 21.234C162.837 21.234 161.343 19.812 161.109 17.994H163.017C163.269 19.092 163.989 19.74 165.339 19.74C166.545 19.74 167.481 19.236 167.481 18.372C167.481 17.472 166.635 17.112 165.627 16.914L164.169 16.626C162.711 16.338 161.343 15.69 161.343 13.872C161.343 12.162 163.143 11.118 165.267 11.118C167.211 11.118 168.777 12.144 169.137 14.016H167.283Z" fill="white"/>
</svg>
