<svg width="147" height="30" viewBox="0 0 147 30" fill="none" xmlns="http://www.w3.org/2000/svg">
<rect x="0.5" width="146" height="30" rx="5" fill="black"/>
<path d="M14.9159 15.624C13.2679 15.288 11.6999 14.36 11.6999 12.408C11.6999 10.216 13.9879 9.192 15.9399 9.192C18.0679 9.192 19.9079 10.168 20.3559 12.504H18.5959C18.2279 11.128 16.9639 10.712 15.8599 10.712C15.0119 10.712 13.5559 11.112 13.5559 12.328C13.5559 13.288 14.3239 13.784 15.3159 13.992L16.6919 14.28C18.5479 14.664 20.5799 15.368 20.5799 17.704C20.5799 20.008 18.3719 21.208 16.1159 21.208C13.4279 21.208 11.6199 19.72 11.3479 17.288H13.1399C13.4759 18.872 14.5479 19.688 16.1799 19.688C17.6839 19.688 18.7399 18.968 18.7399 17.848C18.7399 16.648 17.5879 16.168 16.3399 15.912L14.9159 15.624ZM22.4128 9.4H30.4448V10.952H24.2368V14.264H30.0928V15.8H24.2368V19.448H30.4448V21H22.4128V9.4ZM32.2409 9.4H40.2729V10.952H34.0649V14.264H39.9209V15.8H34.0649V19.448H40.2729V21H32.2409V9.4ZM49.5471 9.4C52.2351 9.4 54.4111 9.928 54.4111 12.968C54.4111 15.88 52.3471 16.504 49.5471 16.504H47.6431V21H45.8191V9.4H49.5471ZM47.6431 10.904V14.968H49.6591C51.2751 14.968 52.5231 14.776 52.5231 12.984C52.5231 11.096 51.1791 10.904 49.6111 10.904H47.6431ZM60.5357 16.104C60.2957 16.12 60.0397 16.12 59.7837 16.12H57.7837V21H55.9597V9.4H59.6397C62.7597 9.4 64.6317 10.056 64.6317 12.744C64.6317 14.408 63.8317 15.352 62.3917 15.8L65.0637 21H63.0157L60.5357 16.104ZM57.7837 10.904V14.632H59.8797C61.5917 14.632 62.7597 14.376 62.7597 12.776C62.7597 11.112 61.4957 10.904 59.8477 10.904H57.7837ZM71.6388 21.208C68.2628 21.208 66.1508 18.728 66.1508 15.192C66.1508 11.656 68.2628 9.192 71.6388 9.192C74.9988 9.192 77.1108 11.656 77.1108 15.192C77.1108 18.728 74.9988 21.208 71.6388 21.208ZM71.6388 19.688C73.6548 19.688 75.2388 18.104 75.2388 15.192C75.2388 12.28 73.6548 10.712 71.6388 10.712C69.6068 10.712 68.0228 12.28 68.0228 15.192C68.0228 18.104 69.6068 19.688 71.6388 19.688ZM77.7463 17.256H79.5063C79.5063 18.872 80.3543 19.72 81.5543 19.72C82.6263 19.72 83.5223 19.064 83.5223 17.192V9.4H85.3463V17.208C85.3463 19.72 83.9543 21.208 81.5543 21.208C79.1383 21.208 77.7463 19.768 77.7463 17.256ZM87.9128 9.4H95.9448V10.952H89.7368V14.264H95.5928V15.8H89.7368V19.448H95.9448V21H87.9128V9.4ZM107.549 17.224C107.053 19.8 105.117 21.208 102.541 21.208C99.1809 21.208 97.2289 18.744 97.2289 15.176C97.2289 11.544 99.3249 9.192 102.653 9.192C105.133 9.192 107.021 10.632 107.501 13.176H105.741C105.389 11.672 104.269 10.712 102.573 10.712C100.621 10.712 99.1009 12.264 99.1009 15.176C99.1009 18.04 100.573 19.688 102.589 19.688C104.301 19.688 105.437 18.76 105.789 17.224H107.549ZM111.596 10.952H107.868V9.4H117.132V10.952H113.42V21H111.596V10.952Z" fill="#D4D4D4"/>
<path d="M126.582 11.4999H132.174L124.549 19.1247L125.374 19.9495L132.999 12.3248V17.9166H134.166V10.3333H126.582V11.4999Z" fill="#D4D4D4"/>
</svg>
