<svg width="146" height="30" viewBox="0 0 146 30" fill="none" xmlns="http://www.w3.org/2000/svg">
<rect width="146" height="30" rx="5" fill="#D4D4D4"/>
<path d="M14.4159 15.624C12.7679 15.288 11.1999 14.36 11.1999 12.408C11.1999 10.216 13.4879 9.192 15.4399 9.192C17.5679 9.192 19.4079 10.168 19.8559 12.504H18.0959C17.7279 11.128 16.4639 10.712 15.3599 10.712C14.5119 10.712 13.0559 11.112 13.0559 12.328C13.0559 13.288 13.8239 13.784 14.8159 13.992L16.1919 14.28C18.0479 14.664 20.0799 15.368 20.0799 17.704C20.0799 20.008 17.8719 21.208 15.6159 21.208C12.9279 21.208 11.1199 19.72 10.8479 17.288H12.6399C12.9759 18.872 14.0479 19.688 15.6799 19.688C17.1839 19.688 18.2399 18.968 18.2399 17.848C18.2399 16.648 17.0879 16.168 15.8399 15.912L14.4159 15.624ZM21.9128 9.4H29.9448V10.952H23.7368V14.264H29.5928V15.8H23.7368V19.448H29.9448V21H21.9128V9.4ZM31.7409 9.4H39.7729V10.952H33.5649V14.264H39.4209V15.8H33.5649V19.448H39.7729V21H31.7409V9.4ZM49.0471 9.4C51.7351 9.4 53.9111 9.928 53.9111 12.968C53.9111 15.88 51.8471 16.504 49.0471 16.504H47.1431V21H45.3191V9.4H49.0471ZM47.1431 10.904V14.968H49.1591C50.7751 14.968 52.0231 14.776 52.0231 12.984C52.0231 11.096 50.6791 10.904 49.1111 10.904H47.1431ZM60.0357 16.104C59.7957 16.12 59.5397 16.12 59.2837 16.12H57.2837V21H55.4597V9.4H59.1397C62.2597 9.4 64.1317 10.056 64.1317 12.744C64.1317 14.408 63.3317 15.352 61.8917 15.8L64.5637 21H62.5157L60.0357 16.104ZM57.2837 10.904V14.632H59.3797C61.0917 14.632 62.2597 14.376 62.2597 12.776C62.2597 11.112 60.9957 10.904 59.3477 10.904H57.2837ZM71.1388 21.208C67.7628 21.208 65.6508 18.728 65.6508 15.192C65.6508 11.656 67.7628 9.192 71.1388 9.192C74.4988 9.192 76.6108 11.656 76.6108 15.192C76.6108 18.728 74.4988 21.208 71.1388 21.208ZM71.1388 19.688C73.1548 19.688 74.7388 18.104 74.7388 15.192C74.7388 12.28 73.1548 10.712 71.1388 10.712C69.1068 10.712 67.5228 12.28 67.5228 15.192C67.5228 18.104 69.1068 19.688 71.1388 19.688ZM77.2463 17.256H79.0063C79.0063 18.872 79.8543 19.72 81.0543 19.72C82.1263 19.72 83.0223 19.064 83.0223 17.192V9.4H84.8463V17.208C84.8463 19.72 83.4543 21.208 81.0543 21.208C78.6383 21.208 77.2463 19.768 77.2463 17.256ZM87.4128 9.4H95.4448V10.952H89.2368V14.264H95.0928V15.8H89.2368V19.448H95.4448V21H87.4128V9.4ZM107.049 17.224C106.553 19.8 104.617 21.208 102.041 21.208C98.6809 21.208 96.7289 18.744 96.7289 15.176C96.7289 11.544 98.8249 9.192 102.153 9.192C104.633 9.192 106.521 10.632 107.001 13.176H105.241C104.889 11.672 103.769 10.712 102.073 10.712C100.121 10.712 98.6009 12.264 98.6009 15.176C98.6009 18.04 100.073 19.688 102.089 19.688C103.801 19.688 104.937 18.76 105.289 17.224H107.049ZM111.096 10.952H107.368V9.4H116.632V10.952H112.92V21H111.096V10.952Z" fill="black"/>
<path d="M126.082 11.4999H131.674L124.049 19.1247L124.874 19.9495L132.499 12.3248V17.9166H133.666V10.3333H126.082V11.4999Z" fill="black"/>
</svg>
