<svg width="129" height="30" viewBox="0 0 129 30" fill="none" xmlns="http://www.w3.org/2000/svg">
<rect x="0.5" y="0.5" width="128" height="29" rx="4.5" fill="black"/>
<rect x="0.5" y="0.5" width="128" height="29" rx="4.5" stroke="black"/>
<path d="M22.5433 7.95V21H20.4913V15.15H13.9393V21H11.8873V7.95H13.9393V13.422H20.4913V7.95H22.5433ZM34.0084 16.194C34.0084 19.686 31.5964 21.234 29.2924 21.234C27.0064 21.234 24.5944 19.686 24.5944 16.194C24.5944 12.684 27.0064 11.136 29.2924 11.136C31.5964 11.136 34.0084 12.684 34.0084 16.194ZM29.2924 19.65C30.7144 19.65 32.0284 18.552 32.0284 16.194C32.0284 13.782 30.7144 12.72 29.2924 12.72C27.8884 12.72 26.5744 13.746 26.5744 16.194C26.5744 18.588 27.8884 19.65 29.2924 19.65ZM36.2552 8.832H38.1272V11.316H40.0352V12.738H38.1272V18.264C38.1272 19.254 38.2892 19.506 39.2252 19.506H40.0172V21H38.6492C36.6872 21 36.2552 20.514 36.2552 18.516V12.738H34.7792V11.316H36.2552V8.832ZM48.3899 18.156H50.2799C49.8299 19.758 48.3899 21.234 45.9239 21.234C42.7919 21.234 41.0999 18.948 41.0999 16.14C41.0999 13.134 43.1159 11.136 45.8699 11.136C48.8579 11.136 50.6039 13.584 50.4059 16.734H43.0259C43.2059 18.516 44.3399 19.632 45.8519 19.632C47.2019 19.632 47.9939 19.074 48.3899 18.156ZM43.0619 15.258H48.4619C48.4079 13.818 47.3999 12.666 45.8519 12.666C44.3939 12.666 43.3139 13.422 43.0619 15.258ZM54.1144 21H52.2424V7.95H54.1144V21ZM62.145 14.016C61.875 13.026 61.047 12.63 59.949 12.63C59.031 12.63 58.041 13.008 58.041 13.8C58.041 14.52 58.509 14.826 59.391 15.006L60.777 15.276C62.613 15.636 64.215 16.266 64.215 18.156C64.215 20.118 62.379 21.234 60.147 21.234C57.699 21.234 56.205 19.812 55.971 17.994H57.879C58.131 19.092 58.851 19.74 60.201 19.74C61.407 19.74 62.343 19.236 62.343 18.372C62.343 17.472 61.497 17.112 60.489 16.914L59.031 16.626C57.573 16.338 56.205 15.69 56.205 13.872C56.205 12.162 58.005 11.118 60.129 11.118C62.073 11.118 63.639 12.144 63.999 14.016H62.145ZM69.4667 17.4C69.4667 15.42 70.8527 14.106 72.6887 13.476C71.8427 12.486 71.2847 11.532 71.2847 10.506C71.2847 8.796 72.7967 7.698 74.8487 7.698C76.4687 7.698 78.2687 8.436 78.2687 10.542C78.2687 12.126 77.1707 13.26 75.6587 13.926L78.0347 16.464C78.3407 15.69 78.5387 14.808 78.6107 13.854H80.5187C80.3927 15.24 79.9967 16.626 79.3127 17.832L82.2647 21H79.6367L78.1427 19.398C77.0447 20.514 75.5867 21.234 73.8047 21.234C71.1587 21.234 69.4667 19.56 69.4667 17.4ZM74.5967 12.774L74.6147 12.81C75.8027 12.342 76.4867 11.532 76.4867 10.596C76.4867 9.624 75.7487 9.192 74.8847 9.192C74.0387 9.192 73.2647 9.606 73.2647 10.416C73.2647 11.208 73.9127 12.072 74.5967 12.774ZM77.0267 18.192L73.7327 14.628C72.2927 15.15 71.4467 16.014 71.4467 17.31C71.4467 18.75 72.5267 19.65 73.9847 19.65C75.1727 19.65 76.2167 19.11 77.0267 18.192ZM90.465 14.952C88.611 14.574 86.847 13.53 86.847 11.334C86.847 8.868 89.421 7.716 91.617 7.716C94.011 7.716 96.081 8.814 96.585 11.442H94.605C94.191 9.894 92.769 9.426 91.527 9.426C90.573 9.426 88.935 9.876 88.935 11.244C88.935 12.324 89.799 12.882 90.915 13.116L92.463 13.44C94.551 13.872 96.837 14.664 96.837 17.292C96.837 19.884 94.353 21.234 91.815 21.234C88.791 21.234 86.757 19.56 86.451 16.824H88.467C88.845 18.606 90.051 19.524 91.887 19.524C93.579 19.524 94.767 18.714 94.767 17.454C94.767 16.104 93.471 15.564 92.067 15.276L90.465 14.952ZM100.591 11.316V12.738C101.185 11.748 102.193 11.136 103.615 11.136C105.865 11.136 107.791 13.026 107.791 16.176C107.791 19.344 105.865 21.234 103.615 21.234C102.193 21.234 101.185 20.622 100.591 19.632V24.15H98.719V11.316H100.591ZM103.183 19.668C104.731 19.668 105.793 18.354 105.793 16.176C105.793 13.998 104.731 12.702 103.183 12.702C101.743 12.702 100.519 13.782 100.519 16.176C100.519 18.57 101.743 19.668 103.183 19.668ZM109.077 18.39C109.077 16.032 111.849 15.402 115.611 15.006V14.808C115.611 13.098 114.711 12.522 113.523 12.522C112.227 12.522 111.489 13.188 111.417 14.376H109.527C109.689 12.324 111.381 11.082 113.595 11.082C116.097 11.082 117.537 12.288 117.501 15.186C117.501 15.42 117.465 17.094 117.465 17.508C117.465 18.948 117.555 20.136 117.735 21H115.935C115.863 20.622 115.809 20.334 115.773 19.722C115.197 20.694 114.099 21.234 112.533 21.234C110.571 21.234 109.077 20.154 109.077 18.39ZM115.701 16.392C112.695 16.68 111.111 17.094 111.111 18.354C111.111 19.236 111.813 19.794 112.947 19.794C114.495 19.794 115.701 19.02 115.701 17.094V16.392Z" fill="white"/>
</svg>
