<svg width="123" height="30" viewBox="0 0 123 30" fill="none" xmlns="http://www.w3.org/2000/svg">
<rect x="0.5" y="0.5" width="122" height="29" rx="4.5" fill="black"/>
<rect x="0.5" y="0.5" width="122" height="29" rx="4.5" stroke="black"/>
<path d="M14.8469 7.95H17.1149L22.0289 21H19.7969L18.7709 18.138H13.1009L12.0929 21H10.0049L14.8469 7.95ZM13.7129 16.41H18.1409L15.9089 10.182L13.7129 16.41ZM28.3283 13.242C27.9863 13.206 27.6623 13.188 27.3563 13.188C25.9163 13.188 25.1603 13.89 25.1603 15.924V21H23.2883V11.316H25.1243V13.026C25.6283 11.928 26.6003 11.298 27.8063 11.28C27.9683 11.28 28.1663 11.28 28.3283 11.298V13.242ZM37.842 14.592H35.97C35.772 13.494 34.782 12.738 33.558 12.738C32.208 12.738 30.966 13.8 30.966 16.158C30.966 18.552 32.226 19.632 33.558 19.632C34.746 19.632 35.79 18.93 36.042 17.778H37.932C37.554 19.812 35.664 21.234 33.522 21.234C30.732 21.234 28.968 19.092 28.968 16.176C28.968 13.296 30.786 11.136 33.648 11.136C35.862 11.136 37.554 12.702 37.842 14.592ZM41.5607 12.72C42.1187 11.766 43.0907 11.136 44.6027 11.136C46.9427 11.136 47.8427 12.648 47.8427 14.898V21H45.9707V15.402C45.9707 13.998 45.7367 12.702 43.9727 12.702C42.3527 12.702 41.5607 13.872 41.5607 15.798V21H39.6887V7.95H41.5607V12.72ZM52.0549 7.95V10.02H50.1829V7.95H52.0549ZM52.0549 11.316V21H50.1829V11.316H52.0549ZM54.9554 8.832H56.8274V11.316H58.7354V12.738H56.8274V18.264C56.8274 19.254 56.9894 19.506 57.9254 19.506H58.7174V21H57.3494C55.3874 21 54.9554 20.514 54.9554 18.516V12.738H53.4794V11.316H54.9554V8.832ZM67.0901 18.156H68.9801C68.5301 19.758 67.0901 21.234 64.6241 21.234C61.4921 21.234 59.8001 18.948 59.8001 16.14C59.8001 13.134 61.8161 11.136 64.5701 11.136C67.5581 11.136 69.3041 13.584 69.1061 16.734H61.7261C61.9061 18.516 63.0401 19.632 64.5521 19.632C65.9021 19.632 66.6941 19.074 67.0901 18.156ZM61.7621 15.258H67.1621C67.1081 13.818 66.1001 12.666 64.5521 12.666C63.0941 12.666 62.0141 13.422 61.7621 15.258ZM79.2385 14.592H77.3665C77.1685 13.494 76.1785 12.738 74.9545 12.738C73.6045 12.738 72.3625 13.8 72.3625 16.158C72.3625 18.552 73.6225 19.632 74.9545 19.632C76.1425 19.632 77.1865 18.93 77.4385 17.778H79.3285C78.9505 19.812 77.0605 21.234 74.9185 21.234C72.1285 21.234 70.3645 19.092 70.3645 16.176C70.3645 13.296 72.1825 11.136 75.0445 11.136C77.2585 11.136 78.9505 12.702 79.2385 14.592ZM81.4632 8.832H83.3352V11.316H85.2432V12.738H83.3352V18.264C83.3352 19.254 83.4972 19.506 84.4332 19.506H85.2252V21H83.8572C81.8952 21 81.4632 20.514 81.4632 18.516V12.738H79.9872V11.316H81.4632V8.832ZM93.0378 19.632C92.4798 20.604 91.5438 21.234 90.0858 21.234C87.7998 21.234 86.9178 19.812 86.9178 17.472V11.316H88.7898V16.968C88.7898 18.372 89.0238 19.65 90.7158 19.65C92.2818 19.65 93.0558 18.48 93.0558 16.572V11.316H94.9278V21H93.0378V19.632ZM102.473 13.242C102.131 13.206 101.807 13.188 101.501 13.188C100.061 13.188 99.3049 13.89 99.3049 15.924V21H97.4329V11.316H99.2689V13.026C99.7729 11.928 100.745 11.298 101.951 11.28C102.113 11.28 102.311 11.28 102.473 11.298V13.242ZM110.403 18.156H112.293C111.843 19.758 110.403 21.234 107.937 21.234C104.805 21.234 103.113 18.948 103.113 16.14C103.113 13.134 105.129 11.136 107.883 11.136C110.871 11.136 112.617 13.584 112.419 16.734H105.039C105.219 18.516 106.353 19.632 107.865 19.632C109.215 19.632 110.007 19.074 110.403 18.156ZM105.075 15.258H110.475C110.421 13.818 109.413 12.666 107.865 12.666C106.407 12.666 105.327 13.422 105.075 15.258Z" fill="white"/>
</svg>
