<svg width="147" height="30" viewBox="0 0 147 30" fill="none" xmlns="http://www.w3.org/2000/svg">
<rect x="0.5" y="0.5" width="146" height="29" rx="4.5" fill="black"/>
<rect x="0.5" y="0.5" width="146" height="29" rx="4.5" stroke="black"/>
<path d="M13.535 21H11.483V7.95H13.535V21ZM22.3332 12.72C22.8912 11.766 23.8632 11.136 25.3752 11.136C27.7152 11.136 28.6152 12.648 28.6152 14.898V21H26.7432V15.402C26.7432 13.998 26.5092 12.702 24.7452 12.702C23.1252 12.702 22.3332 13.872 22.3332 15.798V21H20.4612V11.316H22.3332V12.72ZM37.5793 18.156H39.4693C39.0193 19.758 37.5793 21.234 35.1133 21.234C31.9813 21.234 30.2893 18.948 30.2893 16.14C30.2893 13.134 32.3053 11.136 35.0593 11.136C38.0473 11.136 39.7933 13.584 39.5953 16.734H32.2153C32.3953 18.516 33.5293 19.632 35.0413 19.632C36.3913 19.632 37.1833 19.074 37.5793 18.156ZM32.2513 15.258H37.6513C37.5973 13.818 36.5893 12.666 35.0413 12.666C33.5833 12.666 32.5033 13.422 32.2513 15.258ZM48.1438 18.156H50.0338C49.5838 19.758 48.1438 21.234 45.6778 21.234C42.5458 21.234 40.8538 18.948 40.8538 16.14C40.8538 13.134 42.8698 11.136 45.6238 11.136C48.6118 11.136 50.3578 13.584 50.1598 16.734H42.7798C42.9598 18.516 44.0938 19.632 45.6058 19.632C46.9558 19.632 47.7478 19.074 48.1438 18.156ZM42.8158 15.258H48.2158C48.1618 13.818 47.1538 12.666 45.6058 12.666C44.1478 12.666 43.0678 13.422 42.8158 15.258ZM58.6182 7.95H60.4902V21H58.6182V19.632C58.0242 20.622 57.0162 21.234 55.5942 21.234C53.3442 21.234 51.4182 19.344 51.4182 16.176C51.4182 13.026 53.3442 11.136 55.5942 11.136C57.0162 11.136 58.0242 11.748 58.6182 12.738V7.95ZM56.0262 12.702C54.4782 12.702 53.4162 13.998 53.4162 16.176C53.4162 18.354 54.4782 19.668 56.0262 19.668C57.4662 19.668 58.6902 18.57 58.6902 16.176C58.6902 13.782 57.4662 12.702 56.0262 12.702ZM66.6606 18.39C66.6606 16.032 69.4326 15.402 73.1946 15.006V14.808C73.1946 13.098 72.2946 12.522 71.1066 12.522C69.8106 12.522 69.0726 13.188 69.0006 14.376H67.1106C67.2726 12.324 68.9646 11.082 71.1786 11.082C73.6806 11.082 75.1206 12.288 75.0846 15.186C75.0846 15.42 75.0486 17.094 75.0486 17.508C75.0486 18.948 75.1386 20.136 75.3186 21H73.5186C73.4466 20.622 73.3926 20.334 73.3566 19.722C72.7806 20.694 71.6826 21.234 70.1166 21.234C68.1546 21.234 66.6606 20.154 66.6606 18.39ZM73.2846 16.392C70.2786 16.68 68.6946 17.094 68.6946 18.354C68.6946 19.236 69.3966 19.794 70.5306 19.794C72.0786 19.794 73.2846 19.02 73.2846 17.094V16.392ZM88.1495 7.95H90.0215V21H88.1495V19.632C87.5555 20.622 86.5475 21.234 85.1255 21.234C82.8755 21.234 80.9495 19.344 80.9495 16.176C80.9495 13.026 82.8755 11.136 85.1255 11.136C86.5475 11.136 87.5555 11.748 88.1495 12.738V7.95ZM85.5575 12.702C84.0095 12.702 82.9475 13.998 82.9475 16.176C82.9475 18.354 84.0095 19.668 85.5575 19.668C86.9975 19.668 88.2215 18.57 88.2215 16.176C88.2215 13.782 86.9975 12.702 85.5575 12.702ZM99.1731 18.156H101.063C100.613 19.758 99.1731 21.234 96.7071 21.234C93.5751 21.234 91.8831 18.948 91.8831 16.14C91.8831 13.134 93.8991 11.136 96.6531 11.136C99.6411 11.136 101.387 13.584 101.189 16.734H93.8091C93.9891 18.516 95.1231 19.632 96.6351 19.632C97.9851 19.632 98.7771 19.074 99.1731 18.156ZM93.8451 15.258H99.2451C99.1911 13.818 98.1831 12.666 96.6351 12.666C95.1771 12.666 94.0971 13.422 93.8451 15.258ZM108.569 14.016C108.299 13.026 107.471 12.63 106.373 12.63C105.455 12.63 104.465 13.008 104.465 13.8C104.465 14.52 104.933 14.826 105.815 15.006L107.201 15.276C109.037 15.636 110.639 16.266 110.639 18.156C110.639 20.118 108.803 21.234 106.571 21.234C104.123 21.234 102.629 19.812 102.395 17.994H104.303C104.555 19.092 105.275 19.74 106.625 19.74C107.831 19.74 108.767 19.236 108.767 18.372C108.767 17.472 107.921 17.112 106.913 16.914L105.455 16.626C103.997 16.338 102.629 15.69 102.629 13.872C102.629 12.162 104.429 11.118 106.553 11.118C108.497 11.118 110.063 12.144 110.423 14.016H108.569ZM114.39 7.95V10.02H112.518V7.95H114.39ZM114.39 11.316V21H112.518V11.316H114.39ZM123.356 11.316H125.228V19.866C125.228 21.648 124.85 22.602 124.184 23.268C123.446 24.042 122.276 24.438 120.8 24.438C118.64 24.438 117.056 23.502 116.75 21.468H118.676C118.874 22.35 119.432 22.872 120.836 22.872C121.754 22.872 122.384 22.62 122.78 22.17C123.158 21.756 123.356 21.252 123.356 20.262V19.236C122.762 20.226 121.79 20.838 120.368 20.838C118.118 20.838 116.246 19.056 116.246 15.978C116.246 12.918 118.118 11.136 120.368 11.136C121.79 11.136 122.762 11.748 123.356 12.738V11.316ZM120.8 12.684C119.252 12.684 118.244 13.908 118.244 15.978C118.244 18.084 119.252 19.308 120.8 19.308C122.24 19.308 123.428 18.3 123.428 15.978C123.428 13.674 122.24 12.684 120.8 12.684ZM129.595 12.72C130.153 11.766 131.125 11.136 132.637 11.136C134.977 11.136 135.877 12.648 135.877 14.898V21H134.005V15.402C134.005 13.998 133.771 12.702 132.007 12.702C130.387 12.702 129.595 13.872 129.595 15.798V21H127.723V11.316H129.595V12.72Z" fill="white"/>
</svg>
