<svg width="100" height="30" viewBox="0 0 100 30" fill="none" xmlns="http://www.w3.org/2000/svg">
<g clip-path="url(#clip0_4_92)">
<mask id="mask0_4_92" style="mask-type:luminance" maskUnits="userSpaceOnUse" x="0" y="0" width="100" height="30">
<path d="M100 0H0V30H100V0Z" fill="white"/>
</mask>
<g mask="url(#mask0_4_92)">
<path d="M95 0.5H5C2.51472 0.5 0.5 2.51472 0.5 5V25C0.5 27.4853 2.51472 29.5 5 29.5H95C97.4853 29.5 99.5 27.4853 99.5 25V5C99.5 2.51472 97.4853 0.5 95 0.5Z" fill="black"/>
<path d="M95 0.5H5C2.51472 0.5 0.5 2.51472 0.5 5V25C0.5 27.4853 2.51472 29.5 5 29.5H95C97.4853 29.5 99.5 27.4853 99.5 25V5C99.5 2.51472 97.4853 0.5 95 0.5Z" stroke="#D4D4D4"/>
<path d="M14.3297 15.6239C12.6817 15.2879 11.1137 14.3599 11.1137 12.4079C11.1137 10.2159 13.4017 9.19189 15.3537 9.19189C17.4817 9.19189 19.3217 10.1679 19.7697 12.5039H18.0097C17.6417 11.1279 16.3777 10.7119 15.2737 10.7119C14.4257 10.7119 12.9697 11.1119 12.9697 12.3279C12.9697 13.2879 13.7377 13.7839 14.7297 13.9919L16.1057 14.2799C17.9617 14.6639 19.9937 15.3679 19.9937 17.7039C19.9937 20.0079 17.7857 21.2079 15.5297 21.2079C12.8417 21.2079 11.0337 19.7199 10.7617 17.2879H12.5537C12.8897 18.8719 13.9617 19.6879 15.5937 19.6879C17.0977 19.6879 18.1537 18.9679 18.1537 17.8479C18.1537 16.6479 17.0017 16.1679 15.7537 15.9119L14.3297 15.6239ZM23.4746 9.39989V16.3599C23.4746 18.5519 24.1626 19.6719 26.3386 19.6719C28.5146 19.6719 29.2186 18.4399 29.2186 16.2319V9.39989H31.0426V16.1359C31.0426 19.6559 29.7146 21.2079 26.3386 21.2079C23.0586 21.2079 21.6506 19.8959 21.6506 16.2319V9.39989H23.4746ZM33.4047 9.39989H37.6767C39.8047 9.39989 41.7887 9.95989 41.7887 12.3119C41.7887 13.3999 41.2607 14.3919 40.5087 14.8239C41.5487 15.2879 42.2527 16.0879 42.2527 17.5759C42.2527 20.0399 40.3647 20.9999 38.0127 20.9999H33.4047V9.39989ZM35.2287 14.3119H37.9007C39.1487 14.3119 39.9487 13.7839 39.9487 12.5359C39.9487 11.4319 39.1167 10.9039 37.9007 10.9039H35.2287V14.3119ZM35.2287 19.4959H38.0607C39.6127 19.4959 40.3807 18.8079 40.3807 17.5759C40.3807 16.2959 39.6127 15.7199 37.9647 15.7199H35.2287V19.4959ZM49.0035 20.9999L45.9155 11.2399V20.9999H44.1235V9.39989H47.0515L49.9475 18.8719L52.8435 9.39989H55.7715V20.9999H53.9795V11.2399L50.8915 20.9999H49.0035ZM60.135 20.9999H58.311V9.39989H60.135V20.9999ZM65.1816 10.9519H61.4536V9.39989H70.7176V10.9519H67.0056V20.9999H65.1816V10.9519Z" fill="#D4D4D4"/>
<path d="M19.7697 12.5039V12.7039H20.0117L19.9661 12.4662L19.7697 12.5039ZM18.0097 12.5039L17.8165 12.5556L17.8562 12.7039H18.0097V12.5039ZM10.7617 17.2879V17.0879H10.5381L10.5629 17.3101L10.7617 17.2879ZM12.5537 17.2879L12.7493 17.2464L12.7157 17.0879H12.5537V17.2879ZM14.3697 15.4279C13.5654 15.264 12.7977 14.9585 12.2346 14.4707C11.6779 13.9884 11.3137 13.3225 11.3137 12.4079H10.9137C10.9137 13.4453 11.3335 14.2194 11.9728 14.7731C12.6057 15.3213 13.446 15.6478 14.2897 15.8199L14.3697 15.4279ZM11.3137 12.4079C11.3137 11.3934 11.8388 10.6469 12.6106 10.1456C13.3881 9.64073 14.4083 9.39194 15.3537 9.39194V8.99194C14.3471 8.99194 13.2473 9.25515 12.3928 9.81021C11.5326 10.3689 10.9137 11.2304 10.9137 12.4079H11.3137ZM15.3537 9.39194C16.389 9.39194 17.3384 9.62952 18.0786 10.1369C18.8147 10.6414 19.3586 11.4223 19.5733 12.5416L19.9661 12.4662C19.7328 11.2495 19.1327 10.3744 18.3048 9.80697C17.481 9.24236 16.4464 8.99194 15.3537 8.99194V9.39194ZM19.7697 12.3039H18.0097V12.7039H19.7697V12.3039ZM18.2029 12.4522C17.7998 10.9449 16.413 10.5119 15.2737 10.5119V10.9119C16.3424 10.9119 17.4836 11.3109 17.8165 12.5556L18.2029 12.4522ZM15.2737 10.5119C14.825 10.5119 14.2148 10.6165 13.7092 10.8876C13.1987 11.1614 12.7697 11.6221 12.7697 12.3279H13.1697C13.1697 11.8177 13.4687 11.4704 13.8982 11.2402C14.3326 11.0073 14.8744 10.9119 15.2737 10.9119V10.5119ZM12.7697 12.3279C12.7697 12.8694 12.9897 13.288 13.3478 13.594C13.699 13.894 14.1751 14.08 14.6887 14.1876L14.7707 13.7962C14.2923 13.6958 13.8884 13.5298 13.6076 13.2898C13.3337 13.0558 13.1697 12.7464 13.1697 12.3279H12.7697ZM14.6887 14.1876L16.0647 14.4757L16.1467 14.0841L14.7707 13.7962L14.6887 14.1876ZM16.0647 14.4757C16.989 14.6669 17.9269 14.9328 18.6313 15.424C19.3228 15.9061 19.7937 16.6073 19.7937 17.7039H20.1937C20.1937 16.4645 19.6486 15.6457 18.8601 15.0958C18.0845 14.555 17.0784 14.2769 16.1467 14.0841L16.0647 14.4757ZM19.7937 17.7039C19.7937 18.7826 19.2805 19.6009 18.4925 20.1564C17.6989 20.7159 16.6255 21.0079 15.5297 21.0079V21.4079C16.6899 21.4079 17.8485 21.0999 18.7229 20.4834C19.6029 19.8629 20.1937 18.9292 20.1937 17.7039H19.7937ZM15.5297 21.0079C14.2223 21.0079 13.1461 20.6463 12.3667 20.0054C11.589 19.3658 11.0913 18.4353 10.9605 17.2657L10.5629 17.3101C10.7041 18.5725 11.2464 19.602 12.1127 20.3144C12.9773 21.0255 14.1491 21.4079 15.5297 21.4079V21.0079ZM10.7617 17.4879H12.5537V17.0879H10.7617V17.4879ZM12.3581 17.3294C12.5338 18.1577 12.9064 18.8029 13.4645 19.2394C14.0218 19.6753 14.7445 19.8879 15.5937 19.8879V19.4879C14.8109 19.4879 14.1816 19.2925 13.7109 18.9244C13.241 18.5569 12.9096 18.0021 12.7493 17.2464L12.3581 17.3294ZM15.5937 19.8879C16.3749 19.8879 17.0588 19.7012 17.5533 19.3511C18.0529 18.9974 18.3537 18.479 18.3537 17.8479H17.9537C17.9537 18.3368 17.7265 18.7384 17.3221 19.0247C16.9126 19.3146 16.3165 19.4879 15.5937 19.4879V19.8879ZM18.3537 17.8479C18.3537 17.1693 18.0218 16.6922 17.5342 16.3605C17.0566 16.0357 16.4249 15.8454 15.7939 15.716L15.7135 16.1078C16.3305 16.2344 16.8988 16.4121 17.3092 16.6913C17.7096 16.9636 17.9537 17.3265 17.9537 17.8479H18.3537ZM15.7939 15.716L14.3697 15.4279L14.2897 15.8199L15.7135 16.1078L15.7939 15.716ZM23.4746 9.39994H23.6746V9.19994H23.4746V9.39994ZM29.2186 9.39994V9.19994H29.0186V9.39994H29.2186ZM31.0426 9.39994H31.2426V9.19994H31.0426V9.39994ZM21.6506 9.39994V9.19994H21.4506V9.39994H21.6506ZM23.2746 9.39994V16.3599H23.6746V9.39994H23.2746ZM23.2746 16.3599C23.2746 17.4678 23.4465 18.354 23.9345 18.963C24.4312 19.5828 25.2183 19.8719 26.3386 19.8719V19.4719C25.2829 19.4719 24.6379 19.201 24.2466 18.7128C23.8467 18.2138 23.6746 17.444 23.6746 16.3599H23.2746ZM26.3386 19.8719C27.4648 19.8719 28.2549 19.5513 28.7533 18.9016C29.2422 18.2642 29.4186 17.3489 29.4186 16.2319H29.0186C29.0186 17.3229 28.8429 18.1276 28.4359 18.6582C28.0383 19.1765 27.3883 19.4719 26.3386 19.4719V19.8719ZM29.4186 16.2319V9.39994H29.0186V16.2319H29.4186ZM29.2186 9.59994H31.0426V9.19994H29.2186V9.59994ZM30.8426 9.39994V16.1359H31.2426V9.39994H30.8426ZM30.8426 16.1359C30.8426 17.8781 30.5125 19.0843 29.8087 19.8572C29.1089 20.6257 28.0003 21.0079 26.3386 21.0079V21.4079C28.0529 21.4079 29.2962 21.0141 30.1045 20.1266C30.9086 19.2435 31.2426 17.9137 31.2426 16.1359H30.8426ZM26.3386 21.0079C24.7184 21.0079 23.6139 20.6827 22.9082 19.9547C22.2007 19.2249 21.8506 18.0461 21.8506 16.2319H21.4506C21.4506 18.0817 21.8045 19.3909 22.621 20.2331C23.4392 21.0771 24.6787 21.4079 26.3386 21.4079V21.0079ZM21.8506 16.2319V9.39994H21.4506V16.2319H21.8506ZM21.6506 9.59994H23.4746V9.19994H21.6506V9.59994ZM33.4047 9.39994V9.19994H33.2047V9.39994H33.4047ZM40.5087 14.8239L40.4091 14.6505L40.0681 14.8463L40.4272 15.0065L40.5087 14.8239ZM33.4047 20.9999H33.2047V21.1999H33.4047V20.9999ZM35.2287 14.3119H35.0287V14.5119H35.2287V14.3119ZM35.2287 10.9039V10.7039H35.0287V10.9039H35.2287ZM35.2287 19.4959H35.0287V19.6959H35.2287V19.4959ZM35.2287 15.7199V15.5199H35.0287V15.7199H35.2287ZM33.4047 9.59994H37.6767V9.19994H33.4047V9.59994ZM37.6767 9.59994C38.7303 9.59994 39.7156 9.73988 40.4317 10.1477C40.7863 10.3497 41.0729 10.6162 41.2719 10.964C41.471 11.312 41.5887 11.7526 41.5887 12.3119H41.9887C41.9887 11.6952 41.8584 11.1838 41.6191 10.7653C41.3795 10.3466 41.0371 10.0321 40.6297 9.80015C39.8218 9.34 38.7511 9.19994 37.6767 9.19994V9.59994ZM41.5887 12.3119C41.5887 13.3438 41.0866 14.2613 40.4091 14.6505L40.6083 14.9973C41.4348 14.5225 41.9887 13.456 41.9887 12.3119H41.5887ZM40.4272 15.0065C40.9237 15.228 41.3263 15.5236 41.606 15.9294C41.885 16.3341 42.0527 16.8647 42.0527 17.5759H42.4527C42.4527 16.7991 42.2684 16.1857 41.9354 15.7024C41.6031 15.2202 41.1337 14.8838 40.5902 14.6413L40.4272 15.0065ZM42.0527 17.5759C42.0527 18.7493 41.6072 19.5421 40.8983 20.0492C40.1791 20.5638 39.1662 20.7999 38.0127 20.7999V21.1999C39.2112 21.1999 40.3183 20.956 41.1311 20.3746C41.9542 19.7857 42.4527 18.8665 42.4527 17.5759H42.0527ZM38.0127 20.7999H33.4047V21.1999H38.0127V20.7999ZM33.6047 20.9999V9.39994H33.2047V20.9999H33.6047ZM35.2287 14.5119H37.9007V14.1119H35.2287V14.5119ZM37.9007 14.5119C38.5483 14.5119 39.1128 14.3756 39.5185 14.0474C39.9318 13.713 40.1487 13.2055 40.1487 12.5359H39.7487C39.7487 13.1143 39.5656 13.4948 39.2669 13.7364C38.9606 13.9842 38.5011 14.1119 37.9007 14.1119V14.5119ZM40.1487 12.5359C40.1487 11.9274 39.916 11.4574 39.5007 11.1459C39.0938 10.8408 38.5337 10.7039 37.9007 10.7039V11.1039C38.4837 11.1039 38.9476 11.231 39.2607 11.4659C39.5654 11.6944 39.7487 12.0404 39.7487 12.5359H40.1487ZM37.9007 10.7039H35.2287V11.1039H37.9007V10.7039ZM35.0287 10.9039V14.3119H35.4287V10.9039H35.0287ZM35.2287 19.6959H38.0607V19.2959H35.2287V19.6959ZM38.0607 19.6959C38.8623 19.6959 39.496 19.5187 39.9317 19.1507C40.3734 18.7777 40.5807 18.2353 40.5807 17.5759H40.1807C40.1807 18.1485 40.004 18.5661 39.6737 18.8451C39.3374 19.1291 38.8111 19.2959 38.0607 19.2959V19.6959ZM40.5807 17.5759C40.5807 16.8937 40.3737 16.3615 39.9121 16.009C39.4623 15.6654 38.8049 15.5199 37.9647 15.5199V15.9199C38.7725 15.9199 39.3231 16.0624 39.6693 16.3268C40.0037 16.5823 40.1807 16.9781 40.1807 17.5759H40.5807ZM37.9647 15.5199H35.2287V15.9199H37.9647V15.5199ZM35.0287 15.7199V19.4959H35.4287V15.7199H35.0287ZM49.0035 20.9999L48.8128 21.0602L48.857 21.1999H49.0035V20.9999ZM45.9155 11.2399L46.1061 11.1796L45.7155 11.2399H45.9155ZM45.9155 20.9999V21.1999H46.1155V20.9999H45.9155ZM44.1235 20.9999H43.9235V21.1999H44.1235V20.9999ZM44.1235 9.39994V9.19994H43.9235V9.39994H44.1235ZM47.0515 9.39994L47.2427 9.34146L47.1994 9.19994H47.0515V9.39994ZM49.9475 18.8719L49.7562 18.9304L49.9475 19.5559L50.1387 18.9304L49.9475 18.8719ZM52.8435 9.39994V9.19994H52.6955L52.6522 9.34146L52.8435 9.39994ZM55.7715 9.39994H55.9715V9.19994H55.7715V9.39994ZM55.7715 20.9999V21.1999H55.9715V20.9999H55.7715ZM53.9795 20.9999H53.7795V21.1999H53.9795V20.9999ZM53.9795 11.2399H54.1795L53.7888 11.1796L53.9795 11.2399ZM50.8915 20.9999V21.1999H51.0379L51.0821 21.0602L50.8915 20.9999ZM49.1941 20.9396L46.1061 11.1796L45.7248 11.3002L48.8128 21.0602L49.1941 20.9396ZM45.7155 11.2399V20.9999H46.1155V11.2399H45.7155ZM45.9155 20.7999H44.1235V21.1999H45.9155V20.7999ZM44.3235 20.9999V9.39994H43.9235V20.9999H44.3235ZM44.1235 9.59994H47.0515V9.19994H44.1235V9.59994ZM46.8602 9.45842L49.7562 18.9304L50.1387 18.8134L47.2427 9.34146L46.8602 9.45842ZM50.1387 18.9304L53.0347 9.45842L52.6522 9.34146L49.7562 18.8134L50.1387 18.9304ZM52.8435 9.59994H55.7715V9.19994H52.8435V9.59994ZM55.5715 9.39994V20.9999H55.9715V9.39994H55.5715ZM55.7715 20.7999H53.9795V21.1999H55.7715V20.7999ZM54.1795 20.9999V11.2399H53.7795V20.9999H54.1795ZM53.7888 11.1796L50.7008 20.9396L51.0821 21.0602L54.1701 11.3002L53.7888 11.1796ZM50.8915 20.7999H49.0035V21.1999H50.8915V20.7999ZM60.135 20.9999V21.1999H60.335V20.9999H60.135ZM58.311 20.9999H58.111V21.1999H58.311V20.9999ZM58.311 9.39994V9.19994H58.111V9.39994H58.311ZM60.135 9.39994H60.335V9.19994H60.135V9.39994ZM60.135 20.7999H58.311V21.1999H60.135V20.7999ZM58.511 20.9999V9.39994H58.111V20.9999H58.511ZM58.311 9.59994H60.135V9.19994H58.311V9.59994ZM59.935 9.39994V20.9999H60.335V9.39994H59.935ZM65.1816 10.9519H65.3816V10.7519H65.1816V10.9519ZM61.4536 10.9519H61.2536V11.1519H61.4536V10.9519ZM61.4536 9.39994V9.19994H61.2536V9.39994H61.4536ZM70.7176 9.39994H70.9176V9.19994H70.7176V9.39994ZM70.7176 10.9519V11.1519H70.9176V10.9519H70.7176ZM67.0056 10.9519V10.7519H66.8056V10.9519H67.0056ZM67.0056 20.9999V21.1999H67.2056V20.9999H67.0056ZM65.1816 20.9999H64.9816V21.1999H65.1816V20.9999ZM65.1816 10.7519H61.4536V11.1519H65.1816V10.7519ZM61.6536 10.9519V9.39994H61.2536V10.9519H61.6536ZM61.4536 9.59994H70.7176V9.19994H61.4536V9.59994ZM70.5176 9.39994V10.9519H70.9176V9.39994H70.5176ZM70.7176 10.7519H67.0056V11.1519H70.7176V10.7519ZM66.8056 10.9519V20.9999H67.2056V10.9519H66.8056ZM67.0056 20.7999H65.1816V21.1999H67.0056V20.7999ZM65.3816 20.9999V10.9519H64.9816V20.9999H65.3816Z" fill="#D4D4D4"/>
<path d="M80.0817 11.4997H85.6736L78.0488 19.1244L78.8737 19.9493L86.4984 12.3245V17.9163H87.6651V10.333H80.0817V11.4997Z" fill="#D4D4D4" stroke="#D4D4D4" stroke-width="0.4"/>
</g>
</g>
<defs>
<clipPath id="clip0_4_92">
<rect width="100" height="30" fill="white"/>
</clipPath>
</defs>
</svg>
