<svg width="140" height="30" viewBox="0 0 140 30" fill="none" xmlns="http://www.w3.org/2000/svg">
<rect x="0.5" y="0.5" width="139" height="29" rx="4.5" fill="#D4D4D4"/>
<rect x="0.5" y="0.5" width="139" height="29" rx="4.5" stroke="#D4D4D4"/>
<path d="M13.1468 9.4V16.36C13.1468 18.552 13.8348 19.672 16.0108 19.672C18.1868 19.672 18.8908 18.44 18.8908 16.232V9.4H20.7148V16.136C20.7148 19.656 19.3868 21.208 16.0108 21.208C12.7308 21.208 11.3228 19.896 11.3228 16.232V9.4H13.1468ZM26.8049 9.4C29.4929 9.4 31.6689 9.928 31.6689 12.968C31.6689 15.88 29.6049 16.504 26.8049 16.504H24.9009V21H23.0769V9.4H26.8049ZM24.9009 10.904V14.968H26.9169C28.5329 14.968 29.7809 14.776 29.7809 12.984C29.7809 11.096 28.4369 10.904 26.8689 10.904H24.9009ZM35.0415 19.448H41.0255V21H33.2175V9.4H35.0415V19.448ZM46.4904 21.208C43.1144 21.208 41.0024 18.728 41.0024 15.192C41.0024 11.656 43.1144 9.192 46.4904 9.192C49.8504 9.192 51.9624 11.656 51.9624 15.192C51.9624 18.728 49.8504 21.208 46.4904 21.208ZM46.4904 19.688C48.5064 19.688 50.0904 18.104 50.0904 15.192C50.0904 12.28 48.5064 10.712 46.4904 10.712C44.4584 10.712 42.8744 12.28 42.8744 15.192C42.8744 18.104 44.4584 19.688 46.4904 19.688ZM56.6165 9.4H58.6325L63.0005 21H61.0165L60.1045 18.456H55.0645L54.1685 21H52.3125L56.6165 9.4ZM55.6085 16.92H59.5445L57.5605 11.384L55.6085 16.92ZM67.448 9.4C71.128 9.4 73.848 10.728 73.848 15.192C73.848 19.672 71.128 21 67.448 21H64.28V9.4H67.448ZM67.368 10.904H66.104V19.496H67.368C69.688 19.496 71.96 19.016 71.96 15.192C71.96 11.384 69.688 10.904 67.368 10.904ZM79.6238 9.4H87.4318V10.952H81.4478V14.264H87.0798V15.8H81.4478V21H79.6238V9.4ZM90.5728 21H88.7488V9.4H90.5728V21ZM94.9634 19.448H100.947V21H93.1394V9.4H94.9634V19.448ZM102.233 9.4H110.265V10.952H104.057V14.264H109.913V15.8H104.057V19.448H110.265V21H102.233V9.4Z" fill="black"/>
<path d="M122.417 11.4001V17.5752H123.583V11.4001L125.504 13.321L126.329 12.4961L123 9.16699L119.671 12.4961L120.496 13.321L122.417 11.4001ZM117.75 19.3252V20.4919H128.25V19.3252H117.75Z" fill="black"/>
</svg>
