<svg width="92" height="22" viewBox="0 0 92 22" fill="none" xmlns="http://www.w3.org/2000/svg">
<g clip-path="url(#clip0_4_2)">
<mask id="mask0_4_2" style="mask-type:luminance" maskUnits="userSpaceOnUse" x="0" y="0" width="92" height="22">
<path d="M92 0H0V22H92V0Z" fill="white"/>
</mask>
<g mask="url(#mask0_4_2)">
<path d="M2.0957 3.3999L5.1837 12.9679L8.1917 3.3999H10.1117L6.1597 14.9999H4.0957L0.0957031 3.3999H2.0957ZM13.3068 14.9999H11.4828V3.3999H13.3068V14.9999ZM15.8735 3.3999H23.9055V4.9519H17.6975V8.2639H23.5535V9.7999H17.6975V13.4479H23.9055V14.9999H15.8735V3.3999ZM34.9176 12.7759L36.8696 3.3999H38.7896L35.9896 14.9999H33.7976L31.7016 5.7679L29.6376 14.9999H27.4456L24.5976 3.3999H26.5976L28.6456 12.7759L30.6456 3.3999H32.7736L34.9176 12.7759ZM47.0381 3.3999H49.0541L53.4221 14.9999H51.4381L50.5261 12.4559H45.4861L44.5901 14.9999H42.7341L47.0381 3.3999ZM46.0301 10.9199H49.9661L47.9821 5.3839L46.0301 10.9199ZM56.5256 13.4479H62.5096V14.9999H54.7016V3.3999H56.5256V13.4479ZM65.6193 13.4479H71.6033V14.9999H63.7953V3.3999H65.6193V13.4479Z" fill="black"/>
<path d="M2.09595 3.39995L2.28628 3.33852L2.24156 3.19995H2.09595V3.39995ZM5.18395 12.968L4.99362 13.0294L5.18645 13.6269L5.37474 13.028L5.18395 12.968ZM8.19195 3.39995V3.19995H8.04518L8.00116 3.33997L8.19195 3.39995ZM10.112 3.39995L10.3013 3.46445L10.3914 3.19995H10.112V3.39995ZM6.15995 15V15.2H6.3031L6.34927 15.0645L6.15995 15ZM4.09595 15L3.90688 15.0652L3.95336 15.2H4.09595V15ZM0.0959514 3.39995V3.19995H-0.18457L-0.0931232 3.46515L0.0959514 3.39995ZM1.90562 3.46138L4.99362 13.0294L5.37428 12.9066L2.28628 3.33852L1.90562 3.46138ZM5.37474 13.028L8.38274 3.45993L8.00116 3.33997L4.99316 12.908L5.37474 13.028ZM8.19195 3.59995H10.112V3.19995H8.19195V3.59995ZM9.92264 3.33545L5.97064 14.9355L6.34927 15.0645L10.3013 3.46445L9.92264 3.33545ZM6.15995 14.8H4.09595V15.2H6.15995V14.8ZM4.28502 14.9348L0.285027 3.33475L-0.0931232 3.46515L3.90688 15.0652L4.28502 14.9348ZM0.0959514 3.59995H2.09595V3.19995H0.0959514V3.59995ZM13.3071 15V15.2H13.5071V15H13.3071ZM11.4831 15H11.2831V15.2H11.4831V15ZM11.4831 3.39995V3.19995H11.2831V3.39995H11.4831ZM13.3071 3.39995H13.5071V3.19995H13.3071V3.39995ZM13.3071 14.8H11.4831V15.2H13.3071V14.8ZM11.6831 15V3.39995H11.2831V15H11.6831ZM11.4831 3.59995H13.3071V3.19995H11.4831V3.59995ZM13.1071 3.39995V15H13.5071V3.39995H13.1071ZM15.8738 3.39995V3.19995H15.6738V3.39995H15.8738ZM23.9058 3.39995H24.1058V3.19995H23.9058V3.39995ZM23.9058 4.95195V5.15195H24.1058V4.95195H23.9058ZM17.6978 4.95195V4.75195H17.4978V4.95195H17.6978ZM17.6978 8.26395H17.4978V8.46395H17.6978V8.26395ZM23.5538 8.26395H23.7538V8.06395H23.5538V8.26395ZM23.5538 9.79995V9.99995H23.7538V9.79995H23.5538ZM17.6978 9.79995V9.59995H17.4978V9.79995H17.6978ZM17.6978 13.448H17.4978V13.648H17.6978V13.448ZM23.9058 13.448H24.1058V13.248H23.9058V13.448ZM23.9058 15V15.2H24.1058V15H23.9058ZM15.8738 15H15.6738V15.2H15.8738V15ZM15.8738 3.59995H23.9058V3.19995H15.8738V3.59995ZM23.7058 3.39995V4.95195H24.1058V3.39995H23.7058ZM23.9058 4.75195H17.6978V5.15195H23.9058V4.75195ZM17.4978 4.95195V8.26395H17.8978V4.95195H17.4978ZM17.6978 8.46395H23.5538V8.06395H17.6978V8.46395ZM23.3538 8.26395V9.79995H23.7538V8.26395H23.3538ZM23.5538 9.59995H17.6978V9.99995H23.5538V9.59995ZM17.4978 9.79995V13.448H17.8978V9.79995H17.4978ZM17.6978 13.648H23.9058V13.248H17.6978V13.648ZM23.7058 13.448V15H24.1058V13.448H23.7058ZM23.9058 14.8H15.8738V15.2H23.9058V14.8ZM16.0738 15V3.39995H15.6738V15H16.0738ZM34.9179 12.776L34.7229 12.8206L35.1137 12.8168L34.9179 12.776ZM36.8699 3.39995V3.19995H36.7071L36.674 3.35919L36.8699 3.39995ZM38.7899 3.39995L38.9842 3.44688L39.0438 3.19995H38.7899V3.39995ZM35.9898 15V15.2H36.1473L36.1842 15.0469L35.9898 15ZM33.7979 15L33.6027 15.0443L33.6381 15.2H33.7979V15ZM31.7019 5.76795L31.8969 5.72367L31.5067 5.72431L31.7019 5.76795ZM29.6379 15V15.2H29.7981L29.8331 15.0436L29.6379 15ZM27.4459 15L27.2516 15.0477L27.289 15.2H27.4459V15ZM24.5979 3.39995V3.19995H24.3428L24.4036 3.44764L24.5979 3.39995ZM26.5979 3.39995L26.7933 3.35727L26.7589 3.19995H26.5979V3.39995ZM28.6459 12.776L28.4505 12.8187L28.8415 12.8177L28.6459 12.776ZM30.6459 3.39995V3.19995H30.484L30.4503 3.35823L30.6459 3.39995ZM32.7738 3.39995L32.9688 3.35537L32.9333 3.19995H32.7738V3.39995ZM35.1137 12.8168L37.0657 3.44071L36.674 3.35919L34.722 12.7352L35.1137 12.8168ZM36.8699 3.59995H38.7899V3.19995H36.8699V3.59995ZM38.5955 3.35302L35.7955 14.9531L36.1842 15.0469L38.9842 3.44688L38.5955 3.35302ZM35.9898 14.8H33.7979V15.2H35.9898V14.8ZM33.9929 14.9557L31.8969 5.72367L31.5068 5.81223L33.6027 15.0443L33.9929 14.9557ZM31.5067 5.72431L29.4427 14.9564L29.8331 15.0436L31.8971 5.81159L31.5067 5.72431ZM29.6379 14.8H27.4459V15.2H29.6379V14.8ZM27.6401 14.9523L24.7921 3.35226L24.4036 3.44764L27.2516 15.0477L27.6401 14.9523ZM24.5979 3.59995H26.5979V3.19995H24.5979V3.59995ZM26.4025 3.44263L28.4505 12.8187L28.8413 12.7333L26.7933 3.35727L26.4025 3.44263ZM28.8415 12.8177L30.8415 3.44167L30.4503 3.35823L28.4503 12.7343L28.8415 12.8177ZM30.6459 3.59995H32.7738V3.19995H30.6459V3.59995ZM32.5788 3.44453L34.7229 12.8206L35.1128 12.7314L32.9688 3.35537L32.5788 3.44453ZM47.0383 3.39995V3.19995H46.8993L46.8508 3.33038L47.0383 3.39995ZM49.0544 3.39995L49.2415 3.32947L49.1927 3.19995H49.0544V3.39995ZM53.4224 15V15.2H53.7113L53.6095 14.9295L53.4224 15ZM51.4384 15L51.25 15.0675L51.2976 15.2H51.4384V15ZM50.5264 12.456L50.7146 12.3885L50.667 12.256H50.5264V12.456ZM45.4864 12.456V12.256H45.3447L45.2976 12.3896L45.4864 12.456ZM44.5904 15V15.2H44.7319L44.7789 15.0664L44.5904 15ZM42.7344 15L42.5469 14.9304L42.4468 15.2H42.7344V15ZM46.0303 10.92L45.8418 10.8535L45.7477 11.12H46.0303V10.92ZM49.9664 10.92V11.12H50.2505L50.1545 10.8525L49.9664 10.92ZM47.9823 5.38395L48.1706 5.31648L47.9808 4.78685L47.7938 5.31744L47.9823 5.38395ZM47.0383 3.59995H49.0544V3.19995H47.0383V3.59995ZM48.8671 3.47043L53.2351 15.0705L53.6095 14.9295L49.2415 3.32947L48.8671 3.47043ZM53.4224 14.8H51.4384V15.2H53.4224V14.8ZM51.6265 14.9325L50.7146 12.3885L50.3381 12.5235L51.25 15.0675L51.6265 14.9325ZM50.5264 12.256H45.4864V12.656H50.5264V12.256ZM45.2976 12.3896L44.4016 14.9336L44.7789 15.0664L45.6749 12.5224L45.2976 12.3896ZM44.5904 14.8H42.7344V15.2H44.5904V14.8ZM42.9219 15.0696L47.2258 3.46952L46.8508 3.33038L42.5469 14.9304L42.9219 15.0696ZM46.0303 11.12H49.9664V10.72H46.0303V11.12ZM50.1545 10.8525L48.1706 5.31648L47.7941 5.45142L49.778 10.9875L50.1545 10.8525ZM47.7938 5.31744L45.8418 10.8535L46.219 10.9865L48.171 5.45046L47.7938 5.31744ZM56.5259 13.448H56.3259V13.648H56.5259V13.448ZM62.5098 13.448H62.7099V13.248H62.5098V13.448ZM62.5098 15V15.2H62.7099V15H62.5098ZM54.7019 15H54.5019V15.2H54.7019V15ZM54.7019 3.39995V3.19995H54.5019V3.39995H54.7019ZM56.5259 3.39995H56.7258V3.19995H56.5259V3.39995ZM56.5259 13.648H62.5098V13.248H56.5259V13.648ZM62.3098 13.448V15H62.7099V13.448H62.3098ZM62.5098 14.8H54.7019V15.2H62.5098V14.8ZM54.9019 15V3.39995H54.5019V15H54.9019ZM54.7019 3.59995H56.5259V3.19995H54.7019V3.59995ZM56.3259 3.39995V13.448H56.7258V3.39995H56.3259ZM65.6196 13.448H65.4196V13.648H65.6196V13.448ZM71.6036 13.448H71.8036V13.248H71.6036V13.448ZM71.6036 15V15.2H71.8036V15H71.6036ZM63.7956 15H63.5956V15.2H63.7956V15ZM63.7956 3.39995V3.19995H63.5956V3.39995H63.7956ZM65.6196 3.39995H65.8196V3.19995H65.6196V3.39995ZM65.6196 13.648H71.6036V13.248H65.6196V13.648ZM71.4036 13.448V15H71.8036V13.448H71.4036ZM71.6036 14.8H63.7956V15.2H71.6036V14.8ZM63.9956 15V3.39995H63.5956V15H63.9956ZM63.7956 3.59995H65.6196V3.19995H63.7956V3.59995ZM65.4196 3.39995V13.448H65.8196V3.39995H65.4196Z" fill="black"/>
<path d="M81.3734 6.25H87.3647L79.1953 14.4194L80.0791 15.3031L88.2484 7.13375V13.125H89.4984V5H81.3734V6.25Z" fill="black" stroke="black" stroke-width="0.4"/>
</g>
</g>
<defs>
<clipPath id="clip0_4_2">
<rect width="92" height="22" fill="white"/>
</clipPath>
</defs>
</svg>
