<svg width="92" height="20" viewBox="0 0 92 20" fill="none" xmlns="http://www.w3.org/2000/svg">
<path d="M2.096 3.4L5.184 12.968L8.192 3.4H10.112L6.16 15H4.096L0.096 3.4H2.096ZM13.3071 15H11.4831V3.4H13.3071V15ZM15.8738 3.4H23.9058V4.952H17.6978V8.264H23.5538V9.8H17.6978V13.448H23.9058V15H15.8738V3.4ZM34.9179 12.776L36.8699 3.4H38.7899L35.9899 15H33.7979L31.7019 5.768L29.6379 15H27.4459L24.5979 3.4H26.5979L28.6459 12.776L30.6459 3.4H32.7739L34.9179 12.776ZM47.0384 3.4H49.0544L53.4224 15H51.4384L50.5264 12.456H45.4864L44.5904 15H42.7344L47.0384 3.4ZM46.0304 10.92H49.9664L47.9824 5.384L46.0304 10.92ZM56.5259 13.448H62.5099V15H54.7019V3.4H56.5259V13.448ZM65.6196 13.448H71.6036V15H63.7956V3.4H65.6196V13.448Z" fill="black"/>
<path d="M81.3734 6.25H87.3647L79.1953 14.4194L80.0791 15.3031L88.2484 7.13375V13.125H89.4984V5H81.3734V6.25Z" fill="black"/>
</svg>
